<?xml version="1.0" encoding="utf-8"?>
<!-- Generator: Adobe Illustrator 16.0.2, SVG Export Plug-In . SVG Version: 6.00 Build 0)  -->
<!DOCTYPE svg PUBLIC "-//W3C//DTD SVG 1.1//EN" "http://www.w3.org/Graphics/SVG/1.1/DTD/svg11.dtd">
<svg version="1.1"
	 id="svg815" xmlns:cc="http://creativecommons.org/ns#" xmlns:dc="http://purl.org/dc/elements/1.1/" xmlns:sodipodi="http://sodipodi.sourceforge.net/DTD/sodipodi-0.dtd" xmlns:inkscape="http://www.inkscape.org/namespaces/inkscape" xmlns:svg="http://www.w3.org/2000/svg" xmlns:rdf="http://www.w3.org/1999/02/22-rdf-syntax-ns#" sodipodi:docname="coffee016.svg" inkscape:version="1.2.2 (732a01da63, 2022-12-09)"
	 xmlns="http://www.w3.org/2000/svg" xmlns:xlink="http://www.w3.org/1999/xlink" x="0px" y="0px" width="390.852px"
	 height="601.967px" viewBox="0 0 390.852 601.967" enable-background="new 0 0 390.852 601.967" xml:space="preserve">
<sodipodi:namedview  id="namedview817" inkscape:zoom="1.2150542" objecttolerance="10" guidetolerance="10" gridtolerance="10" borderopacity="1" bordercolor="#666666" showgrid="false" pagecolor="#ffffff" fit-margin-top="0" inkscape:cy="193.40701" inkscape:cx="218.09727" fit-margin-left="0" inkscape:pagecheckerboard="0" inkscape:window-maximized="1" inkscape:current-layer="g823" inkscape:window-height="705" inkscape:window-y="-8" inkscape:window-x="-8" inkscape:deskcolor="#d1d1d1" inkscape:pageopacity="0" inkscape:showpageshadow="2" inkscape:pageshadow="2" inkscape:window-width="1366" fit-margin-right="0" inkscape:snap-page="false" fit-margin-bottom="0">
	</sodipodi:namedview>
<g>
	
		<path fill="none" stroke="#0480B7" stroke-width="0.15" stroke-linecap="round" stroke-linejoin="round" stroke-miterlimit="10" d="
		M81.411,580.79H371.89c2.318,0,4.158-0.8,5.763-2.4c1.601-1.6,2.396-3.52,2.396-5.839V220.069c0-2.239-0.801-4.239-2.396-5.84
		c-0.722-0.8-1.604-1.359-2.563-1.76c-0.961-0.479-2-0.64-3.199-0.64H22.052c-2.24,0-4.16,0.8-5.76,2.399
		c-1.601,1.601-2.4,3.601-2.4,5.84V329.83"/>
	<g>
		<path fill="#F0F0F0" d="M379.49,220.629c0-2.319-0.799-4.24-2.397-5.84c-1.603-1.68-3.603-2.479-5.842-2.479H21.492
			c-2.24,0-4.24,0.8-5.84,2.479c-1.601,1.6-2.4,3.521-2.4,5.84v352.48c0,2.234,0.8,4.234,2.4,5.841c1.6,1.6,3.6,2.396,5.84,2.396
			h349.759c2.239,0,4.239-0.8,5.842-2.396c1.604-1.604,2.397-3.604,2.397-5.841V220.629L379.49,220.629z"/>
	</g>
</g>
<g>
	<g>
		<path fill="#FFFFFF" d="M1.625,567.79V18.59c0-4.16,1.439-7.76,4.399-10.72c3.041-2.96,6.641-4.48,10.801-4.48h357.999
			c4.238,0,7.84,1.52,10.799,4.48c2.962,2.96,4.48,6.56,4.48,10.72v549.2c0,4.161-1.521,7.761-4.48,10.721
			c-2.959,3.04-6.561,4.479-10.799,4.479H16.825c-4.16,0-7.761-1.439-10.801-4.479C3.066,575.55,1.625,571.951,1.625,567.79z"/>
		
			<path fill="none" stroke="#0480B7" stroke-width="0.15" stroke-linecap="round" stroke-linejoin="round" stroke-miterlimit="10" d="
			M1.625,567.79c0,4.161,1.439,7.761,4.399,10.721c3.041,3.04,6.641,4.479,10.801,4.479h357.999c4.238,0,7.84-1.439,10.799-4.479
			c2.962-2.96,4.48-6.56,4.48-10.721V18.59c0-4.16-1.521-7.76-4.48-10.72s-6.561-4.48-10.799-4.48H16.825
			c-4.16,0-7.761,1.52-10.801,4.48c-2.959,2.96-4.399,6.56-4.399,10.72V567.79"/>
	</g>
</g>
<g>
	<g>
		<path fill="none" stroke="#10C7F9" stroke-width="3" stroke-linecap="round" stroke-linejoin="round" stroke-miterlimit="10" d="
			M2.532,574.951c0,4.079,1.84,7.6,5.68,10.719c3.6,2.961,7.6,4.481,11.92,4.481h355.68c4.156,0,7.681-1.521,10.642-4.481
			c2.96-2.96,4.397-6.479,4.397-10.719V216.79c0-4.16-1.438-7.76-4.397-10.64c-2.961-2.96-6.479-4.4-10.642-4.4H20.132
			c-4.32,0-8.32,1.44-11.92,4.4c-3.84,3.04-5.68,6.64-5.68,10.64V574.951"/>
	</g>
</g>
<g>
	<path fill="#FFFFFF" d="M171.972,231.75v3.68v110.08l45.838,28.159l3.438,2.16l88.239,54.16l6.396,3.92v-113.76L171.972,231.75z"/>
	<path fill="#FFFFFF" stroke="#C3C7C9" stroke-miterlimit="10" d="M382.692,284.229l-3.843-2.399l-60.723,37.36v113.76
		l64.563-39.682L382.692,284.229L382.692,284.229z"/>
	<path fill="#FFFFFF" stroke="#D1D1D1" stroke-miterlimit="10" d="M199.893,212.469l-26.399,16.16l141.999,88l60-36.8l-48.642-29.92
		v-37.44H199.893L199.893,212.469z"/>
	<path fill="#FFFFFF" stroke="#C9C9C9" stroke-miterlimit="10" d="M382.692,212.469H326.85v37.44l48.642,29.92l3.358,2l3.843,2.399
		V212.469L382.692,212.469z"/>
	<path fill="#FFFFFF" d="M171.972,235.429l-7.121-4.399L20.932,319.429l142,88l54.878-33.76l-45.838-28.159V235.429L171.972,235.429
		z"/>
	<path fill="#FFFFFF" d="M309.49,435.35v-5.354l-88.239-54.16l-55.679,34.08v3.12v110.72l1.278-0.8L309.49,435.35z"/>
	<path fill="#FFFFFF" d="M19.411,436.229l3.521,2.234l140.399,86.24v-113.12v-0.642l-143.92-88.398v10.563V436.229z"/>
	<path fill="#FFFFFF" d="M22.932,438.469v0.646l48.561,29.841l3.439,2.079l83.119,51.121l8.8,5.354v-4.56l-1.278,0.8V413.03
		l-2.24-1.44v113.12L22.932,438.469z"/>
	<path fill="#FFFFFF" stroke="#C3C7C9" stroke-miterlimit="10" d="M13.411,329.429l-1.2,0.801v175.12l1.68-1.04l57.601-35.354
		l-48.561-29.841v-0.646l-3.521-2.239V333.11L13.411,329.429z"/>
	<path fill="#FFFFFF" d="M14.211,574.79v6h67.2l76.64-47.039v-11.6L74.932,471.03L14.211,508.31V574.79z"/>
	
		<path fill="none" stroke="#0480B7" stroke-width="0.15" stroke-linecap="round" stroke-linejoin="round" stroke-miterlimit="10" d="
		M13.891,504.31v68.24c0,0.8,0.08,1.604,0.32,2.239"/>
	
		<polyline fill="none" stroke="#CCCCCC" stroke-width="1.15" stroke-linecap="round" stroke-linejoin="round" stroke-miterlimit="10" points="
		309.49,429.99 315.892,433.91 315.892,320.149 171.972,231.75 171.972,235.429 	"/>
	
		<polyline fill="none" stroke="#CCCCCC" stroke-width="1.15" stroke-linecap="round" stroke-linejoin="round" stroke-miterlimit="10" points="
		199.893,212.469 173.492,228.629 315.49,316.629 375.49,279.83 	"/>
	
		<line fill="none" stroke="#CCCCCC" stroke-width="1.15" stroke-linecap="round" stroke-linejoin="round" stroke-miterlimit="10" x1="378.851" y1="281.83" x2="382.692" y2="284.229"/>
	
		<line fill="none" stroke="#CCCCCC" stroke-width="1.15" stroke-linecap="round" stroke-linejoin="round" stroke-miterlimit="10" x1="375.49" y1="279.83" x2="378.851" y2="281.83"/>
	
		<polyline fill="none" stroke="#CCCCCC" stroke-width="1.15" stroke-linecap="round" stroke-linejoin="round" stroke-miterlimit="10" points="
		326.851,212.469 326.851,249.91 375.49,279.83 	"/>
	
		<polyline fill="none" stroke="#CCCCCC" stroke-width="1.15" stroke-linecap="round" stroke-linejoin="round" stroke-miterlimit="10" points="
		382.692,393.269 318.132,432.95 318.132,319.19 378.851,281.83 	"/>
	
		<polyline fill="none" stroke="#CCCCCC" stroke-width="1.15" stroke-linecap="round" stroke-linejoin="round" stroke-miterlimit="10" points="
		19.411,333.11 13.411,329.429 12.211,330.229 	"/>
	
		<polyline fill="none" stroke="#CCCCCC" stroke-width="1.15" stroke-linecap="round" stroke-linejoin="round" stroke-miterlimit="10" points="
		19.411,333.11 19.411,436.229 22.932,438.469 	"/>
	
		<polyline fill="none" stroke="#CCCCCC" stroke-width="1.15" stroke-linecap="round" stroke-linejoin="round" stroke-miterlimit="10" points="
		22.932,438.469 22.932,439.11 71.492,468.951 	"/>
	
		<line fill="none" stroke="#CCCCCC" stroke-width="1.15" stroke-linecap="round" stroke-linejoin="round" stroke-miterlimit="10" x1="71.492" y1="468.951" x2="74.932" y2="471.03"/>
	
		<polyline fill="none" stroke="#CCCCCC" stroke-width="1.15" stroke-linecap="round" stroke-linejoin="round" stroke-miterlimit="10" points="
		12.211,505.35 13.891,504.31 71.492,468.951 	"/>
	
		<polyline fill="none" stroke="#CCCCCC" stroke-width="1.15" stroke-linecap="round" stroke-linejoin="round" stroke-miterlimit="10" points="
		74.932,471.03 14.211,508.31 14.211,574.79 14.211,580.79 	"/>
	
		<polyline fill="none" stroke="#CCCCCC" stroke-width="1.15" stroke-linecap="round" stroke-linejoin="round" stroke-miterlimit="10" points="
		171.972,235.429 164.851,231.03 20.932,319.429 162.932,407.429 217.813,373.669 	"/>
	
		<polyline fill="none" stroke="#CCCCCC" stroke-width="1.15" stroke-linecap="round" stroke-linejoin="round" stroke-miterlimit="10" points="
		166.851,522.951 309.49,435.35 309.49,429.99 	"/>
	
		<line fill="none" stroke="#CCCCCC" stroke-width="1.15" stroke-linecap="round" stroke-linejoin="round" stroke-miterlimit="10" x1="217.813" y1="373.669" x2="221.251" y2="375.83"/>
	
		<polyline fill="none" stroke="#CCCCCC" stroke-width="1.15" stroke-linecap="round" stroke-linejoin="round" stroke-miterlimit="10" points="
		221.251,375.83 165.572,409.91 165.572,413.03 	"/>
	
		<line fill="none" stroke="#CCCCCC" stroke-width="1.15" stroke-linecap="round" stroke-linejoin="round" stroke-miterlimit="10" x1="165.572" y1="413.03" x2="163.331" y2="411.589"/>
	
		<polyline fill="none" stroke="#CCCCCC" stroke-width="1.15" stroke-linecap="round" stroke-linejoin="round" stroke-miterlimit="10" points="
		163.331,411.589 163.331,410.95 19.411,322.549 19.411,333.11 	"/>
	
		<polyline fill="none" stroke="#CCCCCC" stroke-width="1.15" stroke-linecap="round" stroke-linejoin="round" stroke-miterlimit="10" points="
		171.972,235.429 171.972,345.51 217.813,373.669 	"/>
	
		<polyline fill="none" stroke="#CCCCCC" stroke-width="1.15" stroke-linecap="round" stroke-linejoin="round" stroke-miterlimit="10" points="
		165.572,413.03 165.572,523.75 166.851,522.951 	"/>
	
		<polyline fill="none" stroke="#CCCCCC" stroke-width="1.15" stroke-linecap="round" stroke-linejoin="round" stroke-miterlimit="10" points="
		158.051,522.151 166.851,527.51 166.851,522.951 	"/>
	
		<polyline fill="none" stroke="#CCCCCC" stroke-width="1.15" stroke-linecap="round" stroke-linejoin="round" stroke-miterlimit="10" points="
		81.411,580.79 158.051,533.75 158.051,522.151 	"/>
	
		<line fill="none" stroke="#CCCCCC" stroke-width="1.15" stroke-linecap="round" stroke-linejoin="round" stroke-miterlimit="10" x1="221.251" y1="375.83" x2="309.49" y2="429.99"/>
	
		<polyline fill="none" stroke="#CCCCCC" stroke-width="1.15" stroke-linecap="round" stroke-linejoin="round" stroke-miterlimit="10" points="
		22.932,438.469 163.331,524.709 163.331,411.589 	"/>
	
		<line fill="none" stroke="#CCCCCC" stroke-width="1.15" stroke-linecap="round" stroke-linejoin="round" stroke-miterlimit="10" x1="74.932" y1="471.03" x2="158.051" y2="522.151"/>
</g>
<g opacity="0.3">
	<g>
		<g>
			<path fill="#0860A8" d="M315.093,319.11l-66.641-38.32c-52.241,0.08-78.32,0.08-78.32-0.08c0,0.24-13.2,0.24-39.601-0.08
				c-26.721-0.24-40.24-0.24-40.721,0c-43.04,25.28-64.399,38.08-64.159,38.48L23.89,431.589l144.8,93.361l146.401-90.001
				L315.093,319.11L315.093,319.11z"/>
		</g>
	</g>
</g>
<g>
	<g>
		<path fill="#CCCCCC" d="M164.746,130.509l-0.801,43.04l-0.721-43.04l34.32-20.72L164.746,130.509z"/>
		
			<line fill="none" stroke="#CCCCCC" stroke-width="1.9" stroke-linecap="round" stroke-linejoin="round" stroke-miterlimit="10" x1="281.865" y1="57.79" x2="197.545" y2="109.79"/>
		
			<polyline fill="none" stroke="#CCCCCC" stroke-width="1.9" stroke-linecap="round" stroke-linejoin="round" stroke-miterlimit="10" points="
			197.545,109.79 164.746,130.509 163.946,173.549 163.225,130.509 197.545,109.79 		"/>
	</g>
	<g>
		<g>
			<path fill="#F0F0F0" d="M376.665,182.75c-0.801,0.72-1.76,1.36-2.801,1.761c-0.959,0.479-2.16,0.719-3.278,0.719H19.066
				c-1.199,0-2.239-0.239-3.359-0.719c-1.04-0.4-1.84-1.041-2.641-1.761c-0.8-0.8-1.439-1.76-1.84-2.72
				c-0.479-1.12-0.72-2.24-0.72-3.36V21.79c0-1.2,0.24-2.32,0.72-3.36c0.4-1.04,1.04-2,1.84-2.72c0.801-0.8,1.601-1.44,2.641-1.84
				c1.12-0.48,2.16-0.72,3.359-0.72h351.521c1.118,0,2.319,0.24,3.278,0.72c1.041,0.4,2,1.04,2.801,1.84
				c0.8,0.72,1.359,1.68,1.841,2.72c0.399,1.041,0.644,2.16,0.644,3.36v154.88c0,1.12-0.238,2.24-0.644,3.36
				C378.025,180.99,377.465,181.95,376.665,182.75z"/>
		</g>
	</g>
	<g>
		<path fill="#FFFFFF" d="M349.945,94.91v89.12h-267.2v-73.68l148.479-89.6L349.945,94.91z"/>
	</g>
	<g>
		<path fill="none" stroke="#0480B7" stroke-linecap="round" stroke-linejoin="round" stroke-miterlimit="10" d="M376.586,182.669
			c0.799-0.8,1.438-1.76,1.92-2.72c0.399-1.12,0.646-2.24,0.646-3.439V21.79c0-1.12-0.24-2.24-0.646-3.36
			c-0.479-1.04-1.121-1.84-1.92-2.64c-0.802-0.8-1.681-1.52-2.722-1.92c-1.039-0.48-2.16-0.72-3.358-0.72H19.226
			c-1.2,0-2.32,0.24-3.359,0.72c-1.04,0.4-2,1.12-2.801,1.92c-0.8,0.8-1.359,1.6-1.84,2.64c-0.479,1.121-0.72,2.24-0.72,3.36v154.72
			c0,1.199,0.24,2.319,0.72,3.439c0.48,0.96,1.04,1.92,1.84,2.72c0.801,0.8,1.761,1.36,2.801,1.841
			c1.039,0.479,2.159,0.719,3.359,0.719h351.28c1.198,0,2.319-0.239,3.358-0.719C374.906,184.03,375.784,183.469,376.586,182.669"/>
	</g>
	<g>
		<path fill="#FFFFFF" d="M229.064,26.029L346.266,98.35l-137.76,86.079L91.466,112.03L229.064,26.029z"/>
		
			<polyline fill="none" stroke="#CCCCCC" stroke-width="1.9" stroke-linecap="round" stroke-linejoin="round" stroke-miterlimit="10" points="
			229.064,26.029 91.466,112.03 208.506,184.429 346.266,98.35 229.064,26.029 		"/>
	</g>
	<g>
		<path fill="#CCCCCC" d="M89.625,112.03l-0.8,74.399l-0.801-74.399l36.081-21.84L89.625,112.03z"/>
		
			<line fill="none" stroke="#CCCCCC" stroke-width="1.9" stroke-linecap="round" stroke-linejoin="round" stroke-miterlimit="10" x1="124.106" y1="90.189" x2="228.186" y2="25.87"/>
		
			<polyline fill="none" stroke="#CCCCCC" stroke-width="1.9" stroke-linecap="round" stroke-linejoin="round" stroke-miterlimit="10" points="
			124.106,90.189 89.625,112.03 88.826,186.429 88.025,112.03 124.106,90.189 		"/>
	</g>
	<g>
		<path fill="#CCCCCC" d="M274.105,184.83c-0.399-0.08-0.646-0.08-0.799-0.08c0.559-0.32,6.719-4,18.479-11.12L274.105,184.83z"/>
		
			<line fill="none" stroke="#CCCCCC" stroke-width="1.9" stroke-linecap="round" stroke-linejoin="round" stroke-miterlimit="10" x1="273.307" y1="184.75" x2="273.307" y2="184.75"/>
		
			<path fill="none" stroke="#CCCCCC" stroke-width="1.9" stroke-linecap="round" stroke-linejoin="round" stroke-miterlimit="10" d="
			M291.785,173.629l-17.682,11.2c-0.398-0.08-0.645-0.08-0.799-0.08"/>
		
			<path fill="none" stroke="#CCCCCC" stroke-width="1.9" stroke-linecap="round" stroke-linejoin="round" stroke-miterlimit="10" d="
			M273.307,184.75c0.563-0.32,6.719-4,18.479-11.12"/>
		
			<line fill="none" stroke="#CCCCCC" stroke-width="1.9" stroke-linecap="round" stroke-linejoin="round" stroke-miterlimit="10" x1="291.785" y1="173.629" x2="345.225" y2="140.589"/>
	</g>
	<g>
		<path fill="#CCCCCC" d="M344.506,97.15h1.604l-0.804,42.96L344.506,97.15z"/>
		
			<polyline fill="none" stroke="#CCCCCC" stroke-width="1.9" stroke-linecap="round" stroke-linejoin="round" stroke-miterlimit="10" points="
			346.105,97.15 345.307,140.11 344.506,97.15 346.105,97.15 		"/>
	</g>
	<g>
		<path fill="none" stroke="#10C7F9" stroke-width="3" stroke-linecap="round" stroke-linejoin="round" stroke-miterlimit="10" d="
			M388.825,183.31c0.8-1.841,1.199-3.841,1.199-5.921v-158.8c0-2-0.399-4-1.199-5.92c-0.722-1.76-1.84-3.44-3.2-4.8
			c-1.439-1.44-3.119-2.48-4.88-3.28c-1.84-0.8-3.84-1.2-5.92-1.2H16.826c-2,0-4,0.4-5.921,1.2c-1.76,0.8-3.439,1.84-4.88,3.28
			c-1.359,1.36-2.399,3.04-3.199,4.8c-0.801,1.92-1.2,3.92-1.2,5.92v158.8c0,2.08,0.399,4.08,1.2,5.921
			c0.8,1.84,1.84,3.52,3.199,4.88c1.44,1.439,3.121,2.479,4.88,3.199c1.921,0.801,3.921,1.2,5.921,1.2h357.999
			c2.08,0,4.08-0.399,5.92-1.2c1.761-0.72,3.438-1.76,4.88-3.199C386.986,186.83,388.105,185.15,388.825,183.31"/>
	</g>
	<g>
		<path fill="#CCCCCC" d="M209.865,184.75l-0.803-0.56l33.604-20.16L209.865,184.75z"/>
		<path fill="#CCCCCC" d="M209.064,184.19l-0.799,0.56l-32.725-20.64L209.064,184.19z"/>
		
			<polyline fill="none" stroke="#CCCCCC" stroke-width="1.9" stroke-linecap="round" stroke-linejoin="round" stroke-miterlimit="10" points="
			209.064,184.19 208.266,184.75 175.545,164.11 		"/>
		
			<line fill="none" stroke="#CCCCCC" stroke-width="1.9" stroke-linecap="round" stroke-linejoin="round" stroke-miterlimit="10" x1="209.064" y1="184.19" x2="242.666" y2="164.03"/>
		
			<line fill="none" stroke="#CCCCCC" stroke-width="1.9" stroke-linecap="round" stroke-linejoin="round" stroke-miterlimit="10" x1="175.545" y1="164.11" x2="209.064" y2="184.19"/>
		
			<line fill="none" stroke="#CCCCCC" stroke-width="1.9" stroke-linecap="round" stroke-linejoin="round" stroke-miterlimit="10" x1="326.986" y1="112.03" x2="242.666" y2="164.03"/>
		
			<line fill="none" stroke="#CCCCCC" stroke-width="1.9" stroke-linecap="round" stroke-linejoin="round" stroke-miterlimit="10" x1="91.226" y1="112.429" x2="175.545" y2="164.11"/>
		
			<polyline fill="none" stroke="#CCCCCC" stroke-width="1.9" stroke-linecap="round" stroke-linejoin="round" stroke-miterlimit="10" points="
			242.666,164.03 209.865,184.75 209.064,184.19 		"/>
	</g>
	<g>
		<path fill="#FFFFFF" d="M52.666,32.189v11.84l-15.04,9.36l-14.96-9.6l0.239-11.6c-0.079-0.08,2.4-1.52,7.28-4.4
			c4.8-2.88,7.28-4.32,7.28-4.4L52.666,32.189z"/>
	</g>
	<g>
		
			<polyline fill="none" stroke="#FFFFFF" stroke-width="3.8" stroke-linecap="round" stroke-linejoin="round" stroke-miterlimit="10" points="
			355.465,50.83 355.625,50.83 367.625,58.189 		"/>
		
			<line fill="none" stroke="#FFFFFF" stroke-width="3.8" stroke-linecap="round" stroke-linejoin="round" stroke-miterlimit="10" x1="355.465" y1="37.79" x2="355.465" y2="50.83"/>
		
			<polyline fill="none" stroke="#FFFFFF" stroke-width="3.8" stroke-linecap="round" stroke-linejoin="round" stroke-miterlimit="10" points="
			367.625,58.189 355.465,50.99 355.465,50.83 		"/>
		
			<line fill="none" stroke="#FFFFFF" stroke-width="3.8" stroke-linecap="round" stroke-linejoin="round" stroke-miterlimit="10" x1="337.704" y1="60.429" x2="355.465" y2="50.83"/>
		
			<line fill="none" stroke="#FFFFFF" stroke-width="3.8" stroke-linecap="round" stroke-linejoin="round" stroke-miterlimit="10" x1="367.625" y1="58.189" x2="371.704" y2="60.669"/>
	</g>
	<g>
		<path fill="#C9C8CC" d="M50.666,33.229v10.4l-13.04,8l-12.96-8.24l0.16-10.16c0,0,2.079-1.28,6.319-3.76
			c4.24-2.479,6.4-3.68,6.4-3.76L50.666,33.229z"/>
	</g>
</g>
<g>
	<g>
		<path fill="#FFFFFF" stroke="#909090" stroke-miterlimit="10" d="M241.625,51.629v11.76l-14.799-9.12v-11.68L241.625,51.629z"/>
		
			<polyline fill="none" stroke="#CCCCCC" stroke-width="0.2" stroke-linecap="round" stroke-linejoin="round" stroke-miterlimit="10" points="
			241.625,51.629 226.826,42.589 226.826,54.27 241.625,63.39 241.625,51.629 		"/>
	</g>
	<g>
		<path fill="#FFFFFF" stroke="#909090" stroke-miterlimit="10" d="M211.705,63.47V51.79l14.801-9.12v11.68L211.705,63.47z"/>
		
			<polyline fill="none" stroke="#CCCCCC" stroke-width="0.2" stroke-linecap="round" stroke-linejoin="round" stroke-miterlimit="10" points="
			211.705,51.79 226.506,42.669 226.506,54.35 211.705,63.47 211.705,51.79 		"/>
	</g>
	<g>
		<path fill="#FFFFFF" d="M212.025,63.79l14.802-9.12l14.639,9.04l-14.799,9.04L212.025,63.79z"/>
		
			<polyline fill="none" stroke="#CCCCCC" stroke-width="0.2" stroke-linecap="round" stroke-linejoin="round" stroke-miterlimit="10" points="
			212.025,63.79 226.666,72.75 241.465,63.709 226.826,54.669 212.025,63.79 		"/>
	</g>
	<g>
		<path fill="#FFFFFF" stroke="#909090" stroke-miterlimit="10" d="M211.064,63.629V51.87l14.801,9.12v11.68L211.064,63.629z"/>
		
			<polyline fill="none" stroke="#CCCCCC" stroke-width="0.2" stroke-linecap="round" stroke-linejoin="round" stroke-miterlimit="10" points="
			211.064,63.629 225.865,72.669 225.865,60.99 211.064,51.87 211.064,63.629 		"/>
	</g>
	<g>
		<path fill="#FFFFFF" stroke="#909090" stroke-miterlimit="10" d="M210.826,52.029v11.68l-14.803,9.12V61.07L210.826,52.029z"/>
		
			<polyline fill="none" stroke="#CCCCCC" stroke-width="0.2" stroke-linecap="round" stroke-linejoin="round" stroke-miterlimit="10" points="
			210.826,63.709 196.025,72.83 196.025,61.07 210.826,52.029 210.826,63.709 		"/>
	</g>
	<g>
		<path fill="#FFFFFF" d="M196.266,73.07l14.799-9.12l14.646,9.04l-14.799,9.12L196.266,73.07z"/>
		
			<polyline fill="none" stroke="#CCCCCC" stroke-width="0.2" stroke-linecap="round" stroke-linejoin="round" stroke-miterlimit="10" points="
			196.266,73.07 210.906,82.109 225.705,72.99 211.064,63.95 196.266,73.07 		"/>
	</g>
	<g>
		<path fill="#FFFFFF" stroke="#909090" stroke-miterlimit="10" d="M209.945,70.83v11.68l-14.799-9.04V61.79L209.945,70.83z"/>
		
			<polyline fill="none" stroke="#909090" stroke-width="0.2" stroke-linecap="round" stroke-linejoin="round" stroke-miterlimit="10" points="
			209.945,70.83 195.146,61.79 195.146,73.47 209.945,82.509 209.945,70.83 		"/>
	</g>
	<g>
		<path fill="#FFFFFF" stroke="#909090" stroke-miterlimit="10" d="M194.826,61.87v11.68l-14.801,9.04v-11.6L194.826,61.87z"/>
		
			<polyline fill="none" stroke="#CCCCCC" stroke-width="0.2" stroke-linecap="round" stroke-linejoin="round" stroke-miterlimit="10" points="
			194.826,73.55 180.026,82.589 180.026,70.99 194.826,61.87 194.826,73.55 		"/>
	</g>
	<g>
		<path fill="#FFFFFF" d="M194.906,91.95l-14.56-9.04l14.8-9.12l14.64,9.04L194.906,91.95z"/>
		
			<polyline fill="none" stroke="#CCCCCC" stroke-width="0.2" stroke-linecap="round" stroke-linejoin="round" stroke-miterlimit="10" points="
			194.906,91.95 209.785,82.83 195.146,73.79 180.346,82.91 194.906,91.95 		"/>
	</g>
	<g>
		<path fill="#FFFFFF" stroke="#909090" stroke-miterlimit="10" d="M193.465,92.83l-14.8-9.04V72.03l14.8,9.121V92.83z"/>
		
			<polyline fill="none" stroke="#CCCCCC" stroke-width="0.2" stroke-linecap="round" stroke-linejoin="round" stroke-miterlimit="10" points="
			193.465,92.83 193.465,81.15 178.666,72.029 178.666,83.79 193.465,92.83 		"/>
	</g>
	<g>
		<path fill="#FFFFFF" stroke="#909090" stroke-miterlimit="10" d="M163.625,92.91V81.23l14.8-9.04v11.68L163.625,92.91z"/>
		
			<polyline fill="none" stroke="#CCCCCC" stroke-width="0.2" stroke-linecap="round" stroke-linejoin="round" stroke-miterlimit="10" points="
			163.625,81.229 178.425,72.189 178.425,83.87 163.625,92.91 163.625,81.229 		"/>
	</g>
	<g>
		<path fill="#FFFFFF" d="M178.666,84.109l14.641,9.12l-14.881,9.041l-14.56-9.041L178.666,84.109z"/>
		
			<polyline fill="none" stroke="#CCCCCC" stroke-width="0.2" stroke-linecap="round" stroke-linejoin="round" stroke-miterlimit="10" points="
			178.666,84.109 163.866,93.229 178.425,102.27 193.306,93.229 178.666,84.109 		"/>
	</g>
	<g>
		<path fill="#FFFFFF" stroke="#909090" stroke-miterlimit="10" d="M162.906,93.15V81.39l14.801,9.12v11.681L162.906,93.15z"/>
		
			<polyline fill="none" stroke="#CCCCCC" stroke-width="0.2" stroke-linecap="round" stroke-linejoin="round" stroke-miterlimit="10" points="
			162.906,93.15 177.706,102.19 177.706,90.509 162.906,81.39 162.906,93.15 		"/>
	</g>
	<g>
		<path fill="#FFFFFF" stroke="#909090" stroke-miterlimit="10" d="M162.666,81.47v11.76l-14.8,9.121V90.589L162.666,81.47z"/>
		
			<polyline fill="none" stroke="#CCCCCC" stroke-width="0.2" stroke-linecap="round" stroke-linejoin="round" stroke-miterlimit="10" points="
			162.666,93.229 147.866,102.35 147.866,90.589 162.666,81.47 162.666,93.229 		"/>
	</g>
	<g>
		<path fill="#FFFFFF" d="M177.625,102.509l-14.88,9.12l-14.641-9.12l14.8-9.04L177.625,102.509z"/>
		
			<polyline fill="none" stroke="#CCCCCC" stroke-width="0.2" stroke-linecap="round" stroke-linejoin="round" stroke-miterlimit="10" points="
			177.625,102.509 162.906,93.47 148.106,102.509 162.746,111.629 177.625,102.509 		"/>
	</g>
	<g>
		<path fill="#FFFFFF" stroke="#909090" stroke-miterlimit="10" d="M161.786,112.03l-14.881-9.12V91.23l14.881,9.121V112.03z"/>
		
			<polyline fill="none" stroke="#CCCCCC" stroke-width="0.2" stroke-linecap="round" stroke-linejoin="round" stroke-miterlimit="10" points="
			161.786,112.03 161.786,100.35 146.906,91.229 146.906,102.91 161.786,112.03 		"/>
	</g>
	<g>
		<path fill="#FFFFFF" stroke="#909090" stroke-miterlimit="10" d="M146.426,102.99l-14.88,9.12v-11.681l14.88-9.12V102.99z"/>
		
			<polyline fill="none" stroke="#CCCCCC" stroke-width="0.2" stroke-linecap="round" stroke-linejoin="round" stroke-miterlimit="10" points="
			131.866,112.11 131.866,100.429 146.746,91.31 146.746,102.99 131.866,112.11 		"/>
	</g>
	<g>
		<path fill="#FFFFFF" stroke="#909090" stroke-miterlimit="10" d="M132.106,112.429l14.88-9.12l14.641,9.041l-14.8,9.039
			L132.106,112.429z"/>
		
			<polyline fill="none" stroke="#CCCCCC" stroke-width="0.2" stroke-linecap="round" stroke-linejoin="round" stroke-miterlimit="10" points="
			132.106,112.429 146.826,121.389 161.625,112.35 146.986,103.309 132.106,112.429 		"/>
	</g>
</g>
<g>
	<g>
		<path fill="#FFFFFF" stroke="#909090" stroke-miterlimit="10" d="M242.746,63.47V51.79l14.879,9.12v11.68L242.746,63.47z"/>
		
			<polyline fill="none" stroke="#CCCCCC" stroke-width="0.2" stroke-linecap="round" stroke-linejoin="round" stroke-miterlimit="10" points="
			242.746,63.47 257.625,72.589 257.625,60.91 242.746,51.79 242.746,63.47 		"/>
	</g>
	<g>
		
			<path fill="none" stroke="#CCCCCC" stroke-width="0.2" stroke-linecap="round" stroke-linejoin="round" stroke-miterlimit="10" d="
			M242.506,51.87v11.68l-14.801,9.12V60.99L242.506,51.87z"/>
		<polyline fill="none" stroke="#CCCCCC" stroke-linecap="round" stroke-linejoin="round" stroke-miterlimit="10" points="
			242.506,63.55 227.705,72.669 227.705,60.99 242.506,51.87 242.506,63.55 		"/>
	</g>
	<g>
		<path fill="#FFFFFF" d="M242.826,63.87l14.639,9.04l-14.879,9.04l-14.643-9.04L242.826,63.87z"/>
		<polyline fill="#FFFFFF" stroke="#909090" stroke-miterlimit="10" points="242.826,63.87 227.945,72.91 242.586,81.95 
			257.465,72.91 242.826,63.87 		"/>
	</g>
	<g>
		<path fill="#FFFFFF" stroke="#909090" stroke-miterlimit="10" d="M241.865,70.189v11.76l-14.803-9.12V61.15L241.865,70.189z"/>
		
			<polyline fill="none" stroke="#CCCCCC" stroke-width="0.2" stroke-linecap="round" stroke-linejoin="round" stroke-miterlimit="10" points="
			241.865,70.189 227.064,61.15 227.064,72.83 241.865,81.95 241.865,70.189 		"/>
	</g>
	<g>
		
			<path fill="none" stroke="#CCCCCC" stroke-width="0.2" stroke-linecap="round" stroke-linejoin="round" stroke-miterlimit="10" d="
			M226.826,61.229v11.68l-14.883,9.12V70.27L226.826,61.229z"/>
		<polyline fill="none" stroke="#CCCCCC" stroke-linecap="round" stroke-linejoin="round" stroke-miterlimit="10" points="
			226.826,72.91 211.945,82.029 211.945,70.27 226.826,61.229 226.826,72.91 		"/>
	</g>
	<g>
		<path fill="#FFFFFF" stroke="#909090" stroke-miterlimit="10" d="M212.266,82.27l14.799-9.12l14.646,9.04l-14.799,9.12
			L212.266,82.27z"/>
		
			<polyline fill="none" stroke="#CCCCCC" stroke-width="0.2" stroke-linecap="round" stroke-linejoin="round" stroke-miterlimit="10" points="
			212.266,82.27 226.906,91.31 241.705,82.189 227.064,73.15 212.266,82.27 		"/>
	</g>
	<g>
		<path fill="#FFFFFF" stroke="#909090" stroke-miterlimit="10" d="M225.865,80.029v11.68l-14.803-9.04V70.99L225.865,80.029z"/>
		
			<polyline fill="none" stroke="#CCCCCC" stroke-width="0.2" stroke-linecap="round" stroke-linejoin="round" stroke-miterlimit="10" points="
			225.865,80.029 211.064,70.99 211.064,82.669 225.865,91.709 225.865,80.029 		"/>
	</g>
	<g>
		
			<path fill="none" stroke="#CCCCCC" stroke-width="0.2" stroke-linecap="round" stroke-linejoin="round" stroke-miterlimit="10" d="
			M210.826,82.75l-14.803,9.12V80.11l14.803-9.04V82.75z"/>
		<polyline fill="none" stroke="#CCCCCC" stroke-linecap="round" stroke-linejoin="round" stroke-miterlimit="10" points="
			196.025,91.87 196.025,80.109 210.826,71.07 210.826,82.75 196.025,91.87 		"/>
	</g>
	<g>
		<path fill="#FFFFFF" d="M196.266,92.109l14.799-9.12l14.646,9.04l-14.799,9.2L196.266,92.109z"/>
		<polyline fill="#FFFFFF" stroke="#909090" stroke-miterlimit="10" points="196.266,92.109 210.906,101.229 225.705,92.029 
			211.064,82.99 196.266,92.109 		"/>
	</g>
	<g>
		<path fill="#FFFFFF" stroke="#909090" stroke-miterlimit="10" d="M194.585,92.99V81.23l14.879,9.12v11.68L194.585,92.99z"/>
		
			<polyline fill="none" stroke="#CCCCCC" stroke-width="0.2" stroke-linecap="round" stroke-linejoin="round" stroke-miterlimit="10" points="
			194.585,92.99 209.465,102.03 209.465,90.35 194.585,81.229 194.585,92.99 		"/>
	</g>
	<g>
		
			<path fill="none" stroke="#CCCCCC" stroke-width="0.2" stroke-linecap="round" stroke-linejoin="round" stroke-miterlimit="10" d="
			M194.346,81.39v11.68l-14.801,9.12V90.429L194.346,81.39z"/>
		<polyline fill="none" stroke="#CCCCCC" stroke-linecap="round" stroke-linejoin="round" stroke-miterlimit="10" points="
			194.346,93.07 179.545,102.19 179.545,90.429 194.346,81.39 194.346,93.07 		"/>
	</g>
	<g>
		<path fill="#FFFFFF" d="M194.425,111.469l-14.64-9.04l14.88-9.12l14.642,9.12L194.425,111.469z"/>
		<polyline fill="#FFFFFF" stroke="#909090" stroke-miterlimit="10" points="194.425,111.469 209.307,102.429 194.666,93.31 
			179.786,102.429 194.425,111.469 		"/>
	</g>
	<g>
		<path fill="#FFFFFF" stroke="#909090" stroke-miterlimit="10" d="M193.706,111.389l-14.88-9.039V90.589l14.88,9.12V111.389z"/>
		
			<polyline fill="none" stroke="#CCCCCC" stroke-width="0.2" stroke-linecap="round" stroke-linejoin="round" stroke-miterlimit="10" points="
			193.706,111.389 193.706,99.709 178.826,90.589 178.826,102.35 193.706,111.389 		"/>
	</g>
	<g>
		
			<path fill="none" stroke="#CCCCCC" stroke-width="0.2" stroke-linecap="round" stroke-linejoin="round" stroke-miterlimit="10" d="
			M178.666,102.429l-14.88,9.12V99.79l14.88-9.12V102.429z"/>
		<polyline fill="none" stroke="#CCCCCC" stroke-linecap="round" stroke-linejoin="round" stroke-miterlimit="10" points="
			163.786,111.549 163.786,99.79 178.666,90.669 178.666,102.429 163.786,111.549 		"/>
	</g>
	<g>
		<path fill="#FFFFFF" d="M178.906,102.669l14.641,9.04l-14.8,9.12l-14.721-9.04L178.906,102.669z"/>
		<polyline fill="#FFFFFF" stroke="#909090" stroke-miterlimit="10" points="178.906,102.669 164.026,111.79 178.746,120.83 
			193.545,111.709 178.906,102.669 		"/>
	</g>
	<g>
		<path fill="#FFFFFF" stroke="#909090" stroke-miterlimit="10" d="M177.706,109.549v11.68l-14.801-9.119v-11.681L177.706,109.549z"
			/>
		
			<polyline fill="none" stroke="#CCCCCC" stroke-width="0.2" stroke-linecap="round" stroke-linejoin="round" stroke-miterlimit="10" points="
			177.706,109.549 162.906,100.429 162.906,112.11 177.706,121.229 177.706,109.549 		"/>
	</g>
	<g>
		<path fill="#FFFFFF" stroke="#909090" stroke-miterlimit="10" d="M147.866,121.309v-11.68l14.8-9.12v11.681L147.866,121.309z"/>
		
			<polyline fill="none" stroke="#CCCCCC" stroke-width="0.2" stroke-linecap="round" stroke-linejoin="round" stroke-miterlimit="10" points="
			147.866,109.629 162.666,100.509 162.666,112.19 147.866,121.309 147.866,109.629 		"/>
	</g>
	<g>
		<path fill="#FFFFFF" stroke="#909090" stroke-miterlimit="10" d="M162.906,112.509l14.641,9.04l-14.8,9.12l-14.641-9.04
			L162.906,112.509z"/>
		
			<polyline fill="none" stroke="#CCCCCC" stroke-width="0.2" stroke-linecap="round" stroke-linejoin="round" stroke-miterlimit="10" points="
			162.906,112.509 148.106,121.629 162.746,130.669 177.545,121.549 162.906,112.509 		"/>
	</g>
</g>
<g>
	<g>
		<path fill="#FFFFFF" stroke="#909090" stroke-miterlimit="10" d="M291.064,82.35v11.76l-14.799-9.12V73.31L291.064,82.35z"/>
		
			<polyline fill="none" stroke="#CCCCCC" stroke-width="0.2" stroke-linecap="round" stroke-linejoin="round" stroke-miterlimit="10" points="
			291.064,82.35 276.266,73.31 276.266,84.99 291.064,94.109 291.064,82.35 		"/>
	</g>
	<g>
		<path fill="#FFFFFF" stroke="#909090" stroke-miterlimit="10" d="M276.025,85.07l-14.801,9.12V82.51l14.801-9.12V85.07z"/>
		
			<polyline fill="none" stroke="#CCCCCC" stroke-width="0.2" stroke-linecap="round" stroke-linejoin="round" stroke-miterlimit="10" points="
			261.225,94.189 261.225,82.509 276.025,73.39 276.025,85.07 261.225,94.189 		"/>
	</g>
	<g>
		<path fill="#FFFFFF" d="M261.465,94.429l14.801-9.04l14.646,9.04l-14.807,9.12L261.465,94.429z"/>
		
			<polyline fill="none" stroke="#CCCCCC" stroke-width="0.2" stroke-linecap="round" stroke-linejoin="round" stroke-miterlimit="10" points="
			261.465,94.429 276.105,103.549 290.906,94.429 276.266,85.39 261.465,94.429 		"/>
	</g>
	<g>
		<path fill="#FFFFFF" stroke="#909090" stroke-miterlimit="10" d="M260.506,94.35V82.59l14.879,9.12v11.68L260.506,94.35z"/>
		
			<polyline fill="none" stroke="#CCCCCC" stroke-width="0.2" stroke-linecap="round" stroke-linejoin="round" stroke-miterlimit="10" points="
			260.506,94.35 275.385,103.389 275.385,91.709 260.506,82.589 260.506,94.35 		"/>
	</g>
	<g>
		<path fill="#FFFFFF" stroke="#909090" stroke-miterlimit="10" d="M260.266,82.75v11.68l-14.801,9.12V91.79L260.266,82.75z"/>
		
			<polyline fill="none" stroke="#CCCCCC" stroke-width="0.2" stroke-linecap="round" stroke-linejoin="round" stroke-miterlimit="10" points="
			260.266,94.429 245.465,103.549 245.465,91.79 260.266,82.75 260.266,94.429 		"/>
	</g>
	<g>
		<path fill="#FFFFFF" d="M275.225,103.709l-14.799,9.12l-14.721-9.04l14.881-9.04L275.225,103.709z"/>
		
			<polyline fill="none" stroke="#CCCCCC" stroke-width="0.2" stroke-linecap="round" stroke-linejoin="round" stroke-miterlimit="10" points="
			275.225,103.709 260.586,94.75 245.705,103.79 260.426,112.83 275.225,103.709 		"/>
	</g>
	<g>
		<path fill="#FFFFFF" stroke="#909090" stroke-miterlimit="10" d="M259.385,113.229l-14.879-9.119V92.429l14.879,9.12V113.229z"/>
		
			<polyline fill="none" stroke="#CCCCCC" stroke-width="0.2" stroke-linecap="round" stroke-linejoin="round" stroke-miterlimit="10" points="
			259.385,113.229 259.385,101.549 244.506,92.429 244.506,104.11 259.385,113.229 		"/>
	</g>
	<g>
		<path fill="#FFFFFF" stroke="#909090" stroke-miterlimit="10" d="M244.346,104.27l-14.881,9.039v-11.68l14.881-9.12V104.27z"/>
		
			<polyline fill="none" stroke="#CCCCCC" stroke-width="0.2" stroke-linecap="round" stroke-linejoin="round" stroke-miterlimit="10" points="
			229.465,113.309 229.465,101.629 244.346,92.509 244.346,104.27 229.465,113.309 		"/>
	</g>
	<g>
		<path fill="#FFFFFF" d="M244.586,104.509l14.639,9.12l-14.799,9.04l-14.641-9.04L244.586,104.509z"/>
		
			<polyline fill="none" stroke="#CCCCCC" stroke-width="0.2" stroke-linecap="round" stroke-linejoin="round" stroke-miterlimit="10" points="
			244.586,104.509 229.785,113.629 244.426,122.669 259.225,113.629 244.586,104.509 		"/>
	</g>
	<g>
		<path fill="#FFFFFF" stroke="#909090" stroke-miterlimit="10" d="M228.105,114.429v-11.6l14.801,9.04v11.76L228.105,114.429z"/>
		
			<polyline fill="none" stroke="#CCCCCC" stroke-width="0.2" stroke-linecap="round" stroke-linejoin="round" stroke-miterlimit="10" points="
			228.105,114.429 242.906,123.629 242.906,111.87 228.105,102.83 228.105,114.429 		"/>
	</g>
	<g>
		<path fill="#FFFFFF" stroke="#909090" stroke-miterlimit="10" d="M213.064,123.629v-11.6l14.801-9.2v11.76L213.064,123.629z"/>
		
			<polyline fill="none" stroke="#CCCCCC" stroke-width="0.2" stroke-linecap="round" stroke-linejoin="round" stroke-miterlimit="10" points="
			213.064,112.03 227.865,102.83 227.865,114.589 213.064,123.629 213.064,112.03 		"/>
	</g>
	<g>
		<path fill="#FFFFFF" d="M213.307,123.95l14.799-9.12l14.727,9.12l-14.887,9.04L213.307,123.95z"/>
		
			<polyline fill="none" stroke="#CCCCCC" stroke-width="0.2" stroke-linecap="round" stroke-linejoin="round" stroke-miterlimit="10" points="
			213.307,123.95 227.945,132.99 242.826,123.95 228.105,114.83 213.307,123.95 		"/>
	</g>
	<g>
		<path fill="#FFFFFF" stroke="#909090" stroke-miterlimit="10" d="M212.426,123.79v-11.68l14.799,9.119v11.681L212.426,123.79z"/>
		
			<polyline fill="none" stroke="#CCCCCC" stroke-width="0.2" stroke-linecap="round" stroke-linejoin="round" stroke-miterlimit="10" points="
			212.426,123.79 227.225,132.91 227.225,121.229 212.426,112.11 212.426,123.79 		"/>
	</g>
	<g>
		<path fill="#FFFFFF" stroke="#909090" stroke-miterlimit="10" d="M212.105,112.19v11.76l-14.799,9.04v-11.681L212.105,112.19z"/>
		
			<polyline fill="none" stroke="#CCCCCC" stroke-width="0.2" stroke-linecap="round" stroke-linejoin="round" stroke-miterlimit="10" points="
			212.105,123.95 197.307,132.99 197.307,121.309 212.105,112.19 212.105,123.95 		"/>
	</g>
	<g>
		
			<polyline fill="none" stroke="#CCCCCC" stroke-width="0.2" stroke-linecap="round" stroke-linejoin="round" stroke-miterlimit="10" points="
			212.266,142.35 227.064,133.229 212.426,124.19 197.625,133.229 212.266,142.35 		"/>
		<path fill="#FFFFFF" d="M212.266,142.35l-14.641-9.121l14.801-9.039l14.639,9.039L212.266,142.35z"/>
	</g>
	<g>
		<path fill="#FFFFFF" stroke="#909090" stroke-miterlimit="10" d="M211.225,142.75l-14.799-9.12v-11.68l14.799,9.04V142.75z"/>
		
			<polyline fill="none" stroke="#CCCCCC" stroke-width="0.2" stroke-linecap="round" stroke-linejoin="round" stroke-miterlimit="10" points="
			211.225,142.75 211.225,130.99 196.426,121.95 196.426,133.629 211.225,142.75 		"/>
	</g>
	<g>
		<path fill="#FFFFFF" stroke="#909090" stroke-miterlimit="10" d="M196.105,122.03v11.68l-14.799,9.12v-11.68L196.105,122.03z"/>
		
			<polyline fill="none" stroke="#CCCCCC" stroke-width="0.2" stroke-linecap="round" stroke-linejoin="round" stroke-miterlimit="10" points="
			196.105,133.709 181.306,142.83 181.306,131.15 196.105,122.03 196.105,133.709 		"/>
	</g>
	<g>
		<path fill="#FFFFFF" d="M196.426,134.03l14.639,9.039l-14.799,9.041l-14.64-8.96L196.426,134.03z"/>
		<polyline fill="#FFFFFF" stroke="#909090" stroke-miterlimit="10" points="196.426,134.03 181.625,143.15 196.266,152.11 
			211.064,143.069 196.426,134.03 		"/>
	</g>
</g>
<g>
	<path fill="#CCCCCC" d="M138.986,184.99l-0.479,0.16l-12.081-7.601L138.986,184.99z"/>
	
		<line fill="none" stroke="#CCCCCC" stroke-width="1.9" stroke-linecap="round" stroke-linejoin="round" stroke-miterlimit="10" x1="126.425" y1="177.549" x2="89.946" y2="155.15"/>
	
		<polyline fill="none" stroke="#CCCCCC" stroke-width="1.9" stroke-linecap="round" stroke-linejoin="round" stroke-miterlimit="10" points="
		126.425,177.549 138.506,185.15 138.986,184.99 126.425,177.549 	"/>
</g>
<g>
	<text transform="matrix(1 0 0 1 54.7456 41.71)" fill="#999999" font-family="'Bahnschrift'" font-size="9.216">MEZZANINA</text>
</g>
<g>
	<text transform="matrix(1 0 0 1 54.7456 30.71)" fill="#CCCCCC" font-family="'ArialMT'" font-size="4.608">EDIFICIO</text>
</g>
<g>
	<text transform="matrix(1 0 0 1 54.7456 45.5898)" fill="#CCCCCC" font-family="'ArialMT'" font-size="4.608">PLAN</text>
</g>
<g>
	<text transform="matrix(1 0 0 1 66.7852 45.5898)" fill="#CCCCCC" font-family="'ArialMT'" font-size="4.608">T</text>
</g>
<g>
	<text transform="matrix(1 0 0 1 69.146 45.5898)" fill="#CCCCCC" font-family="'ArialMT'" font-size="4.608">A</text>
</g>
<g>
	<text transform="matrix(1 0 0 1 71.8657 45.5898)" fill="#CCCCCC" font-family="'ArialMT'" font-size="4.608"> BAJA</text>
</g>
<g opacity="0.4">
	<g>
		<path fill="#F0F0F0" d="M375.931,575.03c-0.799,0.719-1.76,1.354-2.799,1.76c-0.961,0.479-2.16,0.721-3.276,0.721H18.331
			c-1.2,0-2.24-0.235-3.36-0.721c-1.04-0.4-1.84-1.041-2.64-1.76c-0.8-0.8-1.44-1.767-1.84-2.726
			c-0.479-1.114-0.721-2.235-0.721-3.355v-348.48c0-1.2,0.24-2.32,0.721-3.36c0.399-1.04,1.041-2,1.84-2.72
			c0.8-0.8,1.6-1.44,2.64-1.84c1.12-0.48,2.16-0.72,3.36-0.72h351.521c1.117,0,2.316,0.239,3.277,0.72c1.039,0.399,2,1.04,2.8,1.84
			c0.805,0.72,1.36,1.68,1.846,2.72c0.396,1.04,0.64,2.16,0.64,3.36v348.479c0,1.12-0.24,2.241-0.64,3.355
			C377.292,573.269,376.731,574.229,375.931,575.03z"/>
	</g>
</g>
<g>
	<g>
		<g>
			<path fill="none" stroke="#16A6CA" stroke-width="3" stroke-linecap="round" stroke-linejoin="round" stroke-miterlimit="10" d="
				M1.786,575.83c0,4.079,1.84,7.6,5.68,10.717c3.6,2.961,7.6,4.483,11.92,4.483h355.679c4.159,0,7.683-1.521,10.642-4.483
				c2.961-2.958,4.396-6.479,4.396-10.717V217.667c0-4.16-1.438-7.76-4.396-10.64c-2.959-2.96-6.479-4.4-10.642-4.4H19.386
				c-4.32,0-8.32,1.44-11.92,4.4c-3.84,3.04-5.68,6.64-5.68,10.64V575.83"/>
		</g>
	</g>
	<g>
		
			<line fill="none" stroke="#CCCCCC" stroke-width="1.15" stroke-linecap="round" stroke-linejoin="round" stroke-miterlimit="10" x1="80.665" y1="581.669" x2="157.306" y2="534.63"/>
		
			<line fill="none" stroke="#CCCCCC" stroke-width="1.15" stroke-linecap="round" stroke-linejoin="round" stroke-miterlimit="10" x1="67.846" y1="589.575" x2="144.486" y2="542.536"/>
		
			<line fill="none" stroke="#CCCCCC" stroke-width="1.15" stroke-linecap="round" stroke-linejoin="round" stroke-miterlimit="10" x1="313.361" y1="440.687" x2="390.003" y2="393.647"/>
		
			<line fill="none" stroke="#CCCCCC" stroke-width="1.15" stroke-linecap="round" stroke-linejoin="round" stroke-miterlimit="10" x1="157.625" y1="534.63" x2="234.268" y2="487.591"/>
		
			<line fill="none" stroke="#CCCCCC" stroke-width="1.15" stroke-linecap="round" stroke-linejoin="round" stroke-miterlimit="10" x1="234.268" y1="488.458" x2="310.906" y2="441.417"/>
		
			<line fill="none" stroke="#CCCCCC" stroke-width="1.15" stroke-linecap="round" stroke-linejoin="round" stroke-miterlimit="10" x1="301.753" y1="447.663" x2="378.394" y2="400.623"/>
	</g>
	<g>
		<path fill="#FA0F0C" d="M368.367,498.054l-22.629-22.628c-1.873-1.875-4.911-1.875-6.786,0l-1.697,1.697
			c-1.875,1.875-1.875,4.914,0,6.789l12.271,12.271h-1.519h-17.601h-14.399c-2.647,0-4.799,2.149-4.799,4.804v2.396
			c0,2.652,2.147,4.801,4.799,4.801h14.399h17.601h1.051l-12.313,12.313c-1.873,1.875-1.873,4.914,0,6.789l1.698,1.693
			c1.873,1.875,4.912,1.875,6.787,0l22.629-22.629c0.741-0.738,1.187-1.668,1.34-2.631
			C370.179,501.901,369.901,499.589,368.367,498.054z"/>
		<text transform="matrix(1 0 0 1 290.0166 430.9463)" font-family="'MicrosoftJhengHeiLight'" font-size="9.375">fachada</text>
		<text transform="matrix(1 0 0 1 290.0166 440.3213)" font-family="'MicrosoftJhengHeiLight'" font-size="9.375">o</text>
		<text transform="matrix(1 0 0 1 295.5615 440.3213)" font-family="'MicrosoftJhengHeiLight'" font-size="9.375">ficina</text>
		<text transform="matrix(1 0 0 1 290.0166 449.6963)" font-family="'MicrosoftJhengHeiLight'" font-size="9.375">x</text>
		<text transform="matrix(1 0 0 1 294.25 449.6963)" font-family="'MicrosoftJhengHeiLight'" font-size="9.375">dx_int</text>
		<text transform="matrix(1 0 0 1 290.0166 459.0713)" font-family="'MicrosoftJhengHeiLight'" font-size="9.375">x</text>
		<text transform="matrix(1 0 0 1 294.25 459.0713)" font-family="'MicrosoftJhengHeiLight'" font-size="9.375">dx_ext</text>
		<g>
			<g>
				<g>
					<g>
						<g>
							<defs>
								<polygon id="SVGID_1_" points="276.525,344.214 278.911,475.459 281.298,344.214 								"/>
							</defs>
							<clipPath id="SVGID_2_">
								<use xlink:href="#SVGID_1_"  overflow="visible"/>
							</clipPath>
							<polygon clip-path="url(#SVGID_2_)" fill="#F0EEE8" points="276.525,344.214 278.911,475.459 281.298,344.214 							"/>
						</g>
					</g>
				</g>
			</g>
			<g>
				<g>
					<g>
						<g>
							<defs>
								<polygon id="SVGID_3_" points="276.525,344.214 278.911,475.459 281.298,344.214 								"/>
							</defs>
							<clipPath id="SVGID_4_">
								<use xlink:href="#SVGID_3_"  overflow="visible"/>
							</clipPath>
							<polygon clip-path="url(#SVGID_4_)" fill="none" stroke="#CCCCCC" stroke-width="1.875" stroke-miterlimit="3.8637" points="
								276.525,344.214 278.911,475.459 281.298,344.214 							"/>
						</g>
					</g>
				</g>
			</g>
		</g>
		<polygon fill="none" stroke="#CCCCCC" stroke-width="1.875" stroke-miterlimit="3.8637" points="276.525,344.214 278.911,475.459 
			281.298,344.214 		"/>
		<rect x="285.9" y="306.962" fill="#F0F0F0" width="86.042" height="52.915"/>
		<rect x="287.909" y="364.55" fill="#F0F0F0" width="43.021" height="26.457"/>
		<rect x="288.354" y="394.618" fill="#F0F0F0" width="21.51" height="13.229"/>
		
			<rect x="288.354" y="394.618" fill="none" stroke="#FFFFFF" stroke-width="1.9531" stroke-linecap="round" stroke-linejoin="round" stroke-miterlimit="3.8636" width="21.51" height="13.229"/>
		<g>
			<g>
				<g>
					<g>
						<g>
							<defs>
								<polygon id="SVGID_5_" points="279.439,532.514 234.173,560.264 189.498,532.665 234.77,504.915 								"/>
							</defs>
							<clipPath id="SVGID_6_">
								<use xlink:href="#SVGID_5_"  overflow="visible"/>
							</clipPath>
							<polygon clip-path="url(#SVGID_6_)" fill="#FFFFFF" points="279.439,532.514 234.173,560.264 189.498,532.665 
								234.77,504.915 							"/>
						</g>
					</g>
				</g>
			</g>
			<g>
				<g>
					<g>
						<g>
							<defs>
								<polygon id="SVGID_7_" points="279.439,532.514 234.173,560.264 189.498,532.665 234.77,504.915 								"/>
							</defs>
							<clipPath id="SVGID_8_">
								<use xlink:href="#SVGID_7_"  overflow="visible"/>
							</clipPath>
							
								<polygon clip-path="url(#SVGID_8_)" fill="none" stroke="#CCCCCC" stroke-width="0.2343" stroke-miterlimit="3.8637" points="
								279.439,532.514 234.173,560.264 189.498,532.665 234.77,504.915 							"/>
						</g>
					</g>
				</g>
			</g>
		</g>
		<polygon fill="none" stroke="#CCCCCC" stroke-width="0.2343" stroke-miterlimit="3.8637" points="279.439,532.514 
			234.173,560.264 189.498,532.665 234.77,504.915 		"/>
		<ellipse fill="#F0F0F0" cx="235.313" cy="532.853" rx="34.063" ry="18.433"/>
		<path fill="#F0F0F0" d="M234.441,503.478c1.473,0.87,1.297,0.239,3.008,0.239c0.063,0.36,0.844-0.119,0.844,0.24
			c0,2.281,0.836,3.687,0.836,5.968c0,6.185,0,9.631,0,15.813c0,2.459-0.506,2.92-0.715,5.381c1.168,0.028,0.955,0.709,2.125,0.709
			c0.99,0,1.563,0.357,2.552,0.357c0.601,0,1.319-0.182,1.319-0.777c0-0.725-0.99-0.604-1.439-1.143
			c-1.08-1.262-1.921-2.188-1.921-3.871c0-0.867,0-1.381,0-2.25c0-2.222-0.229-3.188-0.229-5.405c0-1.145,0.712-2.003,0.712-3.146
			c0-3.688-0.111-5.906-0.111-9.597c0-3.541,1.201-4.75,1.201-8.291c0-1.92,0.959-6.344,0.959-7.693
			c0-1.591-0.356-2.977-0.356-4.563c0-0.421,0.478-0.215,1.321,2.16c1.115,3.121,1.22,2.963,1.22,5.934
			c0,2.159,0.688,3.329,0.688,5.49l0.619,1.432c0.721-1.08,0.84-1.95,0.84-3.241c0-2.188-0.24-1.53-0.24-3.725
			c0-0.87-0.238-2.255-0.238-3.125c0-5.581-1.006-5.075-4.566-9.375c-3.486-4.205-4.69-3.125-5.291-4.445
			c0.553-0.802,1.084-1.542,1.084-2.821c0-2.424-1.235-4.39-2.766-4.39c-1.526,0-2.768,1.966-2.768,4.39
			c0,1.279,0.289,2.143,0.844,2.941c-1.201,4.411-3.117,2.336-5.641,6.115c-1.021,1.531-2.158,2.432-2.158,4.291
			c0,1.561,0,2.461,0,4.021c0,2.225-0.721,3.48-0.721,5.7c0,1.895,0,2.971,0,4.861c0,0.42,0.357,0.72,0.777,0.72
			c1.291,0,1.768-1.61,1.605-2.875c-0.359-2.884,0.425-4.559,0.586-7.443c0.141-2.407,0.199-5.927,2.061-6.256
			c0.148,1.354-0.117,4.54-0.117,5.895c0,4.195,0.486,6.603,0.486,10.805c0,1.709,0.719,2.579,0.719,4.29c0,2.28,0,3.541,0,5.82
			c0,2.487,0.963,3.812,0.963,6.302c0,1.021,0,1.591,0,2.611c0,1.855,0.721,2.879,0.721,4.736c0,0.989,0,1.563,0,2.554l0.357,1.076
			c-0.658,0.962-2.578,1.231-2.041,2.313c0.57,0.091,0.899-0.029,1.473-0.029c0.631,0,0.961,0.359,1.594,0.359
			c0.656,0,1.26-0.479,1.26-1.144c0-1.106-0.723-1.616-0.723-2.729c0-2.13,0-3.332,0-5.461c0-1.051-0.238-2.094-0.238-3.146
			c0-3.72-0.119-4.332-0.119-8.055c0-1.32,0-2.764,0-4.084C234.809,506.392,233.964,504.948,234.441,503.478z"/>
		<path fill="none" stroke="#FA0F0C" stroke-miterlimit="3.8637" d="M234.441,503.478c1.473,0.87,1.297,0.239,3.008,0.239
			c0.063,0.36,0.844-0.119,0.844,0.24c0,2.281,0.836,3.687,0.836,5.968c0,6.185,0,9.631,0,15.813c0,2.459-0.506,2.92-0.715,5.381
			c1.168,0.028,0.955,0.709,2.125,0.709c0.99,0,1.563,0.357,2.552,0.357c0.601,0,1.319-0.182,1.319-0.777
			c0-0.725-0.99-0.604-1.439-1.143c-1.08-1.262-1.921-2.188-1.921-3.871c0-0.867,0-1.381,0-2.25c0-2.222-0.229-3.188-0.229-5.405
			c0-1.145,0.712-2.003,0.712-3.146c0-3.688-0.111-5.906-0.111-9.597c0-3.541,1.201-4.75,1.201-8.291
			c0-1.92,0.959-6.344,0.959-7.693c0-1.591-0.356-2.977-0.356-4.563c0-0.421,0.478-0.215,1.321,2.16
			c1.115,3.121,1.22,2.963,1.22,5.934c0,2.159,0.688,3.329,0.688,5.49l0.619,1.432c0.721-1.08,0.84-1.95,0.84-3.241
			c0-2.188-0.24-1.53-0.24-3.725c0-0.87-0.238-2.255-0.238-3.125c0-5.581-1.006-5.075-4.566-9.375
			c-3.486-4.205-4.69-3.125-5.291-4.445c0.553-0.802,1.084-1.542,1.084-2.821c0-2.424-1.235-4.39-2.766-4.39
			c-1.526,0-2.768,1.966-2.768,4.39c0,1.279,0.289,2.143,0.844,2.941c-1.201,4.411-3.117,2.336-5.641,6.115
			c-1.021,1.531-2.158,2.432-2.158,4.291c0,1.561,0,2.461,0,4.021c0,2.225-0.721,3.48-0.721,5.7c0,1.895,0,2.971,0,4.861
			c0,0.42,0.357,0.72,0.777,0.72c1.291,0,1.768-1.61,1.605-2.875c-0.359-2.884,0.425-4.559,0.586-7.443
			c0.141-2.407,0.199-5.927,2.061-6.256c0.148,1.354-0.117,4.54-0.117,5.895c0,4.195,0.486,6.603,0.486,10.805
			c0,1.709,0.719,2.579,0.719,4.29c0,2.28,0,3.541,0,5.82c0,2.487,0.963,3.812,0.963,6.302c0,1.021,0,1.591,0,2.611
			c0,1.855,0.721,2.879,0.721,4.736c0,0.989,0,1.563,0,2.554l0.357,1.076c-0.658,0.962-2.578,1.231-2.041,2.313
			c0.57,0.091,0.899-0.029,1.473-0.029c0.631,0,0.961,0.359,1.594,0.359c0.656,0,1.26-0.479,1.26-1.144
			c0-1.106-0.723-1.616-0.723-2.729c0-2.13,0-3.332,0-5.461c0-1.051-0.238-2.094-0.238-3.146c0-3.72-0.119-4.332-0.119-8.055
			c0-1.32,0-2.764,0-4.084C234.809,506.392,233.964,504.948,234.441,503.478z"/>
	</g>
</g>
<g>
	<path fill="#F70B0B" d="M301.144,253.017l-9.374,2.906c-0.938-0.624-1.875-1.5-2.813-2.625s-1.405-2.687-1.405-4.688
		c0-3.75,2.28-6.375,6.844-7.875l10.5-3.563h3.47c2.687,0,4.813,0.782,6.375,2.344c1.562,1.563,2.344,3.688,2.344,6.375v48.844
		c-0.688,0.125-1.703,0.296-3.047,0.516c-1.345,0.218-2.704,0.328-4.078,0.328c-1.375,0-2.61-0.094-3.703-0.281
		c-1.094-0.188-2.016-0.563-2.766-1.125s-1.328-1.327-1.734-2.297c-0.407-0.968-0.607-2.234-0.607-3.797L301.144,253.017
		L301.144,253.017z"/>
	<path fill="#F70B0B" d="M346.986,236.423c3.563,0,6.718,0.454,9.469,1.359c2.749,0.907,5.093,2.142,7.031,3.703
		c1.937,1.563,3.404,3.407,4.405,5.531c0.999,2.125,1.5,4.406,1.5,6.844c0,6.563-3.721,12.813-11.155,18.75l-12.281,9.844h22.5
		c0.375,0.688,0.732,1.563,1.078,2.625c0.343,1.063,0.516,2.219,0.516,3.469c0,2.25-0.501,3.86-1.5,4.828
		c-1.001,0.97-2.313,1.453-3.938,1.453H332.08c-1.376-0.938-2.454-2.14-3.234-3.609c-0.78-1.468-1.172-3.202-1.172-5.203
		c0-2.124,0.438-3.921,1.313-5.391c0.874-1.468,1.843-2.64,2.905-3.516l12.938-11.063c1.624-1.374,2.968-2.609,4.031-3.703
		c1.062-1.093,1.922-2.077,2.578-2.953c0.654-0.875,1.125-1.688,1.404-2.438c0.281-0.75,0.423-1.468,0.423-2.156
		c0-1.749-0.768-3.125-2.298-4.125c-1.53-0.999-3.422-1.5-5.672-1.5c-2.501,0-4.732,0.391-6.703,1.172
		c-1.969,0.782-3.607,1.61-4.922,2.484c-1.063-0.75-1.938-1.688-2.625-2.813c-0.687-1.125-1.03-2.438-1.03-3.938
		c0-3.249,1.529-5.672,4.595-7.266C337.673,237.22,341.798,236.423,346.986,236.423z"/>
</g>
<text transform="matrix(1 0 0 1 497.8262 274.8301)" fill="#F70B0B" font-family="'BalooDa'" font-size="93.75">12</text>
<g>
	<g>
		
			<path fill="none" stroke="#CCCCCC" stroke-width="0.2" stroke-linecap="round" stroke-linejoin="round" stroke-miterlimit="10" d="
			M292.666,94.429v-11.76l14.799,9.04v11.76L292.666,94.429z"/>
		<polyline fill="#FFFFFF" stroke="#909090" stroke-miterlimit="10" points="292.666,94.429 307.465,103.469 307.465,91.709 
			292.666,82.669 292.666,94.429 		"/>
	</g>
	<g>
		<path fill="#FFFFFF" d="M292.426,82.75v11.68l-14.801,9.12V91.87L292.426,82.75z"/>
		<polyline fill="#FFFFFF" stroke="#909090" stroke-miterlimit="10" points="292.426,94.429 277.625,103.549 277.625,91.87 
			292.426,82.75 292.426,94.429 		"/>
	</g>
	<g>
		<path fill="#FFFFFF" d="M307.307,103.79l-14.801,9.04l-14.641-9.04l14.801-9.04L307.307,103.79z"/>
		<polyline fill="#FFFFFF" stroke="#909090" stroke-miterlimit="10" points="307.307,103.79 292.666,94.75 277.865,103.79 
			292.506,112.83 307.307,103.79 		"/>
	</g>
	<g>
		<path fill="#FFFFFF" d="M291.705,112.83l-14.801-9.12V92.03l14.801,9.121V112.83z"/>
		<polyline fill="#FFFFFF" stroke="#909090" stroke-miterlimit="10" points="291.705,112.83 291.705,101.15 276.906,92.029 
			276.906,103.709 291.705,112.83 		"/>
	</g>
	<g>
		<path fill="#FFFFFF" d="M276.666,103.79l-14.803,9.12v-11.681l14.803-9.12V103.79z"/>
		<polyline fill="#FFFFFF" stroke="#909090" stroke-miterlimit="10" points="261.865,112.91 261.865,101.229 276.666,92.109 
			276.666,103.79 261.865,112.91 		"/>
	</g>
	<g>
		<path fill="#FFFFFF" stroke="#909090" stroke-miterlimit="10" d="M262.105,113.15l14.801-9.12l14.72,9.12l-14.879,9.04
			L262.105,113.15z"/>
		
			<polyline fill="none" stroke="#CCCCCC" stroke-width="0.2" stroke-linecap="round" stroke-linejoin="round" stroke-miterlimit="10" points="
			262.105,113.15 276.746,122.19 291.625,113.15 276.906,104.03 262.105,113.15 		"/>
	</g>
	<g>
		<path fill="#FFFFFF" d="M260.906,113.549v-11.76l14.88,9.12v11.68L260.906,113.549z"/>
		<polyline fill="#FFFFFF" stroke="#909090" stroke-miterlimit="10" points="260.906,113.549 275.785,122.589 275.785,110.91 
			260.906,101.79 260.906,113.549 		"/>
	</g>
	<g>
		<path fill="#FFFFFF" stroke="#909090" stroke-miterlimit="10" d="M245.865,122.75v-11.76l14.801-9.04v11.68L245.865,122.75z"/>
		
			<polyline fill="none" stroke="#CCCCCC" stroke-width="0.2" stroke-linecap="round" stroke-linejoin="round" stroke-miterlimit="10" points="
			245.865,110.99 260.666,101.95 260.666,113.629 245.865,122.75 245.865,110.99 		"/>
	</g>
	<g>
		<path fill="#FFFFFF" stroke="#909090" stroke-miterlimit="10" d="M260.986,113.95l14.64,8.96l-14.799,9.12l-14.722-9.04
			L260.986,113.95z"/>
		
			<polyline fill="none" stroke="#CCCCCC" stroke-width="0.2" stroke-linecap="round" stroke-linejoin="round" stroke-miterlimit="10" points="
			260.986,113.95 246.105,122.99 260.826,132.03 275.625,122.91 260.986,113.95 		"/>
	</g>
	<g>
		<path fill="#FFFFFF" d="M244.506,123.87v-11.76l14.801,9.119v11.681L244.506,123.87z"/>
		<polyline fill="#FFFFFF" stroke="#909090" stroke-miterlimit="10" points="244.506,123.87 259.307,132.91 259.307,121.229 
			244.506,112.11 244.506,123.87 		"/>
	</g>
	<g>
		<path fill="#FFFFFF" d="M229.465,133.07v-11.761l14.801-9.039v11.68L229.465,133.07z"/>
		<polyline fill="#FFFFFF" stroke="#909090" stroke-miterlimit="10" points="229.465,121.309 244.266,112.27 244.266,123.95 
			229.465,133.07 229.465,121.309 		"/>
	</g>
	<g>
		<path fill="#FFFFFF" stroke="#909090" stroke-miterlimit="10" d="M244.506,124.19l14.641,9.039l-14.801,9.121l-14.641-9.041
			L244.506,124.19z"/>
		
			<polyline fill="none" stroke="#CCCCCC" stroke-width="0.2" stroke-linecap="round" stroke-linejoin="round" stroke-miterlimit="10" points="
			244.506,124.19 229.705,133.309 244.346,142.35 259.146,133.229 244.506,124.19 		"/>
	</g>
	<g>
		<path fill="#FFFFFF" d="M228.746,133.229v-11.68l14.879,9.04v11.761L228.746,133.229z"/>
		<polyline fill="#FFFFFF" stroke="#909090" stroke-miterlimit="10" points="228.746,133.229 243.625,142.35 243.625,130.589 
			228.746,121.549 228.746,133.229 		"/>
	</g>
	<g>
		<path fill="#FFFFFF" d="M213.705,142.429v-11.68l14.801-9.12v11.68L213.705,142.429z"/>
		<polyline fill="#FFFFFF" stroke="#909090" stroke-miterlimit="10" points="213.705,130.75 228.506,121.629 228.506,133.309 
			213.705,142.429 213.705,130.75 		"/>
	</g>
	<g>
		<path fill="#FFFFFF" d="M213.945,142.669l14.882-9.12l14.639,9.04l-14.879,9.12L213.945,142.669z"/>
		<polyline fill="#FFFFFF" stroke="#909090" stroke-miterlimit="10" points="213.945,142.669 228.586,151.709 243.465,142.589 
			228.826,133.549 213.945,142.669 		"/>
	</g>
	<g>
		<path fill="#FFFFFF" d="M227.625,140.429v11.681l-14.799-9.12v-11.681L227.625,140.429z"/>
		<polyline fill="#FFFFFF" stroke="#909090" stroke-miterlimit="10" points="227.625,140.429 212.826,131.309 212.826,142.99 
			227.625,152.11 227.625,140.429 		"/>
	</g>
	<g>
		<path fill="#FFFFFF" d="M197.705,152.19v-11.68l14.801-9.121v11.761L197.705,152.19z"/>
		<polyline fill="#FFFFFF" stroke="#909090" stroke-miterlimit="10" points="197.705,140.51 212.506,131.389 212.506,143.15 
			197.705,152.19 197.705,140.51 		"/>
	</g>
	<g>
		<path fill="#FFFFFF" stroke="#909090" stroke-miterlimit="10" d="M212.666,161.549l-14.643-9.12l14.803-9.04l14.639,9.04
			L212.666,161.549z"/>
		
			<polyline fill="none" stroke="#CCCCCC" stroke-width="0.2" stroke-linecap="round" stroke-linejoin="round" stroke-miterlimit="10" points="
			212.666,161.549 227.465,152.429 212.826,143.389 198.025,152.429 212.666,161.549 		"/>
	</g>
</g>
<g opacity="0.3">
	<path fill="#0860A8" d="M197.146,151.991l0.24-11.601c0-0.079,31.355-19.28,94.076-57.6l15.201,8.72v11.92l-94.479,58.16
		L197.146,151.991z"/>
</g>
<path fill="#C9C8CC" d="M74.463,61.889c-1.162-1.141-2.551-1.722-4.166-1.722H48.265h-1.199H25.035
	c-1.639,0-3.027,0.582-4.167,1.722c-1.141,1.16-1.722,2.529-1.722,4.167v13.228c0,1.64,0.581,3.008,1.722,4.147
	c1.141,1.16,2.529,1.742,4.167,1.742h22.031h1.199h22.03c1.617,0,3.006-0.58,4.168-1.742c1.14-1.141,1.699-2.509,1.699-4.147V66.056
	C76.163,64.417,75.603,63.048,74.463,61.889z"/>
</svg>
