<?xml version="1.0" encoding="utf-8"?>
<!-- Generator: Adobe Illustrator 16.0.2, SVG Export Plug-In . SVG Version: 6.00 Build 0)  -->
<!DOCTYPE svg PUBLIC "-//W3C//DTD SVG 1.1//EN" "http://www.w3.org/Graphics/SVG/1.1/DTD/svg11.dtd">
<svg version="1.1"
	 id="svg815" xmlns:cc="http://creativecommons.org/ns#" xmlns:dc="http://purl.org/dc/elements/1.1/" xmlns:sodipodi="http://sodipodi.sourceforge.net/DTD/sodipodi-0.dtd" xmlns:inkscape="http://www.inkscape.org/namespaces/inkscape" xmlns:svg="http://www.w3.org/2000/svg" xmlns:rdf="http://www.w3.org/1999/02/22-rdf-syntax-ns#" sodipodi:docname="coffee013a.svg" inkscape:version="1.2.2 (732a01da63, 2022-12-09)"
	 xmlns="http://www.w3.org/2000/svg" xmlns:xlink="http://www.w3.org/1999/xlink" x="0px" y="0px" width="400px" height="136.5px"
	 viewBox="0 0 400 136.5" enable-background="new 0 0 400 136.5" xml:space="preserve">
<sodipodi:namedview  id="namedview817" inkscape:zoom="0.51782907" objecttolerance="10" guidetolerance="10" gridtolerance="10" borderopacity="1" bordercolor="#666666" showgrid="false" pagecolor="#ffffff" fit-margin-top="0" inkscape:cy="505.95846" inkscape:cx="-83.038984" fit-margin-left="0" inkscape:pagecheckerboard="0" inkscape:window-maximized="1" inkscape:current-layer="layer1" inkscape:window-height="705" inkscape:window-y="-8" inkscape:window-x="-8" inkscape:deskcolor="#d1d1d1" inkscape:pageopacity="0" inkscape:showpageshadow="2" inkscape:pageshadow="2" inkscape:window-width="1366" fit-margin-right="0" inkscape:snap-page="false" fit-margin-bottom="0" showguides="true">
	</sodipodi:namedview>
<text transform="matrix(0.9981 0 0 1 4.882813e-004 195.1016)" fill="#21AD97" font-family="'MicrosoftJhengHeiRegular'" font-size="29.175">Isometric | Social Media</text>
<text transform="matrix(0.9103 0 0 1 -6.2759 278.2744)" fill="#008000" font-family="'Bahnschrift'" font-size="92.8438">PRINCIPAL</text>
<g>
	
		<text transform="matrix(0.9981 0 0 1 47.6143 337.248)" fill="#999999" font-family="'MicrosoftJhengHeiRegular'" font-size="54.2292">I</text>
	
		<text transform="matrix(0.9981 0 0 1 61.0664 337.248)" fill="#999999" font-family="'MicrosoftJhengHeiRegular'" font-size="54.2292">s</text>
	
		<text transform="matrix(0.9981 0 0 1 83.8115 337.248)" fill="#999999" font-family="'MicrosoftJhengHeiRegular'" font-size="54.2292">o</text>
	
		<text transform="matrix(0.9981 0 0 1 116.605 337.248)" fill="#999999" font-family="'MicrosoftJhengHeiRegular'" font-size="54.2292">m</text>
	
		<text transform="matrix(0.9981 0 0 1 164.688 337.248)" fill="#999999" font-family="'MicrosoftJhengHeiRegular'" font-size="54.2292">e</text>
	
		<text transform="matrix(0.9981 0 0 1 194.1855 337.248)" fill="#999999" font-family="'MicrosoftJhengHeiRegular'" font-size="54.2292">t</text>
	
		<text transform="matrix(0.9981 0 0 1 211.6367 337.248)" fill="#999999" font-family="'MicrosoftJhengHeiRegular'" font-size="54.2292">r</text>
	
		<text transform="matrix(0.9981 0 0 1 230.9238 337.248)" fill="#999999" font-family="'MicrosoftJhengHeiRegular'" font-size="54.2292">i</text>
	
		<text transform="matrix(0.9981 0 0 1 243.0254 337.248)" fill="#999999" font-family="'MicrosoftJhengHeiRegular'" font-size="54.2292">c</text>
	
		<text transform="matrix(0.9981 0 0 1 3.832 391.4775)" fill="#999999" font-family="'MicrosoftJhengHeiRegular'" font-size="54.2292">S</text>
	
		<text transform="matrix(0.9981 0 0 1 32.9517 391.4775)" fill="#999999" font-family="'MicrosoftJhengHeiRegular'" font-size="54.2292">o</text>
	
		<text transform="matrix(0.9981 0 0 1 65.7456 391.4775)" fill="#999999" font-family="'MicrosoftJhengHeiRegular'" font-size="54.2292">c</text>
	
		<text transform="matrix(0.9981 0 0 1 91.6777 391.4775)" fill="#999999" font-family="'MicrosoftJhengHeiRegular'" font-size="54.2292">i</text>
	
		<text transform="matrix(0.9981 0 0 1 103.7798 391.4775)" fill="#999999" font-family="'MicrosoftJhengHeiRegular'" font-size="54.2292">a</text>
	
		<text transform="matrix(0.9981 0 0 1 132.6294 391.4775)" fill="#999999" font-family="'MicrosoftJhengHeiRegular'" font-size="54.2292">l</text>
	
		<text transform="matrix(0.9981 0 0 1 144.7314 391.4775)" fill="#999999" font-family="'MicrosoftJhengHeiRegular'" font-size="54.2292"> </text>
	
		<text transform="matrix(0.9981 0 0 1 160.7231 391.4775)" fill="#999999" font-family="'MicrosoftJhengHeiRegular'" font-size="54.2292">M</text>
	
		<text transform="matrix(0.9981 0 0 1 209.5088 391.4775)" fill="#999999" font-family="'MicrosoftJhengHeiRegular'" font-size="54.2292">e</text>
	
		<text transform="matrix(0.9981 0 0 1 239.0059 391.4775)" fill="#999999" font-family="'MicrosoftJhengHeiRegular'" font-size="54.2292">d</text>
	
		<text transform="matrix(0.9981 0 0 1 271.7461 391.4775)" fill="#999999" font-family="'MicrosoftJhengHeiRegular'" font-size="54.2292">i</text>
	
		<text transform="matrix(0.9981 0 0 1 283.8477 391.4775)" fill="#999999" font-family="'MicrosoftJhengHeiRegular'" font-size="54.2292">a</text>
</g>
<g>
	<g>
		<path fill="#FF3300" d="M5.04,100.08V36.4c0-3.92,0.72-7.6,2.16-11.12c1.439-3.359,3.52-6.4,6.16-9.039
			C18.88,10.72,25.52,8,33.44,8h333.2c3.842,0,7.44,0.72,11.04,2.241c3.36,1.359,6.4,3.439,9.041,6
			c5.521,5.6,8.239,12.239,8.239,20.159v63.68c0,3.92-0.72,7.6-2.239,11.12c-1.439,3.358-3.439,6.399-6,8.96
			c-2.641,2.641-5.681,4.72-9.041,6.081c-3.6,1.519-7.198,2.239-11.04,2.239H33.44c-3.92,0-7.52-0.723-11.12-2.239
			c-3.36-1.361-6.4-3.44-8.959-6.081c-2.641-2.561-4.721-5.602-6.16-8.96C5.76,107.68,5.04,104,5.04,100.08z"/>
	</g>
	<g>
		
			<path fill="none" stroke="#999999" stroke-width="0.5" stroke-linecap="round" stroke-linejoin="round" stroke-miterlimit="10" d="
			M5.04,100.08c0,3.92,0.72,7.6,2.16,11.12c1.439,3.358,3.52,6.399,6.16,8.96c2.56,2.641,5.6,4.72,8.959,6.081
			c3.6,1.519,7.2,2.239,11.12,2.239h333.2c3.84,0,7.44-0.723,11.04-2.239c3.36-1.361,6.4-3.44,9.041-6.081
			c2.561-2.561,4.561-5.602,6-8.96c1.521-3.521,2.239-7.2,2.239-11.12V36.4c0-7.92-2.72-14.559-8.239-20.159
			c-2.641-2.561-5.681-4.641-9.041-6C374.08,8.72,370.479,8,366.64,8H33.44c-7.92,0-14.56,2.72-20.08,8.241
			C10.72,18.88,8.64,21.92,7.2,25.28c-1.44,3.52-2.16,7.2-2.16,11.12V100.08"/>
	</g>
</g>
<g>
	<g>
		
			<path fill="none" stroke="#999999" stroke-width="0.4" stroke-linecap="round" stroke-linejoin="round" stroke-miterlimit="10" d="
			M286.479,93.76c0,6.32,2.242,11.6,6.643,16c4.398,4.481,9.76,6.721,16.08,6.721h51.04c6.237,0,11.6-2.237,16.08-6.721
			c4.398-4.4,6.56-9.68,6.56-16V42.72c0-6.32-2.159-11.6-6.56-16.08c-4.48-4.4-9.843-6.641-16.08-6.641H309.2
			c-6.32,0-11.681,2.241-16.08,6.641c-4.399,4.479-6.642,9.759-6.642,16.08V93.76"/>
	</g>
	<g>
		<path fill="#F2F2F2" d="M286.479,93.76V42.72c0-6.32,2.242-11.6,6.643-16.08c4.398-4.4,9.76-6.641,16.08-6.641h51.04
			c6.237,0,11.6,2.241,16.08,6.641c4.398,4.479,6.56,9.759,6.56,16.08v51.04c0,6.32-2.159,11.6-6.56,16
			c-4.48,4.481-9.843,6.721-16.08,6.721H309.2c-6.32,0-11.681-2.237-16.08-6.721C288.721,105.359,286.479,100.08,286.479,93.76z"/>
	</g>
</g>
<g>
	<path fill="#FFFFFF" d="M610.05-17.079v-5.6h-19.521V22.76h19.521v-5.68h-13.601V3h12v-5.68h-12v-14.4L610.05-17.079L610.05-17.079
		z"/>
	<path fill="#FFFFFF" d="M689.17-22.68H669.73v45.44h19.439v-5.68h-13.52V3h12v-5.68h-12v-14.4h13.52V-22.68z"/>
	<path fill="#FFFFFF" d="M665.09-17.079v-5.6h-22.08v5.6h8.08V22.76h5.92v-39.839H665.09z"/>
	<g>
		<g>
			<g>
				<path fill="#FFFFFF" d="M485.49-4.919l4.16,2c0.08,0,0.239,0.08,0.239,0.159l0.4,0.081c1.76,0.8,3.2,1.6,4.319,2.4
					c1.121,0.639,2,1.759,2.881,3.2c0.72,1.359,1.119,3.201,1.119,5.44v4.16c0,2.237-0.479,4.158-1.279,5.84
					c-0.801,1.6-2.08,2.8-3.68,3.6c-1.601,0.8-3.601,1.199-5.92,1.199c-2.4,0-4.4-0.399-6.08-1.199c-1.681-0.801-2.881-2-3.761-3.6
					c-0.8-1.682-1.28-3.603-1.28-5.84v-2.24h6v2c0,1.6,0.4,2.88,1.28,3.841c0.88,0.88,2.16,1.358,3.841,1.358
					c1.6,0,2.799-0.479,3.6-1.358c0.88-0.961,1.359-2.161,1.359-3.841v-4c0-1.041-0.32-2-0.8-2.801
					c-0.64-0.72-1.36-1.359-2.079-1.84c-0.961-0.559-2.08-1.118-3.361-1.759c-0.08,0-0.08,0-0.159,0h-0.08l-0.399-0.241
					c-2.08-0.959-3.681-1.759-4.721-2.559c-1.2-0.8-2.24-2-3.2-3.521c-0.8-1.439-1.2-3.28-1.2-5.6v-2.639
					c0-2.24,0.4-4.161,1.2-5.681c0.8-1.519,2.08-2.719,3.761-3.6c1.68-0.8,3.68-1.2,6-1.2c2.319,0,4.239,0.4,5.84,1.281
					c1.6,0.719,2.8,1.918,3.6,3.6c0.8,1.519,1.2,3.439,1.2,5.759v2.401h-5.841v-2.159c0-1.682-0.399-2.961-1.279-3.841
					c-0.801-0.8-1.92-1.28-3.52-1.28c-1.601,0-2.881,0.48-3.761,1.28c-0.8,0.8-1.28,2-1.28,3.6v2.8c0,1.2,0.32,2.16,0.801,2.88
					C483.89-6.12,484.609-5.479,485.49-4.919z"/>
			</g>
		</g>
		<g>
			<g>
				<path fill="#FFFFFF" d="M511.89-22.68v45.44h-5.92v-45.44H511.89z"/>
			</g>
		</g>
		<g>
			<g>
				<path fill="#FFFFFF" d="M530.529-1.72h11.041v13.28c0,2.4-0.4,4.563-1.28,6.32c-0.88,1.68-2.16,3.041-3.761,4
					c-1.6,0.88-3.6,1.28-5.84,1.28c-2.32,0-4.32-0.4-6-1.2c-1.68-0.88-2.959-2.159-3.84-3.839c-0.8-1.601-1.279-3.601-1.279-5.921
					v-23.68c0-2.561,0.479-4.641,1.279-6.32c0.879-1.68,2.08-3.12,3.68-4c1.681-0.88,3.601-1.361,5.92-1.361
					c2.32,0,4.24,0.481,5.841,1.281c1.521,0.879,2.8,2.159,3.6,3.918c0.88,1.682,1.28,3.682,1.28,6.082v2.239h-6.32v-2.239
					c0-1.2-0.16-2.161-0.48-2.961c-0.319-0.88-0.799-1.439-1.52-1.92c-0.72-0.479-1.521-0.639-2.4-0.639
					c-0.959,0-1.92,0.239-2.721,0.72c-0.64,0.4-1.199,1.039-1.68,2c-0.32,0.88-0.561,1.919-0.561,3.2v23.68
					c0,1.121,0.24,2.08,0.641,2.88c0.4,0.721,0.96,1.28,1.76,1.68c0.721,0.479,1.68,0.722,2.801,0.722
					c0.959,0,1.84-0.319,2.64-0.722c0.72-0.479,1.2-1.039,1.68-2c0.399-0.88,0.64-1.839,0.64-3.12V3.88h-5.119V-1.72L530.529-1.72z"
					/>
			</g>
		</g>
		<g>
			<g>
				<path fill="#FFFFFF" d="M564.93,21.96c-1.52,0.8-3.359,1.2-5.68,1.2c-2.24,0-4.08-0.4-5.6-1.2c-1.521-0.8-2.721-2-3.521-3.6
					c-0.8-1.603-1.2-3.603-1.2-5.84V-22.68h6v35.44c0,1.521,0.32,2.722,1.12,3.521c0.72,0.802,1.761,1.201,3.2,1.201
					s2.479-0.399,3.279-1.201c0.801-0.879,1.201-2,1.201-3.521v-35.44h5.92v35.201c0,2.238-0.4,4.238-1.201,5.84
					C567.65,19.96,566.449,21.161,564.93,21.96z"/>
			</g>
		</g>
		<g>
			<g>
				<path fill="#FFFFFF" d="M582.93-22.68v45.44h-6v-45.44H582.93z"/>
			</g>
		</g>
		<g>
			<g>
				<path fill="#FFFFFF" d="M633.25,22.76L621.811-8.52v-3.359l-0.959,0.8l0.959,2.56v31.28h-5.681V-22.68h5.2l11.521,32.001v3.6
					l0.959-0.8l-0.959-2.8V-22.68h5.678v45.44H633.25z"/>
			</g>
		</g>
	</g>
</g>
<path fill="#FF0000" d="M374.561,65.041c0-0.8-0.158-1.6-0.479-2.32c-0.24-0.72-0.72-1.44-1.359-2.08L343.84,31.68
	c-0.64-0.479-1.358-1.039-2.08-1.28c-0.72-0.32-1.52-0.479-2.318-0.479c-0.802,0-1.521,0.159-2.319,0.479
	c-0.8,0.241-1.44,0.8-2,1.28l-2.24,2.241c-0.56,0.559-0.96,1.28-1.28,2c-0.318,0.72-0.479,1.52-0.479,2.32
	c0,0.8,0.159,1.6,0.479,2.319c0.32,0.72,0.723,1.44,1.28,2.081l15.726,15.68h-1.885H324.16h-18.4c-0.88,0-1.68,0.159-2.397,0.479
	c-0.723,0.241-1.44,0.721-1.921,1.28c-0.562,0.561-1.039,1.2-1.359,1.92c-0.32,0.8-0.48,1.6-0.48,2.4v3.121
	c0,0.88,0.16,1.68,0.48,2.4s0.8,1.359,1.359,1.92c0.479,0.56,1.198,1.039,1.921,1.359c0.72,0.241,1.52,0.399,2.397,0.399h18.4
	h22.561h1.359l-15.76,15.76c-0.643,0.641-1.041,1.281-1.36,2.082c-0.32,0.719-0.479,1.519-0.479,2.316
	c0,0.801,0.158,1.521,0.479,2.32c0.319,0.8,0.72,1.439,1.36,2l2.157,2.161c0.563,0.639,1.2,1.038,2,1.358
	c0.802,0.319,1.521,0.479,2.32,0.479s1.521-0.159,2.32-0.479s1.438-0.722,2-1.358l28.96-28.962c0.641-0.561,1.04-1.279,1.359-2
	c0.185-0.461,0.311-0.896,0.388-1.333c0.101-0.193,0.187-0.391,0.253-0.588C374.4,66.641,374.561,65.841,374.561,65.041z"/>
<g>
	<g>
		<g>
			<path fill="#FE9929" d="M43.92,105.359l2.8-2.079l-2.8-2.08v-3.279l6.88,5.359l-6.88,5.36V105.359z"/>
		</g>
	</g>
	<g>
		<g>
			<path fill="#FE9929" d="M51.2,105.359l2.88-2.079l-2.88-2.08v-3.279l6.88,5.359l-6.88,5.36V105.359z"/>
		</g>
	</g>
	<g>
		<g>
			<path fill="#FE9929" d="M69.84,104.641h-2.48v-2.397h2.56c0.32,0,0.64-0.081,0.88-0.241c0.32-0.159,0.48-0.398,0.64-0.72
				c0.08-0.239,0.16-0.642,0.16-1.12V97.2c0-0.479-0.08-0.8-0.16-1.12c-0.16-0.32-0.32-0.561-0.64-0.721
				c-0.24-0.159-0.56-0.238-0.88-0.238h-2.56v-2.48h2.479c0.88,0,1.6,0.239,2.4,0.562c0.56,0.399,1.121,0.88,1.521,1.601
				c0.24,0.559,0.48,1.358,0.48,2.398v3.041c0,0.959-0.24,1.759-0.56,2.398c-0.32,0.641-0.8,1.118-1.44,1.438
				C71.6,104.48,70.8,104.641,69.84,104.641z"/>
			<path fill="#FE9929" d="M64.8,112.241V92.641h1.44v2.48h1.121v7.12H66.24v2.399h1.121v7.601H64.8L64.8,112.241z"/>
		</g>
	</g>
	<g>
		<g>
			<path fill="#FE9929" d="M81.52,96.641l-1.68,8.961H78.8V108h0.64l-0.8,4.241h-2.8l4.56-19.601h2.32l4.561,19.601h-2.8L83.68,108
				h0.88v-2.398H83.2L81.52,96.641z"/>
			<path fill="#FE9929" d="M83.68,108h-4.24l0.4-2.398h3.36L83.68,108z"/>
		</g>
	</g>
	<g>
		<g>
			<path fill="#FE9929" d="M94.56,101.28l2.08,1.04c0.48,0.32,0.88,0.88,1.2,1.359c0.32,0.562,0.4,1.359,0.4,2.398v1.761
				c0,1.039-0.08,1.841-0.479,2.562c-0.32,0.641-0.88,1.199-1.6,1.438c-0.72,0.4-1.6,0.642-2.56,0.642s-1.84-0.239-2.56-0.642
				c-0.72-0.239-1.28-0.8-1.6-1.438c-0.4-0.801-0.56-1.602-0.56-2.562v-0.961h2.56v0.802c0,0.801,0.16,1.278,0.56,1.68
				c0.4,0.398,0.96,0.641,1.6,0.641s1.2-0.24,1.6-0.641c0.4-0.399,0.56-0.879,0.56-1.68v-1.602c0-0.479-0.16-0.88-0.32-1.2
				c-0.24-0.319-0.56-0.639-0.88-0.88l-1.52-0.721l0,0h-0.08l-0.16-0.079l-2-1.12c-0.64-0.398-1.04-0.88-1.36-1.521
				c-0.4-0.72-0.56-1.52-0.56-2.398v-1.2c0-0.88,0.16-1.681,0.56-2.399c0.32-0.72,0.88-1.199,1.6-1.601
				c0.72-0.317,1.6-0.479,2.56-0.479s1.76,0.16,2.48,0.479c0.72,0.397,1.2,0.881,1.6,1.601c0.32,0.722,0.56,1.602,0.56,2.48v1.039
				h-2.56V97.2c0-0.72-0.24-1.2-0.56-1.681c-0.32-0.319-0.88-0.562-1.52-0.562c-0.72,0-1.28,0.24-1.6,0.562
				c-0.4,0.319-0.56,0.881-0.56,1.521v1.2c0,0.479,0.08,0.959,0.32,1.277c0.32,0.32,0.56,0.562,0.879,0.801l1.44,0.722
				c0.08,0,0.16,0,0.16,0.08c0.08,0.079,0.16,0.079,0.16,0.079L94.56,101.28z"/>
		</g>
	</g>
	<g>
		<g>
			<path fill="#FE9929" d="M103.36,92.641v19.603h-2.56V92.641H103.36z"/>
		</g>
	</g>
	<g>
		<g>
			<path fill="#FE9929" d="M107.36,109.76v2.481H106V92.641h2.56v17.119H107.36z"/>
			<path fill="#FE9929" d="M108.56,109.76h5.6v2.481h-5.6V109.76z"/>
		</g>
	</g>
	<g>
		<g>
			<path fill="#FE9929" d="M117.44,109.76v2.481h-1.28V92.641h2.479v17.119H117.44z"/>
			<path fill="#FE9929" d="M118.64,109.76h5.6v2.481h-5.6V109.76z"/>
		</g>
	</g>
	<g>
		<g>
			<path fill="#FE9929" d="M133.68,111.841c-0.72,0.4-1.6,0.64-2.64,0.64c-0.96,0-1.84-0.237-2.56-0.64
				c-0.8-0.399-1.36-0.961-1.68-1.681c-0.32-0.719-0.56-1.602-0.56-2.641v-10.16c0-1.039,0.24-1.918,0.56-2.641
				c0.32-0.721,0.88-1.277,1.68-1.68c0.8-0.398,1.68-0.563,2.56-0.563c1.04,0,1.92,0.16,2.64,0.563c0.64,0.318,1.28,0.959,1.68,1.68
				c0.4,0.801,0.56,1.682,0.56,2.641v10.16c0,0.961-0.16,1.84-0.56,2.641C134.96,110.88,134.4,111.441,133.68,111.841z
				 M129.84,109.68c0.4,0.161,0.8,0.32,1.2,0.32s0.8-0.159,1.28-0.32c0.32-0.158,0.64-0.397,0.8-0.8c0.16-0.399,0.24-0.8,0.24-1.278
				V97.28c0-0.479-0.08-0.88-0.24-1.2c-0.16-0.4-0.48-0.721-0.8-0.8c-0.48-0.239-0.88-0.32-1.28-0.32s-0.8,0.081-1.2,0.32
				c-0.32,0.079-0.56,0.399-0.8,0.8c-0.16,0.32-0.24,0.721-0.24,1.2V107.6c0,0.479,0.08,0.881,0.24,1.279
				C129.28,109.28,129.52,109.521,129.84,109.68z"/>
		</g>
	</g>
	<g>
		<g>
			<path fill="#FE9929" d="M143.44,105.359l2.8-2.079l-2.8-2.08v-3.279l6.88,5.359l-6.88,5.36V105.359z"/>
		</g>
	</g>
	<g>
		<g>
			<path fill="#FE9929" d="M150.8,105.359l2.88-2.079l-2.88-2.08v-3.279l6.88,5.359l-6.88,5.36V105.359z"/>
		</g>
	</g>
	<g>
		<g>
			<path fill="#FE9929" d="M169.44,104.641h-2.48v-2.397h2.48c0.4,0,0.72-0.081,0.96-0.241c0.24-0.159,0.48-0.398,0.56-0.72
				c0.08-0.239,0.16-0.642,0.16-1.12V97.2c0-0.479-0.08-0.8-0.16-1.12s-0.32-0.561-0.56-0.721c-0.24-0.159-0.56-0.238-0.96-0.238
				h-2.48v-2.48h2.48c0.88,0,1.68,0.239,2.4,0.562c0.56,0.399,1.12,0.88,1.44,1.601c0.4,0.643,0.56,1.44,0.56,2.399v3.041
				c0,0.88-0.16,1.6-0.56,2.397c-0.4,0.642-0.96,1.2-1.52,1.439C171.12,104.48,170.32,104.641,169.44,104.641z"/>
			<path fill="#FE9929" d="M164.4,112.241V92.641h1.44v2.48h1.12v7.12h-1.12v2.399h1.12v7.601H164.4L164.4,112.241z"/>
		</g>
	</g>
	<g>
		<g>
			<path fill="#FE9929" d="M181.12,96.641l-1.68,8.961h-1.12V108h0.72l-0.88,4.241h-2.72l4.48-19.601h2.32l4.56,19.601h-2.72
				l-0.8-4.241h0.88v-2.398h-1.36L181.12,96.641z"/>
			<path fill="#FE9929" d="M183.28,108h-4.24l0.4-2.398h3.36L183.28,108z"/>
		</g>
	</g>
	<g>
		<g>
			<path fill="#FE9929" d="M193.84,101.121l0.32,0.159c0.08,0,0.08,0,0.08,0l1.92,1.04c0.479,0.32,0.88,0.721,1.2,1.359
				c0.4,0.641,0.479,1.439,0.479,2.398v1.761c0,0.96-0.16,1.761-0.479,2.562c-0.4,0.641-0.96,1.199-1.6,1.438
				c-0.72,0.4-1.6,0.642-2.64,0.642c-0.96,0-1.76-0.239-2.56-0.642c-0.72-0.239-1.2-0.8-1.6-1.438
				c-0.32-0.801-0.56-1.602-0.56-2.562v-0.961h2.56v0.802c0,0.801,0.16,1.278,0.56,1.68c0.4,0.398,0.96,0.641,1.6,0.641
				c0.72,0,1.28-0.24,1.6-0.641c0.4-0.399,0.641-0.879,0.641-1.68v-1.602c0-0.479-0.16-0.88-0.4-1.2
				c-0.24-0.319-0.48-0.639-0.88-0.88l-1.44-0.721c0,0,0,0-0.08,0l0,0l-0.24-0.079l-2-1.12c-0.48-0.398-0.959-0.88-1.36-1.521
				c-0.32-0.561-0.48-1.358-0.48-2.398v-1.2c0-0.88,0.16-1.681,0.48-2.399c0.4-0.72,0.88-1.199,1.6-1.601
				c0.8-0.317,1.68-0.479,2.56-0.479c0.96,0,1.84,0.16,2.56,0.479c0.64,0.397,1.2,0.881,1.6,1.601c0.32,0.722,0.48,1.602,0.48,2.48
				v1.039h-2.56V97.2c0-0.72-0.16-1.359-0.561-1.681c-0.32-0.319-0.8-0.562-1.52-0.562c-0.64,0-1.2,0.24-1.6,0.562
				c-0.4,0.32-0.48,0.881-0.48,1.521v1.2c0,0.56,0.08,0.959,0.32,1.277c0.24,0.32,0.479,0.562,0.879,0.801l1.44,0.722
				C193.76,101.041,193.76,101.041,193.84,101.121z"/>
		</g>
	</g>
	<g>
		<g>
			<path fill="#FE9929" d="M202.96,92.641v19.603h-2.64V92.641H202.96z"/>
		</g>
	</g>
	<g>
		<g>
			<path fill="#FE9929" d="M206.96,109.76v2.481h-1.438V92.641h2.641v17.119H206.96z"/>
			<path fill="#FE9929" d="M208.16,109.76h5.52v2.481h-5.52V109.76z"/>
		</g>
	</g>
	<g>
		<g>
			<path fill="#FE9929" d="M217.04,109.76v2.481h-1.36V92.641h2.563v17.119H217.04z"/>
			<path fill="#FE9929" d="M218.24,109.76h5.6v2.481h-5.6V109.76z"/>
		</g>
	</g>
	<g>
		<g>
			<path fill="#FE9929" d="M233.279,111.841c-0.719,0.4-1.6,0.64-2.641,0.64c-0.959,0-1.918-0.237-2.561-0.64
				c-0.803-0.399-1.357-0.961-1.762-1.681c-0.318-0.801-0.479-1.68-0.479-2.641v-10.16c0-0.959,0.16-1.84,0.479-2.641
				c0.4-0.721,0.959-1.277,1.762-1.68c0.72-0.398,1.602-0.563,2.561-0.563c1.041,0,1.84,0.16,2.641,0.563
				c0.801,0.398,1.281,0.959,1.601,1.68c0.399,0.723,0.642,1.682,0.642,2.641v10.16c0,1.039-0.242,1.922-0.642,2.641
				C234.561,110.88,234.08,111.441,233.279,111.841z M229.439,109.68c0.398,0.161,0.801,0.32,1.199,0.32
				c0.479,0,0.881-0.159,1.279-0.32c0.318-0.158,0.561-0.397,0.803-0.8c0.157-0.399,0.237-0.8,0.237-1.278V97.28
				c0-0.4-0.08-0.8-0.237-1.2c-0.242-0.4-0.48-0.721-0.803-0.8c-0.398-0.239-0.8-0.32-1.279-0.32c-0.398,0-0.801,0.081-1.199,0.32
				c-0.399,0.161-0.642,0.399-0.801,0.8c-0.16,0.32-0.318,0.721-0.318,1.2V107.6c0,0.479,0.158,0.881,0.318,1.279
				C228.8,109.2,229.04,109.441,229.439,109.68z"/>
		</g>
	</g>
	<g>
		<g>
			<path fill="#FE9929" d="M243.04,105.359l2.88-2.079l-2.88-2.08v-3.279l6.88,5.359l-6.88,5.36V105.359z"/>
		</g>
	</g>
	<g>
		<g>
			<path fill="#FE9929" d="M250.4,105.359l2.8-2.079l-2.8-2.08v-3.279l6.879,5.359l-6.879,5.36V105.359z"/>
		</g>
	</g>
</g>
<line fill="none" stroke="#000000" stroke-miterlimit="10" x1="0" y1="136.5" x2="400" y2="0"/>
<text transform="matrix(0.7268 0 0 1 -324.5459 340.5088)" fill="#008000" font-family="'Bahnschrift'" font-size="62.5328">SIGUIENTE</text>
<text transform="matrix(0.7268 0 0 1 -324.5459 400.4521)" fill="#008000" font-family="'Bahnschrift'" font-size="62.5328">PASILLOS</text>
<g>
	<g enable-background="new    ">
		<path fill="#008000" d="M-311.385,196.83c0,0-0.691-0.211-2.074-0.632c-1.383-0.422-2.673-1.055-3.872-1.897
			c-1.199-0.844-2.321-1.898-3.365-3.164l2.802-4.933c1.221,1.518,2.566,2.656,4.038,3.415c1.471,0.759,3.067,1.139,4.788,1.139
			c2.323,0,4.125-0.616,5.405-1.85c1.279-1.234,1.919-2.979,1.919-5.234v-0.032c0-1.602-0.291-2.872-0.872-3.811
			s-1.331-1.634-2.25-2.087c-0.919-0.453-2.107-0.871-3.563-1.25c-0.044-0.021-0.092-0.031-0.144-0.031s-0.099-0.012-0.143-0.032
			l-0.331-0.095c-2.147-0.526-3.895-1.123-5.24-1.787s-2.497-1.876-3.453-3.637c-0.957-1.76-1.434-4.264-1.434-7.512v-0.031
			c0-2.847,0.445-5.277,1.334-7.29c0.89-2.013,2.188-3.548,3.894-4.603c1.706-1.054,3.758-1.581,6.156-1.581
			c1.147,0,2.275,0.18,3.387,0.538c1.11,0.358,2.206,0.891,3.287,1.598c1.081,0.706,2.144,1.596,3.188,2.672l-2.559,5.123
			c-1.222-1.285-2.438-2.25-3.651-2.894c-1.213-0.644-2.431-0.965-3.651-0.965c-2.192,0-3.895,0.628-5.108,1.882
			c-1.213,1.255-1.82,3.031-1.82,5.329v0.032c0,1.581,0.313,2.825,0.938,3.732c0.625,0.906,1.405,1.575,2.339,2.008
			c0.934,0.432,2.232,0.881,3.894,1.344c0.058,0.021,0.114,0.037,0.166,0.048c0.051,0.011,0.106,0.026,0.166,0.048
			c0.073,0.021,0.154,0.042,0.242,0.063c0.089,0.021,0.169,0.043,0.243,0.063c1.941,0.569,3.563,1.245,4.865,2.024
			c1.301,0.78,2.39,2.04,3.265,3.779c0.875,1.739,1.313,4.117,1.313,7.132v0.063c0,2.805-0.464,5.202-1.391,7.195
			c-0.927,1.992-2.269,3.511-4.026,4.554c-1.758,1.044-3.879,1.565-6.364,1.565C-310.613,196.83-311.385,196.83-311.385,196.83z"/>
		<path fill="#008000" d="M-286.83,196.355h-4.5v-45.984h4.5V196.355z"/>
		<path fill="#008000" d="M-256.958,171.592v8.033c0,3.416-0.463,6.426-1.39,9.029c-0.927,2.604-2.239,4.618-3.938,6.041
			c-1.7,1.424-3.667,2.135-5.902,2.135c-2.266,0-4.255-0.669-5.969-2.008c-1.713-1.339-3.041-3.231-3.982-5.678
			c-0.941-2.445-1.412-5.281-1.412-8.508v-13.568c0-3.414,0.463-6.42,1.39-9.013c0.927-2.594,2.24-4.602,3.938-6.024
			c1.699-1.424,3.666-2.136,5.902-2.136c1.838,0,3.534,0.565,5.085,1.692c1.552,1.129,2.849,2.725,3.894,4.791
			c1.044,2.066,1.75,4.459,2.118,7.18h-4.876c-0.264-1.539-0.713-2.862-1.345-3.969c-0.632-1.107-1.375-1.951-2.228-2.53
			c-0.854-0.58-1.736-0.87-2.648-0.87c-1.324,0-2.486,0.453-3.486,1.359c-1,0.907-1.772,2.178-2.316,3.812
			c-0.543,1.634-0.816,3.537-0.816,5.708v13.568c0,1.982,0.28,3.717,0.838,5.203c0.558,1.486,1.349,2.641,2.372,3.463
			s2.203,1.233,3.542,1.233c1.324,0,2.485-0.427,3.485-1.28c1-0.854,1.772-2.093,2.316-3.717c0.544-1.623,0.816-3.553,0.816-5.787
			v-1.992h-6.508v-6.168H-256.958z"/>
		<path fill="#008000" d="M-245.827,194.822c-1.685-1.339-2.968-3.289-3.851-5.852c-0.882-2.562-1.323-5.646-1.323-9.25v-29.35
			h4.501v29.57c0,3.353,0.588,5.945,1.764,7.78c1.177,1.834,2.839,2.752,4.987,2.752c2.162,0,3.835-0.918,5.019-2.752
			c1.184-1.835,1.776-4.428,1.776-7.78v-29.57h4.5v29.35c0,3.604-0.441,6.688-1.323,9.25c-0.883,2.563-2.17,4.513-3.861,5.852
			c-1.692,1.339-3.729,2.008-6.111,2.008C-242.117,196.83-244.144,196.161-245.827,194.822z"/>
		<path fill="#008000" d="M-216.893,196.355h-4.5v-45.984h4.5V196.355z"/>
		<path fill="#008000" d="M-208.95,150.371h4.5v45.984h-4.5V150.371z M-206.766,150.371h18.422v6.135h-18.422V150.371z
			 M-206.766,170.453h15.995v6.136h-15.995V170.453z M-206.766,190.22h18.422v6.136h-18.422V190.22z"/>
		<path fill="#008000" d="M-181.946,150.371h4.082l15.686,35.548l-0.529,0.822v-36.37h4.455v45.953h-4.124l-15.643-35.011
			l0.529-0.822v35.833h-4.456V150.371z"/>
		<path fill="#008000" d="M-152.957,150.371h22.636v6.135h-22.636V150.371z M-143.889,154.134h4.501v42.222h-4.501V154.134z"/>
		<path fill="#008000" d="M-125.908,150.371h4.501v45.984h-4.501V150.371z M-123.724,150.371h18.423v6.135h-18.423V150.371z
			 M-123.724,170.453h15.996v6.136h-15.996V170.453z M-123.724,190.22h18.423v6.136h-18.423V190.22z"/>
	</g>
	<g enable-background="new    ">
		<path fill="#008000" d="M-318.71,212.461h4.5v45.985h-4.5V212.461z M-316.394,234.474h10.259c0.97,0,1.823-0.327,2.559-0.98
			s1.306-1.582,1.71-2.783c0.404-1.202,0.606-2.583,0.606-4.144c0-1.581-0.202-2.973-0.606-4.175
			c-0.405-1.202-0.975-2.135-1.71-2.799s-1.588-0.996-2.559-0.996h-10.259v-6.136h10.104c1.912,0,3.596,0.585,5.052,1.755
			c1.456,1.171,2.584,2.82,3.386,4.95s1.203,4.597,1.203,7.4c0,2.805-0.401,5.266-1.203,7.385c-0.802,2.12-1.93,3.759-3.386,4.918
			c-1.457,1.16-3.14,1.74-5.052,1.74h-10.104V234.474z"/>
		<path fill="#008000" d="M-283.83,212.461h3.839l11.825,45.985h-4.854l-8.891-37.099l-8.891,37.099h-4.854L-283.83,212.461z
			 M-290.206,242.223h16.878v6.135h-16.878V242.223z"/>
		<path fill="#008000" d="M-257.752,258.921c0,0-0.692-0.211-2.074-0.632c-1.383-0.422-2.673-1.055-3.872-1.897
			c-1.199-0.844-2.32-1.898-3.365-3.164l2.802-4.933c1.22,1.518,2.566,2.656,4.037,3.415c1.471,0.759,3.067,1.139,4.788,1.139
			c2.324,0,4.125-0.617,5.406-1.85c1.279-1.234,1.919-2.979,1.919-5.234v-0.032c0-1.602-0.291-2.872-0.872-3.811
			c-0.581-0.938-1.332-1.634-2.25-2.088c-0.919-0.453-2.106-0.87-3.563-1.249c-0.044-0.021-0.092-0.031-0.144-0.031
			s-0.1-0.011-0.144-0.032l-0.331-0.095c-2.148-0.526-3.895-1.123-5.24-1.787c-1.345-0.664-2.497-1.876-3.453-3.637
			s-1.434-4.265-1.434-7.512v-0.031c0-2.847,0.445-5.277,1.335-7.29c0.889-2.014,2.188-3.548,3.893-4.603
			c1.707-1.054,3.758-1.581,6.156-1.581c1.147,0,2.275,0.18,3.387,0.537c1.11,0.359,2.206,0.892,3.287,1.598
			c1.081,0.707,2.144,1.598,3.188,2.673l-2.559,5.124c-1.221-1.287-2.438-2.251-3.651-2.895c-1.213-0.644-2.431-0.965-3.651-0.965
			c-2.191,0-3.895,0.628-5.107,1.882c-1.214,1.255-1.82,3.032-1.82,5.329v0.032c0,1.581,0.312,2.825,0.938,3.732
			c0.625,0.906,1.404,1.575,2.338,2.007c0.934,0.434,2.231,0.882,3.894,1.345c0.059,0.021,0.114,0.037,0.166,0.048
			c0.051,0.011,0.106,0.026,0.166,0.048c0.073,0.021,0.154,0.042,0.243,0.063c0.088,0.021,0.168,0.043,0.243,0.063
			c1.941,0.569,3.563,1.244,4.865,2.023c1.301,0.781,2.39,2.041,3.266,3.78c0.875,1.739,1.312,4.117,1.312,7.132v0.063
			c0,2.804-0.463,5.202-1.39,7.195c-0.927,1.992-2.27,3.511-4.027,4.554c-1.757,1.044-3.879,1.565-6.365,1.565
			C-256.98,258.921-257.752,258.921-257.752,258.921z"/>
		<path fill="#008000" d="M-233.196,258.446h-4.501v-45.985h4.501V258.446z"/>
		<path fill="#008000" d="M-225.254,212.461h4.5v45.985h-4.5V212.461z M-223.003,252.311h18.355v6.136h-18.355V252.311z"/>
		<path fill="#008000" d="M-199.354,212.461h4.501v45.985h-4.501V212.461z M-197.103,252.311h18.357v6.136h-18.357V252.311z"/>
		<path fill="#008000" d="M-169.635,256.817c-1.706-1.401-3.026-3.384-3.96-5.945s-1.4-5.529-1.4-8.903v-13.03
			c0-3.373,0.466-6.341,1.4-8.902c0.934-2.563,2.255-4.544,3.96-5.946c1.707-1.402,3.677-2.104,5.913-2.104
			c2.235,0,4.207,0.701,5.913,2.104s3.025,3.384,3.961,5.946c0.933,2.562,1.4,5.529,1.4,8.902v13.03c0,3.374-0.468,6.342-1.4,8.903
			c-0.936,2.562-2.255,4.544-3.961,5.945c-1.706,1.403-3.678,2.104-5.913,2.104C-165.958,258.921-167.929,258.221-169.635,256.817z
			 M-160.226,251.283c1.008-0.854,1.788-2.066,2.339-3.637c0.552-1.57,0.826-3.389,0.826-5.456v-13.474
			c0-2.065-0.274-3.885-0.826-5.455c-0.551-1.571-1.331-2.783-2.339-3.638c-1.008-0.854-2.173-1.28-3.497-1.28
			s-2.49,0.427-3.497,1.28c-1.007,0.854-1.788,2.066-2.338,3.638c-0.552,1.57-0.828,3.39-0.828,5.455v13.474
			c0,2.067,0.276,3.886,0.828,5.456c0.551,1.57,1.331,2.783,2.338,3.637c1.007,0.854,2.173,1.281,3.497,1.281
			S-161.234,252.137-160.226,251.283z"/>
		<path fill="#008000" d="M-138.726,258.921c0,0-0.691-0.211-2.074-0.632c-1.383-0.422-2.674-1.055-3.872-1.897
			c-1.199-0.844-2.319-1.898-3.364-3.164l2.801-4.933c1.221,1.518,2.567,2.656,4.038,3.415c1.47,0.759,3.067,1.139,4.788,1.139
			c2.324,0,4.125-0.617,5.404-1.85c1.281-1.234,1.921-2.979,1.921-5.234v-0.032c0-1.602-0.292-2.872-0.872-3.811
			c-0.582-0.938-1.331-1.634-2.25-2.088c-0.92-0.453-2.107-0.87-3.563-1.249c-0.045-0.021-0.094-0.031-0.145-0.031
			s-0.1-0.011-0.144-0.032l-0.331-0.095c-2.147-0.526-3.894-1.123-5.239-1.787s-2.497-1.876-3.453-3.637s-1.435-4.265-1.435-7.512
			v-0.031c0-2.847,0.446-5.277,1.336-7.29c0.89-2.014,2.188-3.548,3.894-4.603c1.706-1.054,3.758-1.581,6.155-1.581
			c1.148,0,2.275,0.18,3.387,0.537c1.11,0.359,2.206,0.892,3.288,1.598c1.08,0.707,2.143,1.598,3.188,2.673l-2.559,5.124
			c-1.221-1.287-2.439-2.251-3.652-2.895s-2.431-0.965-3.651-0.965c-2.192,0-3.893,0.628-5.106,1.882
			c-1.214,1.255-1.82,3.032-1.82,5.329v0.032c0,1.581,0.312,2.825,0.938,3.732c0.624,0.906,1.403,1.575,2.337,2.007
			c0.936,0.434,2.233,0.882,3.896,1.345c0.058,0.021,0.114,0.037,0.165,0.048c0.052,0.011,0.107,0.026,0.166,0.048
			c0.073,0.021,0.154,0.042,0.242,0.063c0.089,0.021,0.169,0.043,0.243,0.063c1.941,0.569,3.563,1.244,4.863,2.023
			c1.302,0.781,2.391,2.041,3.267,3.78c0.875,1.739,1.313,4.117,1.313,7.132v0.063c0,2.804-0.465,5.202-1.391,7.195
			c-0.928,1.992-2.269,3.511-4.027,4.554c-1.758,1.044-3.879,1.565-6.364,1.565C-137.954,258.921-138.726,258.921-138.726,258.921z"
			/>
	</g>
</g>
<g>
	<g enable-background="new    ">
		<path fill="#FCFCFC" d="M53.278,30.396h4.5v45.985h-4.5V30.396z M55.595,52.408h10.259c0.97,0,1.823-0.327,2.559-0.98
			s1.306-1.582,1.71-2.783c0.404-1.202,0.606-2.583,0.606-4.144c0-1.581-0.202-2.973-0.606-4.175
			c-0.405-1.202-0.975-2.135-1.71-2.799s-1.588-0.996-2.559-0.996H55.595v-6.136h10.104c1.912,0,3.596,0.585,5.052,1.755
			c1.456,1.171,2.584,2.82,3.386,4.95s1.203,4.597,1.203,7.4c0,2.805-0.401,5.266-1.203,7.385c-0.802,2.12-1.93,3.759-3.386,4.918
			c-1.457,1.16-3.14,1.74-5.052,1.74H55.595V52.408z"/>
		<path fill="#FCFCFC" d="M88.159,30.396h3.839l11.825,45.985h-4.854l-8.891-37.099l-8.891,37.099h-4.854L88.159,30.396z
			 M81.783,60.157h16.878v6.135H81.783V60.157z"/>
		<path fill="#FCFCFC" d="M114.236,76.855c0,0-0.692-0.211-2.074-0.632c-1.383-0.422-2.673-1.055-3.872-1.897
			c-1.199-0.844-2.32-1.898-3.365-3.164l2.802-4.933c1.22,1.518,2.566,2.656,4.037,3.415c1.471,0.759,3.067,1.139,4.788,1.139
			c2.324,0,4.125-0.617,5.406-1.85c1.279-1.234,1.919-2.979,1.919-5.234v-0.032c0-1.602-0.291-2.872-0.872-3.811
			c-0.581-0.938-1.332-1.634-2.25-2.088c-0.919-0.453-2.106-0.87-3.563-1.249c-0.044-0.021-0.092-0.031-0.144-0.031
			s-0.1-0.011-0.144-0.032l-0.331-0.095c-2.148-0.526-3.895-1.123-5.24-1.787c-1.345-0.664-2.497-1.876-3.453-3.637
			s-1.434-4.265-1.434-7.512v-0.031c0-2.847,0.445-5.277,1.335-7.29c0.889-2.014,2.188-3.548,3.893-4.603
			c1.707-1.054,3.758-1.581,6.156-1.581c1.147,0,2.275,0.18,3.387,0.537c1.11,0.359,2.206,0.892,3.287,1.598
			c1.081,0.707,2.144,1.598,3.188,2.673l-2.559,5.124c-1.221-1.287-2.438-2.251-3.651-2.895c-1.213-0.644-2.431-0.965-3.651-0.965
			c-2.191,0-3.895,0.628-5.107,1.882c-1.214,1.255-1.82,3.032-1.82,5.329v0.032c0,1.581,0.312,2.825,0.938,3.732
			c0.625,0.906,1.404,1.575,2.338,2.007c0.934,0.434,2.231,0.882,3.894,1.345c0.059,0.021,0.114,0.037,0.166,0.048
			c0.051,0.011,0.106,0.026,0.166,0.048c0.073,0.021,0.154,0.042,0.243,0.063c0.088,0.021,0.168,0.043,0.243,0.063
			c1.941,0.569,3.563,1.244,4.865,2.023c1.301,0.781,2.39,2.041,3.266,3.78c0.875,1.739,1.312,4.117,1.312,7.132v0.063
			c0,2.804-0.463,5.202-1.39,7.195c-0.927,1.992-2.27,3.511-4.027,4.554c-1.757,1.044-3.879,1.565-6.365,1.565
			C115.008,76.855,114.236,76.855,114.236,76.855z"/>
		<path fill="#FCFCFC" d="M138.792,76.381h-4.501V30.396h4.501V76.381z"/>
		<path fill="#FCFCFC" d="M146.734,30.396h4.5v45.985h-4.5V30.396z M148.985,70.245h18.355v6.136h-18.355V70.245z"/>
		<path fill="#FCFCFC" d="M172.635,30.396h4.502v45.985h-4.502V30.396z M174.885,70.245h18.357v6.136h-18.357V70.245z"/>
		<path fill="#FCFCFC" d="M202.354,74.752c-1.706-1.401-3.027-3.384-3.961-5.945s-1.4-5.529-1.4-8.903v-13.03
			c0-3.373,0.467-6.341,1.4-8.902c0.934-2.563,2.255-4.544,3.961-5.946s3.676-2.104,5.912-2.104c2.234,0,4.207,0.701,5.912,2.104
			c1.707,1.402,3.025,3.384,3.961,5.946c0.934,2.562,1.4,5.529,1.4,8.902v13.03c0,3.374-0.467,6.342-1.4,8.903
			c-0.936,2.562-2.254,4.544-3.961,5.945c-1.705,1.403-3.678,2.104-5.912,2.104C206.029,76.855,204.06,76.155,202.354,74.752z
			 M211.762,69.218c1.008-0.854,1.789-2.066,2.34-3.637s0.826-3.389,0.826-5.456V46.651c0-2.065-0.275-3.885-0.826-5.455
			c-0.551-1.571-1.332-2.783-2.34-3.638c-1.008-0.854-2.172-1.28-3.496-1.28s-2.49,0.427-3.496,1.28
			c-1.008,0.854-1.788,2.066-2.339,3.638c-0.552,1.57-0.827,3.39-0.827,5.455v13.474c0,2.067,0.275,3.886,0.827,5.456
			c0.551,1.57,1.331,2.783,2.339,3.637c1.006,0.854,2.172,1.281,3.496,1.281S210.754,70.071,211.762,69.218z"/>
		<path fill="#FCFCFC" d="M233.262,76.855c0,0-0.691-0.211-2.074-0.632c-1.383-0.422-2.674-1.055-3.871-1.897
			c-1.199-0.844-2.32-1.898-3.365-3.164l2.801-4.933c1.221,1.518,2.568,2.656,4.039,3.415c1.469,0.759,3.066,1.139,4.787,1.139
			c2.324,0,4.125-0.617,5.404-1.85c1.281-1.234,1.922-2.979,1.922-5.234v-0.032c0-1.602-0.293-2.872-0.873-3.811
			c-0.582-0.938-1.33-1.634-2.25-2.088c-0.92-0.453-2.107-0.87-3.563-1.249c-0.045-0.021-0.094-0.031-0.145-0.031
			s-0.1-0.011-0.143-0.032l-0.332-0.095c-2.146-0.526-3.893-1.123-5.238-1.787s-2.498-1.876-3.453-3.637
			c-0.957-1.761-1.436-4.265-1.436-7.512v-0.031c0-2.847,0.447-5.277,1.336-7.29c0.891-2.014,2.188-3.548,3.895-4.603
			c1.705-1.054,3.758-1.581,6.154-1.581c1.148,0,2.275,0.18,3.387,0.537c1.111,0.359,2.207,0.892,3.289,1.598
			c1.08,0.707,2.143,1.598,3.188,2.673l-2.559,5.124c-1.221-1.287-2.439-2.251-3.652-2.895s-2.432-0.965-3.652-0.965
			c-2.191,0-3.893,0.628-5.105,1.882c-1.215,1.255-1.82,3.032-1.82,5.329v0.032c0,1.581,0.311,2.825,0.938,3.732
			c0.623,0.906,1.402,1.575,2.336,2.007c0.936,0.434,2.234,0.882,3.896,1.345c0.057,0.021,0.113,0.037,0.164,0.048
			c0.053,0.011,0.107,0.026,0.166,0.048c0.074,0.021,0.154,0.042,0.242,0.063c0.09,0.021,0.17,0.043,0.244,0.063
			c1.941,0.569,3.563,1.244,4.863,2.023c1.301,0.781,2.391,2.041,3.266,3.78s1.314,4.117,1.314,7.132v0.063
			c0,2.804-0.465,5.202-1.391,7.195c-0.928,1.992-2.27,3.511-4.027,4.554c-1.758,1.044-3.879,1.565-6.365,1.565
			C234.035,76.855,233.262,76.855,233.262,76.855z"/>
	</g>
</g>
</svg>
