<?xml version="1.0" encoding="utf-8"?>
<!-- Generator: Adobe Illustrator 16.0.2, SVG Export Plug-In . SVG Version: 6.00 Build 0)  -->
<!DOCTYPE svg PUBLIC "-//W3C//DTD SVG 1.1//EN" "http://www.w3.org/Graphics/SVG/1.1/DTD/svg11.dtd">
<svg version="1.1"
	 id="svg815" xmlns:cc="http://creativecommons.org/ns#" xmlns:dc="http://purl.org/dc/elements/1.1/" xmlns:sodipodi="http://sodipodi.sourceforge.net/DTD/sodipodi-0.dtd" xmlns:inkscape="http://www.inkscape.org/namespaces/inkscape" xmlns:svg="http://www.w3.org/2000/svg" xmlns:rdf="http://www.w3.org/1999/02/22-rdf-syntax-ns#" sodipodi:docname="coffee018.svg" inkscape:version="1.2.2 (732a01da63, 2022-12-09)"
	 xmlns="http://www.w3.org/2000/svg" xmlns:xlink="http://www.w3.org/1999/xlink" x="0px" y="0px" width="400.324px"
	 height="137.447px" viewBox="0 0 400.324 137.447" enable-background="new 0 0 400.324 137.447" xml:space="preserve">
<g>
	
		<sodipodi:namedview  id="namedview817" inkscape:zoom="0.56470259" objecttolerance="10" guidetolerance="10" gridtolerance="10" borderopacity="1" bordercolor="#666666" showgrid="false" pagecolor="#ffffff" fit-margin-top="0" inkscape:cy="223.1263" inkscape:cx="-19.47928" fit-margin-left="0" inkscape:pagecheckerboard="0" inkscape:window-maximized="1" inkscape:current-layer="g823" inkscape:window-height="705" inkscape:window-y="-8" inkscape:window-x="-8" inkscape:deskcolor="#d1d1d1" inkscape:pageopacity="0" inkscape:showpageshadow="2" inkscape:pageshadow="2" inkscape:window-width="1366" fit-margin-right="0" inkscape:snap-page="false" fit-margin-bottom="0">
		</sodipodi:namedview>
	<g>
		<g>
			
				<path fill="none" stroke="#999999" stroke-width="0.5" stroke-linecap="round" stroke-linejoin="round" stroke-miterlimit="10" d="
				M7.204,102.537c0,3.92,0.72,7.521,2.16,11.121c1.44,3.357,3.52,6.4,6.16,8.959c2.56,2.642,5.6,4.72,8.959,6.16
				c3.6,1.439,7.2,2.16,11.12,2.16h333.199c3.84,0,7.441-0.721,11.041-2.16c3.359-1.44,6.4-3.52,9.041-6.16
				c2.561-2.559,4.561-5.602,6-8.959c1.52-3.6,2.24-7.201,2.24-11.121v-63.76c0-7.841-2.721-14.479-8.24-20.08
				c-2.641-2.561-5.682-4.561-9.041-6.082c-3.6-1.438-7.201-2.158-11.041-2.158H35.604c-7.92,0-14.56,2.72-20.08,8.24
				c-2.64,2.64-4.72,5.681-6.16,9.039c-1.44,3.601-2.16,7.2-2.16,11.041V102.537"/>
		</g>
		<g>
			<path fill="#FF3300" d="M7.204,102.537v-63.76c0-3.841,0.72-7.44,2.16-11.041c1.44-3.358,3.52-6.399,6.16-9.039
				c5.52-5.521,12.16-8.24,20.08-8.24h333.2c3.84,0,7.439,0.719,11.039,2.158c3.361,1.521,6.4,3.521,9.043,6.082
				c5.52,5.601,8.238,12.239,8.238,20.08v63.76c0,3.92-0.719,7.521-2.238,11.121c-1.441,3.357-3.441,6.4-6,8.959
				c-2.643,2.642-5.682,4.72-9.043,6.16c-3.6,1.439-7.199,2.16-11.039,2.16h-333.2c-3.92,0-7.52-0.721-11.12-2.16
				c-3.359-1.44-6.4-3.52-8.959-6.16c-2.64-2.559-4.72-5.602-6.16-8.959C7.924,110.06,7.204,106.457,7.204,102.537z"/>
		</g>
	</g>
	<g>
		<g>
			
				<path fill="none" stroke="#999999" stroke-width="0.4" stroke-linecap="round" stroke-linejoin="round" stroke-miterlimit="10" d="
				M288.643,96.218c0,6.239,2.242,11.601,6.642,16.082c4.4,4.399,9.76,6.639,16.08,6.639h51.041c6.238,0,11.6-2.237,16.08-6.639
				c4.398-4.481,6.559-9.843,6.559-16.082v-51.04c0-6.241-2.158-11.6-6.559-16.08c-4.482-4.398-9.844-6.561-16.082-6.561h-51.039
				c-6.32,0-11.681,2.162-16.08,6.562c-4.399,4.479-6.642,9.839-6.642,16.08V96.218"/>
		</g>
		<g>
			<path fill="#F2F2F2" d="M288.643,96.218v-51.04c0-6.241,2.242-11.6,6.642-16.08c4.4-4.4,9.76-6.561,16.08-6.561h51.041
				c6.238,0,11.6,2.16,16.08,6.561c4.398,4.479,6.559,9.839,6.559,16.08v51.04c0,6.239-2.158,11.601-6.559,16.082
				c-4.48,4.399-9.842,6.639-16.08,6.639h-51.041c-6.32,0-11.68-2.237-16.08-6.639C290.885,107.818,288.643,102.457,288.643,96.218z
				"/>
		</g>
	</g>
	<g>
		<g>
			<g>
				<path fill="#FFFFFF" d="M88.164,87.259l-9.12-45.359h6.16l6,34.88l6.08-34.88h6.24l-9.121,45.359H88.164z"/>
			</g>
		</g>
		<g>
			<g>
				<path fill="#FFFFFF" d="M125.764,86.457c-1.68,0.882-3.76,1.281-6.08,1.281c-2.4,0-4.4-0.399-6.08-1.281
					c-1.68-0.879-2.96-2.239-3.92-3.92c-0.88-1.76-1.28-3.76-1.28-6.157V52.779c0-2.4,0.4-4.479,1.28-6.162
					c0.96-1.68,2.24-3.039,3.92-3.918c1.68-0.881,3.68-1.281,6.08-1.281c2.32,0,4.4,0.4,6.08,1.281
					c1.68,0.879,2.96,2.239,3.84,3.918c0.88,1.683,1.36,3.762,1.36,6.162V76.38c0,2.397-0.48,4.397-1.36,6.157
					C128.804,84.218,127.524,85.578,125.764,86.457z M116.804,81.339c0.8,0.479,1.84,0.641,2.88,0.641c1.12,0,2-0.157,2.88-0.641
					c0.88-0.4,1.44-1.039,1.84-1.841c0.4-0.881,0.641-1.84,0.641-2.961v-23.92c0-1.039-0.24-2.08-0.641-2.879
					c-0.4-0.801-0.959-1.521-1.84-1.92c-0.88-0.479-1.76-0.64-2.88-0.64c-1.04,0-2.08,0.159-2.88,0.64
					c-0.8,0.399-1.44,1.12-1.84,1.92c-0.48,0.799-0.64,1.84-0.64,2.879v23.92c0,1.121,0.16,2.08,0.64,2.961
					C115.364,80.3,116.004,80.938,116.804,81.339z"/>
			</g>
		</g>
		<g>
			<g>
				<path fill="#FFFFFF" d="M141.924,81.66v5.6h-3.2V41.9h5.92v39.76H141.924L141.924,81.66z"/>
				<path fill="#FFFFFF" d="M144.644,81.66h12.96v5.6h-12.96V81.66z"/>
			</g>
		</g>
		<g>
			<g>
				<path fill="#FFFFFF" d="M170.084,87.259l-9.12-45.359h6.16l6.08,34.88l6-34.88h6.16l-9.12,45.359H170.084z"/>
			</g>
		</g>
		<g>
			<g>
				<path fill="#FFFFFF" d="M199.764,67.578l-6.32-0.041h2.8v14.08l4.08,5.601h-6.88h-3.12V41.858h3.12l6.88,0.041l-4.08,5.56
					v14.479L199.764,67.578z"/>
				<path fill="#FFFFFF" d="M196.244,67.578v-5.601h12v5.601H196.244z"/>
				<path fill="#FFFFFF" d="M196.244,47.5v-5.601h13.6V47.5H196.244z"/>
				<path fill="#FFFFFF" d="M196.244,81.66h13.6v5.6h-13.6V81.66z"/>
			</g>
		</g>
		<g>
			<g>
				<path fill="#FFFFFF" d="M216.003,87.259v-45.44h2.722v5.6h3.119v15.041h-3.119v5.68h3.119V87.26L216.003,87.259L216.003,87.259z
					"/>
				<path fill="#FFFFFF" d="M232.804,66.858c0,0.08,0,0.08-0.079,0.08l-0.562-1.68l-5.6,1.44l0.479,1.438c-0.157,0-0.317,0-0.399,0
					h-4.8v-5.681h5.281c0.959,0,1.918-0.239,2.719-0.559c0.8-0.4,1.359-0.961,1.761-1.761c0.399-0.8,0.56-1.681,0.56-2.718v-4.643
					c0-1.041-0.16-2-0.56-2.879c-0.399-0.8-0.961-1.361-1.761-1.761c-0.801-0.479-1.76-0.718-2.719-0.718h-5.281v-5.6h4.8
					c2.399,0,4.399,0.399,6.16,1.199c1.682,0.801,3.04,2,4,3.518c0.882,1.601,1.28,3.44,1.28,5.601v5.282
					c0,2.318-0.398,4.238-1.28,5.759C235.844,64.779,234.484,65.978,232.804,66.858z"/>
				<path fill="#FFFFFF" d="M232.885,87.259l-5.841-19.121c2.24-0.08,4.16-0.479,5.682-1.2l6.719,20.32L232.885,87.259
					L232.885,87.259z"/>
			</g>
		</g>
	</g>
	<path fill="#FF0000" d="M376.324,65.179c-0.32-0.72-0.719-1.358-1.281-2c-0.559-0.56-1.199-1.041-2-1.28
		c-0.719-0.32-1.518-0.561-2.398-0.561l-40.881-0.721c-0.238,0-0.471,0.018-0.697,0.041l-0.654-0.013l16.074-15.547
		c0.559-0.562,1.039-1.2,1.357-2c0.242-0.72,0.48-1.521,0.48-2.319c0.08-0.801-0.08-1.521-0.48-2.242
		c-0.158-0.799-0.641-1.521-1.199-2.08l-2.158-2.241c-0.643-0.56-1.281-1.039-2-1.358c-0.801-0.32-1.521-0.479-2.32-0.56
		c-0.801,0-1.521,0.239-2.32,0.479c-0.801,0.239-1.439,0.721-2.08,1.28l-29.52,28.479c-0.561,0.642-0.959,1.201-1.359,2
		c-0.135,0.451-0.238,0.879-0.322,1.307c-0.117,0.202-0.225,0.409-0.316,0.615c-0.318,0.72-0.48,1.52-0.48,2.318
		c-0.078,0.801,0.08,1.601,0.4,2.32c0.32,0.721,0.721,1.439,1.279,2.08l28.48,29.441c0.563,0.559,1.279,1.039,2,1.358
		c0.721,0.32,1.52,0.479,2.318,0.479c0.801,0,1.602-0.079,2.32-0.399c0.801-0.319,1.521-0.721,2.08-1.28l2.24-2.158
		c0.561-0.562,0.959-1.281,1.359-2c0.242-0.722,0.398-1.441,0.398-2.24c0-0.801,0-1.603-0.398-2.4c-0.24-0.801-0.719-1.441-1.199-2
		l-15.51-16.031l24.551,0.433c0.016,0,0.035-0.005,0.051-0.005l18.35,0.324c0.801,0,1.6-0.162,2.398-0.481
		c0.719-0.24,1.359-0.64,1.92-1.279c0.641-0.561,1.039-1.2,1.359-1.922c0.32-0.717,0.479-1.519,0.479-2.399l0.16-3.039
		C376.804,66.779,376.642,65.978,376.324,65.179z"/>
	<g>
		<g>
			<g>
				<path fill="#FE9929" d="M98.164,105.259v3.278l-6.8-5.358l6.8-5.356v3.278l-2.8,2.08L98.164,105.259z"/>
			</g>
		</g>
		<g>
			<g>
				<path fill="#FE9929" d="M105.524,105.259v3.278l-6.8-5.358l6.8-5.356v3.278l-2.8,2.08L105.524,105.259z"/>
			</g>
		</g>
		<g>
			<g>
				<path fill="#FE9929" d="M117.844,96.537l-1.76,8.961h-1.04v2.4h0.64l-0.88,4.238h-2.72l4.56-19.6h2.32l4.56,19.6h-2.8
					l-0.8-4.238h0.88v-2.4h-1.28L117.844,96.537z"/>
				<path fill="#FE9929" d="M119.924,107.899h-4.24l0.4-2.399h3.44L119.924,107.899z"/>
			</g>
		</g>
		<g>
			<g>
				<path fill="#FE9929" d="M135.844,104.537h-2.56v-2.399h2.64c0.32,0,0.56-0.078,0.88-0.238c0.32-0.159,0.4-0.399,0.56-0.721
					c0.16-0.24,0.24-0.642,0.24-1.119v-2.959c0-0.481-0.08-0.801-0.24-1.121c-0.16-0.317-0.24-0.561-0.56-0.719
					c-0.32-0.16-0.56-0.242-0.88-0.242h-2.64v-2.479h2.56c0.88,0,1.6,0.24,2.4,0.562c0.56,0.399,1.04,0.879,1.44,1.601
					c0.32,0.559,0.48,1.358,0.48,2.399v3.037c0,0.961-0.16,1.762-0.48,2.399c-0.4,0.642-0.88,1.121-1.52,1.441
					C137.604,104.378,136.804,104.537,135.844,104.537z"/>
				<path fill="#FE9929" d="M130.804,112.138V92.537h1.44v2.48h1.04v7.119h-1.04v2.4h1.04v7.6L130.804,112.138L130.804,112.138z"/>
			</g>
		</g>
		<g>
			<g>
				<path fill="#FE9929" d="M142.804,112.138V92.537h1.2v2.4h1.28v6.561h-1.28v2.4h1.28v8.238L142.804,112.138L142.804,112.138z"/>
				<path fill="#FE9929" d="M150.004,103.339L150.004,103.339l-0.32-0.722l-2.4,0.642l0.24,0.642c-0.08,0-0.16,0-0.24,0h-2v-2.398
					h2.32c0.4,0,0.8-0.162,1.12-0.32c0.4-0.242,0.56-0.4,0.8-0.721c0.08-0.32,0.16-0.721,0.16-1.199v-2
					c0-0.48-0.08-0.881-0.16-1.201c-0.16-0.32-0.4-0.559-0.8-0.799c-0.32-0.16-0.72-0.32-1.12-0.32h-2.32v-2.4h2
					c1.12,0,2,0.24,2.72,0.562c0.72,0.318,1.28,0.882,1.68,1.519c0.4,0.643,0.64,1.44,0.64,2.399v2.242
					c0,0.959-0.24,1.84-0.64,2.479C151.284,102.457,150.804,102.938,150.004,103.339z"/>
				<path fill="#FE9929" d="M150.004,112.138l-2.479-8.238c0.959-0.081,1.76-0.239,2.479-0.561l2.8,8.799H150.004z"/>
			</g>
		</g>
		<g>
			<g>
				<path fill="#FE9929" d="M157.684,92.537v19.601h-2.48V92.537H157.684z"/>
			</g>
		</g>
		<g>
			<g>
				<path fill="#FE9929" d="M160.404,112.06V92.539h2.24l4.88,13.92v1.44l0.4-0.319l-0.4-1.119v-13.92h2.479v19.52h-2.32
					l-4.88-13.281v-1.52l-0.4,0.32l0.4,1.199v13.28H160.404L160.404,112.06z"/>
			</g>
		</g>
		<g>
			<g>
				<path fill="#FE9929" d="M179.604,111.74c-0.72,0.397-1.52,0.561-2.4,0.561c-0.96,0-1.84-0.162-2.48-0.561
					c-0.72-0.4-1.2-0.961-1.6-1.681c-0.32-0.801-0.48-1.603-0.48-2.721v-10c0-1.039,0.16-2,0.48-2.64
					c0.4-0.721,0.879-1.36,1.6-1.762c0.64-0.4,1.52-0.559,2.48-0.559c0.88,0,1.68,0.158,2.4,0.559c0.72,0.4,1.2,1.041,1.6,1.762
					c0.32,0.64,0.48,1.601,0.48,2.64v0.879h-2.56v-0.879c0-0.479-0.08-0.959-0.24-1.359c-0.16-0.319-0.4-0.641-0.64-0.801
					c-0.32-0.24-0.64-0.317-1.04-0.317c-0.48,0-0.8,0.077-1.12,0.317c-0.24,0.16-0.48,0.479-0.64,0.801
					c-0.24,0.4-0.24,0.882-0.24,1.359v10c0,0.562,0,0.961,0.24,1.36c0.16,0.398,0.4,0.64,0.64,0.799c0.32,0.24,0.64,0.4,1.12,0.4
					c0.4,0,0.72-0.16,1.04-0.4c0.24-0.159,0.48-0.399,0.64-0.799c0.16-0.399,0.24-0.801,0.24-1.36v-0.882h2.56v0.882
					c0,1.118-0.16,1.92-0.48,2.721C180.804,110.779,180.324,111.339,179.604,111.74z"/>
			</g>
		</g>
		<g>
			<g>
				<path fill="#FE9929" d="M186.644,92.537v19.601h-2.64V92.537H186.644z"/>
			</g>
		</g>
		<g>
			<g>
				<path fill="#FE9929" d="M194.324,104.537h-2.56v-2.399h2.56c0.4,0,0.72-0.078,0.88-0.238c0.32-0.159,0.48-0.399,0.64-0.721
					c0.16-0.317,0.16-0.719,0.16-1.119v-2.959l-0.16-1.121c-0.16-0.317-0.32-0.561-0.64-0.719c-0.16-0.16-0.48-0.242-0.88-0.242
					h-2.56v-2.479h2.56c0.88,0,1.68,0.24,2.32,0.562c0.64,0.399,1.2,0.879,1.44,1.601c0.4,0.559,0.56,1.358,0.56,2.399v3.037
					c0,0.881-0.16,1.603-0.56,2.399c-0.32,0.642-0.88,1.201-1.44,1.441C196.004,104.378,195.204,104.537,194.324,104.537z"/>
				<path fill="#FE9929" d="M189.204,112.138V92.537h1.44v2.48h1.12v7.119h-1.12v2.4h1.12v7.6L189.204,112.138L189.204,112.138z"/>
			</g>
		</g>
		<g>
			<g>
				<path fill="#FE9929" d="M206.003,96.537l-1.68,8.961h-1.119v2.4h0.64l-0.8,4.238h-2.72l4.479-19.6h2.319l4.48,19.6h-2.72
					l-0.8-4.238h0.879v-2.4h-1.359L206.003,96.537z"/>
				<path fill="#FE9929" d="M208.085,107.899h-4.241l0.481-2.399h3.278L208.085,107.899z"/>
			</g>
		</g>
		<g>
			<g>
				<path fill="#FE9929" d="M214.804,109.66v2.479h-1.359v-19.6h2.561v17.121H214.804z"/>
				<path fill="#FE9929" d="M216.003,109.66h5.521v2.479h-5.521V109.66z"/>
			</g>
		</g>
		<g>
			<g>
				<path fill="#FE9929" d="M234.404,105.259v3.278l-6.8-5.358l6.8-5.356v3.278l-2.8,2.08L234.404,105.259z"/>
			</g>
		</g>
		<g>
			<g>
				<path fill="#FE9929" d="M241.765,105.259v3.278l-6.88-5.358l6.88-5.356v3.278l-2.801,2.08L241.765,105.259z"/>
			</g>
		</g>
	</g>
	<line fill="none" stroke="#000000" stroke-miterlimit="10" x1="0.324" y1="136.5" x2="400.324" y2="0"/>
</g>
</svg>
