<?xml version="1.0" encoding="utf-8"?>
<!-- Generator: Adobe Illustrator 16.0.2, SVG Export Plug-In . SVG Version: 6.00 Build 0)  -->
<!DOCTYPE svg PUBLIC "-//W3C//DTD SVG 1.1//EN" "http://www.w3.org/Graphics/SVG/1.1/DTD/svg11.dtd">
<svg version="1.1"
	 id="svg815" xmlns:sodipodi="http://sodipodi.sourceforge.net/DTD/sodipodi-0.dtd" xmlns:inkscape="http://www.inkscape.org/namespaces/inkscape" xmlns:svg="http://www.w3.org/2000/svg" xmlns:rdf="http://www.w3.org/1999/02/22-rdf-syntax-ns#" xmlns:cc="http://creativecommons.org/ns#" xmlns:dc="http://purl.org/dc/elements/1.1/" inkscape:version="1.2.2 (732a01da63, 2022-12-09)" sodipodi:docname="coffee013a.svg"
	 xmlns="http://www.w3.org/2000/svg" xmlns:xlink="http://www.w3.org/1999/xlink" x="0px" y="0px" width="400px" height="136.5px"
	 viewBox="0 0 400 136.5" enable-background="new 0 0 400 136.5" xml:space="preserve">
<sodipodi:namedview  id="namedview817" fit-margin-left="0" showgrid="false" inkscape:zoom="0.51782907" inkscape:cx="-83.038984" bordercolor="#666666" borderopacity="1" inkscape:cy="505.95846" gridtolerance="10" fit-margin-top="0" guidetolerance="10" objecttolerance="10" pagecolor="#ffffff" inkscape:window-maximized="1" inkscape:pagecheckerboard="0" fit-margin-bottom="0" inkscape:snap-page="false" fit-margin-right="0" inkscape:window-width="1366" inkscape:pageshadow="2" inkscape:showpageshadow="2" inkscape:pageopacity="0" inkscape:deskcolor="#d1d1d1" inkscape:window-x="-8" inkscape:window-y="-8" inkscape:window-height="705" inkscape:current-layer="layer1" showguides="true">
	</sodipodi:namedview>
<text transform="matrix(0.9981 0 0 1 20.7368 476.1016)" fill="#21AD97" font-family="'MicrosoftJhengHeiRegular'" font-size="29.175">Isometric | Social Media</text>
<text transform="matrix(0.9103 0 0 1 -6.2759 594.2744)" fill="#008000" font-family="'Bahnschrift'" font-size="92.8438">PRINCIPAL</text>
<text transform="matrix(0.9981 0 0 1 80.4473 658.248)" fill="#999999" font-family="'MicrosoftJhengHeiRegular'" font-size="54.2292">I</text>
<text transform="matrix(0.9981 0 0 1 93.8994 658.248)" fill="#999999" font-family="'MicrosoftJhengHeiRegular'" font-size="54.2292">s</text>
<text transform="matrix(0.9981 0 0 1 116.6445 658.248)" fill="#999999" font-family="'MicrosoftJhengHeiRegular'" font-size="54.2292">o</text>
<text transform="matrix(0.9981 0 0 1 149.438 658.248)" fill="#999999" font-family="'MicrosoftJhengHeiRegular'" font-size="54.2292">m</text>
<text transform="matrix(0.9981 0 0 1 197.521 658.248)" fill="#999999" font-family="'MicrosoftJhengHeiRegular'" font-size="54.2292">e</text>
<text transform="matrix(0.9981 0 0 1 227.0186 658.248)" fill="#999999" font-family="'MicrosoftJhengHeiRegular'" font-size="54.2292">t</text>
<text transform="matrix(0.9981 0 0 1 244.4697 658.248)" fill="#999999" font-family="'MicrosoftJhengHeiRegular'" font-size="54.2292">r</text>
<text transform="matrix(0.9981 0 0 1 263.7568 658.248)" fill="#999999" font-family="'MicrosoftJhengHeiRegular'" font-size="54.2292">i</text>
<text transform="matrix(0.9981 0 0 1 275.8584 658.248)" fill="#999999" font-family="'MicrosoftJhengHeiRegular'" font-size="54.2292">c</text>
<text transform="matrix(0.9981 0 0 1 36.665 712.4775)" fill="#999999" font-family="'MicrosoftJhengHeiRegular'" font-size="54.2292">S</text>
<text transform="matrix(0.9981 0 0 1 65.7847 712.4775)" fill="#999999" font-family="'MicrosoftJhengHeiRegular'" font-size="54.2292">o</text>
<text transform="matrix(0.9981 0 0 1 98.5786 712.4775)" fill="#999999" font-family="'MicrosoftJhengHeiRegular'" font-size="54.2292">c</text>
<text transform="matrix(0.9981 0 0 1 124.5107 712.4775)" fill="#999999" font-family="'MicrosoftJhengHeiRegular'" font-size="54.2292">i</text>
<text transform="matrix(0.9981 0 0 1 136.6128 712.4775)" fill="#999999" font-family="'MicrosoftJhengHeiRegular'" font-size="54.2292">a</text>
<text transform="matrix(0.9981 0 0 1 165.4624 712.4775)" fill="#999999" font-family="'MicrosoftJhengHeiRegular'" font-size="54.2292">l</text>
<text transform="matrix(0.9981 0 0 1 177.5645 712.4775)" fill="#999999" font-family="'MicrosoftJhengHeiRegular'" font-size="54.2292"> </text>
<text transform="matrix(0.9981 0 0 1 193.5562 712.4775)" fill="#999999" font-family="'MicrosoftJhengHeiRegular'" font-size="54.2292">M</text>
<text transform="matrix(0.9981 0 0 1 242.3418 712.4775)" fill="#999999" font-family="'MicrosoftJhengHeiRegular'" font-size="54.2292">e</text>
<text transform="matrix(0.9981 0 0 1 271.8389 712.4775)" fill="#999999" font-family="'MicrosoftJhengHeiRegular'" font-size="54.2292">d</text>
<text transform="matrix(0.9981 0 0 1 304.5791 712.4775)" fill="#999999" font-family="'MicrosoftJhengHeiRegular'" font-size="54.2292">i</text>
<text transform="matrix(0.9981 0 0 1 316.6807 712.4775)" fill="#999999" font-family="'MicrosoftJhengHeiRegular'" font-size="54.2292">a</text>
<g>
	<g>
		<path fill="#FF3300" d="M5.04,100.08V36.4c0-3.92,0.72-7.6,2.16-11.12c1.439-3.359,3.52-6.4,6.16-9.039
			C18.88,10.72,25.52,8,33.44,8h333.2c3.842,0,7.44,0.72,11.04,2.241c3.36,1.359,6.4,3.439,9.041,6
			c5.521,5.6,8.239,12.239,8.239,20.159v63.68c0,3.92-0.72,7.6-2.239,11.12c-1.439,3.358-3.439,6.399-6,8.96
			c-2.641,2.641-5.681,4.72-9.041,6.081c-3.6,1.519-7.198,2.239-11.04,2.239H33.44c-3.92,0-7.52-0.723-11.12-2.239
			c-3.36-1.361-6.4-3.44-8.959-6.081c-2.641-2.561-4.721-5.602-6.16-8.96C5.76,107.68,5.04,104,5.04,100.08z"/>
	</g>
	<g>
		
			<path fill="none" stroke="#999999" stroke-width="0.5" stroke-linecap="round" stroke-linejoin="round" stroke-miterlimit="10" d="
			M5.04,100.08c0,3.92,0.72,7.6,2.16,11.12c1.439,3.358,3.52,6.399,6.16,8.96c2.56,2.641,5.6,4.72,8.959,6.081
			c3.6,1.519,7.2,2.239,11.12,2.239h333.2c3.84,0,7.44-0.723,11.04-2.239c3.36-1.361,6.4-3.44,9.041-6.081
			c2.561-2.561,4.561-5.602,6-8.96c1.521-3.521,2.239-7.2,2.239-11.12V36.4c0-7.92-2.72-14.559-8.239-20.159
			c-2.641-2.561-5.681-4.641-9.041-6C374.08,8.72,370.479,8,366.64,8H33.44c-7.92,0-14.56,2.72-20.08,8.241
			C10.72,18.88,8.64,21.92,7.2,25.28c-1.44,3.52-2.16,7.2-2.16,11.12V100.08"/>
	</g>
</g>
<g>
	<g>
		
			<path fill="none" stroke="#999999" stroke-width="0.4" stroke-linecap="round" stroke-linejoin="round" stroke-miterlimit="10" d="
			M286.479,93.76c0,6.32,2.242,11.6,6.643,16c4.398,4.481,9.76,6.721,16.08,6.721h51.04c6.237,0,11.6-2.237,16.08-6.721
			c4.398-4.4,6.56-9.68,6.56-16V42.72c0-6.32-2.159-11.6-6.56-16.08c-4.48-4.4-9.843-6.641-16.08-6.641H309.2
			c-6.32,0-11.681,2.241-16.08,6.641c-4.399,4.479-6.642,9.759-6.642,16.08V93.76"/>
	</g>
	<g>
		<path fill="#F2F2F2" d="M286.479,93.76V42.72c0-6.32,2.242-11.6,6.643-16.08c4.398-4.4,9.76-6.641,16.08-6.641h51.04
			c6.237,0,11.6,2.241,16.08,6.641c4.398,4.479,6.56,9.759,6.56,16.08v51.04c0,6.32-2.159,11.6-6.56,16
			c-4.48,4.481-9.843,6.721-16.08,6.721H309.2c-6.32,0-11.681-2.237-16.08-6.721C288.721,105.359,286.479,100.08,286.479,93.76z"/>
	</g>
</g>
<path fill="#FF0000" d="M374.561,65.041c0-0.8-0.158-1.6-0.479-2.32c-0.24-0.72-0.72-1.44-1.359-2.08L343.84,31.68
	c-0.64-0.479-1.358-1.039-2.08-1.28c-0.72-0.32-1.52-0.479-2.318-0.479c-0.802,0-1.521,0.159-2.319,0.479
	c-0.8,0.241-1.44,0.8-2,1.28l-2.24,2.241c-0.56,0.559-0.96,1.28-1.28,2c-0.318,0.72-0.479,1.52-0.479,2.32
	c0,0.8,0.159,1.6,0.479,2.319c0.32,0.72,0.723,1.44,1.28,2.081l15.726,15.68h-1.885H324.16h-18.4c-0.88,0-1.68,0.159-2.397,0.479
	c-0.723,0.241-1.44,0.721-1.921,1.28c-0.562,0.561-1.039,1.2-1.359,1.92c-0.32,0.8-0.48,1.6-0.48,2.4v3.121
	c0,0.88,0.16,1.68,0.48,2.4s0.8,1.359,1.359,1.92c0.479,0.56,1.198,1.039,1.921,1.359c0.72,0.241,1.52,0.399,2.397,0.399h18.4
	h22.561h1.359l-15.76,15.76c-0.643,0.641-1.041,1.281-1.36,2.082c-0.32,0.719-0.479,1.519-0.479,2.316
	c0,0.801,0.158,1.521,0.479,2.32c0.319,0.8,0.72,1.439,1.36,2l2.157,2.161c0.563,0.639,1.2,1.038,2,1.358
	c0.802,0.319,1.521,0.479,2.32,0.479s1.521-0.159,2.32-0.479s1.438-0.722,2-1.358l28.96-28.962c0.641-0.561,1.04-1.279,1.359-2
	c0.185-0.461,0.311-0.896,0.388-1.333c0.101-0.193,0.187-0.391,0.253-0.588C374.4,66.641,374.561,65.841,374.561,65.041z"/>
<g>
	<g>
		
			<path fill="none" stroke="#999999" stroke-width="0.4" stroke-linecap="round" stroke-linejoin="round" stroke-miterlimit="10" d="
			M17.583,93.76c0,6.32,2.242,11.6,6.643,16c4.398,4.481,9.76,6.721,16.08,6.721h51.04c6.237,0,11.6-2.237,16.08-6.721
			c4.398-4.4,6.56-9.68,6.56-16V42.72c0-6.32-2.159-11.6-6.56-16.08c-4.48-4.4-9.843-6.641-16.08-6.641H40.305
			c-6.32,0-11.681,2.241-16.08,6.641c-4.399,4.479-6.642,9.759-6.642,16.08V93.76"/>
	</g>
	<g>
		<path fill="#F2F2F2" d="M17.583,93.76V42.72c0-6.32,2.242-11.6,6.643-16.08c4.398-4.4,9.76-6.641,16.08-6.641h51.04
			c6.237,0,11.6,2.241,16.08,6.641c4.398,4.479,6.56,9.759,6.56,16.08v51.04c0,6.32-2.159,11.6-6.56,16
			c-4.48,4.481-9.843,6.721-16.08,6.721H40.305c-6.32,0-11.681-2.237-16.08-6.721C19.826,105.359,17.583,100.08,17.583,93.76z"/>
	</g>
</g>
<path fill="#FF0000" d="M105.666,65.041c0-0.8-0.158-1.6-0.479-2.32c-0.24-0.72-0.72-1.44-1.359-2.08L74.945,31.68
	c-0.64-0.479-1.358-1.039-2.08-1.28c-0.72-0.32-1.52-0.479-2.318-0.479c-0.802,0-1.521,0.159-2.319,0.479
	c-0.8,0.241-1.44,0.8-2,1.28l-2.24,2.241c-0.56,0.559-0.96,1.28-1.28,2c-0.318,0.72-0.479,1.52-0.479,2.32
	c0,0.8,0.159,1.6,0.479,2.319c0.32,0.72,0.723,1.44,1.28,2.081l15.726,15.68h-1.885H55.265h-18.4c-0.88,0-1.68,0.159-2.397,0.479
	c-0.723,0.241-1.44,0.721-1.921,1.28c-0.562,0.561-1.039,1.2-1.359,1.92c-0.32,0.8-0.48,1.6-0.48,2.4v3.121
	c0,0.88,0.16,1.68,0.48,2.4s0.8,1.359,1.359,1.92c0.479,0.56,1.198,1.039,1.921,1.359c0.72,0.241,1.52,0.399,2.397,0.399h18.4
	h22.561h1.359l-15.76,15.76c-0.643,0.641-1.041,1.281-1.36,2.082c-0.32,0.719-0.479,1.519-0.479,2.316
	c0,0.801,0.158,1.521,0.479,2.32c0.319,0.8,0.72,1.439,1.36,2l2.157,2.161c0.563,0.639,1.2,1.038,2,1.358
	c0.802,0.319,1.521,0.479,2.32,0.479s1.521-0.159,2.32-0.479s1.438-0.722,2-1.358l28.96-28.962c0.641-0.561,1.04-1.279,1.359-2
	c0.185-0.461,0.311-0.896,0.388-1.333c0.101-0.193,0.187-0.391,0.253-0.588C105.505,66.641,105.666,65.841,105.666,65.041z"/>
<g>
	<g>
		<g>
			
				<path fill="none" stroke="#999999" stroke-width="0.4" stroke-linecap="round" stroke-linejoin="round" stroke-miterlimit="10" d="
				M152.798,93.76c0,6.32,2.242,11.6,6.643,16c4.398,4.481,9.76,6.721,16.08,6.721h51.04c6.238,0,11.6-2.237,16.08-6.721
				c4.398-4.4,6.561-9.68,6.561-16V42.72c0-6.32-2.16-11.6-6.561-16.08c-4.48-4.4-9.842-6.641-16.08-6.641H175.52
				c-6.32,0-11.681,2.241-16.08,6.641c-4.399,4.479-6.642,9.759-6.642,16.08V93.76"/>
		</g>
		<g>
			<path fill="#F2F2F2" d="M152.798,93.76V42.72c0-6.32,2.242-11.6,6.643-16.08c4.398-4.4,9.76-6.641,16.08-6.641h51.04
				c6.238,0,11.6,2.241,16.08,6.641c4.398,4.479,6.561,9.759,6.561,16.08v51.04c0,6.32-2.16,11.6-6.561,16
				c-4.48,4.481-9.842,6.721-16.08,6.721H175.52c-6.32,0-11.681-2.237-16.08-6.721C155.041,105.359,152.798,100.08,152.798,93.76z"
				/>
		</g>
	</g>
	<path fill="#FF0000" d="M240.881,65.041c0-0.8-0.158-1.6-0.479-2.32c-0.24-0.72-0.721-1.44-1.359-2.08L210.16,31.68
		c-0.641-0.479-1.359-1.039-2.08-1.28c-0.721-0.32-1.52-0.479-2.318-0.479c-0.803,0-1.521,0.159-2.32,0.479
		c-0.799,0.241-1.439,0.8-2,1.28l-2.24,2.241c-0.559,0.559-0.959,1.28-1.279,2c-0.318,0.72-0.479,1.52-0.479,2.32
		c0,0.8,0.158,1.6,0.479,2.319c0.32,0.72,0.723,1.44,1.279,2.081l15.727,15.68h-1.885H190.48h-18.4c-0.88,0-1.68,0.159-2.397,0.479
		c-0.723,0.241-1.44,0.721-1.921,1.28c-0.562,0.561-1.039,1.2-1.359,1.92c-0.32,0.8-0.48,1.6-0.48,2.4v3.121
		c0,0.88,0.16,1.68,0.48,2.4s0.8,1.359,1.359,1.92c0.479,0.56,1.198,1.039,1.921,1.359c0.72,0.241,1.52,0.399,2.397,0.399h18.4
		h22.561h1.359l-15.76,15.76c-0.643,0.641-1.041,1.281-1.361,2.082c-0.32,0.719-0.479,1.519-0.479,2.316
		c0,0.801,0.158,1.521,0.479,2.32c0.32,0.8,0.721,1.439,1.361,2l2.156,2.161c0.563,0.639,1.201,1.038,2,1.358
		c0.803,0.319,1.521,0.479,2.32,0.479s1.521-0.159,2.32-0.479s1.439-0.722,2-1.358l28.961-28.962c0.641-0.561,1.039-1.279,1.359-2
		c0.184-0.461,0.311-0.896,0.387-1.333c0.102-0.193,0.188-0.391,0.254-0.588C240.721,66.641,240.881,65.841,240.881,65.041z"/>
</g>
<line fill="none" stroke="#000000" stroke-miterlimit="10" x1="0" y1="136.5" x2="400" y2="0"/>
</svg>
