<?xml version="1.0" encoding="utf-8"?>
<!-- Generator: Adobe Illustrator 16.0.2, SVG Export Plug-In . SVG Version: 6.00 Build 0)  -->
<!DOCTYPE svg PUBLIC "-//W3C//DTD SVG 1.1//EN" "http://www.w3.org/Graphics/SVG/1.1/DTD/svg11.dtd">
<svg version="1.1"
	 id="svg815" xmlns:cc="http://creativecommons.org/ns#" xmlns:dc="http://purl.org/dc/elements/1.1/" xmlns:sodipodi="http://sodipodi.sourceforge.net/DTD/sodipodi-0.dtd" xmlns:inkscape="http://www.inkscape.org/namespaces/inkscape" xmlns:svg="http://www.w3.org/2000/svg" xmlns:rdf="http://www.w3.org/1999/02/22-rdf-syntax-ns#" sodipodi:docname="coffee013a.svg" inkscape:version="1.2.2 (732a01da63, 2022-12-09)"
	 xmlns="http://www.w3.org/2000/svg" xmlns:xlink="http://www.w3.org/1999/xlink" x="0px" y="0px" width="400px" height="136.5px"
	 viewBox="0 0 400 136.5" enable-background="new 0 0 400 136.5" xml:space="preserve">
<sodipodi:namedview  id="namedview817" inkscape:zoom="0.51782907" objecttolerance="10" guidetolerance="10" gridtolerance="10" borderopacity="1" bordercolor="#666666" showgrid="false" pagecolor="#ffffff" fit-margin-top="0" inkscape:cy="505.95846" inkscape:cx="-83.038984" fit-margin-left="0" inkscape:pagecheckerboard="0" inkscape:window-maximized="1" inkscape:current-layer="layer1" inkscape:window-height="705" inkscape:window-y="-8" inkscape:window-x="-8" inkscape:deskcolor="#d1d1d1" inkscape:pageopacity="0" inkscape:showpageshadow="2" inkscape:pageshadow="2" inkscape:window-width="1366" fit-margin-right="0" inkscape:snap-page="false" fit-margin-bottom="0" showguides="true">
	</sodipodi:namedview>
<text transform="matrix(0.9981 0 0 1 4.882813e-004 187.1016)" fill="#21AD97" font-family="'MicrosoftJhengHeiRegular'" font-size="29.175">Isometric | Social Media</text>
<text transform="matrix(0.9103 0 0 1 -6.2759 272.2744)" fill="#008000" font-family="'Bahnschrift'" font-size="92.8438">PRINCIPAL</text>
<text transform="matrix(0.9981 0 0 1 47.6143 327.248)" fill="#999999" font-family="'MicrosoftJhengHeiRegular'" font-size="54.2292">I</text>
<text transform="matrix(0.9981 0 0 1 61.0664 327.248)" fill="#999999" font-family="'MicrosoftJhengHeiRegular'" font-size="54.2292">s</text>
<text transform="matrix(0.9981 0 0 1 83.8115 327.248)" fill="#999999" font-family="'MicrosoftJhengHeiRegular'" font-size="54.2292">o</text>
<text transform="matrix(0.9981 0 0 1 116.605 327.248)" fill="#999999" font-family="'MicrosoftJhengHeiRegular'" font-size="54.2292">m</text>
<text transform="matrix(0.9981 0 0 1 164.688 327.248)" fill="#999999" font-family="'MicrosoftJhengHeiRegular'" font-size="54.2292">e</text>
<text transform="matrix(0.9981 0 0 1 194.1855 327.248)" fill="#999999" font-family="'MicrosoftJhengHeiRegular'" font-size="54.2292">t</text>
<text transform="matrix(0.9981 0 0 1 211.6367 327.248)" fill="#999999" font-family="'MicrosoftJhengHeiRegular'" font-size="54.2292">r</text>
<text transform="matrix(0.9981 0 0 1 230.9238 327.248)" fill="#999999" font-family="'MicrosoftJhengHeiRegular'" font-size="54.2292">i</text>
<text transform="matrix(0.9981 0 0 1 243.0254 327.248)" fill="#999999" font-family="'MicrosoftJhengHeiRegular'" font-size="54.2292">c</text>
<text transform="matrix(0.9981 0 0 1 3.832 381.4775)" fill="#999999" font-family="'MicrosoftJhengHeiRegular'" font-size="54.2292">S</text>
<text transform="matrix(0.9981 0 0 1 32.9517 381.4775)" fill="#999999" font-family="'MicrosoftJhengHeiRegular'" font-size="54.2292">o</text>
<text transform="matrix(0.9981 0 0 1 65.7456 381.4775)" fill="#999999" font-family="'MicrosoftJhengHeiRegular'" font-size="54.2292">c</text>
<text transform="matrix(0.9981 0 0 1 91.6777 381.4775)" fill="#999999" font-family="'MicrosoftJhengHeiRegular'" font-size="54.2292">i</text>
<text transform="matrix(0.9981 0 0 1 103.7798 381.4775)" fill="#999999" font-family="'MicrosoftJhengHeiRegular'" font-size="54.2292">a</text>
<text transform="matrix(0.9981 0 0 1 132.6294 381.4775)" fill="#999999" font-family="'MicrosoftJhengHeiRegular'" font-size="54.2292">l</text>
<text transform="matrix(0.9981 0 0 1 144.7314 381.4775)" fill="#999999" font-family="'MicrosoftJhengHeiRegular'" font-size="54.2292"> </text>
<text transform="matrix(0.9981 0 0 1 160.7231 381.4775)" fill="#999999" font-family="'MicrosoftJhengHeiRegular'" font-size="54.2292">M</text>
<text transform="matrix(0.9981 0 0 1 209.5088 381.4775)" fill="#999999" font-family="'MicrosoftJhengHeiRegular'" font-size="54.2292">e</text>
<text transform="matrix(0.9981 0 0 1 239.0059 381.4775)" fill="#999999" font-family="'MicrosoftJhengHeiRegular'" font-size="54.2292">d</text>
<text transform="matrix(0.9981 0 0 1 271.7461 381.4775)" fill="#999999" font-family="'MicrosoftJhengHeiRegular'" font-size="54.2292">i</text>
<text transform="matrix(0.9981 0 0 1 283.8477 381.4775)" fill="#999999" font-family="'MicrosoftJhengHeiRegular'" font-size="54.2292">a</text>
<g>
	<g>
		<path fill="#FF3300" d="M5.04,100.08V36.4c0-3.92,0.72-7.6,2.16-11.12c1.439-3.359,3.52-6.4,6.16-9.039
			C18.88,10.72,25.52,8,33.44,8h333.2c3.842,0,7.44,0.72,11.04,2.241c3.36,1.359,6.4,3.439,9.041,6
			c5.521,5.6,8.239,12.239,8.239,20.159v63.68c0,3.92-0.72,7.6-2.239,11.12c-1.439,3.358-3.439,6.399-6,8.96
			c-2.641,2.641-5.681,4.72-9.041,6.081c-3.6,1.519-7.198,2.239-11.04,2.239H33.44c-3.92,0-7.52-0.723-11.12-2.239
			c-3.36-1.361-6.4-3.44-8.959-6.081c-2.641-2.561-4.721-5.602-6.16-8.96C5.76,107.68,5.04,104,5.04,100.08z"/>
	</g>
	<g>
		
			<path fill="none" stroke="#999999" stroke-width="0.5" stroke-linecap="round" stroke-linejoin="round" stroke-miterlimit="10" d="
			M5.04,100.08c0,3.92,0.72,7.6,2.16,11.12c1.439,3.358,3.52,6.399,6.16,8.96c2.56,2.641,5.6,4.72,8.959,6.081
			c3.6,1.519,7.2,2.239,11.12,2.239h333.2c3.84,0,7.44-0.723,11.04-2.239c3.36-1.361,6.4-3.44,9.041-6.081
			c2.561-2.561,4.561-5.602,6-8.96c1.521-3.521,2.239-7.2,2.239-11.12V36.4c0-7.92-2.72-14.559-8.239-20.159
			c-2.641-2.561-5.681-4.641-9.041-6C374.08,8.72,370.479,8,366.64,8H33.44c-7.92,0-14.56,2.72-20.08,8.241
			C10.72,18.88,8.64,21.92,7.2,25.28c-1.44,3.52-2.16,7.2-2.16,11.12V100.08"/>
	</g>
</g>
<path fill="#FFFFFF" d="M176.96,45.041v-5.6h-19.52V84.88h19.52V79.2h-13.6V65.12h12v-5.68h-12v-14.4L176.96,45.041L176.96,45.041z"
	/>
<path fill="#FFFFFF" d="M256.08,39.44h-19.439v45.44h19.439V79.2h-13.52V65.12h12v-5.68h-12v-14.4h13.52V39.44z"/>
<path fill="#FFFFFF" d="M232,45.041v-5.6h-22.08v5.6H218V84.88h5.92V45.041H232z"/>
<g>
	<g>
		
			<path fill="none" stroke="#999999" stroke-width="0.4" stroke-linecap="round" stroke-linejoin="round" stroke-miterlimit="10" d="
			M286.479,93.76c0,6.32,2.242,11.6,6.643,16c4.398,4.481,9.76,6.721,16.08,6.721h51.04c6.237,0,11.6-2.237,16.08-6.721
			c4.398-4.4,6.56-9.68,6.56-16V42.72c0-6.32-2.159-11.6-6.56-16.08c-4.48-4.4-9.843-6.641-16.08-6.641H309.2
			c-6.32,0-11.681,2.241-16.08,6.641c-4.399,4.479-6.642,9.759-6.642,16.08V93.76"/>
	</g>
	<g>
		<path fill="#F2F2F2" d="M286.479,93.76V42.72c0-6.32,2.242-11.6,6.643-16.08c4.398-4.4,9.76-6.641,16.08-6.641h51.04
			c6.237,0,11.6,2.241,16.08,6.641c4.398,4.479,6.56,9.759,6.56,16.08v51.04c0,6.32-2.159,11.6-6.56,16
			c-4.48,4.481-9.843,6.721-16.08,6.721H309.2c-6.32,0-11.681-2.237-16.08-6.721C288.721,105.359,286.479,100.08,286.479,93.76z"/>
	</g>
</g>
<g>
	<g>
		<g>
			<path fill="#FFFFFF" d="M52.4,57.2l4.16,2c0.08,0,0.24,0.08,0.24,0.159l0.4,0.081c1.76,0.8,3.2,1.6,4.32,2.4
				c1.12,0.639,2,1.759,2.88,3.2c0.72,1.359,1.12,3.201,1.12,5.44v4.16c0,2.237-0.48,4.158-1.28,5.84c-0.8,1.6-2.08,2.8-3.68,3.6
				s-3.6,1.199-5.92,1.199c-2.4,0-4.4-0.399-6.08-1.199c-1.68-0.801-2.88-2-3.76-3.6c-0.8-1.682-1.28-3.603-1.28-5.84V72.4h6v2
				c0,1.6,0.4,2.88,1.28,3.841c0.88,0.88,2.16,1.358,3.84,1.358c1.6,0,2.8-0.479,3.6-1.358c0.88-0.961,1.36-2.161,1.36-3.841v-4
				c0-1.041-0.32-2-0.8-2.801c-0.64-0.72-1.36-1.359-2.08-1.84C55.76,65.2,54.64,64.641,53.36,64c-0.08,0-0.08,0-0.16,0h-0.08
				l-0.4-0.241C50.64,62.8,49.04,62,48,61.2c-1.2-0.8-2.24-2-3.2-3.521c-0.8-1.439-1.2-3.28-1.2-5.6V49.44
				c0-2.24,0.4-4.161,1.2-5.681c0.8-1.519,2.08-2.719,3.76-3.6c1.68-0.8,3.68-1.2,6-1.2s4.24,0.4,5.84,1.281
				c1.6,0.719,2.8,1.918,3.6,3.6c0.8,1.519,1.2,3.439,1.2,5.759V52h-5.84v-2.159c0-1.682-0.4-2.961-1.28-3.841
				c-0.8-0.8-1.92-1.28-3.52-1.28S51.68,45.2,50.8,46c-0.8,0.8-1.28,2-1.28,3.6v2.8c0,1.2,0.32,2.16,0.8,2.88
				C50.8,56,51.52,56.641,52.4,57.2z"/>
		</g>
	</g>
	<g>
		<g>
			<path fill="#FFFFFF" d="M78.8,39.44v45.44h-5.92V39.44H78.8z"/>
		</g>
	</g>
	<g>
		<g>
			<path fill="#FFFFFF" d="M97.44,60.4h11.04v13.28c0,2.4-0.4,4.563-1.28,6.32c-0.88,1.68-2.16,3.041-3.76,4
				c-1.6,0.88-3.6,1.28-5.84,1.28c-2.32,0-4.32-0.4-6-1.2c-1.68-0.88-2.96-2.159-3.84-3.839c-0.8-1.601-1.28-3.601-1.28-5.921V50.64
				c0-2.561,0.48-4.641,1.28-6.32c0.879-1.68,2.08-3.12,3.68-4c1.68-0.88,3.6-1.361,5.92-1.361c2.32,0,4.24,0.481,5.84,1.281
				c1.52,0.879,2.8,2.159,3.6,3.918c0.88,1.682,1.28,3.682,1.28,6.082v2.239h-6.32V50.24c0-1.2-0.16-2.161-0.48-2.961
				c-0.32-0.88-0.8-1.439-1.52-1.92c-0.72-0.479-1.521-0.639-2.4-0.639c-0.96,0-1.92,0.239-2.721,0.72c-0.64,0.4-1.2,1.039-1.68,2
				c-0.32,0.88-0.56,1.919-0.56,3.2v23.68c0,1.121,0.24,2.08,0.64,2.88c0.4,0.721,0.96,1.28,1.76,1.68
				c0.72,0.479,1.68,0.722,2.8,0.722c0.96,0,1.84-0.319,2.64-0.722c0.72-0.479,1.2-1.039,1.68-2c0.4-0.88,0.64-1.839,0.64-3.12V66
				h-5.12L97.44,60.4L97.44,60.4z"/>
		</g>
	</g>
	<g>
		<g>
			<path fill="#FFFFFF" d="M131.84,84.08c-1.52,0.8-3.36,1.2-5.68,1.2c-2.24,0-4.08-0.4-5.6-1.2s-2.72-2-3.52-3.6
				c-0.8-1.603-1.2-3.603-1.2-5.84V39.44h6v35.44c0,1.521,0.32,2.722,1.12,3.521c0.72,0.802,1.76,1.201,3.2,1.201
				s2.479-0.399,3.28-1.201c0.8-0.879,1.2-2,1.2-3.521V39.44h5.92v35.201c0,2.238-0.4,4.238-1.2,5.84
				C134.56,82.08,133.36,83.28,131.84,84.08z"/>
		</g>
	</g>
	<g>
		<g>
			<path fill="#FFFFFF" d="M149.84,39.44v45.44h-6V39.44H149.84z"/>
		</g>
	</g>
	<g>
		<g>
			<path fill="#FFFFFF" d="M200.16,84.88L188.72,53.6v-3.359l-0.959,0.8l0.959,2.56v31.28h-5.68V39.44h5.2l11.521,32.001v3.6
				l0.959-0.8l-0.959-2.8V39.44h5.678v45.44H200.16z"/>
		</g>
	</g>
</g>
<path fill="#FF0000" d="M374.561,65.041c0-0.8-0.158-1.6-0.479-2.32c-0.24-0.72-0.72-1.44-1.359-2.08L343.84,31.68
	c-0.64-0.479-1.358-1.039-2.08-1.28c-0.72-0.32-1.52-0.479-2.318-0.479c-0.802,0-1.521,0.159-2.319,0.479
	c-0.8,0.241-1.44,0.8-2,1.28l-2.24,2.241c-0.56,0.559-0.96,1.28-1.28,2c-0.318,0.72-0.479,1.52-0.479,2.32
	c0,0.8,0.159,1.6,0.479,2.319c0.32,0.72,0.723,1.44,1.28,2.081l15.726,15.68h-1.885H324.16h-18.4c-0.88,0-1.68,0.159-2.397,0.479
	c-0.723,0.241-1.44,0.721-1.921,1.28c-0.562,0.561-1.039,1.2-1.359,1.92c-0.32,0.8-0.48,1.6-0.48,2.4v3.121
	c0,0.88,0.16,1.68,0.48,2.4s0.8,1.359,1.359,1.92c0.479,0.56,1.198,1.039,1.921,1.359c0.72,0.241,1.52,0.399,2.397,0.399h18.4
	h22.561h1.359l-15.76,15.76c-0.643,0.641-1.041,1.281-1.36,2.082c-0.32,0.719-0.479,1.519-0.479,2.316
	c0,0.801,0.158,1.521,0.479,2.32c0.319,0.8,0.72,1.439,1.36,2l2.157,2.161c0.563,0.639,1.2,1.038,2,1.358
	c0.802,0.319,1.521,0.479,2.32,0.479s1.521-0.159,2.32-0.479s1.438-0.722,2-1.358l28.96-28.962c0.641-0.561,1.04-1.279,1.359-2
	c0.185-0.461,0.311-0.896,0.388-1.333c0.101-0.193,0.187-0.391,0.253-0.588C374.4,66.641,374.561,65.841,374.561,65.041z"/>
<g>
	<g>
		<g>
			<path fill="#FE9929" d="M43.92,105.359l2.8-2.079l-2.8-2.08v-3.279l6.88,5.359l-6.88,5.36V105.359z"/>
		</g>
	</g>
	<g>
		<g>
			<path fill="#FE9929" d="M51.2,105.359l2.88-2.079l-2.88-2.08v-3.279l6.88,5.359l-6.88,5.36V105.359z"/>
		</g>
	</g>
	<g>
		<g>
			<path fill="#FE9929" d="M69.84,104.641h-2.48v-2.397h2.56c0.32,0,0.64-0.081,0.88-0.241c0.32-0.159,0.48-0.398,0.64-0.72
				c0.08-0.239,0.16-0.642,0.16-1.12V97.2c0-0.479-0.08-0.8-0.16-1.12c-0.16-0.32-0.32-0.561-0.64-0.721
				c-0.24-0.159-0.56-0.238-0.88-0.238h-2.56v-2.48h2.479c0.88,0,1.6,0.239,2.4,0.562c0.56,0.399,1.121,0.88,1.521,1.601
				c0.24,0.559,0.48,1.358,0.48,2.398v3.041c0,0.959-0.24,1.759-0.56,2.398c-0.32,0.641-0.8,1.118-1.44,1.438
				C71.6,104.48,70.8,104.641,69.84,104.641z"/>
			<path fill="#FE9929" d="M64.8,112.241V92.641h1.44v2.48h1.121v7.12H66.24v2.399h1.121v7.601H64.8L64.8,112.241z"/>
		</g>
	</g>
	<g>
		<g>
			<path fill="#FE9929" d="M81.52,96.641l-1.68,8.961H78.8V108h0.64l-0.8,4.241h-2.8l4.56-19.601h2.32l4.561,19.601h-2.8L83.68,108
				h0.88v-2.398H83.2L81.52,96.641z"/>
			<path fill="#FE9929" d="M83.68,108h-4.24l0.4-2.398h3.36L83.68,108z"/>
		</g>
	</g>
	<g>
		<g>
			<path fill="#FE9929" d="M94.56,101.28l2.08,1.04c0.48,0.32,0.88,0.88,1.2,1.359c0.32,0.562,0.4,1.359,0.4,2.398v1.761
				c0,1.039-0.08,1.841-0.479,2.562c-0.32,0.641-0.88,1.199-1.6,1.438c-0.72,0.4-1.6,0.642-2.56,0.642s-1.84-0.239-2.56-0.642
				c-0.72-0.239-1.28-0.8-1.6-1.438c-0.4-0.801-0.56-1.602-0.56-2.562v-0.961h2.56v0.802c0,0.801,0.16,1.278,0.56,1.68
				c0.4,0.398,0.96,0.641,1.6,0.641s1.2-0.24,1.6-0.641c0.4-0.399,0.56-0.879,0.56-1.68v-1.602c0-0.479-0.16-0.88-0.32-1.2
				c-0.24-0.319-0.56-0.639-0.88-0.88l-1.52-0.721l0,0h-0.08l-0.16-0.079l-2-1.12c-0.64-0.398-1.04-0.88-1.36-1.521
				c-0.4-0.72-0.56-1.52-0.56-2.398v-1.2c0-0.88,0.16-1.681,0.56-2.399c0.32-0.72,0.88-1.199,1.6-1.601
				c0.72-0.317,1.6-0.479,2.56-0.479s1.76,0.16,2.48,0.479c0.72,0.397,1.2,0.881,1.6,1.601c0.32,0.722,0.56,1.602,0.56,2.48v1.039
				h-2.56V97.2c0-0.72-0.24-1.2-0.56-1.681c-0.32-0.319-0.88-0.562-1.52-0.562c-0.72,0-1.28,0.24-1.6,0.562
				c-0.4,0.319-0.56,0.881-0.56,1.521v1.2c0,0.479,0.08,0.959,0.32,1.277c0.32,0.32,0.56,0.562,0.879,0.801l1.44,0.722
				c0.08,0,0.16,0,0.16,0.08c0.08,0.079,0.16,0.079,0.16,0.079L94.56,101.28z"/>
		</g>
	</g>
	<g>
		<g>
			<path fill="#FE9929" d="M103.36,92.641v19.603h-2.56V92.641H103.36z"/>
		</g>
	</g>
	<g>
		<g>
			<path fill="#FE9929" d="M107.36,109.76v2.481H106V92.641h2.56v17.119H107.36z"/>
			<path fill="#FE9929" d="M108.56,109.76h5.6v2.481h-5.6V109.76z"/>
		</g>
	</g>
	<g>
		<g>
			<path fill="#FE9929" d="M117.44,109.76v2.481h-1.28V92.641h2.479v17.119H117.44z"/>
			<path fill="#FE9929" d="M118.64,109.76h5.6v2.481h-5.6V109.76z"/>
		</g>
	</g>
	<g>
		<g>
			<path fill="#FE9929" d="M133.68,111.841c-0.72,0.4-1.6,0.64-2.64,0.64c-0.96,0-1.84-0.237-2.56-0.64
				c-0.8-0.399-1.36-0.961-1.68-1.681c-0.32-0.719-0.56-1.602-0.56-2.641v-10.16c0-1.039,0.24-1.918,0.56-2.641
				c0.32-0.721,0.88-1.277,1.68-1.68c0.8-0.398,1.68-0.563,2.56-0.563c1.04,0,1.92,0.16,2.64,0.563c0.64,0.318,1.28,0.959,1.68,1.68
				c0.4,0.801,0.56,1.682,0.56,2.641v10.16c0,0.961-0.16,1.84-0.56,2.641C134.96,110.88,134.4,111.441,133.68,111.841z
				 M129.84,109.68c0.4,0.161,0.8,0.32,1.2,0.32s0.8-0.159,1.28-0.32c0.32-0.158,0.64-0.397,0.8-0.8c0.16-0.399,0.24-0.8,0.24-1.278
				V97.28c0-0.479-0.08-0.88-0.24-1.2c-0.16-0.4-0.48-0.721-0.8-0.8c-0.48-0.239-0.88-0.32-1.28-0.32s-0.8,0.081-1.2,0.32
				c-0.32,0.079-0.56,0.399-0.8,0.8c-0.16,0.32-0.24,0.721-0.24,1.2V107.6c0,0.479,0.08,0.881,0.24,1.279
				C129.28,109.28,129.52,109.521,129.84,109.68z"/>
		</g>
	</g>
	<g>
		<g>
			<path fill="#FE9929" d="M143.44,105.359l2.8-2.079l-2.8-2.08v-3.279l6.88,5.359l-6.88,5.36V105.359z"/>
		</g>
	</g>
	<g>
		<g>
			<path fill="#FE9929" d="M150.8,105.359l2.88-2.079l-2.88-2.08v-3.279l6.88,5.359l-6.88,5.36V105.359z"/>
		</g>
	</g>
	<g>
		<g>
			<path fill="#FE9929" d="M169.44,104.641h-2.48v-2.397h2.48c0.4,0,0.72-0.081,0.96-0.241c0.24-0.159,0.48-0.398,0.56-0.72
				c0.08-0.239,0.16-0.642,0.16-1.12V97.2c0-0.479-0.08-0.8-0.16-1.12s-0.32-0.561-0.56-0.721c-0.24-0.159-0.56-0.238-0.96-0.238
				h-2.48v-2.48h2.48c0.88,0,1.68,0.239,2.4,0.562c0.56,0.399,1.12,0.88,1.44,1.601c0.4,0.643,0.56,1.44,0.56,2.399v3.041
				c0,0.88-0.16,1.6-0.56,2.397c-0.4,0.642-0.96,1.2-1.52,1.439C171.12,104.48,170.32,104.641,169.44,104.641z"/>
			<path fill="#FE9929" d="M164.4,112.241V92.641h1.44v2.48h1.12v7.12h-1.12v2.399h1.12v7.601H164.4L164.4,112.241z"/>
		</g>
	</g>
	<g>
		<g>
			<path fill="#FE9929" d="M181.12,96.641l-1.68,8.961h-1.12V108h0.72l-0.88,4.241h-2.72l4.48-19.601h2.32l4.56,19.601h-2.72
				l-0.8-4.241h0.88v-2.398h-1.36L181.12,96.641z"/>
			<path fill="#FE9929" d="M183.28,108h-4.24l0.4-2.398h3.36L183.28,108z"/>
		</g>
	</g>
	<g>
		<g>
			<path fill="#FE9929" d="M193.84,101.121l0.32,0.159c0.08,0,0.08,0,0.08,0l1.92,1.04c0.479,0.32,0.88,0.721,1.2,1.359
				c0.4,0.641,0.479,1.439,0.479,2.398v1.761c0,0.96-0.16,1.761-0.479,2.562c-0.4,0.641-0.96,1.199-1.6,1.438
				c-0.72,0.4-1.6,0.642-2.64,0.642c-0.96,0-1.76-0.239-2.56-0.642c-0.72-0.239-1.2-0.8-1.6-1.438
				c-0.32-0.801-0.56-1.602-0.56-2.562v-0.961h2.56v0.802c0,0.801,0.16,1.278,0.56,1.68c0.4,0.398,0.96,0.641,1.6,0.641
				c0.72,0,1.28-0.24,1.6-0.641c0.4-0.399,0.641-0.879,0.641-1.68v-1.602c0-0.479-0.16-0.88-0.4-1.2
				c-0.24-0.319-0.48-0.639-0.88-0.88l-1.44-0.721c0,0,0,0-0.08,0l0,0l-0.24-0.079l-2-1.12c-0.48-0.398-0.959-0.88-1.36-1.521
				c-0.32-0.561-0.48-1.358-0.48-2.398v-1.2c0-0.88,0.16-1.681,0.48-2.399c0.4-0.72,0.88-1.199,1.6-1.601
				c0.8-0.317,1.68-0.479,2.56-0.479c0.96,0,1.84,0.16,2.56,0.479c0.64,0.397,1.2,0.881,1.6,1.601c0.32,0.722,0.48,1.602,0.48,2.48
				v1.039h-2.56V97.2c0-0.72-0.16-1.359-0.561-1.681c-0.32-0.319-0.8-0.562-1.52-0.562c-0.64,0-1.2,0.24-1.6,0.562
				c-0.4,0.32-0.48,0.881-0.48,1.521v1.2c0,0.56,0.08,0.959,0.32,1.277c0.24,0.32,0.479,0.562,0.879,0.801l1.44,0.722
				C193.76,101.041,193.76,101.041,193.84,101.121z"/>
		</g>
	</g>
	<g>
		<g>
			<path fill="#FE9929" d="M202.96,92.641v19.603h-2.64V92.641H202.96z"/>
		</g>
	</g>
	<g>
		<g>
			<path fill="#FE9929" d="M206.96,109.76v2.481h-1.438V92.641h2.641v17.119H206.96z"/>
			<path fill="#FE9929" d="M208.16,109.76h5.52v2.481h-5.52V109.76z"/>
		</g>
	</g>
	<g>
		<g>
			<path fill="#FE9929" d="M217.04,109.76v2.481h-1.36V92.641h2.563v17.119H217.04z"/>
			<path fill="#FE9929" d="M218.24,109.76h5.6v2.481h-5.6V109.76z"/>
		</g>
	</g>
	<g>
		<g>
			<path fill="#FE9929" d="M233.279,111.841c-0.719,0.4-1.6,0.64-2.641,0.64c-0.959,0-1.918-0.237-2.561-0.64
				c-0.803-0.399-1.357-0.961-1.762-1.681c-0.318-0.801-0.479-1.68-0.479-2.641v-10.16c0-0.959,0.16-1.84,0.479-2.641
				c0.4-0.721,0.959-1.277,1.762-1.68c0.72-0.398,1.602-0.563,2.561-0.563c1.041,0,1.84,0.16,2.641,0.563
				c0.801,0.398,1.281,0.959,1.601,1.68c0.399,0.723,0.642,1.682,0.642,2.641v10.16c0,1.039-0.242,1.922-0.642,2.641
				C234.561,110.88,234.08,111.441,233.279,111.841z M229.439,109.68c0.398,0.161,0.801,0.32,1.199,0.32
				c0.479,0,0.881-0.159,1.279-0.32c0.318-0.158,0.561-0.397,0.803-0.8c0.157-0.399,0.237-0.8,0.237-1.278V97.28
				c0-0.4-0.08-0.8-0.237-1.2c-0.242-0.4-0.48-0.721-0.803-0.8c-0.398-0.239-0.8-0.32-1.279-0.32c-0.398,0-0.801,0.081-1.199,0.32
				c-0.399,0.161-0.642,0.399-0.801,0.8c-0.16,0.32-0.318,0.721-0.318,1.2V107.6c0,0.479,0.158,0.881,0.318,1.279
				C228.8,109.2,229.04,109.441,229.439,109.68z"/>
		</g>
	</g>
	<g>
		<g>
			<path fill="#FE9929" d="M243.04,105.359l2.88-2.079l-2.88-2.08v-3.279l6.88,5.359l-6.88,5.36V105.359z"/>
		</g>
	</g>
	<g>
		<g>
			<path fill="#FE9929" d="M250.4,105.359l2.8-2.079l-2.8-2.08v-3.279l6.879,5.359l-6.879,5.36V105.359z"/>
		</g>
	</g>
</g>
<line fill="none" stroke="#000000" stroke-miterlimit="10" x1="0" y1="136.5" x2="400" y2="0"/>
</svg>
