<?xml version="1.0" encoding="utf-8"?>
<!-- Generator: Adobe Illustrator 16.0.2, SVG Export Plug-In . SVG Version: 6.00 Build 0)  -->
<!DOCTYPE svg PUBLIC "-//W3C//DTD SVG 1.1//EN" "http://www.w3.org/Graphics/SVG/1.1/DTD/svg11.dtd">
<svg version="1.1"
	 id="svg815" xmlns:cc="http://creativecommons.org/ns#" xmlns:dc="http://purl.org/dc/elements/1.1/" xmlns:sodipodi="http://sodipodi.sourceforge.net/DTD/sodipodi-0.dtd" xmlns:inkscape="http://www.inkscape.org/namespaces/inkscape" xmlns:svg="http://www.w3.org/2000/svg" xmlns:rdf="http://www.w3.org/1999/02/22-rdf-syntax-ns#" sodipodi:docname="coffee013a.svg" inkscape:version="1.2.2 (732a01da63, 2022-12-09)"
	 xmlns="http://www.w3.org/2000/svg" xmlns:xlink="http://www.w3.org/1999/xlink" x="0px" y="0px" width="400px" height="136.5px"
	 viewBox="0 0 400 136.5" enable-background="new 0 0 400 136.5" xml:space="preserve">
<sodipodi:namedview  id="namedview817" inkscape:zoom="0.51782907" objecttolerance="10" guidetolerance="10" gridtolerance="10" borderopacity="1" bordercolor="#666666" showgrid="false" pagecolor="#ffffff" fit-margin-top="0" inkscape:cy="505.95846" inkscape:cx="-83.038984" fit-margin-left="0" inkscape:pagecheckerboard="0" inkscape:window-maximized="1" inkscape:current-layer="layer1" inkscape:window-height="705" inkscape:window-y="-8" inkscape:window-x="-8" inkscape:deskcolor="#d1d1d1" inkscape:pageopacity="0" inkscape:showpageshadow="2" inkscape:pageshadow="2" inkscape:window-width="1366" fit-margin-right="0" inkscape:snap-page="false" fit-margin-bottom="0" showguides="true">
	</sodipodi:namedview>
<text transform="matrix(0.9981 0 0 1 5.04 195.1016)" fill="#21AD97" font-family="'MicrosoftJhengHeiRegular'" font-size="29.175">Isometric | Social Media</text>
<text transform="matrix(0.9103 0 0 1 0 276.2744)" fill="#008000" font-family="'Bahnschrift'" font-size="92.8438">PRINCIPAL</text>
<g>
	
		<text transform="matrix(0.9981 0 0 1 90.5737 415.248)" fill="#999999" font-family="'MicrosoftJhengHeiRegular'" font-size="54.2292">I</text>
	
		<text transform="matrix(0.9981 0 0 1 104.0259 415.248)" fill="#999999" font-family="'MicrosoftJhengHeiRegular'" font-size="54.2292">s</text>
	
		<text transform="matrix(0.9981 0 0 1 126.771 415.248)" fill="#999999" font-family="'MicrosoftJhengHeiRegular'" font-size="54.2292">o</text>
	
		<text transform="matrix(0.9981 0 0 1 159.5645 415.248)" fill="#999999" font-family="'MicrosoftJhengHeiRegular'" font-size="54.2292">m</text>
	
		<text transform="matrix(0.9981 0 0 1 207.6475 415.248)" fill="#999999" font-family="'MicrosoftJhengHeiRegular'" font-size="54.2292">e</text>
	
		<text transform="matrix(0.9981 0 0 1 237.1445 415.248)" fill="#999999" font-family="'MicrosoftJhengHeiRegular'" font-size="54.2292">t</text>
	
		<text transform="matrix(0.9981 0 0 1 254.5967 415.248)" fill="#999999" font-family="'MicrosoftJhengHeiRegular'" font-size="54.2292">r</text>
	
		<text transform="matrix(0.9981 0 0 1 273.8828 415.248)" fill="#999999" font-family="'MicrosoftJhengHeiRegular'" font-size="54.2292">i</text>
	
		<text transform="matrix(0.9981 0 0 1 285.9854 415.248)" fill="#999999" font-family="'MicrosoftJhengHeiRegular'" font-size="54.2292">c</text>
	
		<text transform="matrix(0.9981 0 0 1 46.7915 469.4775)" fill="#999999" font-family="'MicrosoftJhengHeiRegular'" font-size="54.2292">S</text>
	
		<text transform="matrix(0.9981 0 0 1 75.9111 469.4775)" fill="#999999" font-family="'MicrosoftJhengHeiRegular'" font-size="54.2292">o</text>
	
		<text transform="matrix(0.9981 0 0 1 108.7051 469.4775)" fill="#999999" font-family="'MicrosoftJhengHeiRegular'" font-size="54.2292">c</text>
	
		<text transform="matrix(0.9981 0 0 1 134.6372 469.4775)" fill="#999999" font-family="'MicrosoftJhengHeiRegular'" font-size="54.2292">i</text>
	
		<text transform="matrix(0.9981 0 0 1 146.7393 469.4775)" fill="#999999" font-family="'MicrosoftJhengHeiRegular'" font-size="54.2292">a</text>
	
		<text transform="matrix(0.9981 0 0 1 175.5889 469.4775)" fill="#999999" font-family="'MicrosoftJhengHeiRegular'" font-size="54.2292">l</text>
	
		<text transform="matrix(0.9981 0 0 1 187.6909 469.4775)" fill="#999999" font-family="'MicrosoftJhengHeiRegular'" font-size="54.2292"> </text>
	
		<text transform="matrix(0.9981 0 0 1 203.6826 469.4775)" fill="#999999" font-family="'MicrosoftJhengHeiRegular'" font-size="54.2292">M</text>
	
		<text transform="matrix(0.9981 0 0 1 252.4678 469.4775)" fill="#999999" font-family="'MicrosoftJhengHeiRegular'" font-size="54.2292">e</text>
	
		<text transform="matrix(0.9981 0 0 1 281.9648 469.4775)" fill="#999999" font-family="'MicrosoftJhengHeiRegular'" font-size="54.2292">d</text>
	
		<text transform="matrix(0.9981 0 0 1 314.7051 469.4775)" fill="#999999" font-family="'MicrosoftJhengHeiRegular'" font-size="54.2292">i</text>
	
		<text transform="matrix(0.9981 0 0 1 326.8066 469.4775)" fill="#999999" font-family="'MicrosoftJhengHeiRegular'" font-size="54.2292">a</text>
</g>
<g>
	<g>
		<path fill="#FF3300" d="M5.04,100.08V36.4c0-3.92,0.72-7.6,2.16-11.12c1.439-3.359,3.52-6.4,6.16-9.039
			C18.88,10.72,25.52,8,33.44,8h333.2c3.842,0,7.44,0.72,11.04,2.241c3.36,1.359,6.4,3.439,9.041,6
			c5.521,5.6,8.239,12.239,8.239,20.159v63.68c0,3.92-0.72,7.6-2.239,11.12c-1.439,3.358-3.439,6.399-6,8.96
			c-2.641,2.641-5.681,4.72-9.041,6.081c-3.6,1.519-7.198,2.239-11.04,2.239H33.44c-3.92,0-7.52-0.723-11.12-2.239
			c-3.36-1.361-6.4-3.44-8.959-6.081c-2.641-2.561-4.721-5.602-6.16-8.96C5.76,107.68,5.04,104,5.04,100.08z"/>
	</g>
	<g>
		
			<path fill="none" stroke="#999999" stroke-width="0.5" stroke-linecap="round" stroke-linejoin="round" stroke-miterlimit="10" d="
			M5.04,100.08c0,3.92,0.72,7.6,2.16,11.12c1.439,3.358,3.52,6.399,6.16,8.96c2.56,2.641,5.6,4.72,8.959,6.081
			c3.6,1.519,7.2,2.239,11.12,2.239h333.2c3.84,0,7.44-0.723,11.04-2.239c3.36-1.361,6.4-3.44,9.041-6.081
			c2.561-2.561,4.561-5.602,6-8.96c1.521-3.521,2.239-7.2,2.239-11.12V36.4c0-7.92-2.72-14.559-8.239-20.159
			c-2.641-2.561-5.681-4.641-9.041-6C374.08,8.72,370.479,8,366.64,8H33.44c-7.92,0-14.56,2.72-20.08,8.241
			C10.72,18.88,8.64,21.92,7.2,25.28c-1.44,3.52-2.16,7.2-2.16,11.12V100.08"/>
	</g>
</g>
<g>
	<g>
		
			<path fill="none" stroke="#999999" stroke-width="0.4" stroke-linecap="round" stroke-linejoin="round" stroke-miterlimit="10" d="
			M286.479,93.76c0,6.32,2.242,11.6,6.643,16c4.398,4.481,9.76,6.721,16.08,6.721h51.04c6.237,0,11.6-2.237,16.08-6.721
			c4.398-4.4,6.56-9.68,6.56-16V42.72c0-6.32-2.159-11.6-6.56-16.08c-4.48-4.4-9.843-6.641-16.08-6.641H309.2
			c-6.32,0-11.681,2.241-16.08,6.641c-4.399,4.479-6.642,9.759-6.642,16.08V93.76"/>
	</g>
	<g>
		<path fill="#F2F2F2" d="M286.479,93.76V42.72c0-6.32,2.242-11.6,6.643-16.08c4.398-4.4,9.76-6.641,16.08-6.641h51.04
			c6.237,0,11.6,2.241,16.08,6.641c4.398,4.479,6.56,9.759,6.56,16.08v51.04c0,6.32-2.159,11.6-6.56,16
			c-4.48,4.481-9.843,6.721-16.08,6.721H309.2c-6.32,0-11.681-2.237-16.08-6.721C288.721,105.359,286.479,100.08,286.479,93.76z"/>
	</g>
</g>
<g>
	<path fill="#FFFFFF" d="M-298.995,452.399v-5.601h-19.52v45.439h19.52v-5.68h-13.6v-14.08h12v-5.68h-12v-14.4L-298.995,452.399
		L-298.995,452.399z"/>
	<path fill="#FFFFFF" d="M-219.875,446.799h-19.439v45.439h19.439v-5.68h-13.52v-14.08h12v-5.68h-12v-14.4h13.52V446.799z"/>
	<path fill="#FFFFFF" d="M-243.955,452.399v-5.601h-22.08v5.601h8.08v39.839h5.92v-39.839H-243.955z"/>
	<g>
		<g>
			<path fill="#FFFFFF" d="M-423.555,464.559l4.16,2c0.08,0,0.24,0.08,0.24,0.158l0.4,0.082c1.76,0.8,3.2,1.6,4.32,2.399
				c1.12,0.64,2,1.759,2.88,3.2c0.72,1.359,1.12,3.201,1.12,5.44v4.16c0,2.237-0.48,4.158-1.28,5.84c-0.8,1.6-2.08,2.8-3.68,3.6
				s-3.6,1.199-5.92,1.199c-2.4,0-4.4-0.399-6.08-1.199c-1.68-0.801-2.88-2-3.76-3.6c-0.8-1.682-1.28-3.603-1.28-5.84v-2.24h6v2
				c0,1.6,0.4,2.88,1.28,3.841c0.88,0.88,2.16,1.358,3.84,1.358c1.6,0,2.8-0.479,3.6-1.358c0.88-0.961,1.36-2.161,1.36-3.841v-4
				c0-1.041-0.32-2.001-0.8-2.802c-0.64-0.72-1.36-1.358-2.08-1.84c-0.96-0.559-2.08-1.117-3.36-1.759c-0.08,0-0.08,0-0.16,0h-0.08
				l-0.4-0.241c-2.08-0.959-3.68-1.759-4.72-2.559c-1.2-0.801-2.24-2-3.2-3.521c-0.8-1.438-1.2-3.279-1.2-5.6v-2.639
				c0-2.24,0.4-4.162,1.2-5.682c0.8-1.519,2.08-2.719,3.76-3.6c1.68-0.801,3.68-1.2,6-1.2s4.24,0.399,5.84,1.281
				c1.6,0.719,2.8,1.918,3.6,3.6c0.8,1.519,1.2,3.438,1.2,5.759v2.401h-5.84v-2.159c0-1.682-0.4-2.961-1.28-3.841
				c-0.8-0.8-1.92-1.28-3.52-1.28s-2.88,0.48-3.76,1.28c-0.8,0.8-1.28,2-1.28,3.601v2.799c0,1.201,0.32,2.16,0.8,2.881
				C-425.155,463.358-424.435,464-423.555,464.559z"/>
		</g>
	</g>
	<g>
		<g>
			<path fill="#FFFFFF" d="M-397.155,446.799v45.439h-5.92v-45.439H-397.155z"/>
		</g>
	</g>
	<g>
		<path fill="#FFFFFF" d="M-378.515,467.758h11.04v13.28c0,2.4-0.4,4.563-1.28,6.32c-0.88,1.68-2.16,3.041-3.76,4
			c-1.6,0.88-3.6,1.28-5.84,1.28c-2.32,0-4.32-0.4-6-1.2c-1.68-0.88-2.96-2.159-3.84-3.839c-0.8-1.601-1.28-3.601-1.28-5.921
			v-23.681c0-2.561,0.48-4.641,1.28-6.32c0.879-1.68,2.08-3.119,3.68-4c1.68-0.879,3.6-1.36,5.92-1.36c2.32,0,4.24,0.481,5.84,1.281
			c1.52,0.879,2.8,2.159,3.6,3.918c0.88,1.682,1.28,3.682,1.28,6.082v2.239h-6.32v-2.239c0-1.2-0.16-2.161-0.48-2.962
			c-0.32-0.879-0.8-1.438-1.52-1.92c-0.72-0.479-1.521-0.639-2.4-0.639c-0.96,0-1.92,0.239-2.721,0.721
			c-0.64,0.399-1.2,1.039-1.68,2c-0.32,0.879-0.56,1.918-0.56,3.199v23.681c0,1.121,0.24,2.08,0.64,2.88
			c0.4,0.721,0.96,1.28,1.76,1.68c0.72,0.479,1.68,0.722,2.8,0.722c0.96,0,1.84-0.319,2.64-0.722c0.72-0.479,1.2-1.039,1.68-2
			c0.4-0.88,0.64-1.839,0.64-3.12v-7.76h-5.12L-378.515,467.758L-378.515,467.758z"/>
	</g>
	<g>
		<g>
			<path fill="#FFFFFF" d="M-344.115,491.438c-1.52,0.8-3.36,1.2-5.68,1.2c-2.24,0-4.08-0.4-5.6-1.2s-2.72-2-3.52-3.6
				c-0.8-1.603-1.2-3.603-1.2-5.84v-35.2h6v35.439c0,1.521,0.32,2.722,1.12,3.521c0.72,0.802,1.76,1.201,3.2,1.201
				s2.479-0.399,3.28-1.201c0.8-0.879,1.2-2,1.2-3.521v-35.439h5.92v35.2c0,2.238-0.4,4.238-1.2,5.84
				C-341.395,489.438-342.595,490.639-344.115,491.438z"/>
		</g>
	</g>
	<g>
		<g>
			<path fill="#FFFFFF" d="M-326.115,446.799v45.439h-6v-45.439H-326.115z"/>
		</g>
	</g>
	<g>
		<g>
			<path fill="#FFFFFF" d="M-275.795,492.238l-11.44-31.279V457.6l-0.959,0.8l0.959,2.56v31.28h-5.68v-45.44h5.2l11.521,32.001v3.6
				l0.959-0.8l-0.959-2.8v-32.001h5.678v45.439H-275.795z"/>
		</g>
	</g>
</g>
<path fill="#FF0000" d="M374.561,65.041c0-0.8-0.158-1.6-0.479-2.32c-0.24-0.72-0.72-1.44-1.359-2.08L343.84,31.68
	c-0.64-0.479-1.358-1.039-2.08-1.28c-0.72-0.32-1.52-0.479-2.318-0.479c-0.802,0-1.521,0.159-2.319,0.479
	c-0.8,0.241-1.44,0.8-2,1.28l-2.24,2.241c-0.56,0.559-0.96,1.28-1.28,2c-0.318,0.72-0.479,1.52-0.479,2.32
	c0,0.8,0.159,1.6,0.479,2.319c0.32,0.72,0.723,1.44,1.28,2.081l15.726,15.68h-1.885H324.16h-18.4c-0.88,0-1.68,0.159-2.397,0.479
	c-0.723,0.241-1.44,0.721-1.921,1.28c-0.562,0.561-1.039,1.2-1.359,1.92c-0.32,0.8-0.48,1.6-0.48,2.4v3.121
	c0,0.88,0.16,1.68,0.48,2.4s0.8,1.359,1.359,1.92c0.479,0.56,1.198,1.039,1.921,1.359c0.72,0.241,1.52,0.399,2.397,0.399h18.4
	h22.561h1.359l-15.76,15.76c-0.643,0.641-1.041,1.281-1.36,2.082c-0.32,0.719-0.479,1.519-0.479,2.316
	c0,0.801,0.158,1.521,0.479,2.32c0.319,0.8,0.72,1.439,1.36,2l2.157,2.161c0.563,0.639,1.2,1.038,2,1.358
	c0.802,0.319,1.521,0.479,2.32,0.479s1.521-0.159,2.32-0.479s1.438-0.722,2-1.358l28.96-28.962c0.641-0.561,1.04-1.279,1.359-2
	c0.185-0.461,0.311-0.896,0.388-1.333c0.101-0.193,0.187-0.391,0.253-0.588C374.4,66.641,374.561,65.841,374.561,65.041z"/>
<g>
	<g>
		<g>
			<path fill="#FE9929" d="M43.92,105.359l2.8-2.079l-2.8-2.08v-3.279l6.88,5.359l-6.88,5.36V105.359z"/>
		</g>
	</g>
	<g>
		<g>
			<path fill="#FE9929" d="M51.2,105.359l2.88-2.079l-2.88-2.08v-3.279l6.88,5.359l-6.88,5.36V105.359z"/>
		</g>
	</g>
	<g>
		<g>
			<path fill="#FE9929" d="M69.84,104.641h-2.48v-2.397h2.56c0.32,0,0.64-0.081,0.88-0.241c0.32-0.159,0.48-0.398,0.64-0.72
				c0.08-0.239,0.16-0.642,0.16-1.12V97.2c0-0.479-0.08-0.8-0.16-1.12c-0.16-0.32-0.32-0.561-0.64-0.721
				c-0.24-0.159-0.56-0.238-0.88-0.238h-2.56v-2.48h2.479c0.88,0,1.6,0.239,2.4,0.562c0.56,0.399,1.121,0.88,1.521,1.601
				c0.24,0.559,0.48,1.358,0.48,2.398v3.041c0,0.959-0.24,1.759-0.56,2.398c-0.32,0.641-0.8,1.118-1.44,1.438
				C71.6,104.48,70.8,104.641,69.84,104.641z"/>
			<path fill="#FE9929" d="M64.8,112.241V92.641h1.44v2.48h1.121v7.12H66.24v2.399h1.121v7.601H64.8L64.8,112.241z"/>
		</g>
	</g>
	<g>
		<g>
			<path fill="#FE9929" d="M81.52,96.641l-1.68,8.961H78.8V108h0.64l-0.8,4.241h-2.8l4.56-19.601h2.32l4.561,19.601h-2.8L83.68,108
				h0.88v-2.398H83.2L81.52,96.641z"/>
			<path fill="#FE9929" d="M83.68,108h-4.24l0.4-2.398h3.36L83.68,108z"/>
		</g>
	</g>
	<g>
		<g>
			<path fill="#FE9929" d="M94.56,101.28l2.08,1.04c0.48,0.32,0.88,0.88,1.2,1.359c0.32,0.562,0.4,1.359,0.4,2.398v1.761
				c0,1.039-0.08,1.841-0.479,2.562c-0.32,0.641-0.88,1.199-1.6,1.438c-0.72,0.4-1.6,0.642-2.56,0.642s-1.84-0.239-2.56-0.642
				c-0.72-0.239-1.28-0.8-1.6-1.438c-0.4-0.801-0.56-1.602-0.56-2.562v-0.961h2.56v0.802c0,0.801,0.16,1.278,0.56,1.68
				c0.4,0.398,0.96,0.641,1.6,0.641s1.2-0.24,1.6-0.641c0.4-0.399,0.56-0.879,0.56-1.68v-1.602c0-0.479-0.16-0.88-0.32-1.2
				c-0.24-0.319-0.56-0.639-0.88-0.88l-1.52-0.721l0,0h-0.08l-0.16-0.079l-2-1.12c-0.64-0.398-1.04-0.88-1.36-1.521
				c-0.4-0.72-0.56-1.52-0.56-2.398v-1.2c0-0.88,0.16-1.681,0.56-2.399c0.32-0.72,0.88-1.199,1.6-1.601
				c0.72-0.317,1.6-0.479,2.56-0.479s1.76,0.16,2.48,0.479c0.72,0.397,1.2,0.881,1.6,1.601c0.32,0.722,0.56,1.602,0.56,2.48v1.039
				h-2.56V97.2c0-0.72-0.24-1.2-0.56-1.681c-0.32-0.319-0.88-0.562-1.52-0.562c-0.72,0-1.28,0.24-1.6,0.562
				c-0.4,0.319-0.56,0.881-0.56,1.521v1.2c0,0.479,0.08,0.959,0.32,1.277c0.32,0.32,0.56,0.562,0.879,0.801l1.44,0.722
				c0.08,0,0.16,0,0.16,0.08c0.08,0.079,0.16,0.079,0.16,0.079L94.56,101.28z"/>
		</g>
	</g>
	<g>
		<g>
			<path fill="#FE9929" d="M103.36,92.641v19.603h-2.56V92.641H103.36z"/>
		</g>
	</g>
	<g>
		<g>
			<path fill="#FE9929" d="M107.36,109.76v2.481H106V92.641h2.56v17.119H107.36z"/>
			<path fill="#FE9929" d="M108.56,109.76h5.6v2.481h-5.6V109.76z"/>
		</g>
	</g>
	<g>
		<g>
			<path fill="#FE9929" d="M117.44,109.76v2.481h-1.28V92.641h2.479v17.119H117.44z"/>
			<path fill="#FE9929" d="M118.64,109.76h5.6v2.481h-5.6V109.76z"/>
		</g>
	</g>
	<g>
		<g>
			<path fill="#FE9929" d="M133.68,111.841c-0.72,0.4-1.6,0.64-2.64,0.64c-0.96,0-1.84-0.237-2.56-0.64
				c-0.8-0.399-1.36-0.961-1.68-1.681c-0.32-0.719-0.56-1.602-0.56-2.641v-10.16c0-1.039,0.24-1.918,0.56-2.641
				c0.32-0.721,0.88-1.277,1.68-1.68c0.8-0.398,1.68-0.563,2.56-0.563c1.04,0,1.92,0.16,2.64,0.563c0.64,0.318,1.28,0.959,1.68,1.68
				c0.4,0.801,0.56,1.682,0.56,2.641v10.16c0,0.961-0.16,1.84-0.56,2.641C134.96,110.88,134.4,111.441,133.68,111.841z
				 M129.84,109.68c0.4,0.161,0.8,0.32,1.2,0.32s0.8-0.159,1.28-0.32c0.32-0.158,0.64-0.397,0.8-0.8c0.16-0.399,0.24-0.8,0.24-1.278
				V97.28c0-0.479-0.08-0.88-0.24-1.2c-0.16-0.4-0.48-0.721-0.8-0.8c-0.48-0.239-0.88-0.32-1.28-0.32s-0.8,0.081-1.2,0.32
				c-0.32,0.079-0.56,0.399-0.8,0.8c-0.16,0.32-0.24,0.721-0.24,1.2V107.6c0,0.479,0.08,0.881,0.24,1.279
				C129.28,109.28,129.52,109.521,129.84,109.68z"/>
		</g>
	</g>
	<g>
		<g>
			<path fill="#FE9929" d="M143.44,105.359l2.8-2.079l-2.8-2.08v-3.279l6.88,5.359l-6.88,5.36V105.359z"/>
		</g>
	</g>
	<g>
		<g>
			<path fill="#FE9929" d="M150.8,105.359l2.88-2.079l-2.88-2.08v-3.279l6.88,5.359l-6.88,5.36V105.359z"/>
		</g>
	</g>
	<g>
		<g>
			<path fill="#FE9929" d="M169.44,104.641h-2.48v-2.397h2.48c0.4,0,0.72-0.081,0.96-0.241c0.24-0.159,0.48-0.398,0.56-0.72
				c0.08-0.239,0.16-0.642,0.16-1.12V97.2c0-0.479-0.08-0.8-0.16-1.12s-0.32-0.561-0.56-0.721c-0.24-0.159-0.56-0.238-0.96-0.238
				h-2.48v-2.48h2.48c0.88,0,1.68,0.239,2.4,0.562c0.56,0.399,1.12,0.88,1.44,1.601c0.4,0.643,0.56,1.44,0.56,2.399v3.041
				c0,0.88-0.16,1.6-0.56,2.397c-0.4,0.642-0.96,1.2-1.52,1.439C171.12,104.48,170.32,104.641,169.44,104.641z"/>
			<path fill="#FE9929" d="M164.4,112.241V92.641h1.44v2.48h1.12v7.12h-1.12v2.399h1.12v7.601H164.4L164.4,112.241z"/>
		</g>
	</g>
	<g>
		<g>
			<path fill="#FE9929" d="M181.12,96.641l-1.68,8.961h-1.12V108h0.72l-0.88,4.241h-2.72l4.48-19.601h2.32l4.56,19.601h-2.72
				l-0.8-4.241h0.88v-2.398h-1.36L181.12,96.641z"/>
			<path fill="#FE9929" d="M183.28,108h-4.24l0.4-2.398h3.36L183.28,108z"/>
		</g>
	</g>
	<g>
		<g>
			<path fill="#FE9929" d="M193.84,101.121l0.32,0.159c0.08,0,0.08,0,0.08,0l1.92,1.04c0.479,0.32,0.88,0.721,1.2,1.359
				c0.4,0.641,0.479,1.439,0.479,2.398v1.761c0,0.96-0.16,1.761-0.479,2.562c-0.4,0.641-0.96,1.199-1.6,1.438
				c-0.72,0.4-1.6,0.642-2.64,0.642c-0.96,0-1.76-0.239-2.56-0.642c-0.72-0.239-1.2-0.8-1.6-1.438
				c-0.32-0.801-0.56-1.602-0.56-2.562v-0.961h2.56v0.802c0,0.801,0.16,1.278,0.56,1.68c0.4,0.398,0.96,0.641,1.6,0.641
				c0.72,0,1.28-0.24,1.6-0.641c0.4-0.399,0.641-0.879,0.641-1.68v-1.602c0-0.479-0.16-0.88-0.4-1.2
				c-0.24-0.319-0.48-0.639-0.88-0.88l-1.44-0.721c0,0,0,0-0.08,0l0,0l-0.24-0.079l-2-1.12c-0.48-0.398-0.959-0.88-1.36-1.521
				c-0.32-0.561-0.48-1.358-0.48-2.398v-1.2c0-0.88,0.16-1.681,0.48-2.399c0.4-0.72,0.88-1.199,1.6-1.601
				c0.8-0.317,1.68-0.479,2.56-0.479c0.96,0,1.84,0.16,2.56,0.479c0.64,0.397,1.2,0.881,1.6,1.601c0.32,0.722,0.48,1.602,0.48,2.48
				v1.039h-2.56V97.2c0-0.72-0.16-1.359-0.561-1.681c-0.32-0.319-0.8-0.562-1.52-0.562c-0.64,0-1.2,0.24-1.6,0.562
				c-0.4,0.32-0.48,0.881-0.48,1.521v1.2c0,0.56,0.08,0.959,0.32,1.277c0.24,0.32,0.479,0.562,0.879,0.801l1.44,0.722
				C193.76,101.041,193.76,101.041,193.84,101.121z"/>
		</g>
	</g>
	<g>
		<g>
			<path fill="#FE9929" d="M202.96,92.641v19.603h-2.64V92.641H202.96z"/>
		</g>
	</g>
	<g>
		<g>
			<path fill="#FE9929" d="M206.96,109.76v2.481h-1.438V92.641h2.641v17.119H206.96z"/>
			<path fill="#FE9929" d="M208.16,109.76h5.52v2.481h-5.52V109.76z"/>
		</g>
	</g>
	<g>
		<g>
			<path fill="#FE9929" d="M217.04,109.76v2.481h-1.36V92.641h2.563v17.119H217.04z"/>
			<path fill="#FE9929" d="M218.24,109.76h5.6v2.481h-5.6V109.76z"/>
		</g>
	</g>
	<g>
		<g>
			<path fill="#FE9929" d="M233.279,111.841c-0.719,0.4-1.6,0.64-2.641,0.64c-0.959,0-1.918-0.237-2.561-0.64
				c-0.803-0.399-1.357-0.961-1.762-1.681c-0.318-0.801-0.479-1.68-0.479-2.641v-10.16c0-0.959,0.16-1.84,0.479-2.641
				c0.4-0.721,0.959-1.277,1.762-1.68c0.72-0.398,1.602-0.563,2.561-0.563c1.041,0,1.84,0.16,2.641,0.563
				c0.801,0.398,1.281,0.959,1.601,1.68c0.399,0.723,0.642,1.682,0.642,2.641v10.16c0,1.039-0.242,1.922-0.642,2.641
				C234.561,110.88,234.08,111.441,233.279,111.841z M229.439,109.68c0.398,0.161,0.801,0.32,1.199,0.32
				c0.479,0,0.881-0.159,1.279-0.32c0.318-0.158,0.561-0.397,0.803-0.8c0.157-0.399,0.237-0.8,0.237-1.278V97.28
				c0-0.4-0.08-0.8-0.237-1.2c-0.242-0.4-0.48-0.721-0.803-0.8c-0.398-0.239-0.8-0.32-1.279-0.32c-0.398,0-0.801,0.081-1.199,0.32
				c-0.399,0.161-0.642,0.399-0.801,0.8c-0.16,0.32-0.318,0.721-0.318,1.2V107.6c0,0.479,0.158,0.881,0.318,1.279
				C228.8,109.2,229.04,109.441,229.439,109.68z"/>
		</g>
	</g>
	<g>
		<g>
			<path fill="#FE9929" d="M243.04,105.359l2.88-2.079l-2.88-2.08v-3.279l6.88,5.359l-6.88,5.36V105.359z"/>
		</g>
	</g>
	<g>
		<g>
			<path fill="#FE9929" d="M250.4,105.359l2.8-2.079l-2.8-2.08v-3.279l6.879,5.359l-6.879,5.36V105.359z"/>
		</g>
	</g>
</g>
<line fill="none" stroke="#000000" stroke-miterlimit="10" x1="0" y1="136.5" x2="400" y2="0"/>
<text transform="matrix(0.9103 0 0 1 0 351.2744)" fill="#008000" font-family="'Bahnschrift'" font-size="92.8438">SIGUIENTE</text>
<text transform="matrix(0.9103 0 0 1 -439 633.2744)" fill="#008000" font-family="'Bahnschrift'" font-size="92.8438">PRINCIPAL</text>
<text transform="matrix(0.9103 0 0 1 -439 708.2744)" fill="#008000" font-family="'Bahnschrift'" font-size="92.8438">SIGUIENTE</text>
<g>
	<rect x="43.171" y="40.473" fill="#F7F9F7" stroke="#FAFCFA" stroke-miterlimit="10" width="4.405" height="44.072"/>
	<path fill="#F7F9F7" stroke="#FAFCFA" stroke-miterlimit="10" d="M45.438,61.569H55.48c0.949,0,1.784-0.313,2.504-0.94
		c0.719-0.625,1.277-1.515,1.673-2.666c0.396-1.152,0.594-2.477,0.594-3.971c0-1.516-0.198-2.85-0.594-4.002
		c-0.396-1.152-0.954-2.046-1.673-2.682c-0.72-0.637-1.555-0.956-2.504-0.956H45.438v-5.88h9.89c1.871,0,3.52,0.561,4.945,1.682
		c1.425,1.122,2.53,2.703,3.314,4.744c0.785,2.041,1.177,4.406,1.177,7.094s-0.393,5.046-1.177,7.076
		c-0.784,2.032-1.889,3.604-3.314,4.715c-1.425,1.111-3.074,1.666-4.945,1.666h-9.89V61.569z"/>
	<rect x="70.271" y="40.441" fill="#F7F9F7" stroke="#FAFCFA" stroke-miterlimit="10" width="4.405" height="44.104"/>
	<path fill="#F7F9F7" stroke="#FAFCFA" stroke-miterlimit="10" d="M72.192,60.023h10.71c0.834,0,1.576-0.283,2.224-0.849
		c0.647-0.565,1.147-1.368,1.5-2.41c0.353-1.04,0.529-2.237,0.529-3.592c0-1.354-0.176-2.551-0.529-3.592
		c-0.353-1.04-0.85-1.844-1.49-2.409c-0.64-0.566-1.385-0.85-2.234-0.85h-10.71v-5.881h10.538c1.813,0,3.407,0.526,4.783,1.576
		c1.375,1.052,2.44,2.542,3.196,4.472c0.755,1.931,1.134,4.157,1.134,6.684s-0.382,4.754-1.145,6.684
		c-0.762,1.931-1.832,3.421-3.207,4.472s-2.962,1.576-4.761,1.576H72.192V60.023z"/>
	<polygon fill="#F7F9F7" stroke="#FAFCFA" stroke-miterlimit="10" points="80.743,64.54 85.126,63.146 93.159,84.545 87.933,84.545 
			"/>
	<rect x="99.097" y="40.473" fill="#F7F9F7" stroke="#FAFCFA" stroke-miterlimit="10" width="4.404" height="44.072"/>
	<polygon fill="#F7F9F7" stroke="#FAFCFA" stroke-miterlimit="10" points="111.275,40.473 115.27,40.473 130.623,74.543 
		130.104,75.331 130.104,40.473 134.466,40.473 134.466,84.516 130.428,84.516 115.119,50.961 115.637,50.172 115.637,84.516 
		111.275,84.516 	"/>
	<path fill="#F7F9F7" stroke="#FAFCFA" stroke-miterlimit="10" d="M149.257,85c0,0-0.824-0.676-2.473-2.031
		c-1.648-1.354-2.926-3.273-3.832-5.758c-0.908-2.486-1.361-5.366-1.361-8.639V56.477c0-3.273,0.453-6.152,1.361-8.639
		c0.906-2.486,2.184-4.41,3.832-5.773c1.648-1.365,3.56-2.047,5.733-2.047c1.799,0,3.454,0.541,4.965,1.622
		c1.513,1.081,2.775,2.612,3.79,4.593c1.016,1.98,1.702,4.273,2.063,6.88h-4.512c-0.274-1.374-0.731-2.602-1.372-3.683
		c-0.64-1.081-1.392-1.915-2.256-2.501c-0.862-0.586-1.757-0.879-2.677-0.879c-1.282,0-2.405,0.435-3.368,1.304
		c-0.965,0.869-1.714,2.086-2.246,3.652s-0.799,3.391-0.799,5.471v12.096c0,2.061,0.267,3.879,0.799,5.455s1.281,2.794,2.246,3.652
		c0.963,0.859,2.086,1.288,3.368,1.288c0.934,0,1.831-0.272,2.688-0.817c0.856-0.547,1.606-1.354,2.246-2.426
		c0.641-1.07,1.098-2.344,1.372-3.818h4.512c-0.361,2.605-1.05,4.9-2.073,6.881c-1.022,1.98-2.289,3.511-3.801,4.592
		C155.95,84.46,154.302,85,152.518,85C150.344,85,149.257,85,149.257,85z"/>
	<rect x="169.165" y="40.473" fill="#F7F9F7" stroke="#FAFCFA" stroke-miterlimit="10" width="4.405" height="44.072"/>
	<rect x="181.344" y="40.473" fill="#F7F9F7" stroke="#FAFCFA" stroke-miterlimit="10" width="4.405" height="44.072"/>
	<path fill="#F7F9F7" stroke="#FAFCFA" stroke-miterlimit="10" d="M183.611,61.569h10.041c0.95,0,1.784-0.313,2.505-0.94
		c0.721-0.625,1.277-1.515,1.674-2.666c0.396-1.152,0.594-2.477,0.594-3.971c0-1.516-0.197-2.85-0.594-4.002
		s-0.953-2.046-1.674-2.682c-0.721-0.637-1.555-0.956-2.505-0.956h-10.041v-5.88h9.89c1.87,0,3.521,0.561,4.944,1.682
		c1.424,1.122,2.529,2.703,3.314,4.744s1.177,4.406,1.177,7.094s-0.392,5.046-1.177,7.076c-0.785,2.032-1.891,3.604-3.314,4.715
		s-3.074,1.666-4.944,1.666h-9.89V61.569z"/>
	<polygon fill="#F7F9F7" stroke="#FAFCFA" stroke-miterlimit="10" points="215.482,40.473 219.239,40.473 230.813,84.545 
		226.063,84.545 217.36,48.99 208.658,84.545 203.908,84.545 	"/>
	<rect x="209.241" y="68.996" fill="#F7F9F7" stroke="#FAFCFA" stroke-miterlimit="10" width="16.519" height="5.88"/>
	<rect x="235.563" y="40.473" fill="#F7F9F7" stroke="#FAFCFA" stroke-miterlimit="10" width="4.405" height="44.072"/>
	<rect x="237.766" y="78.665" fill="#F7F9F7" stroke="#FAFCFA" stroke-miterlimit="10" width="17.966" height="5.88"/>
</g>
<g>
	<path fill="#F4F9F4" d="M-419.69,551.412c0,0-0.685-0.201-2.053-0.605s-2.646-1.01-3.833-1.818
		c-1.187-0.809-2.296-1.818-3.33-3.031l2.773-4.729c1.208,1.455,2.541,2.545,3.997,3.273c1.456,0.727,3.036,1.092,4.739,1.092
		c2.299,0,4.083-0.592,5.35-1.773c1.267-1.184,1.901-2.854,1.901-5.018v-0.029c0-1.534-0.288-2.753-0.863-3.652
		c-0.575-0.899-1.317-1.566-2.228-2c-0.91-0.436-2.085-0.834-3.526-1.198c-0.043-0.02-0.091-0.03-0.143-0.03
		c-0.051,0-0.098-0.01-0.142-0.03l-0.327-0.091c-2.126-0.505-3.854-1.076-5.187-1.713s-2.472-1.799-3.417-3.485
		c-0.947-1.688-1.42-4.087-1.42-7.2v-0.029c0-2.729,0.44-5.058,1.321-6.986c0.881-1.93,2.166-3.4,3.854-4.411
		c1.689-1.011,3.721-1.516,6.093-1.516c1.136,0,2.253,0.173,3.353,0.515c1.099,0.345,2.184,0.854,3.254,1.531
		c1.07,0.678,2.122,1.531,3.156,2.562l-2.533,4.911c-1.209-1.233-2.413-2.158-3.615-2.774c-1.201-0.616-2.406-0.925-3.614-0.925
		c-2.169,0-3.854,0.602-5.055,1.804c-1.202,1.203-1.802,2.905-1.802,5.107v0.03c0,1.516,0.31,2.709,0.928,3.578
		s1.39,1.51,2.315,1.924c0.924,0.414,2.209,0.844,3.854,1.288c0.058,0.021,0.113,0.036,0.164,0.046
		c0.05,0.01,0.104,0.025,0.163,0.045c0.072,0.021,0.153,0.041,0.241,0.061c0.087,0.021,0.167,0.041,0.24,0.061
		c1.921,0.547,3.527,1.193,4.815,1.94c1.289,0.748,2.366,1.956,3.232,3.622c0.866,1.668,1.3,3.946,1.3,6.836v0.061
		c0,2.688-0.459,4.986-1.376,6.895c-0.917,1.91-2.246,3.365-3.985,4.365c-1.74,1-3.841,1.5-6.3,1.5
		C-418.925,551.412-419.69,551.412-419.69,551.412z"/>
	<path fill="#F4F9F4" d="M-395.384,550.959h-4.455v-44.073h4.455V550.959z"/>
	<path fill="#F4F9F4" d="M-365.814,527.225v7.699c0,3.273-0.458,6.158-1.375,8.652c-0.917,2.498-2.216,4.426-3.898,5.791
		c-1.681,1.363-3.628,2.045-5.841,2.045c-2.242,0-4.211-0.641-5.908-1.924c-1.696-1.283-3.01-3.098-3.941-5.441
		c-0.932-2.344-1.397-5.063-1.397-8.153V522.89c0-3.272,0.458-6.153,1.375-8.639c0.918-2.485,2.216-4.41,3.898-5.774
		c1.681-1.363,3.628-2.046,5.841-2.046c1.82,0,3.498,0.541,5.034,1.622c1.537,1.081,2.821,2.611,3.855,4.592
		c1.034,1.98,1.732,4.273,2.096,6.881h-4.826c-0.262-1.475-0.707-2.743-1.332-3.804c-0.626-1.062-1.361-1.87-2.206-2.425
		c-0.845-0.557-1.718-0.834-2.621-0.834c-1.311,0-2.461,0.435-3.45,1.303c-0.991,0.869-1.754,2.088-2.293,3.652
		c-0.539,1.566-0.808,3.391-0.808,5.472v13.004c0,1.9,0.276,3.562,0.83,4.985c0.553,1.426,1.335,2.531,2.348,3.32
		c1.012,0.787,2.18,1.182,3.505,1.182c1.31,0,2.46-0.408,3.45-1.229c0.99-0.818,1.754-2.004,2.293-3.561
		c0.538-1.557,0.808-3.403,0.808-5.547v-1.91h-6.442v-5.91H-365.814z"/>
	<path fill="#F4F9F4" d="M-354.797,549.488c-1.667-1.283-2.937-3.152-3.811-5.607c-0.873-2.455-1.31-5.412-1.31-8.866v-28.129h4.455
		v28.341c0,3.213,0.582,5.697,1.747,7.457c1.165,1.758,2.81,2.637,4.936,2.637c2.14,0,3.796-0.879,4.968-2.637
		c1.172-1.76,1.758-4.244,1.758-7.457v-28.341h4.456v28.129c0,3.454-0.438,6.411-1.311,8.866c-0.873,2.455-2.147,4.324-3.822,5.607
		s-3.69,1.924-6.049,1.924C-351.124,551.412-353.13,550.771-354.797,549.488z"/>
	<path fill="#F4F9F4" d="M-326.155,550.959h-4.455v-44.073h4.455V550.959z"/>
	<path fill="#F4F9F4" d="M-318.293,506.886h4.455v44.073h-4.455V506.886z M-316.132,506.886h18.236v5.88h-18.236V506.886z
		 M-316.132,526.133h15.833v5.881h-15.833V526.133z M-316.132,545.078h18.236v5.881h-18.236V545.078z"/>
	<path fill="#F4F9F4" d="M-291.564,506.886h4.041l15.529,34.069l-0.526,0.789v-34.858h4.412v44.042h-4.083l-15.484-33.555
		l0.523-0.787v34.342h-4.412V506.886z"/>
	<path fill="#F4F9F4" d="M-262.868,506.886h22.406v5.88h-22.406V506.886z M-253.893,510.492h4.454v40.467h-4.454V510.492z"/>
	<rect x="-236.092" y="506.886" fill="#F4F9F4" width="4.454" height="44.073"/>
	<rect x="-233.932" y="506.886" fill="#F4F9F4" width="18.235" height="5.88"/>
	<rect x="-233.932" y="526.133" fill="#F4F9F4" width="15.834" height="5.881"/>
	<rect x="-233.932" y="545.078" fill="#F4F9F4" width="18.235" height="5.881"/>
</g>
</svg>
