<?xml version="1.0" encoding="utf-8"?>
<!-- Generator: Adobe Illustrator 16.0.2, SVG Export Plug-In . SVG Version: 6.00 Build 0)  -->
<!DOCTYPE svg PUBLIC "-//W3C//DTD SVG 1.1//EN" "http://www.w3.org/Graphics/SVG/1.1/DTD/svg11.dtd">
<svg version="1.1"
	 id="svg8" xmlns:svg="http://www.w3.org/2000/svg" xmlns:inkscape="http://www.inkscape.org/namespaces/inkscape" xmlns:sodipodi="http://sodipodi.sourceforge.net/DTD/sodipodi-0.dtd" xmlns:cc="http://creativecommons.org/ns#" xmlns:rdf="http://www.w3.org/1999/02/22-rdf-syntax-ns#" xmlns:dc="http://purl.org/dc/elements/1.1/" inkscape:version="0.92.3 (2405546, 2018-03-11)" sodipodi:docname="152.svg"
	 xmlns="http://www.w3.org/2000/svg" xmlns:xlink="http://www.w3.org/1999/xlink" x="0px" y="0px" width="152px" height="152px"
	 viewBox="0 0 152 152" enable-background="new 0 0 152 152" xml:space="preserve">
<linearGradient id="path21_2_" gradientUnits="userSpaceOnUse" x1="-3137.3286" y1="-3208.3652" x2="-2755.0229" y2="-3208.3652" gradientTransform="matrix(-0.397 -5.883731e-004 5.873631e-004 -0.397 -1091.7471 -1199.6696)">
	<stop  offset="0" style="stop-color:#5477FF"/>
	<stop  offset="1" style="stop-color:#000101"/>
</linearGradient>
<path id="path21_1_" inkscape:label="bg13" inkscape:connector-curvature="0" fill="url(#path21_2_)" d="M151.775,152L0,151.775
	L0.225-0.43L152-0.205L151.775,152z"/>
<sodipodi:namedview  id="base" units="px" pagecolor="#ffffff" showgrid="false" bordercolor="#666666" inkscape:cy="58.448323" inkscape:cx="52.031059" inkscape:zoom="2.9210526" borderopacity="1.0" inkscape:window-maximized="1" inkscape:window-width="1920" inkscape:current-layer="layer1" inkscape:document-units="mm" inkscape:pageshadow="2" inkscape:pageopacity="0.0" inkscape:window-height="1057" inkscape:window-y="-8" inkscape:window-x="-8">
	</sodipodi:namedview>
<g id="layer1" transform="translate(0,-256.78332)" inkscape:label="Capa 1" inkscape:groupmode="layer">
	
		<linearGradient id="path13047_1_" gradientUnits="userSpaceOnUse" x1="-1716.7817" y1="-963.1854" x2="-1592.1743" y2="-963.1854" gradientTransform="matrix(0.9999 -0.0124 -0.0124 -0.9999 1718.3691 -650.8214)">
		<stop  offset="0" style="stop-color:#5477FF"/>
		<stop  offset="1" style="stop-color:#000F55"/>
	</linearGradient>
	<circle id="path13047" fill="url(#path13047_1_)" stroke="#F9F7F7" stroke-width="3.0566" cx="76" cy="332.783" r="62.302"/>
</g>
<g>
	<g>
		<g>
			<g>
				<defs>
					<circle id="SVGID_1_" cx="76.246" cy="76" r="62.265"/>
				</defs>
				<clipPath id="SVGID_2_">
					<use xlink:href="#SVGID_1_"  overflow="visible"/>
				</clipPath>
				<g transform="matrix(1 0 0 1 -3.951860e-007 -3.065836e-007)" clip-path="url(#SVGID_2_)">
				</g>
			</g>
		</g>
	</g>
</g>
<g>
	<g>
		<g>
			<g>
				<g>
					
						<linearGradient id="SVGID_3_" gradientUnits="userSpaceOnUse" x1="88.4346" y1="774.874" x2="146.4424" y2="774.874" gradientTransform="matrix(1 0 0 1 -0.04 -690.8105)">
						<stop  offset="0" style="stop-color:#FFFFFF"/>
						<stop  offset="0.7208" style="stop-color:#474747"/>
						<stop  offset="1" style="stop-color:#000000"/>
					</linearGradient>
					<path fill="url(#SVGID_3_)" d="M117.898,71.627c0-10.203-8.23-21.082-20.576-21.082c-11.1,0-20.58,9.752-20.553,20.82v33.088
						c0,0.447,0.387,0.843,0.823,0.843h7.195c0.438,0,0.823-0.396,0.823-0.843V83.59c6,3.686,7.59,7.701,7.59,12.28
						c0,7.435-5.646,13.28-13.172,13.28c-4.604,0-10.256-2.553-12.954-9.166c-0.177-0.434-0.686-0.639-1.104-0.438
						c-1.826,0.854-3.897,1.707-5.658,2.668c-0.309,0.169-0.505,0.687-0.388,1.026c3.435,9.947,13.213,14.342,20.104,14.342
						c12.225,0,22.664-10.141,21.135-25.18C110.883,89.643,117.898,80.755,117.898,71.627z M98.293,84.203
						c-2.76-4.715-8.793-8.899-12.902-9.601c-0.125-1.373-0.416-3.147-0.416-4.028c0-6.163,6.355-12.015,12.553-12.017
						c7.217,0,12.555,6.582,12.555,12.859C110.081,76.725,106.264,83.298,98.293,84.203z"/>
				</g>
			</g>
			<g>
				<g>
					<path fill="none" stroke="#FBFBFB" stroke-width="1.0556" stroke-miterlimit="10" d="M117.898,71.627
						c0-10.203-8.23-21.082-20.576-21.082c-11.1,0-20.58,9.752-20.553,20.82v33.088c0,0.447,0.387,0.843,0.823,0.843h7.195
						c0.438,0,0.823-0.396,0.823-0.843V83.59c6,3.686,7.59,7.701,7.59,12.28c0,7.435-5.646,13.28-13.172,13.28
						c-4.604,0-10.256-2.553-12.954-9.166c-0.177-0.434-0.686-0.639-1.104-0.438c-1.826,0.854-3.897,1.707-5.658,2.668
						c-0.309,0.169-0.505,0.687-0.388,1.026c3.435,9.947,13.213,14.342,20.104,14.342c12.225,0,22.664-10.141,21.135-25.18
						C110.883,89.643,117.898,80.755,117.898,71.627z M98.293,84.203c-2.76-4.715-8.793-8.899-12.902-9.601
						c-0.125-1.373-0.416-3.147-0.416-4.028c0-6.163,6.355-12.015,12.553-12.017c7.217,0,12.555,6.582,12.555,12.859
						C110.081,76.725,106.264,83.298,98.293,84.203z"/>
				</g>
			</g>
		</g>
		
			<linearGradient id="SVGID_4_" gradientUnits="userSpaceOnUse" x1="65.8071" y1="758.5176" x2="143.3213" y2="758.5176" gradientTransform="matrix(1 0 0 1 -0.04 -690.8105)">
			<stop  offset="0" style="stop-color:#FFFFFF"/>
			<stop  offset="0.7208" style="stop-color:#474747"/>
			<stop  offset="1" style="stop-color:#000000"/>
		</linearGradient>
		<path fill="url(#SVGID_4_)" stroke="#F7F2F2" stroke-width="1.0556" stroke-miterlimit="10" d="M90.484,47.066
			c0.271,0.598-0.023,1.098-0.668,1.126c-2.131,0.094-4.502,0.092-6.551-0.084c-0.105-0.011-0.514-0.252-0.574-0.343
			c-2.373-3.563-6.781-6.217-10.096-6.217c-7.176,0-11.799,6.59-11.799,12.287c0,6.709,5.711,12.286,11.414,12.286
			c0.532,0,3.712-0.852,3.712-0.852l0.719-0.353c-1.452,3.603-0.955,7.879-0.955,7.879c-0.566,0.076-0.994,0.162-1.622,0.247
			c-0.352,0.048-0.714,0.089-1.085,0.114c0.712,2.842,1.358,6.234,1.358,7.232c0,11.81-9.656,20.606-20.117,20.606
			c-11.524,0-20.119-9.938-20.119-20.409c0-7.033,3.796-16.213,13.634-19.54c0.569-0.193,1.017,0.139,1.017,0.753v6.592
			c0,0.121-0.211,0.558-0.307,0.631c-5.155,4.02-6.608,7.363-6.608,11.369c0,8.202,6.294,12.684,12.38,12.684
			c7.074,0,12.38-5.498,12.38-12.483c0-3.118-0.775-5.246-1.92-6.952c-0.577-0.864-1.259-1.636-2.006-2.383
			c-0.764-0.761-1.577-1.48-2.392-2.225c-3.369-3.083-6.835-6.7-6.835-15.194c0-11.236,7.937-19.419,18.958-19.419
			C79.24,34.416,85.807,36.751,90.484,47.066z"/>
	</g>
	<line fill="none" x1="117.898" y1="0" x2="117.898" y2="152"/>
	<line fill="none" x1="34.101" y1="0" x2="34.101" y2="152"/>
	<line fill="none" x1="0" y1="34.416" x2="152" y2="34.416"/>
	<line fill="none" x1="0" y1="117.583" x2="152" y2="117.583"/>
</g>
</svg>
