<?xml version="1.0" encoding="utf-8"?>
<!-- Generator: Adobe Illustrator 16.0.2, SVG Export Plug-In . SVG Version: 6.00 Build 0)  -->
<!DOCTYPE svg PUBLIC "-//W3C//DTD SVG 1.1//EN" "http://www.w3.org/Graphics/SVG/1.1/DTD/svg11.dtd">
<svg version="1.1"
	 id="svg8" xmlns:svg="http://www.w3.org/2000/svg" xmlns:inkscape="http://www.inkscape.org/namespaces/inkscape" xmlns:sodipodi="http://sodipodi.sourceforge.net/DTD/sodipodi-0.dtd" xmlns:cc="http://creativecommons.org/ns#" xmlns:rdf="http://www.w3.org/1999/02/22-rdf-syntax-ns#" xmlns:dc="http://purl.org/dc/elements/1.1/" inkscape:version="0.92.3 (2405546, 2018-03-11)" sodipodi:docname="32.svg"
	 xmlns="http://www.w3.org/2000/svg" xmlns:xlink="http://www.w3.org/1999/xlink" x="0px" y="0px" width="32px" height="32px"
	 viewBox="0 0 32 32" enable-background="new 0 0 32 32" xml:space="preserve">
<path id="path21_1_" inkscape:label="bg13" inkscape:connector-curvature="0" fill="none" d="M31.977,32.023l-32-0.047l0.047-32
	l32,0.047L31.977,32.023z"/>
<sodipodi:namedview  id="base" units="px" pagecolor="#ffffff" showgrid="false" bordercolor="#666666" inkscape:cy="16" inkscape:cx="16" inkscape:zoom="7.375" borderopacity="1.0" inkscape:window-maximized="1" inkscape:window-width="1920" inkscape:current-layer="layer1" inkscape:document-units="mm" inkscape:pageshadow="2" inkscape:pageopacity="0.0" inkscape:window-height="1057" inkscape:window-y="-8" inkscape:window-x="-8">
	</sodipodi:namedview>
<g id="layer1" transform="translate(0,-288.53332)" inkscape:label="Capa 1" inkscape:groupmode="layer">
	
		<linearGradient id="path13047_1_" gradientUnits="userSpaceOnUse" x1="-2060.9077" y1="-1245.6854" x2="-2034.3242" y2="-1245.6854" gradientTransform="matrix(0.9997 0.0226 0.0226 -0.9997 2091.2319 -893.7911)">
		<stop  offset="0" style="stop-color:#5477FF"/>
		<stop  offset="1" style="stop-color:#000F55"/>
	</linearGradient>
	<circle id="path13047" fill="url(#path13047_1_)" stroke="#F9F9F9" stroke-width="0.6521" cx="16" cy="305.242" r="13.291"/>
</g>
<g>
	<g>
		<g>
			<g>
				<g>
					<defs>
						<circle id="SVGID_1_" cx="16" cy="16" r="13.698"/>
					</defs>
					<clipPath id="SVGID_2_">
						<use xlink:href="#SVGID_1_"  overflow="visible"/>
					</clipPath>
					<g transform="matrix(1 0 0 1 2.384186e-007 -3.576279e-007)" clip-path="url(#SVGID_2_)">
					</g>
				</g>
			</g>
		</g>
	</g>
</g>
<g>
	<g>
		<g>
			<g>
				<defs>
					<rect id="SVGID_3_" y="0" width="32" height="32"/>
				</defs>
				<clipPath id="SVGID_4_">
					<use xlink:href="#SVGID_3_"  overflow="visible"/>
				</clipPath>
				<g clip-path="url(#SVGID_4_)">
					<g>
						<g>
							<defs>
								<path id="SVGID_5_" d="M18.498,14.744c0,0.268,0.082,0.804,0.118,1.219c1.159,0.213,2.858,1.477,3.635,2.903
									c2.246-0.272,3.323-2.262,3.323-3.866c0-1.898-1.503-3.888-3.537-3.888C20.289,11.11,18.498,12.88,18.498,14.744z
									 M27.773,15.062c0,2.759-1.977,5.447-4.713,6.282c0.43,4.548-2.511,7.614-5.954,7.614c-1.941,0-4.697-1.327-5.666-4.337
									c-0.032-0.103,0.022-0.259,0.109-0.311c0.496-0.291,1.079-0.546,1.593-0.806c0.118-0.058,0.26,0.003,0.311,0.136
									c0.76,2,2.353,2.771,3.652,2.771c2.12,0,3.71-1.767,3.71-4.018c0-1.385-0.45-2.599-2.142-3.714v6.31
									c0,0.136-0.109,0.253-0.232,0.253h-2.028c-0.123,0-0.232-0.121-0.232-0.253V14.986c-0.008-3.347,2.662-6.295,5.789-6.295
									C25.454,8.688,27.773,11.976,27.773,15.062z"/>
							</defs>
							<clipPath id="SVGID_6_">
								<use xlink:href="#SVGID_5_"  overflow="visible"/>
							</clipPath>
							<g clip-path="url(#SVGID_6_)">
								<g>
									<g>
										<defs>
											<rect id="SVGID_7_" x="11.078" y="8.177" width="16.929" height="20.909"/>
										</defs>
										<clipPath id="SVGID_8_">
											<use xlink:href="#SVGID_7_"  overflow="visible"/>
										</clipPath>
										<g transform="matrix(1 0 0 1 6.450791e-007 1.984111e-007)" clip-path="url(#SVGID_8_)">
										</g>
									</g>
								</g>
							</g>
							<g clip-path="url(#SVGID_6_)">
								<g>
									<defs>
										<rect id="SVGID_9_" y="0" width="32" height="32"/>
									</defs>
									<clipPath id="SVGID_10_">
										<use xlink:href="#SVGID_9_"  overflow="visible"/>
									</clipPath>
									<g clip-path="url(#SVGID_10_)">
										<g>
											<g>
												<defs>
													<path id="SVGID_11_" d="M20.556,7.236c0.083,0.191-0.007,0.353-0.199,0.362c-0.639,0.03-1.35,0.03-1.963-0.027
														c-0.03-0.002-0.152-0.081-0.172-0.11c-0.712-1.146-2.034-1.999-3.026-1.999c-2.151,0-3.537,2.121-3.537,3.952
														c0,2.159,1.711,3.952,3.42,3.952c0.243,0,1.168-0.233,1.902-0.605c0.181-0.092,0.33,0.012,0.33,0.232v2.389
														c0,0.237-0.162,0.339-0.349,0.221c-0.22-0.141-0.464-0.145-0.791-0.099c-0.17,0.025-0.349,0.061-0.535,0.086
														c-0.105,0.016-0.214,0.029-0.326,0.038c0.213,0.915,0.409,2.004,0.409,2.326c0,3.799-2.895,6.63-6.029,6.63
														c-3.454,0-6.029-3.197-6.029-6.568c0-2.263,1.138-5.214,4.085-6.285c0.171-0.063,0.305,0.044,0.305,0.242v2.12
														c0,0.039-0.063,0.18-0.092,0.204c-1.545,1.292-1.98,2.368-1.98,3.657c0,2.636,1.886,4.077,3.71,4.077
														c2.12,0,3.709-1.767,3.709-4.016c0-1.002-0.233-1.687-0.575-2.237c-0.173-0.278-0.377-0.526-0.601-0.766
														c-0.229-0.245-0.473-0.477-0.716-0.716c-1.01-0.992-2.048-2.155-2.048-4.887c0-3.614,2.379-6.247,5.68-6.247
														C17.188,3.166,19.154,3.919,20.556,7.236z"/>
												</defs>
												<clipPath id="SVGID_12_">
													<use xlink:href="#SVGID_11_"  overflow="visible"/>
												</clipPath>
												<g clip-path="url(#SVGID_12_)">
													<g>
														<g>
															<defs>
																<rect id="SVGID_13_" x="3.313" y="2.657" width="17.506" height="22.182"/>
															</defs>
															<clipPath id="SVGID_14_">
																<use xlink:href="#SVGID_13_"  overflow="visible"/>
															</clipPath>
															<g transform="matrix(1 0 0 1 -3.501837e-007 -4.981483e-007)" clip-path="url(#SVGID_14_)">
															</g>
														</g>
													</g>
												</g>
											</g>
										</g>
									</g>
								</g>
							</g>
						</g>
					</g>
					<g>
						<g>
							<g>
								<g>
									<g>
										
											<linearGradient id="SVGID_15_" gradientUnits="userSpaceOnUse" x1="19.2744" y1="829.8652" x2="34.4058" y2="829.8652" gradientTransform="matrix(1 0 0 1 -0.04 -810.8105)">
											<stop  offset="0" style="stop-color:#FFFFFF"/>
											<stop  offset="0.7208" style="stop-color:#474747"/>
											<stop  offset="1" style="stop-color:#000000"/>
										</linearGradient>
										<path fill="url(#SVGID_15_)" d="M26.93,15.571c0-2.857-2.146-5.903-5.368-5.903c-2.895,0-5.369,2.73-5.361,5.83v9.265
											c0,0.127,0.102,0.237,0.214,0.237h1.877c0.113,0,0.216-0.11,0.216-0.237V18.92c1.564,1.031,1.979,2.156,1.979,3.439
											c0,2.081-1.472,3.721-3.435,3.721c-1.202,0-2.676-0.718-3.38-2.568c-0.047-0.122-0.18-0.18-0.289-0.123
											c-0.476,0.238-1.017,0.478-1.476,0.748c-0.081,0.047-0.132,0.192-0.102,0.285c0.896,2.789,3.447,4.019,5.244,4.019
											c3.188,0,5.912-2.839,5.514-7.051C25.1,20.613,26.93,18.126,26.93,15.571z M21.813,19.094
											c-0.719-1.322-2.293-2.493-3.364-2.69c-0.032-0.384-0.108-0.882-0.108-1.128c0-1.725,1.657-3.364,3.275-3.365
											c1.882,0,3.275,1.843,3.275,3.601C24.892,16.996,23.895,18.838,21.813,19.094z"/>
									</g>
								</g>
								<g>
									<g>
										<path fill="none" stroke="#FBFBFB" stroke-width="0.2853" stroke-miterlimit="10" d="M26.93,15.571
											c0-2.857-2.146-5.903-5.368-5.903c-2.895,0-5.369,2.73-5.361,5.83v9.265c0,0.127,0.102,0.237,0.214,0.237h1.877
											c0.113,0,0.216-0.11,0.216-0.237V18.92c1.564,1.031,1.979,2.156,1.979,3.439c0,2.081-1.472,3.721-3.435,3.721
											c-1.202,0-2.676-0.718-3.38-2.568c-0.047-0.122-0.18-0.18-0.289-0.123c-0.476,0.238-1.017,0.478-1.476,0.748
											c-0.081,0.047-0.132,0.192-0.102,0.285c0.896,2.789,3.447,4.019,5.244,4.019c3.188,0,5.912-2.839,5.514-7.051
											C25.1,20.613,26.93,18.126,26.93,15.571z M21.813,19.094c-0.719-1.322-2.293-2.493-3.364-2.69
											c-0.032-0.384-0.108-0.882-0.108-1.128c0-1.725,1.657-3.364,3.275-3.365c1.882,0,3.275,1.843,3.275,3.601
											C24.892,16.996,23.895,18.838,21.813,19.094z"/>
									</g>
								</g>
							</g>
							
								<linearGradient id="SVGID_16_" gradientUnits="userSpaceOnUse" x1="13.3706" y1="825.2832" x2="33.5931" y2="825.2832" gradientTransform="matrix(1 0 0 1 -0.04 -810.8105)">
								<stop  offset="0" style="stop-color:#FFFFFF"/>
								<stop  offset="0.7208" style="stop-color:#474747"/>
								<stop  offset="1" style="stop-color:#000000"/>
							</linearGradient>
							<path fill="url(#SVGID_16_)" stroke="#F7F2F2" stroke-width="0.2853" stroke-miterlimit="10" d="M19.779,8.693
								C19.848,8.861,19.771,9,19.604,9.008c-0.557,0.026-1.175,0.025-1.709-0.024c-0.028-0.002-0.134-0.07-0.149-0.095
								c-0.618-0.998-1.77-1.741-2.634-1.741c-1.873,0-3.079,1.844-3.079,3.439c0,1.88,1.491,3.44,2.978,3.44
								c0.139,0,0.968-0.239,0.968-0.239l0.187-0.099c-0.378,1.008-0.249,2.207-0.249,2.207c-0.147,0.021-0.259,0.045-0.423,0.069
								c-0.093,0.013-0.186,0.025-0.284,0.032c0.185,0.796,0.354,1.746,0.354,2.026c0,3.307-2.519,5.77-5.248,5.77
								c-3.006,0-5.249-2.782-5.249-5.715c0-1.969,0.99-4.54,3.557-5.471c0.149-0.055,0.266,0.038,0.266,0.211v1.847
								c0,0.034-0.054,0.157-0.079,0.177c-1.345,1.125-1.724,2.061-1.724,3.182c0,2.3,1.641,3.552,3.229,3.552
								c1.845,0,3.229-1.538,3.229-3.494c0-0.874-0.203-1.47-0.5-1.947c-0.151-0.242-0.328-0.458-0.523-0.667
								c-0.199-0.213-0.413-0.415-0.624-0.622c-0.878-0.864-1.783-1.876-1.783-4.255c0-3.147,2.07-5.438,4.945-5.438
								C16.847,5.149,18.559,5.804,19.779,8.693z"/>
						</g>
						<line fill="none" x1="26.93" y1="-4.487" x2="26.93" y2="38.077"/>
						<line fill="none" x1="5.07" y1="-4.487" x2="5.07" y2="38.077"/>
						<line fill="none" x1="-3.826" y1="5.151" x2="35.826" y2="5.151"/>
						<line fill="none" x1="-3.826" y1="28.438" x2="35.826" y2="28.438"/>
					</g>
				</g>
			</g>
		</g>
	</g>
</g>
</svg>
