<?xml version="1.0" encoding="utf-8"?>
<!-- Generator: Adobe Illustrator 16.0.2, SVG Export Plug-In . SVG Version: 6.00 Build 0)  -->
<!DOCTYPE svg PUBLIC "-//W3C//DTD SVG 1.1//EN" "http://www.w3.org/Graphics/SVG/1.1/DTD/svg11.dtd">
<svg version="1.1"
	 id="svg8" xmlns:svg="http://www.w3.org/2000/svg" xmlns:inkscape="http://www.inkscape.org/namespaces/inkscape" xmlns:sodipodi="http://sodipodi.sourceforge.net/DTD/sodipodi-0.dtd" xmlns:cc="http://creativecommons.org/ns#" xmlns:rdf="http://www.w3.org/1999/02/22-rdf-syntax-ns#" xmlns:dc="http://purl.org/dc/elements/1.1/" inkscape:version="0.92.3 (2405546, 2018-03-11)" sodipodi:docname="96.svg"
	 xmlns="http://www.w3.org/2000/svg" xmlns:xlink="http://www.w3.org/1999/xlink" x="0px" y="0px" width="96px" height="96px"
	 viewBox="0 0 96 96" enable-background="new 0 0 96 96" xml:space="preserve">
<sodipodi:namedview  id="base" units="px" pagecolor="#ffffff" showgrid="false" bordercolor="#666666" inkscape:cy="16" inkscape:cx="16" inkscape:zoom="7.375" borderopacity="1.0" inkscape:window-maximized="1" inkscape:window-width="1920" inkscape:current-layer="layer1" inkscape:document-units="mm" inkscape:pageshadow="2" inkscape:pageopacity="0.0" inkscape:window-height="1057" inkscape:window-y="-8" inkscape:window-x="-8">
	</sodipodi:namedview>
<g>
	
		<linearGradient id="path21_2_" gradientUnits="userSpaceOnUse" x1="-1578.3599" y1="1562.5928" x2="-1482.502" y2="1562.5928" gradientTransform="matrix(-1 -0.0015 -0.0015 1 -1480.0864 -1516.8881)">
		<stop  offset="0" style="stop-color:#5477FF"/>
		<stop  offset="1" style="stop-color:#000101"/>
	</linearGradient>
	<path id="path21_1_" inkscape:label="bg13" inkscape:connector-curvature="0" fill="url(#path21_2_)" d="M95.857,96L0,95.859
		L0.143,0L96,0.142L95.857,96z"/>
	<g id="layer1" transform="translate(0,-277.94999)" inkscape:label="Capa 1" inkscape:groupmode="layer">
		
			<linearGradient id="path13047_1_" gradientUnits="userSpaceOnUse" x1="-1947.0913" y1="1495.3328" x2="-1868.4019" y2="1495.3328" gradientTransform="matrix(1 -0.0016 0.0016 1 1952.9023 -1172.5745)">
			<stop  offset="0" style="stop-color:#5477FF"/>
			<stop  offset="1" style="stop-color:#000F55"/>
		</linearGradient>
		<path id="path13047" fill="url(#path13047_1_)" stroke="#FCFAFA" stroke-width="1.9389" d="M86.893,325.749
			c0.033,21.924-17.554,39.723-39.283,39.758c-21.73,0.033-39.373-17.711-39.407-39.636c-0.035-21.924,17.553-39.724,39.282-39.757
			C69.215,286.08,86.857,303.825,86.893,325.749z"/>
	</g>
</g>
<g>
	<g>
		<g>
			<g>
				<g>
					
						<linearGradient id="SVGID_1_" gradientUnits="userSpaceOnUse" x1="55.8682" y1="823.9043" x2="92.5029" y2="823.9043" gradientTransform="matrix(1 0 0 1 -0.04 -770.8105)">
						<stop  offset="0" style="stop-color:#FFFFFF"/>
						<stop  offset="0.7208" style="stop-color:#474747"/>
						<stop  offset="1" style="stop-color:#000000"/>
					</linearGradient>
					<path fill="url(#SVGID_1_)" d="M74.462,45.238c0-6.444-5.198-13.315-12.996-13.315c-7.009,0-12.997,6.16-12.98,13.149V65.97
						c0,0.282,0.245,0.531,0.521,0.531h4.546c0.274,0,0.52-0.249,0.52-0.531V52.794c3.787,2.327,4.793,4.863,4.793,7.756
						c0,4.695-3.565,8.388-8.318,8.388c-2.907,0-6.479-1.611-8.183-5.789c-0.111-0.272-0.433-0.402-0.697-0.276
						c-1.152,0.54-2.46,1.078-3.572,1.687c-0.196,0.106-0.321,0.434-0.246,0.646c2.169,6.284,8.345,9.059,12.697,9.059
						c7.722,0,14.313-6.402,13.349-15.902C70.031,56.616,74.462,51.003,74.462,45.238z M62.08,53.182
						c-1.743-2.979-5.553-5.62-8.148-6.064c-0.08-0.866-0.265-1.987-0.265-2.544c0-3.892,4.015-7.589,7.931-7.589
						c4.557,0,7.928,4.157,7.928,8.121C69.525,48.458,67.113,52.609,62.08,53.182z"/>
				</g>
			</g>
			<g>
				<g>
					<path fill="none" stroke="#FBFBFB" stroke-width="0.6667" stroke-miterlimit="10" d="M74.462,45.238
						c0-6.444-5.198-13.315-12.996-13.315c-7.009,0-12.997,6.16-12.98,13.149V65.97c0,0.282,0.245,0.531,0.521,0.531h4.546
						c0.274,0,0.52-0.249,0.52-0.531V52.794c3.787,2.327,4.793,4.863,4.793,7.756c0,4.695-3.565,8.388-8.318,8.388
						c-2.907,0-6.479-1.611-8.183-5.789c-0.111-0.272-0.433-0.402-0.697-0.276c-1.152,0.54-2.46,1.078-3.572,1.687
						c-0.196,0.106-0.321,0.434-0.246,0.646c2.169,6.284,8.345,9.059,12.697,9.059c7.722,0,14.313-6.402,13.349-15.902
						C70.031,56.616,74.462,51.003,74.462,45.238z M62.08,53.182c-1.743-2.979-5.553-5.62-8.148-6.064
						c-0.08-0.866-0.265-1.987-0.265-2.544c0-3.892,4.015-7.589,7.931-7.589c4.557,0,7.928,4.157,7.928,8.121
						C69.525,48.458,67.113,52.609,62.08,53.182z"/>
				</g>
			</g>
		</g>
		
			<linearGradient id="SVGID_2_" gradientUnits="userSpaceOnUse" x1="41.5767" y1="813.5732" x2="90.5309" y2="813.5732" gradientTransform="matrix(1 0 0 1 -0.04 -770.8105)">
			<stop  offset="0" style="stop-color:#FFFFFF"/>
			<stop  offset="0.7208" style="stop-color:#474747"/>
			<stop  offset="1" style="stop-color:#000000"/>
		</linearGradient>
		<path fill="url(#SVGID_2_)" stroke="#F7F2F2" stroke-width="0.6667" stroke-miterlimit="10" d="M57.146,29.726
			c0.172,0.378-0.016,0.694-0.422,0.712c-1.344,0.059-2.844,0.058-4.137-0.053c-0.066-0.007-0.324-0.16-0.361-0.217
			c-1.498-2.25-4.285-3.926-6.377-3.926c-4.532,0-7.451,4.162-7.451,7.76c0,4.237,3.606,7.759,7.208,7.759
			c0.335,0,2.345-0.538,2.345-0.538L48.403,41c-0.916,2.275-0.602,4.976-0.602,4.976c-0.358,0.048-0.629,0.102-1.026,0.156
			c-0.221,0.031-0.45,0.056-0.684,0.072c0.449,1.796,0.857,3.938,0.857,4.569c0,7.457-6.099,13.013-12.706,13.013
			c-7.278,0-12.705-6.276-12.705-12.89c0-4.442,2.396-10.239,8.611-12.341c0.358-0.122,0.641,0.088,0.641,0.475v4.164
			c0,0.077-0.132,0.353-0.193,0.399c-3.255,2.539-4.173,4.651-4.173,7.181c0,5.18,3.975,8.011,7.819,8.011
			c4.467,0,7.819-3.474,7.819-7.884c0-1.971-0.488-3.313-1.212-4.392c-0.365-0.546-0.795-1.033-1.267-1.505
			c-0.483-0.481-0.997-0.936-1.511-1.404c-2.128-1.948-4.317-4.232-4.317-9.597c0-7.096,5.013-12.264,11.973-12.264
			C50.047,21.736,54.193,23.211,57.146,29.726z"/>
	</g>
	<line fill="none" x1="74.462" y1="0" x2="74.462" y2="96"/>
	<line fill="none" x1="21.538" y1="0" x2="21.538" y2="96"/>
	<line fill="none" x1="0" y1="21.737" x2="96" y2="21.737"/>
	<line fill="none" x1="0" y1="74.264" x2="96" y2="74.264"/>
</g>
</svg>
