<?xml version="1.0" encoding="utf-8"?>
<!-- Generator: Adobe Illustrator 16.0.2, SVG Export Plug-In . SVG Version: 6.00 Build 0)  -->
<!DOCTYPE svg PUBLIC "-//W3C//DTD SVG 1.1//EN" "http://www.w3.org/Graphics/SVG/1.1/DTD/svg11.dtd">
<svg version="1.1"
	 id="svg8" xmlns:svg="http://www.w3.org/2000/svg" xmlns:inkscape="http://www.inkscape.org/namespaces/inkscape" xmlns:sodipodi="http://sodipodi.sourceforge.net/DTD/sodipodi-0.dtd" xmlns:cc="http://creativecommons.org/ns#" xmlns:rdf="http://www.w3.org/1999/02/22-rdf-syntax-ns#" xmlns:dc="http://purl.org/dc/elements/1.1/" inkscape:version="0.92.3 (2405546, 2018-03-11)" sodipodi:docname="144.svg"
	 xmlns="http://www.w3.org/2000/svg" xmlns:xlink="http://www.w3.org/1999/xlink" x="0px" y="0px" width="144px" height="144px"
	 viewBox="0 0 144 144" enable-background="new 0 0 144 144" xml:space="preserve">
<linearGradient id="path21_2_" gradientUnits="userSpaceOnUse" x1="-3330.3096" y1="-3469.7764" x2="-2948.0776" y2="-3469.7764" gradientTransform="matrix(-0.3767 -5.583310e-004 5.548758e-004 -0.375 -1108.4961 -1230.9191)">
	<stop  offset="0" style="stop-color:#5477FF"/>
	<stop  offset="1" style="stop-color:#000101"/>
</linearGradient>
<path id="path21_1_" inkscape:label="bg13" inkscape:connector-curvature="0" fill="url(#path21_2_)" d="M144,144L0.013,143.787
	L0.226,0l143.986,0.213L144,144z"/>
<sodipodi:namedview  id="base" units="px" pagecolor="#ffffff" showgrid="false" bordercolor="#666666" inkscape:cy="72" inkscape:cx="71.999997" inkscape:zoom="6.1666667" borderopacity="1.0" inkscape:window-maximized="1" inkscape:window-width="1920" inkscape:current-layer="layer1" inkscape:document-units="mm" inkscape:pageshadow="2" inkscape:pageopacity="0.0" inkscape:window-height="1057" inkscape:window-y="-8" inkscape:window-x="-8">
	</sodipodi:namedview>
<g id="layer1" transform="translate(0,-258.89999)" inkscape:label="Capa 1" inkscape:groupmode="layer">
	
		<linearGradient id="path13047_1_" gradientUnits="userSpaceOnUse" x1="-1732.1938" y1="-976.8788" x2="-1612.5737" y2="-976.8788" gradientTransform="matrix(1 0.0021 0.0021 -1 1746.436 -642.4664)">
		<stop  offset="0" style="stop-color:#5477FF"/>
		<stop  offset="1" style="stop-color:#000F55"/>
	</linearGradient>
	
		<ellipse id="path13047" fill="url(#path13047_1_)" stroke="#F9F7F7" stroke-width="2.9343" cx="72" cy="330.9" rx="59.81" ry="59.81"/>
</g>
<g>
	<g>
		<g>
			<g>
				<defs>
					<circle id="SVGID_1_" cx="73.246" cy="73" r="62.265"/>
				</defs>
				<clipPath id="SVGID_2_">
					<use xlink:href="#SVGID_1_"  overflow="visible"/>
				</clipPath>
				<g transform="matrix(1 0 0 1 9.754569e-008 -1.953208e-007)" clip-path="url(#SVGID_2_)">
				</g>
			</g>
		</g>
	</g>
</g>
<g>
	<g>
		<g>
			<g>
				<g>
					
						<linearGradient id="SVGID_3_" gradientUnits="userSpaceOnUse" x1="83.7627" y1="63.4551" x2="138.7144" y2="63.4551" gradientTransform="matrix(1 0 0 -1 -0.02 143.0948)">
						<stop  offset="0" style="stop-color:#FFFFFF"/>
						<stop  offset="0.7208" style="stop-color:#474747"/>
						<stop  offset="1" style="stop-color:#000000"/>
					</linearGradient>
					<path fill="url(#SVGID_3_)" d="M111.693,67.857c0-9.666-7.797-19.972-19.493-19.972c-10.515,0-19.497,9.239-19.47,19.724
						v31.346c0,0.426,0.365,0.799,0.779,0.799h6.817c0.415,0,0.78-0.373,0.78-0.799V79.189c5.683,3.492,7.189,7.297,7.189,11.635
						c0,7.043-5.348,12.582-12.479,12.582c-4.36,0-9.716-2.42-12.272-8.684c-0.168-0.41-0.65-0.604-1.045-0.416
						c-1.729,0.811-3.692,1.618-5.36,2.528c-0.293,0.16-0.479,0.649-0.367,0.972c3.254,9.426,12.517,13.588,19.046,13.588
						c11.58,0,21.471-9.607,20.021-23.854C105.047,84.924,111.693,76.504,111.693,67.857z M93.119,79.772
						c-2.614-4.467-8.33-8.431-12.223-9.096c-0.119-1.301-0.396-2.982-0.396-3.816c0-5.839,6.022-11.383,11.894-11.385
						c6.836,0,11.894,6.236,11.894,12.182C104.288,72.686,100.671,78.914,93.119,79.772z"/>
				</g>
			</g>
			<g>
				<g>
					<path fill="none" stroke="#FBFBFB" stroke-miterlimit="10" d="M111.693,67.857c0-9.666-7.797-19.972-19.493-19.972
						c-10.515,0-19.497,9.239-19.47,19.724v31.346c0,0.426,0.365,0.799,0.779,0.799h6.817c0.415,0,0.78-0.373,0.78-0.799V79.189
						c5.683,3.492,7.189,7.297,7.189,11.635c0,7.043-5.348,12.582-12.479,12.582c-4.36,0-9.716-2.42-12.272-8.684
						c-0.168-0.41-0.65-0.604-1.045-0.416c-1.729,0.811-3.692,1.618-5.36,2.528c-0.293,0.16-0.479,0.649-0.367,0.972
						c3.254,9.426,12.517,13.588,19.046,13.588c11.58,0,21.471-9.607,20.021-23.854C105.047,84.924,111.693,76.504,111.693,67.857z
						 M93.119,79.772c-2.614-4.467-8.33-8.431-12.223-9.096c-0.119-1.301-0.396-2.982-0.396-3.816
						c0-5.839,6.022-11.383,11.894-11.385c6.836,0,11.894,6.236,11.894,12.182C104.288,72.686,100.671,78.914,93.119,79.772z"/>
				</g>
			</g>
		</g>
		
			<linearGradient id="SVGID_4_" gradientUnits="userSpaceOnUse" x1="62.3252" y1="78.9512" x2="135.7592" y2="78.9512" gradientTransform="matrix(1 0 0 -1 -0.02 143.0948)">
			<stop  offset="0" style="stop-color:#FFFFFF"/>
			<stop  offset="0.7208" style="stop-color:#474747"/>
			<stop  offset="1" style="stop-color:#000000"/>
		</linearGradient>
		<path fill="url(#SVGID_4_)" stroke="#F7F2F2" stroke-miterlimit="10" d="M85.723,44.589c0.256,0.566-0.022,1.04-0.633,1.067
			c-2.018,0.089-4.265,0.087-6.206-0.08c-0.101-0.01-0.485-0.239-0.543-0.325c-2.249-3.376-6.426-5.89-9.565-5.89
			c-6.8,0-11.179,6.243-11.179,11.64c0,6.356,5.411,11.639,10.813,11.639c0.504,0,3.517-0.807,3.517-0.807l0.681-0.334
			c-1.375,3.413-0.904,7.464-0.904,7.464c-0.536,0.072-0.942,0.153-1.536,0.234c-0.334,0.046-0.677,0.084-1.029,0.108
			c0.674,2.693,1.288,5.907,1.288,6.852c0,11.187-9.149,19.522-19.059,19.522c-10.918,0-19.06-9.416-19.06-19.335
			c0-6.664,3.597-15.36,12.917-18.512c0.539-0.183,0.963,0.132,0.963,0.713v6.245c0,0.114-0.2,0.529-0.29,0.598
			c-4.884,3.808-6.261,6.975-6.261,10.77c0,7.771,5.963,12.015,11.729,12.015c6.702,0,11.729-5.208,11.729-11.826
			c0-2.953-0.735-4.969-1.818-6.585c-0.548-0.818-1.193-1.55-1.901-2.257c-0.724-0.722-1.495-1.403-2.266-2.108
			c-3.192-2.921-6.476-6.347-6.476-14.394c0-10.645,7.52-18.397,17.96-18.397C75.07,32.604,81.291,34.817,85.723,44.589z"/>
	</g>
	<line fill="none" x1="111.693" y1="0" x2="111.693" y2="144"/>
	<line fill="none" x1="32.306" y1="0" x2="32.306" y2="144"/>
	<line fill="none" x1="0" y1="32.605" x2="144" y2="32.605"/>
	<line fill="none" x1="0" y1="111.395" x2="144" y2="111.395"/>
</g>
</svg>
