<?xml version="1.0" encoding="utf-8"?>
<!-- Generator: Adobe Illustrator 16.0.2, SVG Export Plug-In . SVG Version: 6.00 Build 0)  -->
<!DOCTYPE svg PUBLIC "-//W3C//DTD SVG 1.1//EN" "http://www.w3.org/Graphics/SVG/1.1/DTD/svg11.dtd">
<svg version="1.1"
	 id="svg8" xmlns:svg="http://www.w3.org/2000/svg" xmlns:inkscape="http://www.inkscape.org/namespaces/inkscape" xmlns:sodipodi="http://sodipodi.sourceforge.net/DTD/sodipodi-0.dtd" xmlns:cc="http://creativecommons.org/ns#" xmlns:rdf="http://www.w3.org/1999/02/22-rdf-syntax-ns#" xmlns:dc="http://purl.org/dc/elements/1.1/" inkscape:version="0.92.3 (2405546, 2018-03-11)" sodipodi:docname="152.svg"
	 xmlns="http://www.w3.org/2000/svg" xmlns:xlink="http://www.w3.org/1999/xlink" x="0px" y="0px" width="192px" height="192px"
	 viewBox="-20 -20 192 192" enable-background="new -20 -20 192 192" xml:space="preserve">
<sodipodi:namedview  id="base" units="px" pagecolor="#ffffff" showgrid="false" bordercolor="#666666" inkscape:cy="58.448323" inkscape:cx="52.031059" inkscape:zoom="2.9210526" borderopacity="1.0" inkscape:window-maximized="1" inkscape:window-width="1920" inkscape:current-layer="layer1" inkscape:document-units="mm" inkscape:pageshadow="2" inkscape:pageopacity="0.0" inkscape:window-height="1057" inkscape:window-y="-8" inkscape:window-x="-8">
	</sodipodi:namedview>
<g>
	
		<linearGradient id="path21_2_" gradientUnits="userSpaceOnUse" x1="-3187.6309" y1="-3208.3662" x2="-2704.7192" y2="-3208.3662" gradientTransform="matrix(-0.397 -5.883731e-004 5.873631e-004 -0.397 -1091.7471 -1199.6696)">
		<stop  offset="0" style="stop-color:#5477FF"/>
		<stop  offset="1" style="stop-color:#000101"/>
	</linearGradient>
	<path id="path21_1_" inkscape:label="bg13" inkscape:connector-curvature="0" fill="url(#path21_2_)" d="M171.716,172L-20,171.717
		l0.284-192.147L172-20.146L171.716,172z"/>
	<g id="layer1" transform="translate(0,-256.78332)" inkscape:label="Capa 1" inkscape:groupmode="layer">
		
			<linearGradient id="path13047_1_" gradientUnits="userSpaceOnUse" x1="-1733.1782" y1="-963.2421" x2="-1575.7788" y2="-963.2421" gradientTransform="matrix(0.9999 -0.0124 -0.0124 -0.9999 1718.3691 -650.8214)">
			<stop  offset="0" style="stop-color:#5477FF"/>
			<stop  offset="1" style="stop-color:#000F55"/>
		</linearGradient>
		
			<ellipse id="path13047" fill="url(#path13047_1_)" stroke="#F9F7F7" stroke-width="3.8598" cx="76" cy="332.839" rx="78.698" ry="78.651"/>
	</g>
</g>
<g>
	<g>
		<g>
			<g>
				<defs>
					<circle id="SVGID_1_" cx="76.246" cy="76" r="62.265"/>
				</defs>
				<clipPath id="SVGID_2_">
					<use xlink:href="#SVGID_1_"  overflow="visible"/>
				</clipPath>
				<g transform="matrix(1 0 0 1 -3.951860e-007 -3.065836e-007)" clip-path="url(#SVGID_2_)">
				</g>
			</g>
		</g>
	</g>
</g>
<g>
	<g>
		<g>
			<g>
				<g>
					
						<linearGradient id="SVGID_3_" gradientUnits="userSpaceOnUse" x1="91.6973" y1="776.9961" x2="164.9707" y2="776.9961" gradientTransform="matrix(1 0 0 1 -0.04 -690.8105)">
						<stop  offset="0" style="stop-color:#FFFFFF"/>
						<stop  offset="0.7208" style="stop-color:#474747"/>
						<stop  offset="1" style="stop-color:#000000"/>
					</linearGradient>
					<path fill="url(#SVGID_3_)" d="M128.925,70.476c0-12.888-10.396-26.63-25.991-26.63c-14.021,0-25.996,12.318-25.962,26.299
						v41.795c0,0.565,0.489,1.064,1.04,1.064h9.089c0.554,0,1.04-0.499,1.04-1.064V85.587c7.579,4.655,9.587,9.729,9.587,15.512
						c0,9.392-7.132,16.775-16.638,16.775c-5.815,0-12.956-3.225-16.363-11.578c-0.224-0.548-0.867-0.807-1.395-0.554
						c-2.307,1.079-4.922,2.156-7.147,3.37c-0.391,0.213-0.638,0.867-0.491,1.297c4.339,12.564,16.691,18.115,25.396,18.115
						c15.441,0,28.628-12.809,26.696-31.806C120.063,93.232,128.925,82.006,128.925,70.476z M104.159,86.362
						c-3.485-5.956-11.106-11.241-16.297-12.128c-0.158-1.734-0.526-3.975-0.526-5.088c0-7.785,8.028-15.177,15.856-15.18
						c9.116,0,15.858,8.314,15.858,16.243C119.05,76.915,114.228,85.219,104.159,86.362z"/>
				</g>
			</g>
			<g>
				<g>
					<path fill="none" stroke="#FBFBFB" stroke-width="1.3334" stroke-miterlimit="10" d="M128.925,70.476
						c0-12.888-10.396-26.63-25.991-26.63c-14.021,0-25.996,12.318-25.962,26.299v41.795c0,0.565,0.489,1.064,1.04,1.064h9.089
						c0.554,0,1.04-0.499,1.04-1.064V85.587c7.579,4.655,9.587,9.729,9.587,15.512c0,9.392-7.132,16.775-16.638,16.775
						c-5.815,0-12.956-3.225-16.363-11.578c-0.224-0.548-0.867-0.807-1.395-0.554c-2.307,1.079-4.922,2.156-7.147,3.37
						c-0.391,0.213-0.638,0.867-0.491,1.297c4.339,12.564,16.691,18.115,25.396,18.115c15.441,0,28.628-12.809,26.696-31.806
						C120.063,93.232,128.925,82.006,128.925,70.476z M104.159,86.362c-3.485-5.956-11.106-11.241-16.297-12.128
						c-0.158-1.734-0.526-3.975-0.526-5.088c0-7.785,8.028-15.177,15.856-15.18c9.116,0,15.858,8.314,15.858,16.243
						C119.05,76.915,114.228,85.219,104.159,86.362z"/>
				</g>
			</g>
		</g>
		
			<linearGradient id="SVGID_4_" gradientUnits="userSpaceOnUse" x1="63.1138" y1="756.334" x2="161.0258" y2="756.334" gradientTransform="matrix(1 0 0 1 -0.04 -690.8105)">
			<stop  offset="0" style="stop-color:#FFFFFF"/>
			<stop  offset="0.7208" style="stop-color:#474747"/>
			<stop  offset="1" style="stop-color:#000000"/>
		</linearGradient>
		<path fill="url(#SVGID_4_)" stroke="#F7F2F2" stroke-width="1.3334" stroke-miterlimit="10" d="M94.296,39.452
			c0.342,0.755-0.029,1.387-0.844,1.422c-2.691,0.119-5.687,0.117-8.274-0.106c-0.134-0.014-0.649-0.318-0.726-0.433
			c-2.997-4.5-8.565-7.854-12.753-7.854c-9.065,0-14.904,8.325-14.904,15.521c0,8.475,7.214,15.52,14.417,15.52
			c0.672,0,4.689-1.076,4.689-1.076l0.908-0.446c-1.834,4.551-1.206,9.953-1.206,9.953c-0.715,0.096-1.256,0.205-2.049,0.312
			c-0.445,0.061-0.902,0.112-1.371,0.144c0.899,3.59,1.715,7.875,1.715,9.136c0,14.917-12.197,26.029-25.411,26.029
			c-14.557,0-25.414-12.555-25.414-25.78c0-8.884,4.794-20.479,17.222-24.682c0.719-0.244,1.285,0.176,1.285,0.951v8.327
			c0,0.153-0.267,0.705-0.388,0.797c-6.511,5.078-8.347,9.3-8.347,14.36c0,10.36,7.95,16.021,15.638,16.021
			c8.936,0,15.638-6.945,15.638-15.769c0-3.938-0.979-6.626-2.425-8.781c-0.729-1.092-1.591-2.067-2.535-3.011
			c-0.964-0.961-1.991-1.869-3.021-2.81c-4.255-3.894-8.634-8.463-8.634-19.193c0-14.192,10.026-24.529,23.947-24.529
			C80.093,23.473,88.388,26.422,94.296,39.452z"/>
	</g>
	<line fill="none" x1="128.925" y1="-20" x2="128.925" y2="172"/>
	<line fill="none" x1="23.075" y1="-20" x2="23.075" y2="172"/>
	<line fill="none" x1="-20" y1="23.473" x2="172" y2="23.473"/>
	<line fill="none" x1="-20" y1="128.526" x2="172" y2="128.526"/>
</g>
</svg>
