<?xml version="1.0" encoding="utf-8"?>
<!-- Generator: Adobe Illustrator 16.0.2, SVG Export Plug-In . SVG Version: 6.00 Build 0)  -->
<!DOCTYPE svg PUBLIC "-//W3C//DTD SVG 1.1//EN" "http://www.w3.org/Graphics/SVG/1.1/DTD/svg11.dtd">
<svg version="1.1"
	 id="svg8" xmlns:svg="http://www.w3.org/2000/svg" xmlns:inkscape="http://www.inkscape.org/namespaces/inkscape" xmlns:sodipodi="http://sodipodi.sourceforge.net/DTD/sodipodi-0.dtd" xmlns:cc="http://creativecommons.org/ns#" xmlns:rdf="http://www.w3.org/1999/02/22-rdf-syntax-ns#" xmlns:dc="http://purl.org/dc/elements/1.1/" inkscape:version="0.92.3 (2405546, 2018-03-11)" sodipodi:docname="650.svg"
	 xmlns="http://www.w3.org/2000/svg" xmlns:xlink="http://www.w3.org/1999/xlink" x="0px" y="0px" width="650px" height="650px"
	 viewBox="0 0 650 650" enable-background="new 0 0 650 650" xml:space="preserve">
<linearGradient id="path21_2_" gradientUnits="userSpaceOnUse" x1="204.5447" y1="-58.9019" x2="853.5959" y2="-58.9019" gradientTransform="matrix(-1 -0.0015 0.0015 -1 854.1577 266.8917)">
	<stop  offset="0" style="stop-color:#5477FF"/>
	<stop  offset="1" style="stop-color:#000101"/>
</linearGradient>
<path id="path21_1_" inkscape:label="bg13" inkscape:connector-curvature="0" fill="url(#path21_2_)" d="M649.038,650L0,649.037
	L0.96,0L650,0.962L649.038,650z"/>
<sodipodi:namedview  id="base" units="px" pagecolor="#ffffff" showgrid="false" bordercolor="#666666" inkscape:cy="96" inkscape:cx="96" inkscape:zoom="0.5" borderopacity="1.0" inkscape:window-maximized="1" inkscape:window-width="1920" inkscape:current-layer="layer1" inkscape:document-units="mm" inkscape:pageshadow="2" inkscape:pageopacity="0.0" inkscape:window-height="1057" inkscape:window-y="-8" inkscape:window-x="-8">
	</sodipodi:namedview>
<g id="layer1" transform="translate(0,-125.02082)" inkscape:label="Capa 1" inkscape:groupmode="layer">
	
		<linearGradient id="path13047_1_" gradientUnits="userSpaceOnUse" x1="-172.0408" y1="286.9857" x2="367.9006" y2="286.9857" gradientTransform="matrix(1 0.0041 0.0041 -1 225.8929 736.6068)">
		<stop  offset="0" style="stop-color:#5477FF"/>
		<stop  offset="1" style="stop-color:#000F55"/>
	</linearGradient>
	<circle id="path13047" fill="url(#path13047_1_)" stroke="#F9F9F9" stroke-width="13.2453" cx="325" cy="450.022" r="269.973"/>
</g>
<g>
	<g>
		<g>
			<g>
				<g>
					
						<linearGradient id="SVGID_1_" gradientUnits="userSpaceOnUse" x1="378.0452" y1="552.2959" x2="626.0959" y2="552.2959" gradientTransform="matrix(1 0 0 1 -0.04 -192.8105)">
						<stop  offset="0" style="stop-color:#FFFFFF"/>
						<stop  offset="0.7208" style="stop-color:#474747"/>
						<stop  offset="1" style="stop-color:#000000"/>
					</linearGradient>
					<path fill="url(#SVGID_1_)" d="M504.171,306.299c0-43.631-35.193-90.152-87.989-90.152c-47.462,0-88.008,41.705-87.885,89.033
						v141.494c0,1.921,1.648,3.605,3.518,3.605h30.773c1.874,0,3.521-1.686,3.521-3.605v-89.221
						c25.651,15.764,32.453,32.938,32.453,52.518c0,31.792-24.139,56.795-56.327,56.795c-19.682,0-43.859-10.923-55.396-39.196
						c-0.758-1.853-2.931-2.729-4.717-1.878c-7.807,3.658-16.667,7.305-24.196,11.411c-1.322,0.725-2.16,2.933-1.658,4.388
						c14.688,42.547,56.503,61.334,85.977,61.334c52.271,0,96.916-43.366,90.375-107.678
						C474.17,383.337,504.171,345.33,504.171,306.299z M420.328,360.079c-11.8-20.163-37.601-38.055-55.171-41.057
						c-0.538-5.871-1.786-13.46-1.786-17.225c0-26.356,27.187-51.381,53.688-51.389c30.855,0,53.686,28.147,53.686,54.988
						C470.744,328.095,454.418,356.209,420.328,360.079z"/>
				</g>
			</g>
			<g>
				<g>
					<path fill="none" stroke="#FBFBFB" stroke-width="4.5139" stroke-miterlimit="10" d="M504.171,306.299
						c0-43.631-35.193-90.152-87.989-90.152c-47.462,0-88.008,41.705-87.885,89.033v141.494c0,1.921,1.648,3.605,3.518,3.605h30.773
						c1.874,0,3.521-1.686,3.521-3.605v-89.221c25.651,15.764,32.453,32.938,32.453,52.518c0,31.792-24.139,56.795-56.327,56.795
						c-19.682,0-43.859-10.923-55.396-39.196c-0.758-1.853-2.931-2.729-4.717-1.878c-7.807,3.658-16.667,7.305-24.196,11.411
						c-1.322,0.725-2.16,2.933-1.658,4.388c14.688,42.547,56.503,61.334,85.977,61.334c52.271,0,96.916-43.366,90.375-107.678
						C474.17,383.337,504.171,345.33,504.171,306.299z M420.328,360.079c-11.8-20.163-37.601-38.055-55.171-41.057
						c-0.538-5.871-1.786-13.46-1.786-17.225c0-26.356,27.187-51.381,53.688-51.389c30.855,0,53.686,28.147,53.686,54.988
						C470.744,328.095,454.418,356.209,420.328,360.079z"/>
				</g>
			</g>
		</g>
		
			<linearGradient id="SVGID_2_" gradientUnits="userSpaceOnUse" x1="281.2805" y1="482.3438" x2="612.7559" y2="482.3438" gradientTransform="matrix(1 0 0 1 -0.04 -192.8105)">
			<stop  offset="0" style="stop-color:#FFFFFF"/>
			<stop  offset="0.7208" style="stop-color:#474747"/>
			<stop  offset="1" style="stop-color:#000000"/>
		</linearGradient>
		<path fill="url(#SVGID_2_)" stroke="#F7F2F2" stroke-width="4.5139" stroke-miterlimit="10" d="M386.943,201.269
			c1.155,2.557-0.101,4.695-2.854,4.818c-9.108,0.401-19.251,0.393-28.015-0.361c-0.455-0.047-2.19-1.08-2.452-1.468
			c-10.15-15.239-29.005-26.587-43.177-26.587c-30.688,0-50.455,28.181-50.455,52.542c0,28.689,24.422,52.538,48.807,52.538
			c2.273,0,15.874-3.643,15.874-3.643l3.072-1.507c-6.207,15.406-4.082,33.691-4.082,33.691c-2.42,0.326-4.25,0.692-6.935,1.058
			c-1.507,0.208-3.054,0.379-4.641,0.487c3.042,12.156,5.81,26.663,5.81,30.931c0,50.493-41.295,88.121-86.027,88.121
			c-49.282,0-86.035-42.504-86.035-87.274c0-30.08,16.234-69.333,58.306-83.562c2.433-0.827,4.346,0.595,4.346,3.218v28.189
			c0,0.516-0.903,2.388-1.31,2.7c-22.044,17.189-28.26,31.484-28.26,48.613c0,35.076,26.916,54.233,52.94,54.233
			c30.25,0,52.943-23.508,52.943-53.382c0-13.33-3.315-22.429-8.208-29.726c-2.468-3.694-5.382-6.998-8.578-10.189
			c-3.271-3.258-6.749-6.333-10.227-9.515c-14.411-13.185-29.235-28.651-29.235-64.974c0-48.05,33.942-83.042,81.068-83.042
			C338.86,147.171,366.94,157.16,386.943,201.269z"/>
	</g>
	<line fill="none" x1="504.171" y1="0" x2="504.171" y2="650"/>
	<line fill="none" x1="145.826" y1="0" x2="145.826" y2="650"/>
	<line fill="none" x1="0" y1="147.175" x2="650" y2="147.175"/>
	<line fill="none" x1="0" y1="502.822" x2="650" y2="502.822"/>
</g>
</svg>
