<?xml version="1.0" encoding="utf-8"?>
<!-- Generator: Adobe Illustrator 16.0.2, SVG Export Plug-In . SVG Version: 6.00 Build 0)  -->
<!DOCTYPE svg PUBLIC "-//W3C//DTD SVG 1.1//EN" "http://www.w3.org/Graphics/SVG/1.1/DTD/svg11.dtd">
<svg version="1.1"
	 id="svg8" xmlns:svg="http://www.w3.org/2000/svg" xmlns:inkscape="http://www.inkscape.org/namespaces/inkscape" xmlns:sodipodi="http://sodipodi.sourceforge.net/DTD/sodipodi-0.dtd" xmlns:cc="http://creativecommons.org/ns#" xmlns:rdf="http://www.w3.org/1999/02/22-rdf-syntax-ns#" xmlns:dc="http://purl.org/dc/elements/1.1/" inkscape:version="0.92.3 (2405546, 2018-03-11)" sodipodi:docname="192.svg"
	 xmlns="http://www.w3.org/2000/svg" xmlns:xlink="http://www.w3.org/1999/xlink" x="0px" y="0px" width="192px" height="192px"
	 viewBox="0 0 192 192" enable-background="new 0 0 192 192" xml:space="preserve">
<linearGradient id="path21_2_" gradientUnits="userSpaceOnUse" x1="-1225.73" y1="1393.9189" x2="-1034.0122" y2="1393.9189" gradientTransform="matrix(-1 -0.0015 -0.0015 1 -1031.7078 -1299.6129)">
	<stop  offset="0" style="stop-color:#5477FF"/>
	<stop  offset="1" style="stop-color:#000101"/>
</linearGradient>
<path id="path21_1_" inkscape:label="bg13" inkscape:connector-curvature="0" fill="url(#path21_2_)" d="M191.787,192L0.072,191.718
	L0.357,0l191.714,0.283L191.787,192z"/>
<sodipodi:namedview  id="base" units="px" pagecolor="#ffffff" showgrid="false" bordercolor="#666666" inkscape:cy="96" inkscape:cx="96" inkscape:zoom="0.5" borderopacity="1.0" inkscape:window-maximized="1" inkscape:window-width="1920" inkscape:current-layer="layer1" inkscape:document-units="mm" inkscape:pageshadow="2" inkscape:pageopacity="0.0" inkscape:window-height="1057" inkscape:window-y="-8" inkscape:window-x="-8">
	</sodipodi:namedview>
<g id="layer1" transform="translate(0,-246.19999)" inkscape:label="Capa 1" inkscape:groupmode="layer">
	
		<linearGradient id="path13047_1_" gradientUnits="userSpaceOnUse" x1="-1581.2705" y1="1292.4001" x2="-1421.7783" y2="1292.4001" gradientTransform="matrix(0.9999 0.0134 -0.0134 0.9999 1614.6924 -929.9509)">
		<stop  offset="0" style="stop-color:#5477FF"/>
		<stop  offset="1" style="stop-color:#000F55"/>
	</linearGradient>
	<circle id="path13047" fill="url(#path13047_1_)" stroke="#FFFFFF" stroke-width="3.9125" cx="96" cy="342.2" r="79.745"/>
</g>
<g>
	<g>
		<g>
			<defs>
				<circle id="SVGID_1_" cx="96" cy="96" r="77.831"/>
			</defs>
			<clipPath id="SVGID_2_">
				<use xlink:href="#SVGID_1_"  overflow="visible"/>
			</clipPath>
			<g transform="matrix(1 0 0 1 2.384186e-007 -3.576279e-007)" clip-path="url(#SVGID_2_)">
			</g>
		</g>
	</g>
</g>
<g>
	<g>
		<g>
			<defs>
				<rect id="SVGID_3_" x="3873.099" y="3814.141" width="418.338" height="389.719"/>
			</defs>
			<clipPath id="SVGID_4_">
				<use xlink:href="#SVGID_3_"  overflow="visible"/>
			</clipPath>
			<g clip-path="url(#SVGID_4_)">
				<g>
					<defs>
						<path id="SVGID_5_" d="M4114.927,3993.693c0,3.248,1.076,9.781,1.538,14.839c15.123,2.583,37.345,17.993,47.505,35.354
							c29.354-3.331,43.416-27.54,43.416-47.087c0-23.113-19.653-47.355-46.229-47.355
							C4138.339,3949.443,4114.927,3970.997,4114.927,3993.693z M4236.184,3997.576c0,33.607-25.842,66.338-61.612,76.512
							c5.626,55.376-32.819,92.729-77.833,92.729c-25.385,0-61.395-16.183-74.042-52.82c-0.431-1.25,0.29-3.15,1.432-3.775
							c6.479-3.539,14.115-6.674,20.837-9.834c1.535-0.724,3.41,0.026,4.062,1.623c9.939,24.348,30.756,33.754,47.713,33.754
							c27.715,0,48.503-21.533,48.503-48.908c0-16.867-5.863-31.655-27.956-45.233v76.834c0,1.651-1.418,3.104-3.031,3.104h-26.501
							c-1.613,0-3.031-1.453-3.031-3.104v-121.847c-0.113-40.756,34.807-76.666,75.678-76.666
							C4205.868,3919.941,4236.184,3959.996,4236.184,3997.576z"/>
					</defs>
					<clipPath id="SVGID_6_">
						<use xlink:href="#SVGID_5_"  overflow="visible"/>
					</clipPath>
					<g clip-path="url(#SVGID_6_)">
						<g>
							<defs>
								<rect id="SVGID_7_" x="4017.921" y="3913.732" width="221.294" height="254.636"/>
							</defs>
							<clipPath id="SVGID_8_">
								<use xlink:href="#SVGID_7_"  overflow="visible"/>
							</clipPath>
							<g transform="matrix(1 0 0 1 6.073889e-006 5.242306e-006)" clip-path="url(#SVGID_8_)">
							</g>
						</g>
					</g>
				</g>
				<g>
					<defs>
						<rect id="SVGID_9_" x="3873.099" y="3814.141" width="418.338" height="389.719"/>
					</defs>
					<clipPath id="SVGID_10_">
						<use xlink:href="#SVGID_9_"  overflow="visible"/>
					</clipPath>
					<g clip-path="url(#SVGID_10_)">
						<g>
							<defs>
								<path id="SVGID_11_" d="M4141.837,3902.273c1.062,2.338-0.104,4.297-2.619,4.41c-8.346,0.367-17.635,0.361-25.657-0.332
									c-0.421-0.037-2.011-0.99-2.249-1.346c-9.298-13.963-26.575-24.354-39.556-24.354c-28.126,0-46.229,25.816-46.229,48.133
									c0,26.285,22.378,48.133,44.714,48.133c3.177,0,15.267-2.834,24.879-7.363c2.371-1.117,4.299,0.147,4.299,2.82v29.1
									c0,2.889-2.104,4.131-4.546,2.689c-2.896-1.71-6.063-1.766-10.368-1.189c-2.219,0.297-4.544,0.726-6.998,1.061
									c-1.381,0.189-2.801,0.349-4.263,0.445c2.793,11.138,5.334,24.43,5.334,28.334c0,46.265-37.84,80.737-78.817,80.737
									c-45.149,0-78.817-38.94-78.817-79.962c0-27.56,14.871-63.518,53.416-76.555c2.229-0.754,3.981,0.544,3.981,2.949v25.824
									c0,0.474-0.828,2.188-1.195,2.473c-20.195,15.748-25.888,28.842-25.888,44.533c0,32.129,24.655,49.686,48.503,49.686
									c27.715,0,48.503-21.534,48.503-48.909c0-12.204-3.047-20.541-7.521-27.229c-2.266-3.387-4.935-6.406-7.869-9.336
									c-2.988-2.982-6.178-5.801-9.365-8.717c-13.2-12.08-26.779-26.246-26.779-59.521c0-44.021,31.099-76.081,74.271-76.081
									C4097.787,3852.705,4123.512,3861.861,4141.837,3902.273z"/>
							</defs>
							<clipPath id="SVGID_12_">
								<use xlink:href="#SVGID_11_"  overflow="visible"/>
							</clipPath>
							<g clip-path="url(#SVGID_12_)">
								<g>
									<defs>
										<rect id="SVGID_13_" x="3916.395" y="3846.494" width="228.874" height="270.163"/>
									</defs>
									<clipPath id="SVGID_14_">
										<use xlink:href="#SVGID_13_"  overflow="visible"/>
									</clipPath>
									<g transform="matrix(1 0 0 1 4.305377e-006 7.491994e-006)" clip-path="url(#SVGID_14_)">
									</g>
								</g>
							</g>
						</g>
					</g>
				</g>
			</g>
		</g>
	</g>
</g>
<g>
	<g>
		<g>
			<g>
				<g>
					
						<linearGradient id="SVGID_15_" gradientUnits="userSpaceOnUse" x1="111.6768" y1="84.9082" x2="184.9482" y2="84.9082" gradientTransform="matrix(1 0 0 -1 -0.02 191.0947)">
						<stop  offset="0" style="stop-color:#FFFFFF"/>
						<stop  offset="0.7208" style="stop-color:#474747"/>
						<stop  offset="1" style="stop-color:#000000"/>
					</linearGradient>
					<path fill="url(#SVGID_15_)" d="M148.925,90.476c0-12.888-10.396-26.629-25.991-26.629c-14.02,0-25.996,12.319-25.96,26.299
						v41.795c0,0.567,0.486,1.065,1.039,1.065h9.09c0.553,0,1.04-0.498,1.04-1.065v-26.354c7.578,4.656,9.586,9.729,9.586,15.514
						c0,9.391-7.13,16.775-16.637,16.775c-5.814,0-12.956-3.227-16.364-11.578c-0.224-0.547-0.866-0.806-1.394-0.555
						c-2.306,1.081-4.922,2.157-7.146,3.372c-0.391,0.213-0.638,0.865-0.49,1.295c4.339,12.567,16.69,18.117,25.396,18.117
						c15.441,0,28.628-12.811,26.696-31.806C140.063,113.231,148.925,102.006,148.925,90.476z M124.159,106.362
						c-3.486-5.956-11.106-11.241-16.297-12.128c-0.159-1.734-0.527-3.976-0.527-5.088c0-7.785,8.029-15.177,15.857-15.179
						c9.115,0,15.858,8.314,15.858,16.243C139.051,96.914,134.228,105.219,124.159,106.362z"/>
				</g>
			</g>
			<g>
				<g>
					<path fill="none" stroke="#FBFBFB" stroke-width="1.3333" stroke-miterlimit="10" d="M148.925,90.476
						c0-12.888-10.396-26.629-25.991-26.629c-14.02,0-25.996,12.319-25.96,26.299v41.795c0,0.567,0.486,1.065,1.039,1.065h9.09
						c0.553,0,1.04-0.498,1.04-1.065v-26.354c7.578,4.656,9.586,9.729,9.586,15.514c0,9.391-7.13,16.775-16.637,16.775
						c-5.814,0-12.956-3.227-16.364-11.578c-0.224-0.547-0.866-0.806-1.394-0.555c-2.306,1.081-4.922,2.157-7.146,3.372
						c-0.391,0.213-0.638,0.865-0.49,1.295c4.339,12.567,16.69,18.117,25.396,18.117c15.441,0,28.628-12.811,26.696-31.806
						C140.063,113.231,148.925,102.006,148.925,90.476z M124.159,106.362c-3.486-5.956-11.106-11.241-16.297-12.128
						c-0.159-1.734-0.527-3.976-0.527-5.088c0-7.785,8.029-15.177,15.857-15.179c9.115,0,15.858,8.314,15.858,16.243
						C139.051,96.914,134.228,105.219,124.159,106.362z"/>
				</g>
			</g>
		</g>
		
			<linearGradient id="SVGID_16_" gradientUnits="userSpaceOnUse" x1="83.0938" y1="105.5703" x2="181.0068" y2="105.5703" gradientTransform="matrix(1 0 0 -1 -0.02 191.0947)">
			<stop  offset="0" style="stop-color:#FFFFFF"/>
			<stop  offset="0.7208" style="stop-color:#474747"/>
			<stop  offset="1" style="stop-color:#000000"/>
		</linearGradient>
		<path fill="url(#SVGID_16_)" stroke="#F7F2F2" stroke-width="1.3333" stroke-miterlimit="10" d="M114.296,59.452
			c0.342,0.755-0.029,1.387-0.843,1.422c-2.69,0.119-5.687,0.117-8.275-0.106c-0.134-0.014-0.647-0.319-0.724-0.434
			c-2.998-4.501-8.568-7.854-12.754-7.854c-9.065,0-14.903,8.325-14.903,15.521c0,8.475,7.213,15.519,14.417,15.519
			c0.672,0,4.689-1.077,4.689-1.077l0.906-0.445c-1.832,4.551-1.205,9.952-1.205,9.952c-0.715,0.096-1.256,0.204-2.048,0.313
			c-0.445,0.061-0.902,0.112-1.371,0.144c0.898,3.59,1.715,7.875,1.715,9.136c0,14.916-12.197,26.03-25.411,26.03
			c-14.558,0-25.414-12.555-25.414-25.78c0-8.884,4.795-20.479,17.222-24.682c0.719-0.244,1.285,0.176,1.285,0.951v8.327
			c0,0.152-0.267,0.705-0.388,0.798c-6.511,5.077-8.347,9.3-8.347,14.359c0,10.361,7.95,16.02,15.638,16.02
			c8.936,0,15.639-6.943,15.639-15.768c0-3.938-0.979-6.625-2.425-8.78c-0.729-1.091-1.59-2.067-2.534-3.01
			c-0.965-0.962-1.993-1.87-3.02-2.81c-4.257-3.895-8.635-8.463-8.635-19.192c0-14.193,10.026-24.529,23.946-24.529
			C100.094,43.472,108.388,46.422,114.296,59.452z"/>
	</g>
	<line fill="none" stroke="#F7F2F2" stroke-width="1.3333" stroke-miterlimit="10" x1="148.925" y1="0" x2="148.925" y2="192"/>
	<line fill="none" stroke="#F7F2F2" stroke-width="1.3333" stroke-miterlimit="10" x1="43.074" y1="0" x2="43.074" y2="192"/>
	<line fill="none" stroke="#F7F2F2" stroke-width="1.3333" stroke-miterlimit="10" x1="0" y1="43.473" x2="192" y2="43.473"/>
	<line fill="none" stroke="#F7F2F2" stroke-width="1.3333" stroke-miterlimit="10" x1="0" y1="148.526" x2="192" y2="148.526"/>
</g>
</svg>
