<?xml version="1.0" encoding="utf-8"?>
<!-- Generator: Adobe Illustrator 16.0.2, SVG Export Plug-In . SVG Version: 6.00 Build 0)  -->
<!DOCTYPE svg PUBLIC "-//W3C//DTD SVG 1.1//EN" "http://www.w3.org/Graphics/SVG/1.1/DTD/svg11.dtd">
<svg version="1.1"
	 id="svg815" xmlns:sodipodi="http://sodipodi.sourceforge.net/DTD/sodipodi-0.dtd" xmlns:inkscape="http://www.inkscape.org/namespaces/inkscape" xmlns:dc="http://purl.org/dc/elements/1.1/" xmlns:svg="http://www.w3.org/2000/svg" xmlns:rdf="http://www.w3.org/1999/02/22-rdf-syntax-ns#" xmlns:cc="http://creativecommons.org/ns#" inkscape:version="0.92.3 (2405546, 2018-03-11)" sodipodi:docname="body_modo.svg"
	 xmlns="http://www.w3.org/2000/svg" xmlns:xlink="http://www.w3.org/1999/xlink" x="0px" y="0px" width="400px" height="38.75px"
	 viewBox="0 0 400 38.75" enable-background="new 0 0 400 38.75" xml:space="preserve">
<g id="g13773" transform="matrix(0.5,0,0,0.5,15.438368,-114.61954)">
	<path id="path13771" inkscape:connector-curvature="0" fill="#FF3300" d="M249.863-249.536v-19.9c0-1.225,0.226-2.375,0.676-3.475
		c0.449-1.05,1.104-2,1.925-2.821c1.729-1.729,3.804-2.574,6.274-2.574h104.126c1.199,0,2.324,0.226,3.45,0.699
		c1.049,0.426,1.999,1.071,2.824,1.875c1.728,1.75,2.571,3.821,2.571,6.296v19.9c0,1.225-0.225,2.375-0.695,3.475
		c-0.449,1.051-1.075,2-1.876,2.801c-0.825,0.824-1.775,1.48-2.824,1.898c-1.126,0.477-2.251,0.701-3.45,0.701H258.738
		c-1.225,0-2.35-0.225-3.475-0.701c-1.054-0.424-2-1.074-2.804-1.898c-0.821-0.801-1.476-1.75-1.925-2.801
		C250.088-247.161,249.863-248.312,249.863-249.536z"/>
</g>
<g id="g13777" transform="matrix(0.5,0,0,0.5,20.595592,12.842386)">
	
		<path id="path13775" sodipodi:nodetypes="ccccssscscscsscsscscsssccsc" inkscape:connector-curvature="0" fill="#FF3300" stroke="#999999" stroke-width="0.5" stroke-linecap="round" stroke-linejoin="round" stroke-miterlimit="10" d="
		M176.066-415.536c0,1.227,0.226,2.375,0.676,3.477c0.449,1.051,1.104,2,1.925,2.801c0.804,0.824,1.75,1.473,2.803,1.896
		c1.125,0.479,2.25,0.701,3.476,0.701h264.122c0.6,0,1.18-0.057,1.754-0.172c0.57-0.115,1.133-0.291,1.695-0.529
		c0.521-0.211,1.021-0.479,1.496-0.799c0.473-0.316,0.918-0.688,1.328-1.1c0.398-0.4,0.758-0.838,1.066-1.307
		c0.313-0.469,0.582-0.969,0.809-1.494c0.234-0.551,0.414-1.113,0.527-1.691s0.77-1.635,0.172-1.783v-9.951v-9.947
		c0-1.238-0.215-2.375-0.643-3.422s-1.072-2.004-1.936-2.879c-0.41-0.398-0.855-0.762-1.328-1.078
		c-0.475-0.316-0.975-0.586-1.496-0.797c-0.563-0.238-1.125-0.414-1.695-0.527c-0.574-0.117-1.154-0.172-1.754-0.172H184.937
		c-2.475,0-4.55,0.852-6.274,2.574c-0.821,0.824-1.476,1.773-1.925,2.824c-0.45,1.102-0.676,2.25-0.676,3.477L176.066-415.536"/>
</g>
<g id="g12504" transform="translate(0,-8)">
	<g id="g12498">
		<path id="path12496" sodipodi:nodetypes="cccssccccccccsscccc" inkscape:connector-curvature="0" fill="#CCCCCC" d="M16.735,8.766
			c-2.476,0-4.551,0.849-6.275,2.574c-0.824,0.825-1.476,1.774-1.926,2.824c-0.45,1.1-0.674,2.251-0.674,3.477v19.898
			c0,1.225,0.224,2.377,0.674,3.477c0.45,1.051,1.101,2,1.926,2.799c0.8,0.826,1.751,1.479,2.801,1.9
			c1.125,0.475,2.249,0.699,3.475,0.699c122.154-0.094,243.698,0,365.625,0c1.191,0,2.316-0.225,3.443-0.699
			c1.058-0.425,1.999-1.074,2.824-1.9c0.801-0.799,1.426-1.75,1.875-2.799c0.479-1.1,0.701-2.252,0.701-3.477V17.641
			c0-2.475-0.85-4.551-2.576-6.301c-0.825-0.8-1.771-1.45-2.824-1.875c-1.127-0.474-2.252-0.699-3.443-0.699
			C260.322,8.901,138.887,8.766,16.735,8.766z"/>
	</g>
	<g id="g12502">
		<path id="path12500" inkscape:connector-curvature="0" fill="#CCCCCC" d="M160.734,37.54c0,1.226,0.227,2.375,0.676,3.476
			c0.448,1.049,1.101,2,1.925,2.799c0.799,0.826,1.75,1.479,2.799,1.9c1.125,0.475,2.251,0.7,3.477,0.7h104.124
			c1.201,0,2.326-0.226,3.451-0.7c1.049-0.425,2-1.074,2.824-1.9c0.801-0.799,1.426-1.75,1.875-2.799
			c0.477-1.102,0.7-2.25,0.7-3.476v-19.9c0-2.475-0.853-4.549-2.575-6.3c-0.824-0.8-1.775-1.45-2.824-1.875
			c-1.125-0.475-2.25-0.7-3.449-0.7H169.61c-2.476,0-4.551,0.851-6.274,2.575c-0.824,0.825-1.476,1.775-1.925,2.825
			c-0.449,1.1-0.676,2.25-0.676,3.475L160.734,37.54"/>
	</g>
</g>
<g id="g12514" transform="translate(0,-8)">
	<g id="g12508">
	</g>
	<g id="g12512">
		<path id="path12510" inkscape:connector-curvature="0" fill="none" d="M53.245,37.54c0,1.226,0.225,2.375,0.675,3.476
			c0.45,1.049,1.101,2,1.925,2.799c0.8,0.826,1.75,1.479,2.799,1.9c1.125,0.475,2.25,0.7,3.477,0.7h104.125
			c1.199,0,2.324-0.226,3.45-0.7c1.05-0.425,1.999-1.074,2.824-1.9c0.801-0.799,1.426-1.75,1.875-2.799
			c0.478-1.102,0.701-2.25,0.701-3.476v-19.9c0-2.475-0.853-4.549-2.576-6.3c-0.825-0.8-1.774-1.45-2.824-1.875
			c-1.126-0.475-2.251-0.7-3.449-0.7H62.12c-2.476,0-4.551,0.851-6.275,2.575c-0.825,0.825-1.475,1.775-1.925,2.825
			c-0.45,1.1-0.675,2.25-0.675,3.475V37.54"/>
	</g>
</g>
<g id="g12524" transform="translate(0,-8)">
	<g id="g12518">
	</g>
	<g id="g12522">
		<path id="path12520" inkscape:connector-curvature="0" fill="none" d="M7.859,37.54c0,1.226,0.226,2.375,0.676,3.476
			c0.449,1.049,1.101,2,1.925,2.799c0.8,0.826,1.75,1.479,2.799,1.9c1.125,0.475,2.25,0.7,3.476,0.7H120.86
			c1.2,0,2.325-0.226,3.451-0.7c1.049-0.425,1.999-1.074,2.824-1.9c0.801-0.799,1.426-1.75,1.875-2.799
			c0.477-1.102,0.701-2.25,0.701-3.476v-19.9c0-2.475-0.854-4.549-2.576-6.3c-0.825-0.8-1.775-1.45-2.824-1.875
			c-1.126-0.475-2.251-0.7-3.45-0.7H16.734c-2.475,0-4.55,0.851-6.274,2.575c-0.825,0.825-1.476,1.775-1.925,2.825
			c-0.45,1.1-0.676,2.25-0.676,3.475V37.54"/>
	</g>
</g>
<sodipodi:namedview  id="namedview817" inkscape:window-maximized="1" inkscape:pagecheckerboard="0" fit-margin-bottom="0" inkscape:snap-page="false" fit-margin-right="0" inkscape:window-width="1920" inkscape:pageshadow="2" inkscape:showpageshadow="2" inkscape:pageopacity="0" inkscape:deskcolor="#d1d1d1" inkscape:window-x="-8" inkscape:window-y="-8" inkscape:window-height="1057" inkscape:current-layer="svg815" showguides="true" pagecolor="#ffffff" fit-margin-left="0" borderopacity="1" gridtolerance="10" showgrid="false" inkscape:cy="-21.77035" guidetolerance="10" inkscape:cx="353.76021" fit-margin-top="0" objecttolerance="10" bordercolor="#666666" inkscape:zoom="0.5870375">
	</sodipodi:namedview>
<g id="g12583" transform="translate(0,-8)">
	<g id="g12577">
	</g>
	<g id="g12581">
		<path id="path12579" inkscape:connector-curvature="0" fill="none" d="M269.359,37.54c0,1.226,0.228,2.375,0.677,3.476
			c0.448,1.049,1.101,2,1.925,2.799c0.8,0.826,1.751,1.479,2.799,1.9c1.127,0.475,2.252,0.7,3.477,0.7H382.36
			c1.191,0,2.316-0.226,3.442-0.7c1.058-0.425,1.999-1.074,2.824-1.9c0.801-0.799,1.426-1.75,1.875-2.799
			c0.479-1.102,0.701-2.25,0.701-3.476v-19.9c0-2.475-0.854-4.549-2.576-6.3c-0.825-0.8-1.771-1.45-2.824-1.875
			c-1.126-0.475-2.251-0.7-3.442-0.7H278.234c-2.479,0-4.551,0.851-6.273,2.575c-0.824,0.825-1.477,1.775-1.925,2.825
			c-0.449,1.1-0.677,2.25-0.677,3.475V37.54"/>
	</g>
</g>
<g id="g12599" transform="translate(0,-8)">
	<g id="g12593">
		
			<path id="path12591" inkscape:connector-curvature="0" fill="none" stroke="#999999" stroke-width="0.4" stroke-linecap="round" stroke-linejoin="round" stroke-miterlimit="10" d="
			M357.31,35.564c0,1.976,0.7,3.625,2.076,5c1.375,1.396,3.049,2.101,5.023,2.101h15.951c1.94,0,3.624-0.7,5.021-2.101
			c1.374-1.375,2.049-3.024,2.049-5V19.615c0-1.976-0.675-3.626-2.049-5.025c-1.396-1.375-3.076-2.076-5.021-2.076h-15.951
			c-1.979,0-3.648,0.701-5.023,2.076c-1.376,1.399-2.076,3.049-2.076,5.025V35.564"/>
	</g>
	<g id="g12597">
		<path id="path12595" inkscape:connector-curvature="0" fill="#F2F2F2" d="M357.31,35.564V19.615c0-1.976,0.7-3.626,2.076-5.025
			c1.375-1.375,3.049-2.076,5.023-2.076h15.951c1.94,0,3.624,0.701,5.021,2.076c1.374,1.399,2.049,3.049,2.049,5.025v15.949
			c0,1.976-0.675,3.625-2.049,5c-1.396,1.396-3.076,2.101-5.021,2.101h-15.951c-1.979,0-3.648-0.7-5.023-2.101
			C358.01,39.189,357.31,37.54,357.31,35.564L357.31,35.564z"/>
	</g>
</g>
<path id="path12639" inkscape:connector-curvature="0" fill="#808080" d="M384.836,18.59c0-0.25-0.051-0.5-0.148-0.725
	c-0.069-0.225-0.228-0.45-0.427-0.65l-9.021-9.05c-0.2-0.149-0.433-0.325-0.649-0.4c-0.226-0.1-0.475-0.15-0.726-0.15
	c-0.25,0-0.479,0.05-0.729,0.15c-0.25,0.075-0.45,0.25-0.625,0.4l-0.698,0.7c-0.177,0.175-0.302,0.4-0.396,0.625
	c-0.104,0.225-0.149,0.476-0.149,0.725c0,0.25,0.058,0.5,0.149,0.725c0.101,0.225,0.226,0.45,0.396,0.65l4.912,4.9h-0.589h-7.051
	h-5.75c-0.275,0-0.525,0.05-0.75,0.15c-0.226,0.075-0.449,0.226-0.601,0.4c-0.184,0.175-0.324,0.375-0.432,0.6
	c-0.101,0.25-0.146,0.5-0.146,0.75v0.976c0,0.274,0.051,0.524,0.146,0.75c0.104,0.225,0.25,0.425,0.432,0.601
	c0.146,0.174,0.375,0.325,0.601,0.426c0.228,0.074,0.478,0.125,0.75,0.125h5.75h7.05h0.425l-4.924,4.924
	c-0.2,0.201-0.325,0.4-0.425,0.651c-0.102,0.226-0.15,0.474-0.15,0.724s0.058,0.479,0.15,0.729c0.1,0.25,0.225,0.45,0.425,0.625
	l0.674,0.675c0.184,0.2,0.376,0.325,0.625,0.428c0.251,0.104,0.479,0.146,0.729,0.146s0.478-0.049,0.727-0.146
	c0.25-0.103,0.45-0.229,0.625-0.428l9.054-9.05c0.196-0.175,0.321-0.397,0.429-0.625c0.06-0.144,0.099-0.28,0.122-0.417
	c0.023-0.061,0.059-0.123,0.075-0.184C384.784,19.09,384.836,18.84,384.836,18.59L384.836,18.59z"/>
<g id="g12597-3">
	<path id="path12595-6" sodipodi:nodetypes="sscsscsscsscs" inkscape:connector-curvature="0" fill="#F2F2F2" d="M12.659,27.189
		V11.241c0-1.976,0.7-3.626,2.076-5.025c1.375-1.375,3.049-2.076,5.024-2.076h215.95c1.948,0,3.624,0.701,5.023,2.076
		c1.375,1.399,2.05,3.049,2.05,5.025v15.948c0,1.977-0.675,3.625-2.05,5c-1.399,1.396-3.075,2.102-5.023,2.102H19.76
		c-1.977,0-3.649-0.699-5.024-2.102C13.36,30.814,12.659,29.166,12.659,27.189L12.659,27.189z"/>
</g>
<g id="g13414" transform="translate(-234.65043,-8.373761)">
	<g id="g13408">
		<path id="path13406" inkscape:connector-curvature="0" fill="none" d="M357.31,35.564c0,1.976,0.7,3.625,2.076,5
			c1.375,1.399,3.049,2.101,5.024,2.101h15.95c1.948,0,3.624-0.699,5.024-2.101c1.374-1.375,2.049-3.024,2.049-5V19.615
			c0-1.976-0.675-3.626-2.049-5.025c-1.4-1.375-3.076-2.076-5.024-2.076h-15.95c-1.977,0-3.649,0.701-5.024,2.076
			c-1.376,1.399-2.076,3.049-2.076,5.025V35.564"/>
	</g>
	<g id="g13412">
		<path id="path13410" sodipodi:nodetypes="sscsscsscsscs" inkscape:connector-curvature="0" fill="#F2F2F2" d="M357.31,35.564
			V19.615c0-1.976,0.7-3.626,2.076-5.025c1.375-1.375,3.049-2.076,5.024-2.076h215.95c1.94,0,3.624,0.701,5.021,2.076
			c1.374,1.399,2.049,3.049,2.049,5.025v15.949c0,1.976-0.675,3.625-2.049,5c-1.396,1.399-3.076,2.101-5.021,2.101H364.41
			c-1.977,0-3.649-0.699-5.024-2.101C358.01,39.189,357.31,37.54,357.31,35.564L357.31,35.564z"/>
	</g>
</g>
<path fill="#7F7E82" d="M151.385,6.712h-22.031"/>
<g>
	<path fill="#63A5A5" d="M295.301,8.434c-1.162-1.141-2.551-1.722-4.166-1.722h-22.032h-2.199h-22.03
		c-0.64,0-2.027,0.582-3.168,1.722c-1.141,1.16-1.722,2.529-1.722,4.167v13.228c0,1.64,0.581,3.008,1.722,4.147
		c1.141,1.153,2.529,1.735,4.168,1.735h22.03h1.199h22.03c1.617,0,3.006-0.573,4.168-1.735c1.14-1.146,1.699-2.516,1.699-4.147
		V12.601C297,10.962,296.44,9.594,295.301,8.434z"/>
	<path fill="#63A5A5" d="M345.301,8.434c-1.162-1.141-2.551-1.722-3.166-1.722h-22.032h-3.199h-21.03
		c-1.64,0-3.027,0.582-4.168,1.722c-1.141,1.16-1.722,2.529-1.722,4.167v13.228c0,1.64,0.581,3.008,1.722,4.147
		c1.141,1.153,2.529,1.735,4.168,1.735h22.03h1.199h22.03c1.617,0,3.006-0.573,4.168-1.735c1.14-1.146,1.699-2.516,1.699-4.147
		V12.601C347,10.962,346.44,9.594,345.301,8.434z"/>
	<text transform="matrix(0.9103 0 0 1 245.5586 26.334)" fill="#79CDD1" font-family="'Bahnschrift'" font-size="19.5648">MEZZANINA</text>
</g>
<g>
	<path fill="#CCCCCC" d="M86.453,8.434c-1.162-1.141-2.553-1.722-4.167-1.722H46.584h-1.199H23.354
		c-1.639,0-3.022,0.582-4.166,1.722c-1.142,1.16-1.723,2.529-1.723,4.167v13.228c0,1.64,0.581,3.008,1.723,4.147
		c1.145,1.153,2.528,1.735,4.166,1.735h22.031h1.199h35.702c1.616,0,3.006-0.573,4.167-1.735c1.14-1.146,1.699-2.516,1.699-4.147
		V12.601C88.152,10.962,87.593,9.594,86.453,8.434z"/>
	<path fill="#CCCCCC" d="M100.453,8.434c-1.162-1.141-2.553-1.722-4.167-1.722H60.584h-1.199H37.354
		c-1.639,0-3.022,0.582-4.166,1.722c-1.142,1.16-1.723,2.529-1.723,4.167v13.228c0,1.64,0.581,3.008,1.723,4.147
		c1.145,1.153,2.528,1.735,4.166,1.735h22.031h1.199h35.702c1.616,0,3.006-0.573,4.167-1.735c1.14-1.146,1.699-2.516,1.699-4.147
		V12.601C102.152,10.962,101.593,9.594,100.453,8.434z"/>
	<text transform="matrix(0.9103 0 0 1 23.9614 26.3349)" fill="#DEDEE0" font-family="'Bahnschrift'" font-size="19.5648"> DUPLEX </text>
</g>
<g>
	<path fill="#CCCCCC" d="M177.453,8.434c-1.162-1.141-2.552-1.722-4.167-1.722h-35.702h-1.199h-22.031
		c-1.639,0-3.027,0.582-4.167,1.722c-1.141,1.16-1.722,2.529-1.722,4.167v13.228c0,1.64,0.581,3.008,1.722,4.147
		c1.141,1.153,2.529,1.735,4.167,1.735h22.031h1.199h35.702c1.616,0,3.006-0.573,4.167-1.735c1.14-1.146,1.699-2.516,1.699-4.147
		V12.601C179.152,10.962,178.593,9.594,177.453,8.434z"/>
	<path fill="#CCCCCC" d="M231.453,8.434c-1.162-1.141-2.553-1.722-4.167-1.722h-35.702h-1.199h-22.031
		c-1.639,0-3.026,0.582-4.166,1.722c-1.142,1.16-1.723,2.529-1.723,4.167v13.228c0,1.64,0.581,3.008,1.723,4.147
		c1.141,1.153,2.528,1.735,4.166,1.735h22.031h1.199h35.702c1.616,0,3.006-0.573,4.167-1.735c1.14-1.146,1.699-2.516,1.699-4.147
		V12.601C233.152,10.962,232.593,9.594,231.453,8.434z"/>
	<g enable-background="new    ">
		<text transform="matrix(0.9103 0 0 1 100.418 26.3349)" fill="#DEDEE0" font-family="'Bahnschrift'" font-size="19.5648">   PLANTA BAJA</text>
	</g>
</g>
<g id="g12504_1_" transform="translate(0,-8)">
	<g id="g12502_1_">
		<path id="path12500_1_" inkscape:connector-curvature="0" fill="#CCCCCC" d="M135.108-102.986c0,1.227,0.227,2.375,0.676,3.477
			c0.448,1.049,1.101,2,1.925,2.799c0.799,0.826,1.75,1.479,2.799,1.9c1.125,0.475,2.251,0.699,3.477,0.699h104.124
			c1.201,0,2.326-0.225,3.451-0.699c1.049-0.426,2-1.074,2.824-1.9c0.801-0.799,1.426-1.75,1.875-2.799
			c0.477-1.102,0.7-2.25,0.7-3.477v-19.899c0-2.476-0.853-4.55-2.575-6.3c-0.824-0.801-1.775-1.45-2.824-1.875
			c-1.125-0.475-2.25-0.7-3.449-0.7H143.984c-2.476,0-4.551,0.851-6.274,2.575c-0.824,0.824-1.476,1.775-1.925,2.824
			c-0.449,1.101-0.676,2.25-0.676,3.476L135.108-102.986"/>
	</g>
</g>
<g id="g13414_1_" transform="translate(-234.65043,-8.373761)">
	<g id="g13408_1_">
		<path id="path13406_1_" inkscape:connector-curvature="0" fill="none" d="M331.684-104.962c0,1.977,0.7,3.625,2.076,5
			c1.375,1.4,3.049,2.102,5.024,2.102h15.95c1.948,0,3.624-0.699,5.024-2.102c1.374-1.375,2.049-3.023,2.049-5v-15.949
			c0-1.976-0.675-3.625-2.049-5.024c-1.4-1.375-3.076-2.076-5.024-2.076h-15.95c-1.977,0-3.649,0.701-5.024,2.076
			c-1.376,1.399-2.076,3.049-2.076,5.024V-104.962"/>
	</g>
	<g id="g13412_1_">
		<path id="path13410_1_" sodipodi:nodetypes="sscsscsscsscs" inkscape:connector-curvature="0" fill="#F2F2F2" d="M331.684-104.962
			v-15.949c0-1.976,0.7-3.625,2.076-5.024c1.375-1.375,3.049-2.076,5.024-2.076h215.95c1.94,0,3.624,0.701,5.021,2.076
			c1.374,1.399,2.049,3.049,2.049,5.024v15.949c0,1.977-0.675,3.625-2.049,5c-1.396,1.4-3.076,2.102-5.021,2.102h-215.95
			c-1.977,0-3.649-0.699-5.024-2.102C332.384-101.337,331.684-102.986,331.684-104.962L331.684-104.962z"/>
	</g>
</g>
<path fill="#7F7E82" d="M125.759-133.814h-22.031"/>
<path fill="#B7B7B7" d="M318.827-132.092c-1.162-1.141-2.553-1.723-4.167-1.723h-35.702h-1.199h-22.031
	c-1.639,0-3.023,0.582-4.166,1.723c-1.142,1.16-1.723,2.529-1.723,4.167v13.228c0,1.641,0.581,3.008,1.723,4.148
	c1.144,1.152,2.528,1.734,4.166,1.734h22.031h1.199h35.702c1.616,0,3.006-0.572,4.167-1.734c1.14-1.146,1.699-2.516,1.699-4.148
	v-13.228C320.526-129.564,319.967-130.932,318.827-132.092z"/>
<path fill="#63A5A5" d="M242.827-132.092c-1.162-1.141-2.553-1.723-4.167-1.723h-35.702h-1.199h-22.031
	c-1.639,0-3.023,0.582-4.166,1.723c-1.142,1.16-1.723,2.529-1.723,4.167v13.228c0,1.641,0.581,3.008,1.723,4.148
	c1.144,1.152,2.528,1.734,4.166,1.734h22.031h1.199h35.702c1.616,0,3.006-0.572,4.167-1.734c1.14-1.146,1.699-2.516,1.699-4.148
	v-13.228C244.526-129.564,243.967-130.932,242.827-132.092z"/>
<path fill="#63A5A5" d="M233.827-132.092c-1.162-1.141-2.553-1.723-4.167-1.723h-35.702h-1.199h-22.03
	c-1.64,0-3.026,0.582-4.168,1.723c-1.141,1.16-1.722,2.529-1.722,4.167v13.228c0,1.641,0.581,3.008,1.722,4.148
	c1.142,1.152,2.529,1.734,4.168,1.734h22.03h1.199h35.702c1.616,0,3.006-0.572,4.167-1.734c1.14-1.146,1.699-2.516,1.699-4.148
	v-13.228C235.526-129.564,234.967-130.932,233.827-132.092z"/>
<text transform="matrix(0.9103 0 0 1 86.792 -114.1909)" fill="#EDEDED" font-family="'Bahnschrift'" font-size="19.5648">3er PISO</text>
<path fill="#B7B7B7" d="M151.827-132.092c-1.162-1.141-2.552-1.723-3.167-1.723h-35.702h-2.199H88.728
	c-1.639,0-3.027,0.582-4.167,1.723c-1.141,1.16-1.722,2.529-1.722,4.167v13.228c0,1.641,0.581,3.008,1.722,4.148
	c1.141,1.152,2.529,1.734,4.167,1.734h22.031h1.199h35.702c1.615,0,3.006-0.572,4.167-1.734c1.14-1.146,1.698-2.516,1.698-4.148
	v-13.228C153.525-129.564,152.967-130.932,151.827-132.092z"/>
<path fill="#B7B7B7" d="M158.827-132.092c-1.162-1.141-2.552-1.723-3.167-1.723h-35.702h-2.199H95.728
	c-1.639,0-3.027,0.582-4.167,1.723c-1.141,1.16-1.722,2.529-1.722,4.167v13.228c0,1.641,0.581,3.008,1.722,4.148
	c1.141,1.152,2.529,1.734,4.167,1.734h22.031h1.199h35.702c1.615,0,3.006-0.572,4.167-1.734c1.14-1.146,1.698-2.516,1.698-4.148
	v-13.228C160.525-129.564,159.967-130.932,158.827-132.092z"/>
<text transform="matrix(0.9103 0 0 1 86.792 -114.1909)" fill="#EDEDED" font-family="'Bahnschrift'" font-size="19.5648">3er PISO</text>
<text transform="matrix(0.9103 0 0 1 86.792 -114.1909)" fill="#EDEDED" font-family="'Bahnschrift'" font-size="19.5648">3er PISO</text>
<text transform="matrix(0.9103 0 0 1 162.3354 -114.1909)" fill="#E8E8E8" font-family="'Bahnschrift'" font-size="19.5648"> 2do PISO   1er PISO </text>
<path fill="#79CDD1" d="M255.237-179.967c-1.162-1.142-2.553-1.723-4.166-1.723h-35.703h-1.197H192.14
	c-1.641,0-3.026,0.582-4.166,1.723c-1.143,1.159-1.725,2.528-1.725,4.168v13.228c0,1.64,0.582,3.008,1.725,4.147
	c1.142,1.153,2.527,1.735,4.166,1.735h22.031h1.197h35.703c1.615,0,3.006-0.573,4.166-1.735c1.141-1.146,1.699-2.516,1.699-4.147
	v-13.228C256.937-177.44,256.376-178.808,255.237-179.967z"/>
<path fill="#63A5A5" d="M198.745-179.967c-1.162-1.142-2.551-1.723-4.166-1.723h-22.031h-1.199h-22.03
	c-1.641,0-3.027,0.582-4.168,1.723c-1.141,1.159-1.723,2.528-1.723,4.168v13.228c0,1.64,0.582,3.008,1.723,4.147
	c1.141,1.153,2.529,1.735,4.167,1.735h22.031h1.199h22.029c1.617,0,3.006-0.573,4.168-1.735c1.141-1.146,1.699-2.516,1.699-4.147
	v-13.228C200.444-177.44,199.886-178.808,198.745-179.967z"/>
</svg>
