<?xml version="1.0" encoding="utf-8"?>
<!-- Generator: Adobe Illustrator 16.0.2, SVG Export Plug-In . SVG Version: 6.00 Build 0)  -->
<!DOCTYPE svg PUBLIC "-//W3C//DTD SVG 1.1//EN" "http://www.w3.org/Graphics/SVG/1.1/DTD/svg11.dtd">
<svg version="1.1"
	 id="svg815" xmlns:sodipodi="http://sodipodi.sourceforge.net/DTD/sodipodi-0.dtd" xmlns:inkscape="http://www.inkscape.org/namespaces/inkscape" xmlns:dc="http://purl.org/dc/elements/1.1/" xmlns:svg="http://www.w3.org/2000/svg" xmlns:rdf="http://www.w3.org/1999/02/22-rdf-syntax-ns#" xmlns:cc="http://creativecommons.org/ns#" inkscape:version="0.92.3 (2405546, 2018-03-11)" sodipodi:docname="body_modo.svg"
	 xmlns="http://www.w3.org/2000/svg" xmlns:xlink="http://www.w3.org/1999/xlink" x="0px" y="0px" width="400px" height="38.75px"
	 viewBox="0 0 400 38.75" enable-background="new 0 0 400 38.75" xml:space="preserve">
<g id="g13773" transform="matrix(0.5,0,0,0.5,15.438368,-114.61954)">
	<path id="path13771" inkscape:connector-curvature="0" fill="#FF3300" d="M351.519-107.536v-19.9c0-1.225,0.226-2.375,0.676-3.475
		c0.449-1.05,1.104-2,1.925-2.822c1.728-1.728,3.803-2.574,6.274-2.574H464.52c1.199,0,2.324,0.226,3.451,0.699
		c1.047,0.426,1.998,1.072,2.824,1.875c1.727,1.75,2.572,3.822,2.572,6.297v19.9c0,1.225-0.225,2.375-0.697,3.475
		c-0.449,1.051-1.074,2-1.875,2.801c-0.826,0.824-1.777,1.48-2.824,1.898c-1.127,0.477-2.252,0.701-3.451,0.701H360.394
		c-1.225,0-2.35-0.225-3.475-0.701c-1.053-0.424-2-1.074-2.803-1.898c-0.822-0.801-1.476-1.75-1.925-2.801
		C351.744-105.161,351.519-106.312,351.519-107.536z"/>
</g>
<g id="g13777" transform="matrix(0.5,0,0,0.5,20.595592,12.842386)">
	
		<path id="path13775" sodipodi:nodetypes="ccccssscscscsscsscscsssccsc" inkscape:connector-curvature="0" fill="#FF3300" stroke="#999999" stroke-width="0.5" stroke-linecap="round" stroke-linejoin="round" stroke-miterlimit="10" d="
		M191.782-413.536c0,1.227,0.226,2.375,0.676,3.477c0.449,1.051,1.104,2,1.925,2.801c0.803,0.824,1.75,1.473,2.802,1.896
		c1.125,0.479,2.25,0.701,3.476,0.701h264.121c0.602,0,1.184-0.057,1.754-0.172c0.572-0.115,1.137-0.291,1.699-0.529
		c0.52-0.211,1.02-0.479,1.496-0.799c0.471-0.316,0.914-0.688,1.328-1.1c0.396-0.4,0.756-0.838,1.066-1.307
		c0.313-0.469,0.58-0.969,0.809-1.494c0.234-0.551,0.414-1.113,0.525-1.691c0.115-0.578,0.768-1.635,0.172-1.783v-9.951v-9.947
		c0-1.238-0.213-2.375-0.643-3.422c-0.428-1.047-1.072-2.004-1.934-2.879c-0.412-0.398-0.855-0.762-1.328-1.078
		c-0.475-0.316-0.975-0.586-1.496-0.797c-0.563-0.238-1.125-0.414-1.697-0.527c-0.572-0.117-1.154-0.172-1.752-0.172H200.655
		c-2.475,0-4.55,0.852-6.274,2.574c-0.822,0.824-1.476,1.773-1.925,2.824c-0.45,1.102-0.676,2.25-0.676,3.477L191.782-413.536"/>
</g>
<sodipodi:namedview  id="namedview817" inkscape:window-maximized="1" inkscape:pagecheckerboard="0" fit-margin-bottom="0" inkscape:snap-page="false" fit-margin-right="0" inkscape:window-width="1920" inkscape:pageshadow="2" inkscape:showpageshadow="2" inkscape:pageopacity="0" inkscape:deskcolor="#d1d1d1" inkscape:window-x="-8" inkscape:window-y="-8" inkscape:window-height="1057" inkscape:current-layer="svg815" showguides="true" pagecolor="#ffffff" fit-margin-left="0" borderopacity="1" gridtolerance="10" showgrid="false" inkscape:cy="-21.77035" guidetolerance="10" inkscape:cx="353.76021" fit-margin-top="0" objecttolerance="10" bordercolor="#666666" inkscape:zoom="0.5870375">
	</sodipodi:namedview>
<g id="g12504_1_" transform="translate(0,-8)">
	<g id="g12502_1_">
		<path id="path12500_1_" inkscape:connector-curvature="0" fill="#CCCCCC" d="M187.01-64.986c0,1.226,0.227,2.375,0.676,3.476
			c0.448,1.049,1.101,2,1.925,2.799c0.799,0.826,1.75,1.479,2.799,1.9c1.125,0.475,2.251,0.7,3.477,0.7h104.124
			c1.201,0,2.326-0.226,3.451-0.7c1.049-0.425,2-1.074,2.824-1.9c0.801-0.799,1.426-1.75,1.875-2.799
			c0.477-1.102,0.7-2.25,0.7-3.476v-19.9c0-2.475-0.853-4.549-2.575-6.3c-0.824-0.8-1.775-1.45-2.824-1.875
			c-1.125-0.475-2.25-0.7-3.449-0.7H195.886c-2.476,0-4.551,0.851-6.274,2.575c-0.824,0.825-1.476,1.775-1.925,2.825
			c-0.449,1.1-0.676,2.25-0.676,3.475L187.01-64.986"/>
	</g>
</g>
<g id="g13414_1_" transform="translate(-234.65043,-8.373761)">
	<g id="g13408_1_">
		<path id="path13406_1_" inkscape:connector-curvature="0" fill="none" d="M383.586-66.962c0,1.976,0.7,3.625,2.076,5
			c1.375,1.399,3.049,2.101,5.024,2.101h15.95c1.948,0,3.624-0.699,5.024-2.101c1.374-1.375,2.049-3.024,2.049-5v-15.949
			c0-1.976-0.675-3.626-2.049-5.025c-1.4-1.375-3.076-2.076-5.024-2.076h-15.95c-1.977,0-3.649,0.701-5.024,2.076
			c-1.376,1.399-2.076,3.049-2.076,5.025V-66.962"/>
	</g>
	<g id="g13412_1_">
		<path id="path13410_1_" sodipodi:nodetypes="sscsscsscsscs" inkscape:connector-curvature="0" fill="#F2F2F2" d="M383.586-66.962
			v-15.949c0-1.976,0.7-3.626,2.076-5.025c1.375-1.375,3.049-2.076,5.024-2.076h215.95c1.94,0,3.624,0.701,5.021,2.076
			c1.374,1.399,2.049,3.049,2.049,5.025v15.949c0,1.976-0.675,3.625-2.049,5c-1.396,1.399-3.076,2.101-5.021,2.101h-215.95
			c-1.977,0-3.649-0.699-5.024-2.101C384.286-63.337,383.586-64.986,383.586-66.962L383.586-66.962z"/>
	</g>
</g>
<path fill="#7F7E82" d="M177.661-95.814H155.63"/>
<path fill="#B7B7B7" d="M370.729-94.092c-1.162-1.141-2.553-1.722-4.167-1.722H330.86h-1.199H307.63
	c-1.639,0-3.023,0.582-4.166,1.722c-1.142,1.16-1.723,2.529-1.723,4.167v13.228c0,1.64,0.581,3.008,1.723,4.147
	c1.144,1.153,2.528,1.735,4.166,1.735h22.031h1.199h35.702c1.616,0,3.006-0.573,4.167-1.735c1.14-1.146,1.699-2.516,1.699-4.147
	v-13.228C372.429-91.564,371.869-92.932,370.729-94.092z"/>
<path fill="#63A5A5" d="M294.729-94.092c-1.162-1.141-2.553-1.722-4.167-1.722H254.86h-1.199H231.63
	c-1.639,0-3.023,0.582-4.166,1.722c-1.142,1.16-1.723,2.529-1.723,4.167v13.228c0,1.64,0.581,3.008,1.723,4.147
	c1.144,1.153,2.528,1.735,4.166,1.735h22.031h1.199h35.702c1.616,0,3.006-0.573,4.167-1.735c1.14-1.146,1.699-2.516,1.699-4.147
	v-13.228C296.429-91.564,295.869-92.932,294.729-94.092z"/>
<path fill="#63A5A5" d="M285.729-94.092c-1.162-1.141-2.553-1.722-4.167-1.722H245.86h-1.199h-22.03
	c-1.64,0-3.026,0.582-4.168,1.722c-1.141,1.16-1.722,2.529-1.722,4.167v13.228c0,1.64,0.581,3.008,1.722,4.147
	c1.142,1.153,2.529,1.735,4.168,1.735h22.03h1.199h35.702c1.616,0,3.006-0.573,4.167-1.735c1.14-1.146,1.699-2.516,1.699-4.147
	v-13.228C287.429-91.564,286.869-92.932,285.729-94.092z"/>
<text transform="matrix(0.9103 0 0 1 138.6943 -76.1909)" fill="#EDEDED" font-family="'Bahnschrift'" font-size="19.5648">3er PISO</text>
<path fill="#B7B7B7" d="M203.729-94.092c-1.162-1.141-2.552-1.722-3.167-1.722H164.86h-2.199H140.63
	c-1.639,0-3.027,0.582-4.167,1.722c-1.141,1.16-1.722,2.529-1.722,4.167v13.228c0,1.64,0.581,3.008,1.722,4.147
	c1.141,1.153,2.529,1.735,4.167,1.735h22.031h1.199h35.702c1.615,0,3.006-0.573,4.167-1.735c1.14-1.146,1.698-2.516,1.698-4.147
	v-13.228C205.428-91.564,204.869-92.932,203.729-94.092z"/>
<path fill="#B7B7B7" d="M210.729-94.092c-1.162-1.141-2.552-1.722-3.167-1.722H171.86h-2.199H147.63
	c-1.639,0-3.027,0.582-4.167,1.722c-1.141,1.16-1.722,2.529-1.722,4.167v13.228c0,1.64,0.581,3.008,1.722,4.147
	c1.141,1.153,2.529,1.735,4.167,1.735h22.031h1.199h35.702c1.615,0,3.006-0.573,4.167-1.735c1.14-1.146,1.698-2.516,1.698-4.147
	v-13.228C212.428-91.564,211.869-92.932,210.729-94.092z"/>
<text transform="matrix(0.9103 0 0 1 138.6943 -76.1909)" fill="#EDEDED" font-family="'Bahnschrift'" font-size="19.5648">3er PISO</text>
<text transform="matrix(0.9103 0 0 1 138.6943 -76.1909)" fill="#EDEDED" font-family="'Bahnschrift'" font-size="19.5648">3er PISO</text>
<text transform="matrix(0.9103 0 0 1 214.2383 -76.1909)" fill="#E8E8E8" font-family="'Bahnschrift'" font-size="19.5648"> 2do PISO   1er PISO </text>
<path fill="#79CDD1" d="M307.14-141.967c-1.162-1.142-2.553-1.723-4.166-1.723h-35.703h-1.197h-22.031
	c-1.641,0-3.026,0.582-4.166,1.723c-1.143,1.159-1.725,2.528-1.725,4.168v13.228c0,1.64,0.582,3.008,1.725,4.147
	c1.142,1.153,2.527,1.735,4.166,1.735h22.031h1.197h35.703c1.615,0,3.006-0.573,4.166-1.735c1.141-1.146,1.699-2.516,1.699-4.147
	v-13.228C308.839-139.44,308.278-140.808,307.14-141.967z"/>
<path fill="#63A5A5" d="M250.647-141.967c-1.162-1.142-2.551-1.723-4.166-1.723H224.45h-1.199h-22.03
	c-1.641,0-3.027,0.582-4.168,1.723c-1.141,1.159-1.723,2.528-1.723,4.168v13.228c0,1.64,0.582,3.008,1.723,4.147
	c1.141,1.153,2.529,1.735,4.167,1.735h22.031h1.199h22.029c1.617,0,3.006-0.573,4.168-1.735c1.141-1.146,1.699-2.516,1.699-4.147
	v-13.228C252.347-139.44,251.788-140.808,250.647-141.967z"/>
<g id="g12504_2_" transform="translate(0,-8)">
	<g id="g12498_1_">
		<path id="path12496_1_" sodipodi:nodetypes="cccssccccccccsscccc" inkscape:connector-curvature="0" fill="#CCCCCC" d="
			M16.735,7.766c-2.476,0-4.551,0.849-6.275,2.574c-0.824,0.825-1.476,1.774-1.926,2.824c-0.45,1.1-0.674,2.251-0.674,3.477v19.898
			c0,1.225,0.224,2.377,0.674,3.477c0.45,1.051,1.101,2,1.926,2.799c0.8,0.826,1.751,1.479,2.801,1.9
			c1.125,0.475,2.249,0.699,3.475,0.699c122.154-0.094,243.698,0,365.625,0c1.191,0,2.316-0.225,3.443-0.699
			c1.058-0.425,1.999-1.074,2.824-1.9c0.801-0.799,1.426-1.75,1.875-2.799c0.479-1.1,0.701-2.252,0.701-3.477V16.641
			c0-2.475-0.85-4.551-2.576-6.301c-0.825-0.8-1.771-1.45-2.824-1.875c-1.127-0.474-2.252-0.699-3.443-0.699
			C260.322,7.901,138.887,7.766,16.735,7.766z"/>
	</g>
	<g id="g12502_2_">
		<path id="path12500_2_" inkscape:connector-curvature="0" fill="#CCCCCC" d="M160.734,36.54c0,1.226,0.227,2.375,0.676,3.476
			c0.448,1.049,1.101,2,1.925,2.799c0.799,0.826,1.75,1.479,2.799,1.9c1.125,0.475,2.251,0.7,3.477,0.7h104.124
			c1.201,0,2.326-0.226,3.451-0.7c1.049-0.425,2-1.074,2.824-1.9c0.801-0.799,1.426-1.75,1.875-2.799
			c0.477-1.102,0.7-2.25,0.7-3.476v-19.9c0-2.475-0.853-4.549-2.575-6.3c-0.824-0.8-1.775-1.45-2.824-1.875
			c-1.125-0.475-2.25-0.7-3.449-0.7H169.61c-2.476,0-4.551,0.851-6.274,2.575c-0.824,0.825-1.476,1.775-1.925,2.825
			c-0.449,1.1-0.676,2.25-0.676,3.475L160.734,36.54"/>
	</g>
</g>
<g id="g12514_1_" transform="translate(0,-8)">
	<g id="g12508_1_">
	</g>
	<g id="g12512_1_">
		<path id="path12510_1_" inkscape:connector-curvature="0" fill="none" d="M53.245,36.54c0,1.226,0.225,2.375,0.675,3.476
			c0.45,1.049,1.101,2,1.925,2.799c0.8,0.826,1.75,1.479,2.799,1.9c1.125,0.475,2.25,0.7,3.477,0.7h104.125
			c1.199,0,2.324-0.226,3.45-0.7c1.05-0.425,1.999-1.074,2.824-1.9c0.801-0.799,1.426-1.75,1.875-2.799
			c0.478-1.102,0.701-2.25,0.701-3.476v-19.9c0-2.475-0.853-4.549-2.576-6.3c-0.825-0.8-1.774-1.45-2.824-1.875
			c-1.126-0.475-2.251-0.7-3.449-0.7H62.12c-2.476,0-4.551,0.851-6.275,2.575c-0.825,0.825-1.475,1.775-1.925,2.825
			c-0.45,1.1-0.675,2.25-0.675,3.475V36.54"/>
	</g>
</g>
<g id="g12524_1_" transform="translate(0,-8)">
	<g id="g12518_1_">
	</g>
	<g id="g12522_1_">
		<path id="path12520_1_" inkscape:connector-curvature="0" fill="none" d="M7.859,36.54c0,1.226,0.226,2.375,0.676,3.476
			c0.449,1.049,1.101,2,1.925,2.799c0.8,0.826,1.75,1.479,2.799,1.9c1.125,0.475,2.25,0.7,3.476,0.7H120.86
			c1.2,0,2.325-0.226,3.451-0.7c1.049-0.425,1.999-1.074,2.824-1.9c0.801-0.799,1.426-1.75,1.875-2.799
			c0.477-1.102,0.701-2.25,0.701-3.476v-19.9c0-2.475-0.854-4.549-2.576-6.3c-0.825-0.8-1.775-1.45-2.824-1.875
			c-1.126-0.475-2.251-0.7-3.45-0.7H16.734c-2.475,0-4.55,0.851-6.274,2.575c-0.825,0.825-1.476,1.775-1.925,2.825
			c-0.45,1.1-0.676,2.25-0.676,3.475V36.54"/>
	</g>
</g>
<g id="g12583_1_" transform="translate(0,-8)">
	<g id="g12577_1_">
	</g>
	<g id="g12581_1_">
		<path id="path12579_1_" inkscape:connector-curvature="0" fill="none" d="M269.359,36.54c0,1.226,0.228,2.375,0.677,3.476
			c0.448,1.049,1.101,2,1.925,2.799c0.8,0.826,1.751,1.479,2.799,1.9c1.127,0.475,2.252,0.7,3.477,0.7H382.36
			c1.191,0,2.316-0.226,3.442-0.7c1.058-0.425,1.999-1.074,2.824-1.9c0.801-0.799,1.426-1.75,1.875-2.799
			c0.479-1.102,0.701-2.25,0.701-3.476v-19.9c0-2.475-0.854-4.549-2.576-6.3c-0.825-0.8-1.771-1.45-2.824-1.875
			c-1.126-0.475-2.251-0.7-3.442-0.7H278.234c-2.479,0-4.551,0.851-6.273,2.575c-0.824,0.825-1.477,1.775-1.925,2.825
			c-0.449,1.1-0.677,2.25-0.677,3.475V36.54"/>
	</g>
</g>
<g id="g12599_1_" transform="translate(0,-8)">
	<g id="g12593_1_">
		
			<path id="path12591_1_" inkscape:connector-curvature="0" fill="none" stroke="#999999" stroke-width="0.4" stroke-linecap="round" stroke-linejoin="round" stroke-miterlimit="10" d="
			M357.31,34.564c0,1.976,0.7,3.625,2.076,5c1.375,1.396,3.049,2.101,5.023,2.101h15.951c1.94,0,3.624-0.7,5.021-2.101
			c1.374-1.375,2.049-3.024,2.049-5V18.615c0-1.976-0.675-3.626-2.049-5.025c-1.396-1.375-3.076-2.076-5.021-2.076h-15.951
			c-1.979,0-3.648,0.701-5.023,2.076c-1.376,1.399-2.076,3.049-2.076,5.025V34.564"/>
	</g>
	<g id="g12597_1_">
		<path id="path12595_1_" inkscape:connector-curvature="0" fill="#F2F2F2" d="M357.31,34.564V18.615c0-1.976,0.7-3.626,2.076-5.025
			c1.375-1.375,3.049-2.076,5.023-2.076h15.951c1.94,0,3.624,0.701,5.021,2.076c1.374,1.399,2.049,3.049,2.049,5.025v15.949
			c0,1.976-0.675,3.625-2.049,5c-1.396,1.396-3.076,2.101-5.021,2.101h-15.951c-1.979,0-3.648-0.7-5.023-2.101
			C358.01,38.189,357.31,36.54,357.31,34.564L357.31,34.564z"/>
	</g>
</g>
<path id="path12639_1_" inkscape:connector-curvature="0" fill="#808080" d="M384.836,17.59c0-0.25-0.051-0.5-0.148-0.725
	c-0.069-0.225-0.228-0.45-0.427-0.65l-9.021-9.05c-0.2-0.149-0.433-0.325-0.649-0.4c-0.226-0.1-0.475-0.15-0.726-0.15
	c-0.25,0-0.479,0.05-0.729,0.15c-0.25,0.075-0.45,0.25-0.625,0.4l-0.698,0.7c-0.177,0.175-0.302,0.4-0.396,0.625
	c-0.104,0.225-0.149,0.476-0.149,0.725c0,0.25,0.058,0.5,0.149,0.725c0.101,0.225,0.226,0.45,0.396,0.65l4.912,4.9h-0.589h-7.051
	h-5.75c-0.275,0-0.525,0.05-0.75,0.15c-0.226,0.075-0.449,0.226-0.601,0.4c-0.184,0.175-0.324,0.375-0.432,0.6
	c-0.101,0.25-0.146,0.5-0.146,0.75v0.976c0,0.274,0.051,0.524,0.146,0.75c0.104,0.225,0.25,0.425,0.432,0.601
	c0.146,0.174,0.375,0.325,0.601,0.426c0.228,0.074,0.478,0.125,0.75,0.125h5.75h7.05h0.425l-4.924,4.924
	c-0.2,0.201-0.325,0.4-0.425,0.651c-0.102,0.226-0.15,0.474-0.15,0.724s0.058,0.479,0.15,0.729c0.1,0.25,0.225,0.45,0.425,0.625
	l0.674,0.675c0.184,0.2,0.376,0.325,0.625,0.428c0.251,0.104,0.479,0.146,0.729,0.146s0.478-0.049,0.727-0.146
	c0.25-0.103,0.45-0.229,0.625-0.428l9.054-9.05c0.196-0.175,0.321-0.397,0.429-0.625c0.06-0.144,0.099-0.28,0.122-0.417
	c0.023-0.061,0.059-0.123,0.075-0.184C384.784,18.09,384.836,17.84,384.836,17.59L384.836,17.59z"/>
<g id="g12597-3_1_">
	<path id="path12595-6_1_" sodipodi:nodetypes="sscsscsscsscs" inkscape:connector-curvature="0" fill="#F2F2F2" d="M12.659,26.189
		V10.241c0-1.976,0.7-3.626,2.076-5.025c1.375-1.375,3.049-2.076,5.024-2.076h215.95c1.948,0,3.624,0.701,5.023,2.076
		c1.375,1.399,2.05,3.049,2.05,5.025v15.948c0,1.977-0.675,3.625-2.05,5c-1.399,1.396-3.075,2.102-5.023,2.102H19.76
		c-1.977,0-3.649-0.699-5.024-2.102C13.36,29.814,12.659,28.166,12.659,26.189L12.659,26.189z"/>
</g>
<g id="g13414_2_" transform="translate(-234.65043,-8.373761)">
	<g id="g13408_2_">
		<path id="path13406_2_" inkscape:connector-curvature="0" fill="none" d="M357.31,34.564c0,1.976,0.7,3.625,2.076,5
			c1.375,1.399,3.049,2.101,5.024,2.101h15.95c1.948,0,3.624-0.699,5.024-2.101c1.374-1.375,2.049-3.024,2.049-5V18.615
			c0-1.976-0.675-3.626-2.049-5.025c-1.4-1.375-3.076-2.076-5.024-2.076h-15.95c-1.977,0-3.649,0.701-5.024,2.076
			c-1.376,1.399-2.076,3.049-2.076,5.025V34.564"/>
	</g>
	<g id="g13412_2_">
		<path id="path13410_2_" sodipodi:nodetypes="sscsscsscsscs" inkscape:connector-curvature="0" fill="#F2F2F2" d="M357.31,34.564
			V18.615c0-1.976,0.7-3.626,2.076-5.025c1.375-1.375,3.049-2.076,5.024-2.076h215.95c1.94,0,3.624,0.701,5.021,2.076
			c1.374,1.399,2.049,3.049,2.049,5.025v15.949c0,1.976-0.675,3.625-2.049,5c-1.396,1.399-3.076,2.101-5.021,2.101H364.41
			c-1.977,0-3.649-0.699-5.024-2.101C358.01,38.189,357.31,36.54,357.31,34.564L357.31,34.564z"/>
	</g>
</g>
<path fill="#7F7E82" d="M151.385,5.712h-22.031"/>
<g>
	<path fill="#CCCCCC" d="M295.301,7.434c-1.162-1.141-2.551-1.722-4.166-1.722h-22.032h-2.199h-22.03
		c-0.64,0-2.027,0.582-3.168,1.722c-1.141,1.16-1.722,2.529-1.722,4.167v13.228c0,1.64,0.581,3.008,1.722,4.147
		c1.141,1.153,2.529,1.735,4.168,1.735h22.03h1.199h22.03c1.617,0,3.006-0.573,4.168-1.735c1.14-1.146,1.699-2.516,1.699-4.147
		V11.601C297,9.962,296.44,8.594,295.301,7.434z"/>
	<path fill="#CCCCCC" d="M345.301,7.434c-1.162-1.141-2.551-1.722-3.166-1.722h-22.032h-3.199h-21.03
		c-1.64,0-3.027,0.582-4.168,1.722c-1.141,1.16-1.722,2.529-1.722,4.167v13.228c0,1.64,0.581,3.008,1.722,4.147
		c1.141,1.153,2.529,1.735,4.168,1.735h22.03h1.199h22.03c1.617,0,3.006-0.573,4.168-1.735c1.14-1.146,1.699-2.516,1.699-4.147
		V11.601C347,9.962,346.44,8.594,345.301,7.434z"/>
	<g enable-background="new    ">
		<text transform="matrix(0.9103 0 0 1 245.5586 25.334)" fill="#DEDEE0" font-family="'Bahnschrift'" font-size="19.5648">MEZZANINA</text>
	</g>
</g>
<g>
	<path fill="#CCCCCC" d="M86.453,7.434c-1.162-1.141-2.553-1.722-4.167-1.722H46.584h-1.199H23.354
		c-1.639,0-3.022,0.582-4.166,1.722c-1.142,1.16-1.723,2.529-1.723,4.167v13.228c0,1.64,0.581,3.008,1.723,4.147
		c1.145,1.153,2.528,1.735,4.166,1.735h22.031h1.199h35.702c1.616,0,3.006-0.573,4.167-1.735c1.14-1.146,1.699-2.516,1.699-4.147
		V11.601C88.152,9.962,87.593,8.594,86.453,7.434z"/>
	<path fill="#CCCCCC" d="M100.453,7.434c-1.162-1.141-2.553-1.722-4.167-1.722H60.584h-1.199H37.354
		c-1.639,0-3.022,0.582-4.166,1.722c-1.142,1.16-1.723,2.529-1.723,4.167v13.228c0,1.64,0.581,3.008,1.723,4.147
		c1.145,1.153,2.528,1.735,4.166,1.735h22.031h1.199h35.702c1.616,0,3.006-0.573,4.167-1.735c1.14-1.146,1.699-2.516,1.699-4.147
		V11.601C102.152,9.962,101.593,8.594,100.453,7.434z"/>
	<text transform="matrix(0.9103 0 0 1 23.9614 25.3349)" fill="#DEDEE0" font-family="'Bahnschrift'" font-size="19.5648"> DUPLEX </text>
</g>
<g>
	<path fill="#63A5A5" d="M177.453,7.434c-1.162-1.141-2.552-1.722-4.167-1.722h-35.702h-1.199h-22.031
		c-1.639,0-3.027,0.582-4.167,1.722c-1.141,1.16-1.722,2.529-1.722,4.167v13.228c0,1.64,0.581,3.008,1.722,4.147
		c1.141,1.153,2.529,1.735,4.167,1.735h22.031h1.199h35.702c1.616,0,3.006-0.573,4.167-1.735c1.14-1.146,1.699-2.516,1.699-4.147
		V11.601C179.152,9.962,178.593,8.594,177.453,7.434z"/>
	<path fill="#63A5A5" d="M231.453,7.434c-1.162-1.141-2.553-1.722-4.167-1.722h-35.702h-1.199h-22.031
		c-1.639,0-3.026,0.582-4.166,1.722c-1.142,1.16-1.723,2.529-1.723,4.167v13.228c0,1.64,0.581,3.008,1.723,4.147
		c1.141,1.153,2.528,1.735,4.166,1.735h22.031h1.199h35.702c1.616,0,3.006-0.573,4.167-1.735c1.14-1.146,1.699-2.516,1.699-4.147
		V11.601C233.152,9.962,232.593,8.594,231.453,7.434z"/>
	<text transform="matrix(0.9103 0 0 1 100.418 25.3349)" fill="#79CDD1" font-family="'Bahnschrift'" font-size="19.5648">   PLANTA BAJA</text>
</g>
<g>
	<path fill="#CCCCCC" d="M164.366-141.968c-1.162-1.141-2.553-1.722-4.167-1.722h-35.702h-1.199h-22.031
		c-1.639,0-3.022,0.582-4.166,1.722c-1.142,1.16-1.723,2.529-1.723,4.168v13.228c0,1.64,0.581,3.008,1.723,4.147
		c1.145,1.153,2.528,1.735,4.166,1.735h22.031h1.199h35.702c1.616,0,3.006-0.573,4.167-1.735c1.14-1.146,1.699-2.516,1.699-4.147
		V-137.8C166.065-139.439,165.505-140.808,164.366-141.968z"/>
	<path fill="#CCCCCC" d="M178.366-141.968c-1.162-1.141-2.553-1.722-4.167-1.722h-35.702h-1.199h-22.031
		c-1.639,0-3.022,0.582-4.166,1.722c-1.142,1.16-1.723,2.529-1.723,4.168v13.228c0,1.64,0.581,3.008,1.723,4.147
		c1.145,1.153,2.528,1.735,4.166,1.735h22.031h1.199h35.702c1.616,0,3.006-0.573,4.167-1.735c1.14-1.146,1.699-2.516,1.699-4.147
		V-137.8C180.065-139.439,179.505-140.808,178.366-141.968z"/>
	<text transform="matrix(0.9103 0 0 1 101.874 -124.0664)" fill="#DEDEE0" font-family="'Bahnschrift'" font-size="19.5648"> DUPLEX </text>
</g>
</svg>
