<?xml version="1.0" encoding="UTF-8" standalone="no"?>
<!-- Generator: Adobe Illustrator 16.0.2, SVG Export Plug-In . SVG Version: 6.00 Build 0)  -->

<svg
   xmlns:dc="http://purl.org/dc/elements/1.1/"
   xmlns:cc="http://creativecommons.org/ns#"
   xmlns:rdf="http://www.w3.org/1999/02/22-rdf-syntax-ns#"
   xmlns:svg="http://www.w3.org/2000/svg"
   xmlns="http://www.w3.org/2000/svg"
   xmlns:sodipodi="http://sodipodi.sourceforge.net/DTD/sodipodi-0.dtd"
   xmlns:inkscape="http://www.inkscape.org/namespaces/inkscape"
   version="1.1"
   id="svg815"
   sodipodi:docname="body_nivel.svg"
   inkscape:version="0.92.3 (2405546, 2018-03-11)"
   x="0px"
   y="0px"
   width="400px"
   height="54.75px"
   viewBox="0 0 400 54.75"
   enable-background="new 0 0 400 54.75"
   xml:space="preserve"><metadata
   id="metadata14037"><rdf:RDF><cc:Work
       rdf:about=""><dc:format>image/svg+xml</dc:format><dc:type
         rdf:resource="http://purl.org/dc/dcmitype/StillImage" /></cc:Work></rdf:RDF></metadata><defs
   id="defs14035">
	
	
</defs>
<g
   id="g13759"
   transform="translate(-56.003036,-233.66784)">
	<g
   id="g13753">
		<path
   d="m 160.734,37.54 v -19.9 c 0,-1.225 0.226,-2.375 0.675,-3.475 0.449,-1.05 1.101,-2 1.925,-2.825 1.725,-1.725 3.8,-2.575 6.275,-2.575 h 104.125 c 1.199,0 2.325,0.226 3.449,0.7 1.05,0.425 2,1.075 2.825,1.875 1.726,1.75 2.575,3.825 2.575,6.3 v 19.9 c 0,1.225 -0.225,2.375 -0.7,3.475 -0.449,1.049 -1.074,2 -1.875,2.8 -0.825,0.825 -1.775,1.475 -2.825,1.9 -1.124,0.475 -2.25,0.7 -3.449,0.7 H 169.61 c -1.226,0 -2.351,-0.226 -3.476,-0.7 -1.05,-0.425 -2,-1.075 -2.799,-1.9 -0.825,-0.8 -1.476,-1.75 -1.926,-2.8 -0.449,-1.1 -0.675,-2.25 -0.675,-3.475 z"
   id="path13751"
   inkscape:connector-curvature="0"
   style="fill:#ff3300" />
	</g>
	<g
   id="g13757">
		
			<path
   stroke-miterlimit="10"
   d="m 160.734,37.54 c 0,1.225 0.226,2.375 0.675,3.475 0.449,1.049 1.101,2 1.925,2.8 0.799,0.825 1.75,1.475 2.799,1.9 1.125,0.475 2.251,0.7 3.477,0.7 h 104.123 c 1.201,0 2.326,-0.226 3.451,-0.7 1.05,-0.425 2,-1.075 2.825,-1.9 0.801,-0.8 1.426,-1.75 1.875,-2.8 0.476,-1.101 0.7,-2.25 0.7,-3.475 v -19.9 c 0,-2.475 -0.851,-4.549 -2.575,-6.3 -0.825,-0.8 -1.775,-1.45 -2.825,-1.875 -1.124,-0.475 -2.25,-0.7 -3.449,-0.7 H 169.61 c -2.476,0 -4.551,0.851 -6.275,2.575 -0.824,0.825 -1.475,1.775 -1.925,2.825 -0.449,1.1 -0.675,2.25 -0.675,3.475 v 19.9"
   id="path13755"
   inkscape:connector-curvature="0"
   style="fill:none;stroke:#999999;stroke-width:0.5;stroke-linecap:round;stroke-linejoin:round;stroke-miterlimit:10" />
	</g>
</g>
<g
   id="g13769"
   transform="translate(-56.003036,-233.66784)">
	<g
   id="g13763">
		<path
   d="m 53.245,37.54 v -19.9 c 0,-1.225 0.225,-2.375 0.675,-3.475 0.45,-1.05 1.101,-2 1.925,-2.825 1.725,-1.725 3.8,-2.575 6.275,-2.575 h 104.126 c 1.199,0 2.324,0.226 3.45,0.7 1.049,0.425 1.999,1.075 2.824,1.875 1.727,1.75 2.576,3.825 2.576,6.3 v 19.9 c 0,1.225 -0.225,2.375 -0.701,3.475 -0.449,1.049 -1.074,2 -1.875,2.8 -0.825,0.825 -1.775,1.475 -2.824,1.9 -1.126,0.475 -2.251,0.7 -3.45,0.7 H 62.12 c -1.225,0 -2.35,-0.226 -3.475,-0.7 -1.05,-0.425 -2,-1.075 -2.8,-1.9 -0.825,-0.8 -1.475,-1.75 -1.925,-2.8 -0.45,-1.1 -0.675,-2.25 -0.675,-3.475 z"
   id="path13761"
   inkscape:connector-curvature="0"
   style="fill:#ff3300" />
	</g>
	<g
   id="g13767">
		
			<path
   stroke-miterlimit="10"
   d="m 53.245,37.54 c 0,1.225 0.225,2.375 0.675,3.475 0.45,1.049 1.101,2 1.925,2.8 0.8,0.825 1.75,1.475 2.799,1.9 1.125,0.475 2.25,0.7 3.476,0.7 h 104.125 c 1.2,0 2.325,-0.226 3.451,-0.7 1.049,-0.425 1.999,-1.075 2.824,-1.9 0.801,-0.8 1.426,-1.75 1.875,-2.8 0.477,-1.101 0.701,-2.25 0.701,-3.475 v -19.9 c 0,-2.475 -0.853,-4.549 -2.576,-6.3 -0.825,-0.8 -1.775,-1.45 -2.824,-1.875 -1.126,-0.475 -2.251,-0.7 -3.45,-0.7 H 62.12 c -2.475,0 -4.55,0.851 -6.275,2.575 -0.825,0.825 -1.475,1.775 -1.925,2.825 -0.45,1.1 -0.675,2.25 -0.675,3.475 v 19.9"
   id="path13765"
   inkscape:connector-curvature="0"
   style="fill:none;stroke:#999999;stroke-width:0.5;stroke-linecap:round;stroke-linejoin:round;stroke-miterlimit:10" />
	</g>
</g>
<g
   id="g13773"
   transform="matrix(0.5,0,0,0.5,15.438368,-114.61954)">
		<path
   style="fill:#ff3300"
   inkscape:connector-curvature="0"
   id="path13771"
   d="m 7.859,37.54 v -19.9 c 0,-1.225 0.225,-2.375 0.675,-3.475 0.45,-1.05 1.101,-2 1.925,-2.825 1.725,-1.725 3.8,-2.575 6.275,-2.575 H 120.86 c 1.199,0 2.324,0.226 3.45,0.7 1.049,0.425 1.999,1.075 2.824,1.875 1.727,1.75 2.576,3.825 2.576,6.3 v 19.9 c 0,1.225 -0.225,2.375 -0.701,3.475 -0.449,1.049 -1.074,2 -1.875,2.8 -0.825,0.825 -1.775,1.475 -2.824,1.9 -1.126,0.475 -2.251,0.7 -3.45,0.7 H 16.734 c -1.225,0 -2.35,-0.226 -3.475,-0.7 -1.05,-0.425 -2,-1.075 -2.8,-1.9 -0.825,-0.8 -1.475,-1.75 -1.925,-2.8 -0.45,-1.1 -0.675,-2.25 -0.675,-3.475 z" />
	</g>
<sodipodi:namedview
   id="namedview817"
   gridtolerance="10"
   showgrid="false"
   inkscape:zoom="2.3752225"
   guidetolerance="10"
   inkscape:cx="194.07949"
   inkscape:cy="115.7077"
   pagecolor="#ffffff"
   bordercolor="#666666"
   borderopacity="1"
   objecttolerance="10"
   inkscape:pagecheckerboard="0"
   inkscape:window-maximized="1"
   inkscape:current-layer="svg815"
   inkscape:window-height="1057"
   inkscape:window-y="-8"
   inkscape:window-x="-8"
   inkscape:deskcolor="#d1d1d1"
   inkscape:pageopacity="0"
   inkscape:showpageshadow="2"
   inkscape:pageshadow="2"
   inkscape:window-width="1920"
   fit-margin-left="0"
   fit-margin-top="0"
   showguides="true"
   fit-margin-right="0"
   inkscape:snap-page="false"
   fit-margin-bottom="0">
	</sodipodi:namedview>
<text
   transform="matrix(0.9981 0 0 1 20.7368 476.1016)"
   fill="#21AD97"
   font-family="'MicrosoftJhengHeiRegular'"
   font-size="29.175"
   id="text13782">Isometric | Social Media</text>

<text
   transform="matrix(0.9103 0 0 1 -6.2764 594.2744)"
   fill="#008000"
   font-family="'Bahnschrift'"
   font-size="92.8438"
   id="text13784">PRINCIPAL</text>

<text
   transform="matrix(0.9103 0 0 1 14.7236 214.2744)"
   fill="#008000"
   font-family="'Bahnschrift'"
   font-size="92.8438"
   id="text13786">PRINCIPAL</text>

<text
   transform="matrix(0.9981 0 0 1 80.4473 658.248)"
   fill="#999999"
   font-family="'MicrosoftJhengHeiRegular'"
   font-size="54.2292"
   id="text13788">I</text>

<text
   transform="matrix(0.9981 0 0 1 93.8994 658.248)"
   fill="#999999"
   font-family="'MicrosoftJhengHeiRegular'"
   font-size="54.2292"
   id="text13790">s</text>

<text
   transform="matrix(0.9981 0 0 1 116.6445 658.248)"
   fill="#999999"
   font-family="'MicrosoftJhengHeiRegular'"
   font-size="54.2292"
   id="text13792">o</text>

<text
   transform="matrix(0.9981 0 0 1 149.438 658.248)"
   fill="#999999"
   font-family="'MicrosoftJhengHeiRegular'"
   font-size="54.2292"
   id="text13794">m</text>

<text
   transform="matrix(0.9981 0 0 1 197.521 658.248)"
   fill="#999999"
   font-family="'MicrosoftJhengHeiRegular'"
   font-size="54.2292"
   id="text13796">e</text>

<text
   transform="matrix(0.9981 0 0 1 227.0186 658.248)"
   fill="#999999"
   font-family="'MicrosoftJhengHeiRegular'"
   font-size="54.2292"
   id="text13798">t</text>

<text
   transform="matrix(0.9981 0 0 1 244.4697 658.248)"
   fill="#999999"
   font-family="'MicrosoftJhengHeiRegular'"
   font-size="54.2292"
   id="text13800">r</text>

<text
   transform="matrix(0.9981 0 0 1 263.7568 658.248)"
   fill="#999999"
   font-family="'MicrosoftJhengHeiRegular'"
   font-size="54.2292"
   id="text13802">i</text>

<text
   transform="matrix(0.9981 0 0 1 275.8584 658.248)"
   fill="#999999"
   font-family="'MicrosoftJhengHeiRegular'"
   font-size="54.2292"
   id="text13804">c</text>

<text
   transform="matrix(0.9981 0 0 1 36.665 712.4775)"
   fill="#999999"
   font-family="'MicrosoftJhengHeiRegular'"
   font-size="54.2292"
   id="text13806">S</text>

<text
   transform="matrix(0.9981 0 0 1 65.7847 712.4775)"
   fill="#999999"
   font-family="'MicrosoftJhengHeiRegular'"
   font-size="54.2292"
   id="text13808">o</text>

<text
   transform="matrix(0.9981 0 0 1 98.5786 712.4775)"
   fill="#999999"
   font-family="'MicrosoftJhengHeiRegular'"
   font-size="54.2292"
   id="text13810">c</text>

<text
   transform="matrix(0.9981 0 0 1 124.5107 712.4775)"
   fill="#999999"
   font-family="'MicrosoftJhengHeiRegular'"
   font-size="54.2292"
   id="text13812">i</text>

<text
   transform="matrix(0.9981 0 0 1 136.6128 712.4775)"
   fill="#999999"
   font-family="'MicrosoftJhengHeiRegular'"
   font-size="54.2292"
   id="text13814">a</text>

<text
   transform="matrix(0.9981 0 0 1 165.4624 712.4775)"
   fill="#999999"
   font-family="'MicrosoftJhengHeiRegular'"
   font-size="54.2292"
   id="text13816">l</text>

<text
   transform="matrix(0.9981 0 0 1 177.5645 712.4775)"
   fill="#999999"
   font-family="'MicrosoftJhengHeiRegular'"
   font-size="54.2292"
   id="text13818"> </text>

<text
   transform="matrix(0.9981 0 0 1 193.5562 712.4775)"
   fill="#999999"
   font-family="'MicrosoftJhengHeiRegular'"
   font-size="54.2292"
   id="text13820">M</text>

<text
   transform="matrix(0.9981 0 0 1 242.3418 712.4775)"
   fill="#999999"
   font-family="'MicrosoftJhengHeiRegular'"
   font-size="54.2292"
   id="text13822">e</text>

<text
   transform="matrix(0.9981 0 0 1 271.8389 712.4775)"
   fill="#999999"
   font-family="'MicrosoftJhengHeiRegular'"
   font-size="54.2292"
   id="text13824">d</text>

<text
   transform="matrix(0.9981 0 0 1 304.5791 712.4775)"
   fill="#999999"
   font-family="'MicrosoftJhengHeiRegular'"
   font-size="54.2292"
   id="text13826">i</text>

<text
   transform="matrix(0.9981 0 0 1 316.6807 712.4775)"
   fill="#999999"
   font-family="'MicrosoftJhengHeiRegular'"
   font-size="54.2292"
   id="text13828">a</text>

<g
   id="g13838"
   transform="translate(-56.003036,-233.66784)">
	<g
   id="g13832">
		<path
   d="m 269.36,37.54 v -19.9 c 0,-1.225 0.226,-2.375 0.675,-3.475 0.449,-1.05 1.101,-2 1.925,-2.825 1.725,-1.725 3.801,-2.575 6.274,-2.575 H 382.36 c 1.2,0 2.324,0.226 3.45,0.7 1.05,0.425 1.999,1.075 2.824,1.875 1.727,1.75 2.576,3.825 2.576,6.3 v 19.9 c 0,1.225 -0.225,2.375 -0.701,3.475 -0.449,1.049 -1.074,2 -1.875,2.8 -0.825,0.825 -1.774,1.475 -2.824,1.9 -1.126,0.475 -2.25,0.7 -3.45,0.7 H 278.234 c -1.224,0 -2.35,-0.226 -3.474,-0.7 -1.05,-0.425 -2.001,-1.075 -2.799,-1.9 -0.826,-0.8 -1.477,-1.75 -1.927,-2.8 -0.448,-1.1 -0.674,-2.25 -0.674,-3.475 z"
   id="path13830"
   inkscape:connector-curvature="0"
   style="fill:#ff3300" />
	</g>
	<g
   id="g13836">
		
			<path
   stroke-miterlimit="10"
   d="m 269.36,37.54 c 0,1.225 0.226,2.375 0.675,3.475 0.449,1.049 1.101,2 1.925,2.8 0.8,0.825 1.751,1.475 2.799,1.9 1.126,0.475 2.252,0.7 3.476,0.7 H 382.36 c 1.199,0 2.324,-0.226 3.45,-0.7 1.05,-0.425 1.999,-1.075 2.824,-1.9 0.801,-0.8 1.426,-1.75 1.875,-2.8 0.477,-1.101 0.701,-2.25 0.701,-3.475 v -19.9 c 0,-2.475 -0.851,-4.549 -2.576,-6.3 -0.825,-0.8 -1.774,-1.45 -2.824,-1.875 -1.126,-0.475 -2.251,-0.7 -3.45,-0.7 H 278.234 c -2.474,0 -4.55,0.851 -6.274,2.575 -0.824,0.825 -1.475,1.775 -1.925,2.825 -0.449,1.1 -0.675,2.25 -0.675,3.475 v 19.9"
   id="path13834"
   inkscape:connector-curvature="0"
   style="fill:none;stroke:#999999;stroke-width:0.5;stroke-linecap:round;stroke-linejoin:round;stroke-miterlimit:10" />
	</g>
</g>
<path
   d="m 267.08296,-213.32784 v -1.75 h -6.102 v 14.2 h 6.102 v -1.775 h -4.251 v -4.401 h 3.75 v -1.774 h -3.75 v -4.5 h 4.251 z"
   id="path13840"
   inkscape:connector-curvature="0"
   style="fill:#ffffff" />
<path
   d="m 291.80696,-215.07784 h -6.074 v 14.2 h 6.074 v -1.775 h -4.224 v -4.401 h 3.75 v -1.774 h -3.75 v -4.5 h 4.224 z"
   id="path13842"
   inkscape:connector-curvature="0"
   style="fill:#ffffff" />
<path
   d="m 284.28196,-213.32784 v -1.75 h -6.899 v 1.75 h 2.524 v 12.45 h 1.851 v -12.45 z"
   id="path13844"
   inkscape:connector-curvature="0"
   style="fill:#ffffff" />
<g
   id="g13854"
   transform="translate(-56.003036,-233.66784)">
	<g
   id="g13848">
		
			<path
   stroke-miterlimit="10"
   d="m 357.31,35.564 c 0,1.976 0.7,3.625 2.076,5 1.375,1.4 3.049,2.101 5.024,2.101 h 15.951 c 1.948,0 3.624,-0.7 5.024,-2.101 1.374,-1.375 2.049,-3.024 2.049,-5 V 19.615 c 0,-1.976 -0.675,-3.626 -2.049,-5.025 -1.4,-1.375 -3.076,-2.076 -5.024,-2.076 H 364.41 c -1.976,0 -3.649,0.701 -5.024,2.076 -1.376,1.399 -2.076,3.049 -2.076,5.025 v 15.949"
   id="path13846"
   inkscape:connector-curvature="0"
   style="fill:none;stroke:#999999;stroke-width:0.40000001;stroke-linecap:round;stroke-linejoin:round;stroke-miterlimit:10" />
	</g>
	<g
   id="g13852">
		<path
   d="M 357.31,35.564 V 19.615 c 0,-1.976 0.7,-3.626 2.076,-5.025 1.375,-1.375 3.049,-2.076 5.024,-2.076 h 15.951 c 1.948,0 3.624,0.701 5.024,2.076 1.374,1.399 2.049,3.049 2.049,5.025 v 15.949 c 0,1.976 -0.675,3.625 -2.049,5 -1.4,1.4 -3.076,2.101 -5.024,2.101 H 364.41 c -1.976,0 -3.649,-0.7 -5.024,-2.101 -1.376,-1.375 -2.076,-3.024 -2.076,-5 z"
   id="path13850"
   inkscape:connector-curvature="0"
   style="fill:#f2f2f2" />
	</g>
</g>
<g
   id="g13892"
   transform="translate(-56.003036,-233.66784)">
	<g
   id="g13860">
		<g
   id="g13858">
			<path
   d="m 284.16,24.14 1.301,0.625 c 0.024,0 0.073,0.024 0.073,0.049 l 0.127,0.025 c 0.55,0.25 0.999,0.5 1.35,0.75 0.35,0.199 0.625,0.55 0.899,1 0.225,0.424 0.351,1 0.351,1.7 v 1.3 c 0,0.7 -0.15,1.3 -0.399,1.825 -0.252,0.5 -0.651,0.875 -1.15,1.125 -0.5,0.25 -1.125,0.375 -1.851,0.375 -0.749,0 -1.374,-0.125 -1.899,-0.375 -0.524,-0.25 -0.9,-0.625 -1.177,-1.125 -0.249,-0.525 -0.398,-1.125 -0.398,-1.825 v -0.7 h 1.875 v 0.625 c 0,0.5 0.125,0.9 0.398,1.2 0.276,0.275 0.677,0.425 1.201,0.425 0.501,0 0.874,-0.149 1.126,-0.425 0.273,-0.3 0.425,-0.675 0.425,-1.2 v -1.25 c 0,-0.325 -0.101,-0.625 -0.252,-0.875 -0.199,-0.225 -0.425,-0.425 -0.649,-0.575 -0.3,-0.174 -0.649,-0.35 -1.05,-0.55 -0.024,0 -0.024,0 -0.049,0 h -0.026 l -0.125,-0.075 c -0.649,-0.3 -1.149,-0.55 -1.475,-0.799 -0.376,-0.25 -0.7,-0.625 -1.001,-1.101 -0.249,-0.45 -0.373,-1.025 -0.373,-1.75 v -0.825 c 0,-0.7 0.124,-1.3 0.373,-1.775 0.252,-0.475 0.652,-0.85 1.177,-1.125 0.525,-0.25 1.15,-0.375 1.875,-0.375 0.726,0 1.323,0.125 1.824,0.4 0.5,0.225 0.876,0.6 1.125,1.125 0.249,0.475 0.376,1.075 0.376,1.8 v 0.75 h -1.826 V 21.84 c 0,-0.526 -0.124,-0.925 -0.4,-1.201 -0.249,-0.25 -0.6,-0.399 -1.099,-0.399 -0.5,0 -0.9,0.15 -1.177,0.399 -0.249,0.25 -0.398,0.625 -0.398,1.125 v 0.875 c 0,0.375 0.1,0.675 0.25,0.9 0.147,0.226 0.374,0.426 0.648,0.601 z"
   id="path13856"
   inkscape:connector-curvature="0"
   style="fill:#ffffff" />
		</g>
	</g>
	<g
   id="g13866">
		<g
   id="g13864">
			<path
   d="m 292.409,18.59 v 14.2 h -1.848 v -14.2 z"
   id="path13862"
   inkscape:connector-curvature="0"
   style="fill:#ffffff" />
		</g>
	</g>
	<g
   id="g13872">
		<g
   id="g13870">
			<path
   d="m 298.234,25.14 h 3.451 v 4.15 c 0,0.75 -0.126,1.426 -0.399,1.975 -0.275,0.525 -0.676,0.95 -1.177,1.25 -0.499,0.275 -1.124,0.4 -1.823,0.4 -0.726,0 -1.351,-0.125 -1.875,-0.375 -0.525,-0.275 -0.926,-0.675 -1.201,-1.2 -0.249,-0.5 -0.399,-1.125 -0.399,-1.85 v -7.4 c 0,-0.8 0.15,-1.451 0.399,-1.975 0.275,-0.525 0.65,-0.975 1.149,-1.25 0.525,-0.275 1.126,-0.425 1.851,-0.425 0.726,0 1.326,0.15 1.826,0.4 0.474,0.274 0.874,0.674 1.123,1.225 0.276,0.525 0.4,1.15 0.4,1.9 v 0.699 h -1.975 v -0.699 c 0,-0.375 -0.049,-0.675 -0.149,-0.925 -0.1,-0.275 -0.25,-0.45 -0.476,-0.6 -0.225,-0.149 -0.475,-0.199 -0.75,-0.199 -0.3,0 -0.601,0.074 -0.85,0.225 -0.2,0.125 -0.376,0.324 -0.524,0.625 -0.101,0.275 -0.176,0.6 -0.176,1 v 7.4 c 0,0.351 0.075,0.65 0.2,0.9 0.124,0.225 0.3,0.4 0.549,0.525 0.227,0.149 0.525,0.225 0.877,0.225 0.299,0 0.573,-0.1 0.825,-0.225 0.225,-0.15 0.373,-0.325 0.524,-0.625 0.125,-0.275 0.199,-0.575 0.199,-0.976 V 26.89 h -1.601 v -1.75 z"
   id="path13868"
   inkscape:connector-curvature="0"
   style="fill:#ffffff" />
		</g>
	</g>
	<g
   id="g13878">
		<g
   id="g13876">
			<path
   d="m 308.985,32.54 c -0.475,0.25 -1.05,0.375 -1.775,0.375 -0.699,0 -1.275,-0.125 -1.749,-0.375 -0.476,-0.25 -0.851,-0.625 -1.101,-1.125 -0.249,-0.5 -0.375,-1.125 -0.375,-1.825 v -11 h 1.875 v 11.075 c 0,0.475 0.1,0.85 0.351,1.1 0.225,0.25 0.549,0.375 0.999,0.375 0.451,0 0.775,-0.125 1.024,-0.375 0.252,-0.274 0.376,-0.625 0.376,-1.1 V 18.59 h 1.851 v 11 c 0,0.7 -0.126,1.325 -0.376,1.825 -0.249,0.5 -0.625,0.875 -1.1,1.125 z"
   id="path13874"
   inkscape:connector-curvature="0"
   style="fill:#ffffff" />
		</g>
	</g>
	<g
   id="g13884">
		<g
   id="g13882">
			<path
   d="m 314.61,18.59 v 14.2 h -1.875 v -14.2 z"
   id="path13880"
   inkscape:connector-curvature="0"
   style="fill:#ffffff" />
		</g>
	</g>
	<g
   id="g13890">
		<g
   id="g13888">
			<path
   d="m 330.335,32.79 -3.575,-9.775 v -1.05 l -0.299,0.25 0.299,0.8 v 9.775 h -1.774 v -14.2 h 1.626 l 3.6,10 v 1.125 l 0.299,-0.25 -0.299,-0.875 v -10 h 1.773 v 14.2 z"
   id="path13886"
   inkscape:connector-curvature="0"
   style="fill:#ffffff" />
		</g>
	</g>
</g>
<path
   d="m 328.83296,-207.07784 c 0,-0.25 -0.05,-0.5 -0.149,-0.725 -0.076,-0.225 -0.227,-0.45 -0.426,-0.65 l -9.025,-9.05 c -0.2,-0.149 -0.425,-0.325 -0.65,-0.4 -0.225,-0.1 -0.474,-0.15 -0.725,-0.15 -0.25,0 -0.475,0.05 -0.725,0.15 -0.25,0.075 -0.45,0.25 -0.625,0.4 l -0.699,0.7 c -0.176,0.175 -0.301,0.4 -0.4,0.625 -0.101,0.225 -0.15,0.476 -0.15,0.725 0,0.25 0.05,0.5 0.15,0.725 0.1,0.225 0.225,0.45 0.4,0.65 l 4.913,4.9 h -0.589 -7.051 -5.75 c -0.275,0 -0.525,0.05 -0.75,0.15 -0.225,0.075 -0.449,0.226 -0.6,0.4 -0.176,0.175 -0.324,0.375 -0.424,0.6 -0.101,0.25 -0.15,0.5 -0.15,0.75 v 0.976 c 0,0.274 0.05,0.525 0.15,0.75 0.1,0.225 0.25,0.425 0.424,0.601 0.15,0.174 0.375,0.325 0.6,0.425 0.227,0.075 0.477,0.125 0.75,0.125 h 5.75 7.05 0.425 l -4.924,4.925 c -0.2,0.2 -0.325,0.4 -0.425,0.651 -0.101,0.225 -0.15,0.474 -0.15,0.724 0,0.25 0.05,0.475 0.15,0.726 0.1,0.25 0.225,0.45 0.425,0.625 l 0.674,0.675 c 0.176,0.2 0.376,0.325 0.625,0.425 0.251,0.1 0.476,0.149 0.725,0.149 0.25,0 0.477,-0.049 0.726,-0.149 0.25,-0.1 0.45,-0.226 0.625,-0.425 l 9.05,-9.05 c 0.2,-0.175 0.325,-0.4 0.425,-0.625 0.059,-0.144 0.098,-0.28 0.122,-0.417 0.031,-0.061 0.058,-0.123 0.078,-0.184 0.099,-0.227 0.15,-0.477 0.15,-0.727 z"
   id="path13894"
   inkscape:connector-curvature="0"
   style="fill:#ff0000" />
<g
   id="g14032"
   transform="translate(-56.003036,-233.66784)">
	<g
   id="g13900">
		<g
   id="g13898">
			<path
   d="m 281.511,39.189 0.874,-0.65 -0.874,-0.649 v -1.025 l 2.148,1.675 -2.148,1.675 z"
   id="path13896"
   inkscape:connector-curvature="0"
   style="fill:#fe9929" />
		</g>
	</g>
	<g
   id="g13906">
		<g
   id="g13904">
			<path
   d="m 283.786,39.189 0.898,-0.65 -0.898,-0.649 v -1.025 l 2.148,1.675 -2.148,1.675 z"
   id="path13902"
   inkscape:connector-curvature="0"
   style="fill:#fe9929" />
		</g>
	</g>
	<g
   id="g13914">
		<g
   id="g13912">
			<path
   d="m 289.61,38.965 h -0.775 v -0.75 h 0.801 c 0.101,0 0.2,-0.025 0.273,-0.075 0.101,-0.05 0.151,-0.125 0.2,-0.226 0.026,-0.075 0.052,-0.2 0.052,-0.35 V 36.64 c 0,-0.15 -0.025,-0.25 -0.052,-0.35 -0.049,-0.101 -0.1,-0.175 -0.2,-0.226 -0.073,-0.049 -0.173,-0.074 -0.273,-0.074 h -0.801 v -0.775 h 0.774 c 0.275,0 0.5,0.075 0.751,0.175 0.174,0.125 0.35,0.275 0.475,0.5 0.075,0.174 0.151,0.424 0.151,0.75 v 0.95 c 0,0.3 -0.076,0.55 -0.176,0.75 -0.101,0.2 -0.249,0.35 -0.449,0.45 -0.2,0.125 -0.452,0.175 -0.751,0.175 z"
   id="path13908"
   inkscape:connector-curvature="0"
   style="fill:#fe9929" />
			<path
   d="m 288.034,41.34 v -6.125 h 0.452 v 0.775 h 0.349 v 2.225 h -0.349 v 0.75 h 0.349 v 2.375 z"
   id="path13910"
   inkscape:connector-curvature="0"
   style="fill:#fe9929" />
		</g>
	</g>
	<g
   id="g13922">
		<g
   id="g13920">
			<path
   d="m 293.261,36.465 -0.525,2.8 h -0.326 v 0.75 h 0.2 l -0.249,1.325 h -0.875 l 1.425,-6.125 h 0.725 l 1.426,6.125 h -0.875 l -0.25,-1.325 h 0.275 v -0.75 h -0.425 z"
   id="path13916"
   inkscape:connector-curvature="0"
   style="fill:#fe9929" />
			<path
   d="m 293.936,40.015 h -1.326 l 0.126,-0.75 h 1.051 z"
   id="path13918"
   inkscape:connector-curvature="0"
   style="fill:#fe9929" />
		</g>
	</g>
	<g
   id="g13928">
		<g
   id="g13926">
			<path
   d="m 297.336,37.915 0.649,0.325 c 0.149,0.1 0.275,0.275 0.375,0.425 0.1,0.175 0.126,0.425 0.126,0.75 v 0.55 c 0,0.325 -0.026,0.575 -0.15,0.8 -0.101,0.2 -0.274,0.375 -0.499,0.45 -0.227,0.125 -0.501,0.2 -0.801,0.2 -0.301,0 -0.575,-0.075 -0.801,-0.2 -0.225,-0.075 -0.399,-0.25 -0.5,-0.45 -0.125,-0.25 -0.174,-0.5 -0.174,-0.8 v -0.3 h 0.799 v 0.25 c 0,0.25 0.051,0.4 0.175,0.525 0.125,0.125 0.301,0.2 0.501,0.2 0.2,0 0.375,-0.075 0.5,-0.2 0.125,-0.125 0.175,-0.274 0.175,-0.525 v -0.5 c 0,-0.15 -0.05,-0.275 -0.101,-0.375 -0.074,-0.1 -0.174,-0.2 -0.274,-0.275 L 296.86,38.54 v 0 h -0.024 l -0.05,-0.025 -0.625,-0.35 c -0.199,-0.125 -0.325,-0.275 -0.426,-0.476 -0.125,-0.226 -0.174,-0.475 -0.174,-0.75 v -0.375 c 0,-0.274 0.049,-0.525 0.174,-0.75 0.101,-0.225 0.275,-0.375 0.5,-0.5 0.226,-0.1 0.5,-0.149 0.801,-0.149 0.3,0 0.549,0.05 0.773,0.149 0.227,0.125 0.376,0.275 0.501,0.5 0.1,0.225 0.176,0.5 0.176,0.775 v 0.325 h -0.801 V 36.64 c 0,-0.225 -0.075,-0.375 -0.175,-0.525 -0.1,-0.1 -0.274,-0.175 -0.475,-0.175 -0.225,0 -0.4,0.075 -0.501,0.175 -0.124,0.1 -0.175,0.275 -0.175,0.475 v 0.375 c 0,0.15 0.026,0.3 0.101,0.4 0.099,0.1 0.175,0.175 0.274,0.25 l 0.449,0.225 c 0.025,0 0.052,0 0.052,0.025 0.024,0.025 0.049,0.025 0.049,0.025 z"
   id="path13924"
   inkscape:connector-curvature="0"
   style="fill:#fe9929" />
		</g>
	</g>
	<g
   id="g13934">
		<g
   id="g13932">
			<path
   d="m 300.085,35.215 v 6.125 h -0.801 v -6.125 z"
   id="path13930"
   inkscape:connector-curvature="0"
   style="fill:#fe9929" />
		</g>
	</g>
	<g
   id="g13942">
		<g
   id="g13940">
			<path
   d="m 301.335,40.564 v 0.775 h -0.425 v -6.125 h 0.801 v 5.35 z"
   id="path13936"
   inkscape:connector-curvature="0"
   style="fill:#fe9929" />
			<path
   d="m 301.711,40.564 h 1.749 v 0.775 h -1.749 z"
   id="path13938"
   inkscape:connector-curvature="0"
   style="fill:#fe9929" />
		</g>
	</g>
	<g
   id="g13950">
		<g
   id="g13948">
			<path
   d="m 304.484,40.564 v 0.775 h -0.399 v -6.125 h 0.775 v 5.35 z"
   id="path13944"
   inkscape:connector-curvature="0"
   style="fill:#fe9929" />
			<path
   d="m 304.86,40.564 h 1.751 v 0.775 h -1.751 z"
   id="path13946"
   inkscape:connector-curvature="0"
   style="fill:#fe9929" />
		</g>
	</g>
	<g
   id="g13956">
		<g
   id="g13954">
			<path
   d="m 309.561,41.215 c -0.225,0.125 -0.501,0.2 -0.825,0.2 -0.301,0 -0.574,-0.075 -0.8,-0.2 -0.25,-0.125 -0.426,-0.3 -0.526,-0.525 -0.099,-0.225 -0.173,-0.5 -0.173,-0.825 V 36.69 c 0,-0.325 0.074,-0.599 0.173,-0.824 0.101,-0.226 0.276,-0.4 0.526,-0.525 0.25,-0.125 0.524,-0.176 0.8,-0.176 0.324,0 0.601,0.05 0.825,0.176 0.2,0.1 0.4,0.299 0.524,0.525 0.125,0.25 0.176,0.524 0.176,0.824 v 3.175 c 0,0.3 -0.051,0.575 -0.176,0.825 -0.124,0.225 -0.3,0.4 -0.524,0.525 z M 308.36,40.54 c 0.126,0.051 0.25,0.1 0.375,0.1 0.124,0 0.25,-0.049 0.4,-0.1 0.1,-0.049 0.2,-0.125 0.249,-0.25 0.051,-0.125 0.075,-0.25 0.075,-0.4 v -3.226 c 0,-0.149 -0.024,-0.275 -0.075,-0.375 -0.049,-0.125 -0.149,-0.226 -0.249,-0.25 -0.15,-0.075 -0.276,-0.1 -0.4,-0.1 -0.125,0 -0.249,0.025 -0.375,0.1 -0.1,0.025 -0.175,0.125 -0.25,0.25 -0.049,0.1 -0.076,0.225 -0.076,0.375 v 3.225 c 0,0.15 0.027,0.275 0.076,0.4 0.076,0.126 0.151,0.201 0.25,0.251 z"
   id="path13952"
   inkscape:connector-curvature="0"
   style="fill:#fe9929" />
		</g>
	</g>
	<g
   id="g13962">
		<g
   id="g13960">
			<path
   d="m 312.609,39.189 0.877,-0.65 -0.877,-0.649 v -1.025 l 2.151,1.675 -2.151,1.675 z"
   id="path13958"
   inkscape:connector-curvature="0"
   style="fill:#fe9929" />
		</g>
	</g>
	<g
   id="g13968">
		<g
   id="g13966">
			<path
   d="m 314.909,39.189 0.901,-0.65 -0.901,-0.649 v -1.025 l 2.151,1.675 -2.151,1.675 z"
   id="path13964"
   inkscape:connector-curvature="0"
   style="fill:#fe9929" />
		</g>
	</g>
	<g
   id="g13976">
		<g
   id="g13974">
			<path
   d="m 320.734,38.965 h -0.773 v -0.75 h 0.773 c 0.126,0 0.226,-0.025 0.301,-0.075 0.075,-0.05 0.151,-0.125 0.176,-0.226 0.024,-0.075 0.049,-0.2 0.049,-0.35 V 36.64 c 0,-0.15 -0.024,-0.25 -0.049,-0.35 -0.024,-0.101 -0.101,-0.175 -0.176,-0.226 -0.075,-0.049 -0.175,-0.074 -0.301,-0.074 h -0.773 v -0.775 h 0.773 c 0.276,0 0.525,0.075 0.751,0.175 0.175,0.125 0.351,0.275 0.45,0.5 0.125,0.2 0.175,0.45 0.175,0.75 v 0.95 c 0,0.275 -0.05,0.5 -0.175,0.75 -0.124,0.2 -0.3,0.375 -0.476,0.45 -0.199,0.125 -0.448,0.175 -0.725,0.175 z"
   id="path13970"
   inkscape:connector-curvature="0"
   style="fill:#fe9929" />
			<path
   d="m 319.16,41.34 v -6.125 h 0.45 v 0.775 h 0.351 v 2.225 h -0.351 v 0.75 h 0.351 v 2.375 z"
   id="path13972"
   inkscape:connector-curvature="0"
   style="fill:#fe9929" />
		</g>
	</g>
	<g
   id="g13984">
		<g
   id="g13982">
			<path
   d="m 324.385,36.465 -0.525,2.8 h -0.349 v 0.75 h 0.225 l -0.275,1.325 h -0.851 l 1.401,-6.125 h 0.726 l 1.423,6.125 h -0.85 l -0.249,-1.325 h 0.274 v -0.75 h -0.426 z"
   id="path13978"
   inkscape:connector-curvature="0"
   style="fill:#fe9929" />
			<path
   d="m 325.061,40.015 h -1.325 l 0.124,-0.75 h 1.05 z"
   id="path13980"
   inkscape:connector-curvature="0"
   style="fill:#fe9929" />
		</g>
	</g>
	<g
   id="g13990">
		<g
   id="g13988">
			<path
   d="m 328.36,37.865 0.1,0.049 c 0.026,0 0.026,0 0.026,0 l 0.599,0.325 c 0.15,0.1 0.275,0.225 0.375,0.425 0.125,0.2 0.149,0.45 0.149,0.75 v 0.55 c 0,0.3 -0.049,0.55 -0.149,0.8 -0.124,0.2 -0.3,0.375 -0.5,0.45 -0.225,0.125 -0.5,0.2 -0.825,0.2 -0.3,0 -0.55,-0.075 -0.799,-0.2 -0.226,-0.075 -0.376,-0.25 -0.5,-0.45 -0.101,-0.25 -0.176,-0.5 -0.176,-0.8 v -0.3 h 0.801 v 0.25 c 0,0.25 0.049,0.4 0.175,0.525 0.125,0.125 0.3,0.2 0.499,0.2 0.226,0 0.4,-0.075 0.5,-0.2 0.125,-0.125 0.2,-0.274 0.2,-0.525 v -0.5 c 0,-0.15 -0.049,-0.275 -0.124,-0.375 -0.076,-0.1 -0.15,-0.2 -0.276,-0.275 l -0.449,-0.225 c 0,0 0,0 -0.024,0 v 0 l -0.075,-0.025 -0.625,-0.35 c -0.149,-0.125 -0.301,-0.275 -0.425,-0.476 -0.101,-0.175 -0.15,-0.425 -0.15,-0.75 v -0.375 c 0,-0.274 0.05,-0.525 0.15,-0.75 0.124,-0.225 0.275,-0.375 0.5,-0.5 0.249,-0.1 0.525,-0.149 0.8,-0.149 0.299,0 0.575,0.05 0.8,0.149 0.2,0.125 0.376,0.275 0.5,0.5 0.101,0.225 0.15,0.5 0.15,0.775 v 0.325 h -0.8 V 36.64 c 0,-0.225 -0.051,-0.425 -0.176,-0.525 -0.1,-0.1 -0.25,-0.175 -0.476,-0.175 -0.199,0 -0.374,0.075 -0.499,0.175 -0.126,0.101 -0.15,0.275 -0.15,0.475 v 0.375 c 0,0.175 0.024,0.3 0.1,0.4 0.076,0.1 0.149,0.175 0.275,0.25 l 0.45,0.225 c 0.024,0 0.024,0 0.049,0.025 z"
   id="path13986"
   inkscape:connector-curvature="0"
   style="fill:#fe9929" />
		</g>
	</g>
	<g
   id="g13996">
		<g
   id="g13994">
			<path
   d="m 331.211,35.215 v 6.125 h -0.825 v -6.125 z"
   id="path13992"
   inkscape:connector-curvature="0"
   style="fill:#fe9929" />
		</g>
	</g>
	<g
   id="g14004">
		<g
   id="g14002">
			<path
   d="m 332.461,40.564 v 0.775 h -0.449 v -6.125 h 0.823 v 5.35 z"
   id="path13998"
   inkscape:connector-curvature="0"
   style="fill:#fe9929" />
			<path
   d="m 332.835,40.564 h 1.726 v 0.775 h -1.726 z"
   id="path14000"
   inkscape:connector-curvature="0"
   style="fill:#fe9929" />
		</g>
	</g>
	<g
   id="g14012">
		<g
   id="g14010">
			<path
   d="m 335.61,40.564 v 0.775 h -0.425 v -6.125 h 0.801 v 5.35 z"
   id="path14006"
   inkscape:connector-curvature="0"
   style="fill:#fe9929" />
			<path
   d="m 335.986,40.564 h 1.749 v 0.775 h -1.749 z"
   id="path14008"
   inkscape:connector-curvature="0"
   style="fill:#fe9929" />
		</g>
	</g>
	<g
   id="g14018">
		<g
   id="g14016">
			<path
   d="m 340.686,41.215 c -0.225,0.125 -0.5,0.2 -0.825,0.2 -0.3,0 -0.601,-0.075 -0.801,-0.2 -0.25,-0.125 -0.425,-0.3 -0.549,-0.525 -0.101,-0.25 -0.15,-0.525 -0.15,-0.825 V 36.69 c 0,-0.3 0.05,-0.575 0.15,-0.824 0.124,-0.226 0.299,-0.4 0.549,-0.525 0.225,-0.125 0.501,-0.176 0.801,-0.176 0.325,0 0.574,0.05 0.825,0.176 0.249,0.125 0.4,0.299 0.499,0.525 0.126,0.225 0.202,0.524 0.202,0.824 v 3.175 c 0,0.325 -0.076,0.601 -0.202,0.825 -0.099,0.225 -0.25,0.4 -0.499,0.525 z m -1.202,-0.675 c 0.126,0.051 0.252,0.1 0.376,0.1 0.149,0 0.275,-0.049 0.399,-0.1 0.101,-0.049 0.175,-0.125 0.25,-0.25 0.05,-0.125 0.076,-0.25 0.076,-0.4 v -3.226 c 0,-0.125 -0.026,-0.25 -0.076,-0.375 -0.075,-0.125 -0.148,-0.226 -0.25,-0.25 -0.124,-0.075 -0.25,-0.1 -0.399,-0.1 -0.124,0 -0.25,0.025 -0.376,0.1 -0.124,0.051 -0.2,0.125 -0.249,0.25 -0.051,0.1 -0.1,0.225 -0.1,0.375 v 3.225 c 0,0.15 0.049,0.275 0.1,0.4 0.051,0.101 0.125,0.176 0.249,0.251 z"
   id="path14014"
   inkscape:connector-curvature="0"
   style="fill:#fe9929" />
		</g>
	</g>
	<g
   id="g14024">
		<g
   id="g14022">
			<path
   d="m 343.735,39.189 0.9,-0.65 -0.9,-0.649 v -1.025 l 2.15,1.675 -2.15,1.675 z"
   id="path14020"
   inkscape:connector-curvature="0"
   style="fill:#fe9929" />
		</g>
	</g>
	<g
   id="g14030">
		<g
   id="g14028">
			<path
   d="m 346.035,39.189 0.875,-0.65 -0.875,-0.649 v -1.025 l 2.15,1.675 -2.15,1.675 z"
   id="path14026"
   inkscape:connector-curvature="0"
   style="fill:#fe9929" />
		</g>
	</g>
</g>
<g
   transform="translate(5.1657794,0.12405068)"
   id="g12504"
   style="fill:#cccccc;stroke:none"><g
     id="g12498"
     style="fill:#cccccc;stroke:none"><path
       style="fill:#cccccc;stroke:none"
       d="m 16.734375,8.765625 c -2.475,0 -4.550391,0.8492188 -6.275391,2.574219 -0.8239996,0.825 -1.4757809,1.774218 -1.9257809,2.824218 -0.45,1.1 -0.6738281,2.251563 -0.6738281,3.476563 v 19.898437 c 0,1.225001 0.2238281,2.376563 0.6738281,3.476563 0.45,1.05 1.1007813,1.998828 1.9257809,2.798828 0.8,0.825 1.750782,1.475391 2.800782,1.900391 1.125,0.474 2.249609,0.699218 3.474609,0.699218 122.154305,-0.09424 243.698135,0 365.625005,0 1.19999,0 2.32517,-0.224218 3.45117,-0.699218 1.05,-0.425 1.99922,-1.075391 2.82422,-1.900391 0.801,-0.8 1.426,-1.749828 1.875,-2.798828 0.476,-1.1 0.70117,-2.251562 0.70117,-3.476563 V 17.640625 c 0,-2.475 -0.84917,-4.550781 -2.57617,-6.300781 -0.825,-0.8 -1.77422,-1.4500002 -2.82422,-1.8750002 -1.126,-0.474 -2.25118,-0.6992188 -3.45117,-0.6992188 -122.03737,0.1359805 -243.47213,0 -365.625005,0 z"
       id="path12496"
       inkscape:connector-curvature="0"
       sodipodi:nodetypes="cccssccccccccsscccc" /></g><g
     id="g12502"
     style="fill:#cccccc;stroke:none"><path
       stroke-miterlimit="10"
       d="m 160.734,37.54 c 0,1.225 0.226,2.375 0.675,3.475 0.449,1.049 1.101,2 1.925,2.8 0.799,0.825 1.75,1.475 2.799,1.9 1.125,0.475 2.251,0.7 3.477,0.7 h 104.123 c 1.201,0 2.326,-0.226 3.451,-0.7 1.05,-0.425 2,-1.075 2.825,-1.9 0.801,-0.8 1.426,-1.75 1.875,-2.8 0.476,-1.101 0.7,-2.25 0.7,-3.475 v -19.9 c 0,-2.475 -0.851,-4.549 -2.575,-6.3 -0.825,-0.8 -1.775,-1.45 -2.825,-1.875 -1.124,-0.475 -2.25,-0.7 -3.449,-0.7 H 169.61 c -2.476,0 -4.551,0.851 -6.275,2.575 -0.824,0.825 -1.475,1.775 -1.925,2.825 -0.449,1.1 -0.675,2.25 -0.675,3.475 v 19.9"
       id="path12500"
       inkscape:connector-curvature="0"
       style="fill:#cccccc;stroke:none;stroke-width:0.5;stroke-linecap:round;stroke-linejoin:round;stroke-miterlimit:10" /></g></g><g
   transform="translate(5.1657794,0.12405068)"
   id="g12514"
   style="stroke:none"><g
     id="g12508"
     style="stroke:none" /><g
     id="g12512"
     style="stroke:none"><path
       stroke-miterlimit="10"
       d="m 53.245,37.54 c 0,1.225 0.225,2.375 0.675,3.475 0.45,1.049 1.101,2 1.925,2.8 0.8,0.825 1.75,1.475 2.799,1.9 1.125,0.475 2.25,0.7 3.476,0.7 h 104.125 c 1.2,0 2.325,-0.226 3.451,-0.7 1.049,-0.425 1.999,-1.075 2.824,-1.9 0.801,-0.8 1.426,-1.75 1.875,-2.8 0.477,-1.101 0.701,-2.25 0.701,-3.475 v -19.9 c 0,-2.475 -0.853,-4.549 -2.576,-6.3 -0.825,-0.8 -1.775,-1.45 -2.824,-1.875 -1.126,-0.475 -2.251,-0.7 -3.45,-0.7 H 62.12 c -2.475,0 -4.55,0.851 -6.275,2.575 -0.825,0.825 -1.475,1.775 -1.925,2.825 -0.45,1.1 -0.675,2.25 -0.675,3.475 v 19.9"
       id="path12510"
       style="fill:none;stroke:none;stroke-width:0.5;stroke-linecap:round;stroke-linejoin:round;stroke-miterlimit:10"
       inkscape:connector-curvature="0" /></g></g><g
   transform="translate(5.1657794,0.12405068)"
   id="g12524"
   style="stroke:none"><g
     id="g12518"
     style="stroke:none" /><g
     id="g12522"
     style="stroke:none"><path
       stroke-miterlimit="10"
       d="m 7.859,37.54 c 0,1.225 0.225,2.375 0.675,3.475 0.45,1.049 1.101,2 1.925,2.8 0.8,0.825 1.75,1.475 2.799,1.9 1.125,0.475 2.25,0.7 3.476,0.7 h 104.125 c 1.2,0 2.325,-0.226 3.451,-0.7 1.049,-0.425 1.999,-1.075 2.824,-1.9 0.801,-0.8 1.426,-1.75 1.875,-2.8 0.477,-1.101 0.701,-2.25 0.701,-3.475 v -19.9 c 0,-2.475 -0.853,-4.549 -2.576,-6.3 -0.825,-0.8 -1.775,-1.45 -2.824,-1.875 -1.126,-0.475 -2.251,-0.7 -3.45,-0.7 H 16.734 c -2.475,0 -4.55,0.851 -6.275,2.575 -0.825,0.825 -1.475,1.775 -1.925,2.825 -0.45,1.1 -0.675,2.25 -0.675,3.475 v 19.9"
       id="path12520"
       inkscape:connector-curvature="0"
       style="fill:none;stroke:none;stroke-width:0.5;stroke-linecap:round;stroke-linejoin:round;stroke-miterlimit:10" /></g></g><g
   transform="translate(5.1657794,0.12405068)"
   id="g12583"
   style="stroke:none"><g
     id="g12577"
     style="stroke:none" /><g
     id="g12581"
     style="stroke:none"><path
       stroke-miterlimit="10"
       d="m 269.36,37.54 c 0,1.225 0.226,2.375 0.675,3.475 0.449,1.049 1.101,2 1.925,2.8 0.8,0.825 1.751,1.475 2.799,1.9 1.126,0.475 2.252,0.7 3.476,0.7 H 382.36 c 1.199,0 2.324,-0.226 3.45,-0.7 1.05,-0.425 1.999,-1.075 2.824,-1.9 0.801,-0.8 1.426,-1.75 1.875,-2.8 0.477,-1.101 0.701,-2.25 0.701,-3.475 v -19.9 c 0,-2.475 -0.851,-4.549 -2.576,-6.3 -0.825,-0.8 -1.774,-1.45 -2.824,-1.875 -1.126,-0.475 -2.251,-0.7 -3.45,-0.7 H 278.234 c -2.474,0 -4.55,0.851 -6.274,2.575 -0.824,0.825 -1.475,1.775 -1.925,2.825 -0.449,1.1 -0.675,2.25 -0.675,3.475 v 19.9"
       id="path12579"
       inkscape:connector-curvature="0"
       style="fill:none;stroke:none;stroke-width:0.5;stroke-linecap:round;stroke-linejoin:round;stroke-miterlimit:10" /></g></g><g
   transform="translate(5.1657794,0.12405068)"
   id="g12599"><g
     id="g12593"><path
       stroke-miterlimit="10"
       d="m 357.31,35.564 c 0,1.976 0.7,3.625 2.076,5 1.375,1.4 3.049,2.101 5.024,2.101 h 15.951 c 1.948,0 3.624,-0.7 5.024,-2.101 1.374,-1.375 2.049,-3.024 2.049,-5 V 19.615 c 0,-1.976 -0.675,-3.626 -2.049,-5.025 -1.4,-1.375 -3.076,-2.076 -5.024,-2.076 H 364.41 c -1.976,0 -3.649,0.701 -5.024,2.076 -1.376,1.399 -2.076,3.049 -2.076,5.025 v 15.949"
       id="path12591"
       inkscape:connector-curvature="0"
       style="fill:none;stroke:#999999;stroke-width:0.40000001;stroke-linecap:round;stroke-linejoin:round;stroke-miterlimit:10" /></g><g
     id="g12597"><path
       d="M 357.31,35.564 V 19.615 c 0,-1.976 0.7,-3.626 2.076,-5.025 1.375,-1.375 3.049,-2.076 5.024,-2.076 h 15.951 c 1.948,0 3.624,0.701 5.024,2.076 1.374,1.399 2.049,3.049 2.049,5.025 v 15.949 c 0,1.976 -0.675,3.625 -2.049,5 -1.4,1.4 -3.076,2.101 -5.024,2.101 H 364.41 c -1.976,0 -3.649,-0.7 -5.024,-2.101 -1.376,-1.375 -2.076,-3.024 -2.076,-5 z"
       id="path12595"
       inkscape:connector-curvature="0"
       style="fill:#f2f2f2" /></g></g><path
   inkscape:connector-curvature="0"
   d="m 390.00178,26.714051 c 0,-0.25 -0.05,-0.5 -0.149,-0.725 -0.076,-0.225 -0.227,-0.45 -0.426,-0.65 l -9.025,-9.05 c -0.2,-0.149 -0.425,-0.325 -0.65,-0.4 -0.225,-0.1 -0.474,-0.15 -0.725,-0.15 -0.25,0 -0.475,0.05 -0.725,0.15 -0.25,0.075 -0.45,0.25 -0.625,0.4 l -0.699,0.7 c -0.176,0.175 -0.301,0.4 -0.4,0.625 -0.101,0.225 -0.15,0.476 -0.15,0.725 0,0.25 0.05,0.5 0.15,0.725 0.1,0.225 0.225,0.45 0.4,0.65 l 4.913,4.9 h -0.589 -7.051 -5.75 c -0.275,0 -0.525,0.05 -0.75,0.15 -0.225,0.075 -0.449,0.226 -0.6,0.4 -0.176,0.175 -0.324,0.375 -0.424,0.6 -0.101,0.25 -0.15,0.5 -0.15,0.75 v 0.976 c 0,0.274 0.05,0.525 0.15,0.75 0.1,0.225 0.25,0.425 0.424,0.601 0.15,0.174 0.375,0.325 0.6,0.425 0.227,0.075 0.477,0.125 0.75,0.125 h 5.75 7.05 0.425 l -4.924,4.925 c -0.2,0.2 -0.325,0.4 -0.425,0.651 -0.101,0.225 -0.15,0.474 -0.15,0.724 0,0.25 0.05,0.475 0.15,0.726 0.1,0.25 0.225,0.45 0.425,0.625 l 0.674,0.675 c 0.176,0.2 0.376,0.325 0.625,0.425 0.251,0.1 0.476,0.149 0.725,0.149 0.25,0 0.477,-0.049 0.726,-0.149 0.25,-0.1 0.45,-0.226 0.625,-0.425 l 9.05,-9.05 c 0.2,-0.175 0.325,-0.4 0.425,-0.625 0.059,-0.144 0.098,-0.28 0.122,-0.417 0.031,-0.061 0.058,-0.123 0.078,-0.184 0.099,-0.227 0.15,-0.477 0.15,-0.727 z"
   id="path12639"
   style="fill:#808080" /><g
   transform="translate(-339.48465,-0.24970932)"
   id="g12599-0"
   style="stroke:none"><g
     id="g12593-6"
     style="stroke:none"><path
       style="fill:none;stroke:none;stroke-width:0.40000001;stroke-linecap:round;stroke-linejoin:round;stroke-miterlimit:10"
       inkscape:connector-curvature="0"
       stroke-miterlimit="10"
       d="m 357.31,35.564 c 0,1.976 0.7,3.625 2.076,5 1.375,1.4 3.049,2.101 5.024,2.101 h 15.951 c 1.948,0 3.624,-0.7 5.024,-2.101 1.374,-1.375 2.049,-3.024 2.049,-5 V 19.615 c 0,-1.976 -0.675,-3.626 -2.049,-5.025 -1.4,-1.375 -3.076,-2.076 -5.024,-2.076 H 364.41 c -1.976,0 -3.649,0.701 -5.024,2.076 -1.376,1.399 -2.076,3.049 -2.076,5.025 v 15.949"
       id="path12591-6" /></g><g
     id="g12597-3"
     style="stroke:none"><path
       style="fill:#f2f2f2;stroke:none"
       inkscape:connector-curvature="0"
       d="M 357.31,35.564 V 19.615 c 0,-1.976 0.7,-3.626 2.076,-5.025 1.375,-1.375 3.049,-2.076 5.024,-2.076 h 215.951 c 1.948,0 3.624,0.701 5.024,2.076 1.374,1.399 2.049,3.049 2.049,5.025 v 15.949 c 0,1.976 -0.675,3.625 -2.049,5 -1.4,1.4 -3.076,2.101 -5.024,2.101 H 364.41 c -1.976,0 -3.649,-0.7 -5.024,-2.101 -1.376,-1.375 -2.076,-3.024 -2.076,-5 z"
       id="path12595-6"
       sodipodi:nodetypes="sscsscsscsscs" /></g></g><g
   id="g13414"
   transform="translate(-229.48465,-0.24970932)"
   style="stroke:none"><g
     id="g13408"
     style="stroke:none"><path
       id="path13406"
       d="m 357.31,35.564 c 0,1.976 0.7,3.625 2.076,5 1.375,1.4 3.049,2.101 5.024,2.101 h 15.951 c 1.948,0 3.624,-0.7 5.024,-2.101 1.374,-1.375 2.049,-3.024 2.049,-5 V 19.615 c 0,-1.976 -0.675,-3.626 -2.049,-5.025 -1.4,-1.375 -3.076,-2.076 -5.024,-2.076 H 364.41 c -1.976,0 -3.649,0.701 -5.024,2.076 -1.376,1.399 -2.076,3.049 -2.076,5.025 v 15.949"
       stroke-miterlimit="10"
       inkscape:connector-curvature="0"
       style="fill:none;stroke:none;stroke-width:0.40000001;stroke-linecap:round;stroke-linejoin:round;stroke-miterlimit:10" /></g><g
     id="g13412"
     style="stroke:none"><path
       sodipodi:nodetypes="sscsscsscsscs"
       id="path13410"
       d="M 357.31,35.564 V 19.615 c 0,-1.976 0.7,-3.626 2.076,-5.025 1.375,-1.375 3.049,-2.076 5.024,-2.076 h 215.951 c 1.948,0 3.624,0.701 5.024,2.076 1.374,1.399 2.049,3.049 2.049,5.025 v 15.949 c 0,1.976 -0.675,3.625 -2.049,5 -1.4,1.4 -3.076,2.101 -5.024,2.101 H 364.41 c -1.976,0 -3.649,-0.7 -5.024,-2.101 -1.376,-1.375 -2.076,-3.024 -2.076,-5 z"
       inkscape:connector-curvature="0"
       style="fill:#f2f2f2;stroke:none" /></g></g><text
   id="text13416"
   font-size="92.8438"
   transform="scale(0.95409642,1.0481121)"
   x="36.353268"
   y="34.082695"
   style="font-size:88.5819397px;font-family:Bahnschrift;fill:#999999;stroke-width:0.95409644"><tspan
     style="font-size:18.66666603px;fill:#999999"
     id="tspan13418">DE MEZZANINA   |  A PLANTA BAJA</tspan></text>
<g
   id="g13777"
   transform="matrix(0.5,0,0,0.5,20.595592,12.842386)"
   style="opacity:1;fill:#ff3300;fill-opacity:1">
		
			<path
   style="fill:#ff3300;fill-opacity:1;stroke:#999999;stroke-width:0.5;stroke-linecap:round;stroke-linejoin:round;stroke-miterlimit:10"
   inkscape:connector-curvature="0"
   id="path13775"
   d="m 7.859,37.54 c 0,1.225 0.225,2.375 0.675,3.475 0.45,1.049 1.101,2 1.925,2.8 0.8,0.825 1.75,1.475 2.799,1.9 1.125,0.475 2.25,0.7 3.476,0.7 h 264.125 c 0.6,0 1.18125,-0.0565 1.75325,-0.17225 0.572,-0.11575 1.13475,-0.29075 1.69775,-0.52775 0.5245,-0.2125 1.02425,-0.48125 1.496,-0.8 0.47175,-0.31875 0.9155,-0.6875 1.328,-1.1 0.4005,-0.4 0.757,-0.8375 1.0695,-1.30625 0.3125,-0.46875 0.581,-0.96875 0.8055,-1.49375 0.2385,-0.5505 0.41375,-1.113 0.52937,-1.691 0.11563,-0.578 0.76602,-1.636146 0.17163,-1.784 v -9.95 -9.95 c 0,-1.2375 -0.21325,-2.37475 -0.64187,-3.4215 -0.42863,-1.04675 -1.07263,-2.003 -1.93413,-2.8785 -0.4125,-0.4 -0.85625,-0.7625 -1.328,-1.078125 C 285.33425,9.94625 284.8345,9.6775 284.31,9.465 283.747,9.2275 283.18425,9.0525 282.61238,8.936875 282.0405,8.82125 281.4595,8.765 280.86,8.765 H 16.734 c -2.475,0 -4.55,0.851 -6.275,2.575 -0.825,0.825 -1.475,1.775 -1.925,2.825 -0.45,1.1 -0.675,2.25 -0.675,3.475 v 19.9"
   stroke-miterlimit="10"
   sodipodi:nodetypes="ccccssscscscsscsscscsssccsc" />
	</g><text
   style="font-size:88.5819397px;font-family:Bahnschrift;fill:#999999;stroke-width:0.95409644"
   y="-64.330666"
   x="35.911999"
   transform="scale(0.95409642,1.0481121)"
   font-size="92.8438"
   id="text14662"><tspan
     id="tspan14660"
     style="font-size:18.66666603px;fill:#999999">DE MEZZANINA   |  A PLANTA BAJA</tspan></text>
<text
   id="text14666"
   font-size="92.8438"
   transform="scale(0.95409642,1.0481121)"
   x="36.353268"
   y="32.475945"
   style="font-size:88.5819397px;font-family:Bahnschrift;fill:#999999;stroke-width:0.95409644"><tspan
     style="font-size:18.66666603px;fill:#999999"
     id="tspan14664"><tspan
   style="font-style:normal;font-variant:normal;font-weight:bold;font-stretch:normal;font-family:Bahnschrift;-inkscape-font-specification:'Bahnschrift Bold';fill:#ffffff"
   id="tspan14668">DE MEZZANINA</tspan>   |  </tspan></text>
</svg>