<?xml version="1.0" encoding="utf-8"?>
<!-- Generator: Adobe Illustrator 16.0.2, SVG Export Plug-In . SVG Version: 6.00 Build 0)  -->
<!DOCTYPE svg PUBLIC "-//W3C//DTD SVG 1.1//EN" "http://www.w3.org/Graphics/SVG/1.1/DTD/svg11.dtd">
<svg version="1.1"
	 id="svg815" xmlns:rdf="http://www.w3.org/1999/02/22-rdf-syntax-ns#" xmlns:cc="http://creativecommons.org/ns#" xmlns:sodipodi="http://sodipodi.sourceforge.net/DTD/sodipodi-0.dtd" xmlns:inkscape="http://www.inkscape.org/namespaces/inkscape" xmlns:dc="http://purl.org/dc/elements/1.1/" xmlns:svg="http://www.w3.org/2000/svg" sodipodi:docname="coffee017.svg" inkscape:version="1.2.2 (732a01da63, 2022-12-09)"
	 xmlns="http://www.w3.org/2000/svg" xmlns:xlink="http://www.w3.org/1999/xlink" x="0px" y="0px" width="400px" height="400px"
	 viewBox="0 0 400 400" enable-background="new 0 0 400 400" xml:space="preserve">
<sodipodi:namedview  id="namedview817" inkscape:pagecheckerboard="0" inkscape:window-maximized="1" inkscape:current-layer="g823" inkscape:window-height="705" inkscape:window-y="-8" inkscape:window-x="-8" inkscape:deskcolor="#d1d1d1" inkscape:pageopacity="0" inkscape:showpageshadow="2" inkscape:pageshadow="2" inkscape:window-width="1366" fit-margin-right="0" inkscape:snap-page="false" fit-margin-bottom="0" inkscape:zoom="0.51152114" objecttolerance="10" guidetolerance="10" gridtolerance="10" borderopacity="1" bordercolor="#666666" showgrid="false" pagecolor="#ffffff" fit-margin-top="0" inkscape:cy="179.85572" inkscape:cx="119.25216" fit-margin-left="0">
	</sodipodi:namedview>
<g id="g12561" transform="matrix(0.576,0,0,0.576,45.118095,664.20511)">
	
		<path id="path883" inkscape:connector-curvature="0" fill="#74FFFF" stroke="#999999" stroke-width="2.0003" stroke-miterlimit="3.8637" d="
		M-16.282-528.298c-15.701,0-28.429-12.728-28.429-28.431v-516.797c0-15.7,12.728-28.43,28.429-28.43h572.475
		c15.701,0,28.429,12.728,28.429,28.43v516.797c0,15.703-12.727,28.431-28.429,28.431H-16.282z"/>
	<path id="path1023" inkscape:connector-curvature="0" fill="#FFFFFF" d="M153.518-974.077c0-56.803,47.082-102.181,104.324-102.181
		c49.614,0,86.296,33.208,96.584,78.424c2.536,0.149,5.11,0.322,6.3,0.322c57.244,0,104.326,45.377,104.326,102.181
		c0,28.339-15.639,77.773-52.739,88.887l-116.03,179.165L149.88-748.966c-47.747-9.145-84.224-50.296-84.224-100.282
		c0-52.204,39.769-94.76,90.641-101.307C154.479-958.113,153.518-965.991,153.518-974.077z"/>
	
		<path id="path1025" inkscape:connector-curvature="0" fill="#999999" stroke="#999999" stroke-width="2.5" stroke-miterlimit="3.8637" d="
		M369.634-985.242c80.485,17.109,92.567,123.049,25.045,161.488l-73.673,113.902l-37.323-134.672
		C233.183-906.587,287.318-1002.737,369.634-985.242z"/>
	
		<path id="path1027" inkscape:connector-curvature="0" fill="#999999" stroke="#999999" stroke-width="2.5" stroke-miterlimit="3.8637" d="
		M264.337-1049.045c48.277,0,87.414,39.136,87.414,87.415c0,25.989-11.353,49.336-29.341,65.336l-48.381,126.732l-64.507-123.971
		c-19.867-16.012-32.601-40.57-32.601-68.097C176.922-1009.909,216.058-1049.045,264.337-1049.045L264.337-1049.045z"/>
	
		<path id="path1029" inkscape:connector-curvature="0" fill="#999999" stroke="#999999" stroke-width="2.5" stroke-miterlimit="3.8637" d="
		M163.742-936.22c76.284-30.819,145.554,50.242,111.067,119.874l2.614,135.626l-106.249-90.778
		C94.594-794.715,85.727-904.7,163.742-936.22L163.742-936.22z"/>
	
		<path id="path1031" inkscape:connector-curvature="0" fill="#999999" stroke="#999999" stroke-width="2.5" stroke-miterlimit="3.8637" d="
		M291.085-909.373c48.279,0,87.416,39.135,87.416,87.414c0,26.091-11.441,49.518-29.551,65.523l-50.88,111.745l-61.679-109.073
		c-19.936-16.008-32.722-40.61-32.722-68.195C203.671-870.238,242.807-909.373,291.085-909.373L291.085-909.373z"/>
	
		<path id="path1033" inkscape:connector-curvature="0" fill="#00CCFF" stroke="#00CCFF" stroke-width="2.5" stroke-miterlimit="3.8637" d="
		M366.169-968.938c-69.043-14.675-110.503,65.743-67.393,116.469l28.383,102.415l55.825-86.309
		C440.231-867.082,434.136-954.491,366.169-968.938L366.169-968.938z"/>
	
		<path id="path1035" inkscape:connector-curvature="0" fill="#FF9900" stroke="#FF9900" stroke-width="2.5" stroke-miterlimit="3.8637" d="
		M264.337-1032.379c-39.074,0-70.747,31.676-70.747,70.748c0,23.333,10.837,43.146,29.045,57.187l49.055,94.276l36.662-96.029
		c16.883-14.277,26.733-32.979,26.733-55.434C335.085-1000.704,303.411-1032.379,264.337-1032.379z"/>
	
		<path id="path1037" inkscape:connector-curvature="0" fill="#000066" stroke="#666666" stroke-width="2.5" stroke-miterlimit="3.8637" d="
		M169.986-920.766c-65.453,26.443-54.839,116.299,9.258,134.24l80.8,69.038l-1.98-102.771
		C288.349-877.748,234.408-946.796,169.986-920.766z"/>
	
		<path id="path1039" inkscape:connector-curvature="0" fill="#FF00FF" stroke="#FF00FF" stroke-width="2.5" stroke-miterlimit="3.8637" d="
		M291.085-892.707c-39.074,0-70.747,31.674-70.747,70.748c0,23.234,10.776,43.099,28.925,57.093l47.204,83.476l38.845-85.314
		c16.724-14.14,26.523-33.051,26.523-55.255C361.835-861.033,330.158-892.707,291.085-892.707L291.085-892.707z"/>
	<text transform="matrix(1.5803 0 0 1.7361 52.7947 -545.8749)" fill="#008000" font-family="'Bahnschrift'" font-size="45.0779">COFFEE017 </text>
	<text transform="matrix(1.7361 0 0 1.7361 -44.3335 -543.2062)" fill="#29AD5B" font-family="'Bahnschrift'" font-size="187.3918">1</text>
</g>
<path id="rect1347" opacity="0.4164" fill="#00B4B4" enable-background="new    " d="M17.09,0h365.82C392.349,0,400,7.651,400,17.09
	v365.82c0,9.438-7.651,17.09-17.09,17.09H17.09C7.651,400,0,392.35,0,382.91V17.09C0,7.651,7.651,0,17.09,0z"/>
</svg>
