<?xml version="1.0" encoding="utf-8"?>
<!-- Generator: Adobe Illustrator 16.0.2, SVG Export Plug-In . SVG Version: 6.00 Build 0)  -->
<!DOCTYPE svg PUBLIC "-//W3C//DTD SVG 1.1//EN" "http://www.w3.org/Graphics/SVG/1.1/DTD/svg11.dtd">
<svg version="1.1"
	 id="svg815" xmlns:dc="http://purl.org/dc/elements/1.1/" xmlns:svg="http://www.w3.org/2000/svg" xmlns:rdf="http://www.w3.org/1999/02/22-rdf-syntax-ns#" xmlns:sodipodi="http://sodipodi.sourceforge.net/DTD/sodipodi-0.dtd" xmlns:cc="http://creativecommons.org/ns#" xmlns:inkscape="http://www.inkscape.org/namespaces/inkscape" sodipodi:docname="coffee013a.svg" inkscape:version="1.2.2 (732a01da63, 2022-12-09)"
	 xmlns="http://www.w3.org/2000/svg" xmlns:xlink="http://www.w3.org/1999/xlink" x="0px" y="0px" width="320px" height="109.2px"
	 viewBox="40 13.65 320 109.2" enable-background="new 40 13.65 320 109.2" xml:space="preserve">
<g enable-background="new    ">
	<text transform="matrix(0.7268 0 0 1 219.0723 41.1748)" fill="#FE9929" font-family="'Bahnschrift'" font-size="24">&gt;&gt; PASILLOS &gt;&gt;</text>
</g>
<text transform="matrix(0.7268 0 0 1 66.2002 41.1748)" fill="#FE9929" font-family="'Bahnschrift'" font-size="24">&gt;&gt; SIGUIENTE</text>
<line fill="none" x1="40" y1="122.85" x2="360" y2="13.65"/>
<sodipodi:namedview  id="namedview817" inkscape:pagecheckerboard="0" inkscape:window-maximized="1" inkscape:current-layer="layer1" inkscape:window-height="705" inkscape:window-y="-8" inkscape:window-x="-8" inkscape:deskcolor="#d1d1d1" inkscape:pageopacity="0" inkscape:showpageshadow="2" inkscape:pageshadow="2" inkscape:window-width="1366" fit-margin-right="0" inkscape:snap-page="false" fit-margin-bottom="0" inkscape:zoom="0.51782907" bordercolor="#666666" objecttolerance="10" fit-margin-top="0" gridtolerance="10" pagecolor="#ffffff" inkscape:cx="-83.038984" showguides="true" borderopacity="1" inkscape:cy="505.95846" showgrid="false" guidetolerance="10" fit-margin-left="0">
	</sodipodi:namedview>
<g>
	<g>
		<path fill="#FF3300" d="M44.032,93.714V42.77c0-3.136,0.576-6.08,1.728-8.896c1.151-2.688,2.816-5.12,4.928-7.231
			c4.416-4.417,9.728-6.593,16.064-6.593h266.56c3.076,0,5.952,0.576,8.832,1.793c2.688,1.087,5.12,2.751,7.233,4.8
			c4.417,4.479,6.591,9.791,6.591,16.127v50.944c0,3.136-0.575,6.08-1.791,8.896c-1.15,2.687-2.75,5.119-4.8,7.168
			c-2.113,2.112-4.545,3.775-7.233,4.864c-2.88,1.215-5.756,1.792-8.832,1.792H66.752c-3.136,0-6.016-0.581-8.896-1.792
			c-2.688-1.089-5.12-2.752-7.167-4.864c-2.112-2.049-3.776-4.481-4.928-7.168C44.608,99.794,44.032,96.85,44.032,93.714z"/>
	</g>
	<g>
		
			<path fill="none" stroke="#999999" stroke-width="0.5" stroke-linecap="round" stroke-linejoin="round" stroke-miterlimit="10" d="
			M44.032,93.714c0,3.136,0.576,6.08,1.728,8.896c1.151,2.687,2.816,5.119,4.928,7.168c2.048,2.112,4.48,3.775,7.167,4.864
			c2.88,1.215,5.76,1.792,8.896,1.792h266.56c3.072,0,5.953-0.581,8.832-1.792c2.688-1.089,5.121-2.752,7.233-4.864
			c2.051-2.049,3.65-4.481,4.8-7.168c1.217-2.816,1.791-5.761,1.791-8.896V42.77c0-6.336-2.176-11.647-6.591-16.127
			c-2.112-2.049-4.545-3.713-7.233-4.8c-2.879-1.217-5.76-1.793-8.831-1.793H66.752c-6.336,0-11.648,2.176-16.064,6.593
			c-2.112,2.111-3.776,4.543-4.928,7.231c-1.152,2.816-1.728,5.76-1.728,8.896V93.714"/>
	</g>
</g>
<g>
	<g>
		
			<path fill="none" stroke="#999999" stroke-width="0.4" stroke-linecap="round" stroke-linejoin="round" stroke-miterlimit="10" d="
			M269.183,88.658c0,5.056,1.794,9.279,5.316,12.8c3.517,3.585,7.808,5.376,12.864,5.376h40.832c4.987,0,9.279-1.787,12.864-5.376
			c3.517-3.521,5.247-7.744,5.247-12.8V47.826c0-5.056-1.727-9.28-5.247-12.864c-3.585-3.52-7.877-5.313-12.864-5.313H287.36
			c-5.057,0-9.345,1.793-12.864,5.313c-3.52,3.583-5.313,7.807-5.313,12.864V88.658"/>
	</g>
	<g>
		<path fill="#F2F2F2" d="M269.183,88.658V47.826c0-5.056,1.794-9.28,5.316-12.864c3.517-3.52,7.808-5.313,12.864-5.313h40.832
			c4.987,0,9.279,1.793,12.864,5.313c3.517,3.583,5.247,7.807,5.247,12.864v40.833c0,5.056-1.727,9.279-5.247,12.8
			c-3.585,3.585-7.877,5.376-12.864,5.376H287.36c-5.057,0-9.345-1.787-12.864-5.376C270.977,97.938,269.183,93.714,269.183,88.658z
			"/>
	</g>
</g>
<path fill="#FF0000" d="M339.648,65.683c0-0.64-0.124-1.28-0.383-1.855c-0.192-0.576-0.576-1.152-1.088-1.664l-23.105-23.169
	c-0.512-0.383-1.085-0.831-1.664-1.024c-0.576-0.256-1.216-0.383-1.853-0.383c-0.644,0-1.218,0.127-1.855,0.383
	c-0.64,0.193-1.152,0.641-1.601,1.024l-1.792,1.792c-0.447,0.447-0.768,1.024-1.021,1.6c-0.255,0.576-0.384,1.216-0.384,1.856
	c0,0.64,0.127,1.279,0.384,1.855c0.254,0.576,0.578,1.152,1.021,1.665l12.583,12.544h-1.51h-18.053h-14.721
	c-0.703,0-1.344,0.127-1.916,0.383c-0.58,0.193-1.152,0.577-1.537,1.024c-0.45,0.449-0.831,0.96-1.087,1.536
	c-0.257,0.64-0.385,1.28-0.385,1.92v2.497c0,0.704,0.128,1.344,0.385,1.92c0.256,0.575,0.64,1.087,1.087,1.536
	c0.383,0.447,0.957,0.831,1.537,1.087c0.576,0.193,1.216,0.319,1.916,0.319h14.721h18.049h1.087l-12.607,12.608
	c-0.517,0.513-0.833,1.024-1.089,1.665c-0.256,0.575-0.383,1.215-0.383,1.852c0,0.643,0.125,1.216,0.383,1.855
	c0.256,0.641,0.576,1.151,1.089,1.601l1.724,1.728c0.45,0.512,0.96,0.829,1.6,1.086c0.644,0.255,1.217,0.383,1.856,0.383
	c0.639,0,1.217-0.127,1.856-0.383c0.639-0.257,1.149-0.578,1.6-1.086l23.168-23.171c0.513-0.448,0.832-1.021,1.085-1.6
	c0.15-0.369,0.251-0.717,0.313-1.066c0.081-0.154,0.149-0.313,0.202-0.47C339.521,66.963,339.648,66.323,339.648,65.683z"/>
<g>
	<g>
		<g>
			<path fill="#FE9929" d="M75.136,97.938l2.24-1.663l-2.24-1.664v-2.624l5.504,4.288l-5.504,4.288V97.938z"/>
		</g>
	</g>
	<g>
		<g>
			<path fill="#FE9929" d="M80.96,97.938l2.304-1.663L80.96,94.61v-2.624l5.504,4.288l-5.504,4.288V97.938z"/>
		</g>
	</g>
	<g>
		<g>
			<path fill="#FE9929" d="M95.872,97.362h-1.984v-1.916h2.048c0.256,0,0.512-0.065,0.704-0.193
				c0.256-0.127,0.384-0.317,0.512-0.575c0.064-0.191,0.128-0.516,0.128-0.896V91.41c0-0.384-0.064-0.64-0.128-0.896
				c-0.128-0.256-0.256-0.448-0.512-0.576c-0.191-0.127-0.447-0.19-0.704-0.19h-2.048v-1.984h1.983c0.704,0,1.28,0.191,1.92,0.45
				c0.448,0.318,0.897,0.704,1.217,1.281c0.192,0.449,0.384,1.086,0.384,1.918v2.434c0,0.767-0.192,1.406-0.448,1.917
				c-0.256,0.514-0.641,0.894-1.152,1.149C97.28,97.234,96.64,97.362,95.872,97.362z"/>
			<path fill="#FE9929" d="M91.84,103.443V87.763h1.152v1.984h0.896v5.696h-0.896v1.919h0.896v6.081H91.84L91.84,103.443z"/>
		</g>
	</g>
	<g>
		<g>
			<path fill="#FE9929" d="M105.216,90.963l-1.344,7.168h-0.832v1.919h0.512l-0.64,3.394h-2.24l3.648-15.681h1.856l3.648,15.681
				h-2.24l-0.641-3.394h0.704v-1.919h-1.088L105.216,90.963z"/>
			<path fill="#FE9929" d="M106.944,100.05h-3.393l0.32-1.919h2.688L106.944,100.05z"/>
		</g>
	</g>
	<g>
		<g>
			<path fill="#FE9929" d="M115.648,94.674l1.664,0.832c0.384,0.257,0.704,0.704,0.96,1.088c0.256,0.449,0.32,1.085,0.32,1.916
				v1.409c0,0.831-0.064,1.475-0.383,2.05c-0.256,0.514-0.704,0.959-1.28,1.15c-0.576,0.32-1.28,0.516-2.048,0.516
				s-1.472-0.191-2.048-0.516c-0.576-0.189-1.024-0.64-1.28-1.15c-0.32-0.641-0.448-1.283-0.448-2.05V99.15h2.048v0.644
				c0,0.641,0.128,1.021,0.448,1.344c0.32,0.316,0.768,0.513,1.28,0.513s0.96-0.192,1.28-0.513c0.32-0.319,0.448-0.703,0.448-1.344
				V98.51c0-0.383-0.128-0.703-0.256-0.96c-0.191-0.253-0.448-0.513-0.704-0.704l-1.216-0.578l0,0h-0.064l-0.128-0.062l-1.6-0.896
				c-0.512-0.316-0.832-0.704-1.088-1.217c-0.32-0.577-0.448-1.217-0.448-1.918v-0.96c0-0.704,0.128-1.346,0.448-1.919
				c0.256-0.576,0.704-0.959,1.28-1.281c0.576-0.253,1.28-0.383,2.048-0.383s1.408,0.128,1.984,0.383
				c0.576,0.317,0.96,0.705,1.28,1.281c0.256,0.579,0.448,1.283,0.448,1.983v0.831h-2.048V91.41c0-0.576-0.192-0.96-0.448-1.345
				c-0.256-0.255-0.704-0.45-1.216-0.45c-0.576,0-1.024,0.191-1.28,0.45c-0.32,0.253-0.448,0.705-0.448,1.217v0.96
				c0,0.383,0.064,0.768,0.256,1.021c0.256,0.254,0.447,0.449,0.703,0.641l1.152,0.578c0.064,0,0.128,0,0.128,0.063
				c0.064,0.063,0.128,0.063,0.128,0.063L115.648,94.674z"/>
		</g>
	</g>
	<g>
		<g>
			<path fill="#FE9929" d="M122.688,87.763v15.684h-2.048V87.763H122.688z"/>
		</g>
	</g>
	<g>
		<g>
			<path fill="#FE9929" d="M125.888,101.458v1.985H124.8V87.763h2.048v13.695H125.888z"/>
			<path fill="#FE9929" d="M126.848,101.458h4.48v1.985h-4.48V101.458z"/>
		</g>
	</g>
	<g>
		<g>
			<path fill="#FE9929" d="M133.952,101.458v1.985h-1.024V87.763h1.983v13.695H133.952z"/>
			<path fill="#FE9929" d="M134.912,101.458h4.48v1.985h-4.48V101.458z"/>
		</g>
	</g>
	<g>
		<g>
			<path fill="#FE9929" d="M146.944,103.123c-0.576,0.32-1.28,0.512-2.112,0.512c-0.768,0-1.472-0.188-2.048-0.512
				c-0.64-0.32-1.088-0.77-1.344-1.345c-0.256-0.575-0.448-1.281-0.448-2.112v-8.129c0-0.831,0.192-1.534,0.448-2.114
				c0.256-0.577,0.704-1.02,1.344-1.344c0.64-0.316,1.344-0.451,2.048-0.451c0.832,0,1.536,0.128,2.112,0.451
				c0.512,0.252,1.023,0.767,1.344,1.344c0.32,0.643,0.448,1.348,0.448,2.114v8.129c0,0.769-0.128,1.472-0.448,2.112
				C147.968,102.354,147.52,102.803,146.944,103.123z M143.872,101.394c0.32,0.129,0.64,0.257,0.96,0.257s0.64-0.128,1.024-0.257
				c0.256-0.126,0.512-0.316,0.64-0.64c0.128-0.319,0.192-0.64,0.192-1.022v-8.257c0-0.384-0.064-0.704-0.192-0.961
				c-0.128-0.32-0.384-0.576-0.64-0.64c-0.384-0.191-0.704-0.256-1.024-0.256s-0.64,0.064-0.96,0.256
				c-0.256,0.063-0.448,0.319-0.64,0.64c-0.128,0.257-0.192,0.577-0.192,0.961v8.255c0,0.384,0.064,0.705,0.192,1.023
				C143.424,101.074,143.616,101.268,143.872,101.394z"/>
		</g>
	</g>
	<g>
		<g>
			<path fill="#FE9929" d="M154.752,97.938l2.24-1.663l-2.24-1.664v-2.624l5.504,4.288l-5.504,4.288V97.938z"/>
		</g>
	</g>
	<g>
		<g>
			<path fill="#FE9929" d="M160.64,97.938l2.305-1.663l-2.305-1.664v-2.624l5.504,4.288l-5.504,4.288V97.938z"/>
		</g>
	</g>
	<g>
		<g>
			<path fill="#FE9929" d="M175.552,97.362h-1.984v-1.916h1.984c0.32,0,0.576-0.065,0.768-0.193
				c0.192-0.127,0.384-0.317,0.448-0.575c0.064-0.191,0.128-0.516,0.128-0.896V91.41c0-0.384-0.064-0.64-0.128-0.896
				c-0.064-0.256-0.256-0.448-0.448-0.576c-0.192-0.127-0.448-0.19-0.768-0.19h-1.984v-1.984h1.984c0.704,0,1.344,0.191,1.92,0.45
				c0.448,0.318,0.896,0.704,1.152,1.281c0.32,0.516,0.448,1.152,0.448,1.919v2.433c0,0.704-0.127,1.28-0.448,1.917
				c-0.32,0.516-0.768,0.96-1.216,1.151C176.896,97.234,176.256,97.362,175.552,97.362z"/>
			<path fill="#FE9929" d="M171.52,103.443V87.763h1.152v1.984h0.896v5.696h-0.896v1.919h0.896v6.081H171.52L171.52,103.443z"/>
		</g>
	</g>
	<g>
		<g>
			<path fill="#FE9929" d="M184.896,90.963l-1.344,7.168h-0.896v1.919h0.576l-0.704,3.394h-2.176l3.584-15.681h1.856l3.648,15.681
				h-2.176l-0.64-3.394h0.704v-1.919h-1.088L184.896,90.963z"/>
			<path fill="#FE9929" d="M186.624,100.05h-3.392l0.32-1.919h2.688L186.624,100.05z"/>
		</g>
	</g>
	<g>
		<g>
			<path fill="#FE9929" d="M195.072,94.547l0.256,0.127c0.064,0,0.064,0,0.064,0l1.536,0.832c0.383,0.257,0.704,0.577,0.959,1.088
				c0.32,0.513,0.383,1.15,0.383,1.916v1.409c0,0.768-0.127,1.411-0.383,2.05c-0.32,0.514-0.768,0.959-1.28,1.15
				c-0.576,0.32-1.28,0.516-2.112,0.516c-0.768,0-1.408-0.191-2.048-0.516c-0.576-0.189-0.96-0.64-1.28-1.15
				c-0.256-0.641-0.448-1.283-0.448-2.05V99.15h2.048v0.644c0,0.641,0.128,1.021,0.448,1.344c0.32,0.316,0.768,0.513,1.28,0.513
				c0.576,0,1.024-0.192,1.28-0.513c0.32-0.319,0.512-0.703,0.512-1.344V98.51c0-0.383-0.127-0.703-0.32-0.96
				c-0.192-0.253-0.384-0.513-0.704-0.704l-1.152-0.578c0,0,0,0-0.064,0l0,0l-0.192-0.062l-1.6-0.896
				c-0.384-0.316-0.768-0.704-1.088-1.217c-0.256-0.45-0.384-1.086-0.384-1.918v-0.96c0-0.704,0.128-1.346,0.384-1.919
				c0.32-0.576,0.704-0.959,1.28-1.281c0.64-0.253,1.344-0.383,2.048-0.383c0.768,0,1.472,0.128,2.048,0.383
				c0.512,0.317,0.96,0.705,1.28,1.281c0.256,0.579,0.384,1.283,0.384,1.983v0.831h-2.048V91.41c0-0.576-0.128-1.088-0.449-1.345
				c-0.256-0.255-0.64-0.45-1.216-0.45c-0.512,0-0.96,0.191-1.28,0.45c-0.32,0.254-0.384,0.705-0.384,1.217v0.96
				c0,0.447,0.064,0.768,0.256,1.021c0.192,0.254,0.383,0.449,0.703,0.641l1.152,0.578
				C195.008,94.482,195.008,94.482,195.072,94.547z"/>
		</g>
	</g>
	<g>
		<g>
			<path fill="#FE9929" d="M202.368,87.763v15.684h-2.112V87.763H202.368z"/>
		</g>
	</g>
	<g>
		<g>
			<path fill="#FE9929" d="M205.568,101.458v1.985h-1.151V87.763h2.115v13.695H205.568z"/>
			<path fill="#FE9929" d="M206.528,101.458h4.415v1.985h-4.415V101.458z"/>
		</g>
	</g>
	<g>
		<g>
			<path fill="#FE9929" d="M213.632,101.458v1.985h-1.088V87.763h2.051v13.695H213.632z"/>
			<path fill="#FE9929" d="M214.592,101.458h4.48v1.985h-4.48V101.458z"/>
		</g>
	</g>
	<g>
		<g>
			<path fill="#FE9929" d="M226.623,103.123c-0.574,0.32-1.279,0.512-2.112,0.512c-0.767,0-1.534-0.188-2.051-0.512
				c-0.645-0.32-1.083-0.77-1.411-1.345c-0.253-0.641-0.383-1.344-0.383-2.112v-8.129c0-0.767,0.128-1.472,0.383-2.114
				c0.32-0.577,0.767-1.02,1.411-1.344c0.576-0.316,1.284-0.451,2.051-0.451c0.833,0,1.472,0.128,2.112,0.451
				c0.641,0.316,1.025,0.767,1.281,1.344c0.319,0.58,0.513,1.348,0.513,2.114v8.129c0,0.831-0.193,1.537-0.513,2.112
				C227.648,102.354,227.264,102.803,226.623,103.123z M223.552,101.394c0.316,0.129,0.641,0.257,0.959,0.257
				c0.383,0,0.705-0.128,1.021-0.257c0.252-0.126,0.45-0.316,0.645-0.64c0.123-0.319,0.188-0.64,0.188-1.022v-8.257
				c0-0.32-0.064-0.641-0.188-0.961c-0.194-0.32-0.385-0.576-0.645-0.64c-0.316-0.191-0.64-0.256-1.021-0.256
				c-0.318,0-0.643,0.064-0.959,0.256c-0.319,0.129-0.516,0.319-0.641,0.64c-0.128,0.257-0.255,0.577-0.255,0.961v8.255
				c0,0.384,0.127,0.705,0.255,1.023C223.04,101.01,223.232,101.203,223.552,101.394z"/>
		</g>
	</g>
	<g>
		<g>
			<path fill="#FE9929" d="M234.432,97.938l2.305-1.663l-2.305-1.664v-2.624l5.504,4.288l-5.504,4.288V97.938z"/>
		</g>
	</g>
	<g>
		<g>
			<path fill="#FE9929" d="M240.32,97.938l2.24-1.663l-2.24-1.664v-2.624l5.503,4.288l-5.503,4.288V97.938z"/>
		</g>
	</g>
</g>
<g enable-background="new    ">
	<path fill="#FAFCFA" d="M66.2,41.175h2.897v28.414H66.2V41.175z M67.691,54.776h6.604c0.625,0,1.173-0.201,1.648-0.605
		c0.473-0.404,0.84-0.977,1.101-1.719c0.261-0.743,0.391-1.596,0.391-2.56c0-0.978-0.131-1.838-0.391-2.58
		c-0.261-0.742-0.628-1.318-1.101-1.729c-0.474-0.411-1.022-0.616-1.648-0.616h-6.604v-3.791h6.505c1.23,0,2.315,0.362,3.252,1.085
		c0.937,0.722,1.664,1.742,2.18,3.058c0.517,1.316,0.774,2.841,0.774,4.573s-0.258,3.254-0.774,4.563
		c-0.516,1.31-1.242,2.323-2.18,3.038c-0.938,0.717-2.021,1.076-3.252,1.076h-6.505V54.776z"/>
	<path fill="#FAFCFA" d="M84.024,41.175h2.897v28.414h-2.897V41.175z M85.473,65.798H97.29v3.791H85.473V65.798z"/>
	<path fill="#FAFCFA" d="M106.606,41.175h2.471l7.613,28.414h-3.125l-5.724-22.922l-5.723,22.922h-3.125L106.606,41.175z
		 M102.502,59.563h10.865v3.791h-10.865V59.563z"/>
	<path fill="#FAFCFA" d="M119.816,41.175h2.627l10.098,21.965l-0.341,0.508V41.175h2.869v28.394h-2.656l-10.069-21.632l0.341-0.508
		v22.14h-2.87V41.175z"/>
	<path fill="#FAFCFA" d="M138.479,41.175h14.572v3.791h-14.572V41.175L138.479,41.175z M144.315,43.501h2.897v26.088h-2.897V43.501z
		"/>
	<path fill="#FAFCFA" d="M160.237,41.175h2.471l7.613,28.414h-3.125l-5.725-22.922l-5.723,22.922h-3.125L160.237,41.175z
		 M156.132,59.563h10.866v3.791h-10.866V59.563z"/>
	<path fill="#FAFCFA" d="M181.257,41.175h2.882v28.414h-2.882V41.175z M182.961,65.895h5.596c1.467,0,2.538-0.383,3.21-1.152
		c0.671-0.769,1.007-1.851,1.007-3.244V61.44c0-0.964-0.119-1.791-0.361-2.482c-0.243-0.69-0.624-1.221-1.144-1.593
		c-0.521-0.371-1.188-0.557-2.002-0.557h-6.306v-3.596h6.306c1.07,0,1.876-0.346,2.421-1.035c0.545-0.69,0.817-1.713,0.817-3.068
		c0-1.42-0.303-2.481-0.909-3.186c-0.607-0.703-1.515-1.055-2.727-1.055h-5.909v-3.693h6.434c1.335,0,2.452,0.313,3.352,0.938
		c0.899,0.625,1.571,1.511,2.017,2.657c0.445,1.146,0.667,2.515,0.667,4.104c0,0.977-0.138,1.893-0.412,2.745
		c-0.275,0.854-0.694,1.583-1.257,2.189c-0.563,0.606-1.261,1.014-2.095,1.221c0.834,0.17,1.552,0.577,2.158,1.221
		c0.607,0.646,1.071,1.451,1.393,2.415c0.321,0.964,0.483,2.006,0.483,3.126v0.059c0,1.537-0.247,2.893-0.739,4.065
		c-0.492,1.172-1.197,2.078-2.116,2.716c-0.919,0.639-1.989,0.958-3.21,0.958h-6.675L182.961,65.895L182.961,65.895z"/>
	<path fill="#FAFCFA" d="M205.23,41.175h2.472l7.613,28.414h-3.125l-5.723-22.922l-5.724,22.922h-3.125L205.23,41.175z
		 M201.126,59.563h10.864v3.791h-10.864V59.563z"/>
	<path fill="#FAFCFA" d="M218.837,68.964c-0.918-0.612-1.666-1.473-2.244-2.58l2.372-2.346c0.265,0.64,0.649,1.134,1.15,1.485
		c0.502,0.353,1.083,0.528,1.746,0.528c1.126,0,2-0.482,2.62-1.447c0.62-0.963,0.931-2.318,0.931-4.064V41.175h2.898v19.386
		c0,1.967-0.251,3.649-0.754,5.042c-0.502,1.394-1.234,2.455-2.202,3.185c-0.964,0.73-2.129,1.095-3.493,1.095
		C220.764,69.882,219.755,69.576,218.837,68.964z"/>
	<path fill="#FAFCFA" d="M238.337,41.175h2.472l7.613,28.414h-3.124l-5.724-22.922l-5.725,22.922h-3.124L238.337,41.175z
		 M234.233,59.563h10.865v3.791h-10.865V59.563L234.233,59.563z"/>
</g>
</svg>
