<?xml version="1.0" encoding="utf-8"?>
<!-- Generator: Adobe Illustrator 16.0.2, SVG Export Plug-In . SVG Version: 6.00 Build 0)  -->
<!DOCTYPE svg PUBLIC "-//W3C//DTD SVG 1.1//EN" "http://www.w3.org/Graphics/SVG/1.1/DTD/svg11.dtd">
<svg version="1.1"
	 id="svg815" xmlns:dc="http://purl.org/dc/elements/1.1/" xmlns:svg="http://www.w3.org/2000/svg" xmlns:rdf="http://www.w3.org/1999/02/22-rdf-syntax-ns#" xmlns:sodipodi="http://sodipodi.sourceforge.net/DTD/sodipodi-0.dtd" xmlns:cc="http://creativecommons.org/ns#" xmlns:inkscape="http://www.inkscape.org/namespaces/inkscape" sodipodi:docname="coffee013a.svg" inkscape:version="1.2.2 (732a01da63, 2022-12-09)"
	 xmlns="http://www.w3.org/2000/svg" xmlns:xlink="http://www.w3.org/1999/xlink" x="0px" y="0px" width="320px" height="109.2px"
	 viewBox="40 13.65 320 109.2" enable-background="new 40 13.65 320 109.2" xml:space="preserve">
<line fill="none" x1="40" y1="122.85" x2="360" y2="13.65"/>
<sodipodi:namedview  id="namedview817" inkscape:pagecheckerboard="0" inkscape:window-maximized="1" inkscape:current-layer="layer1" inkscape:window-height="705" inkscape:window-y="-8" inkscape:window-x="-8" inkscape:deskcolor="#d1d1d1" inkscape:pageopacity="0" inkscape:showpageshadow="2" inkscape:pageshadow="2" inkscape:window-width="1366" fit-margin-right="0" inkscape:snap-page="false" fit-margin-bottom="0" inkscape:zoom="0.51782907" bordercolor="#666666" objecttolerance="10" fit-margin-top="0" gridtolerance="10" pagecolor="#ffffff" inkscape:cx="-83.038984" showguides="true" borderopacity="1" inkscape:cy="505.95846" showgrid="false" guidetolerance="10" fit-margin-left="0">
	</sodipodi:namedview>
<g>
	<g>
		<path fill="#FF3300" d="M44.032,93.714V42.77c0-3.136,0.576-6.08,1.728-8.896c1.151-2.688,2.816-5.12,4.928-7.231
			c4.416-4.417,9.728-6.593,16.064-6.593h266.56c3.076,0,5.952,0.576,8.832,1.793c2.688,1.087,5.12,2.751,7.233,4.8
			c4.417,4.479,6.591,9.791,6.591,16.127v50.944c0,3.136-0.575,6.08-1.791,8.896c-1.15,2.687-2.75,5.119-4.8,7.168
			c-2.113,2.112-4.545,3.775-7.233,4.864c-2.88,1.215-5.756,1.792-8.832,1.792H66.752c-3.136,0-6.016-0.581-8.896-1.792
			c-2.688-1.089-5.12-2.752-7.167-4.864c-2.112-2.049-3.776-4.481-4.928-7.168C44.608,99.794,44.032,96.85,44.032,93.714z"/>
	</g>
	<g>
		
			<path fill="none" stroke="#999999" stroke-width="0.5" stroke-linecap="round" stroke-linejoin="round" stroke-miterlimit="10" d="
			M44.032,93.714c0,3.136,0.576,6.08,1.728,8.896c1.151,2.687,2.816,5.119,4.928,7.168c2.048,2.112,4.48,3.775,7.167,4.864
			c2.88,1.215,5.76,1.792,8.896,1.792h266.56c3.072,0,5.953-0.581,8.832-1.792c2.688-1.089,5.121-2.752,7.233-4.864
			c2.051-2.049,3.65-4.481,4.8-7.168c1.217-2.816,1.791-5.761,1.791-8.896V42.77c0-6.336-2.176-11.647-6.591-16.127
			c-2.112-2.049-4.545-3.713-7.233-4.8c-2.879-1.217-5.76-1.793-8.831-1.793H66.752c-6.336,0-11.648,2.176-16.064,6.593
			c-2.112,2.111-3.776,4.543-4.928,7.231c-1.152,2.816-1.728,5.76-1.728,8.896V93.714"/>
	</g>
</g>
<g>
	<g>
		
			<path fill="none" stroke="#999999" stroke-width="0.4" stroke-linecap="round" stroke-linejoin="round" stroke-miterlimit="10" d="
			M269.183,88.658c0,5.056,1.794,9.279,5.316,12.8c3.517,3.585,7.808,5.376,12.864,5.376h40.832c4.987,0,9.279-1.787,12.864-5.376
			c3.517-3.521,5.247-7.744,5.247-12.8V47.826c0-5.056-1.727-9.28-5.247-12.864c-3.585-3.52-7.877-5.313-12.864-5.313H287.36
			c-5.057,0-9.345,1.793-12.864,5.313c-3.52,3.583-5.313,7.807-5.313,12.864V88.658"/>
	</g>
	<g>
		<path fill="#F2F2F2" d="M269.183,88.658V47.826c0-5.056,1.794-9.28,5.316-12.864c3.517-3.52,7.808-5.313,12.864-5.313h40.832
			c4.987,0,9.279,1.793,12.864,5.313c3.517,3.583,5.247,7.807,5.247,12.864v40.833c0,5.056-1.727,9.279-5.247,12.8
			c-3.585,3.585-7.877,5.376-12.864,5.376H287.36c-5.057,0-9.345-1.787-12.864-5.376C270.977,97.938,269.183,93.714,269.183,88.658z
			"/>
	</g>
</g>
<g>
	<path fill="#FFFFFF" d="M-221.323,343.671v-5.601h-19.521v45.439h19.521v-5.68h-13.601v-14.08h12v-5.68h-12v-14.4L-221.323,343.671
		L-221.323,343.671z"/>
	<path fill="#FFFFFF" d="M-142.203,338.07h-19.439v45.439h19.438v-5.68h-13.52v-14.08h12v-5.68h-12v-14.4h13.52L-142.203,338.07
		L-142.203,338.07z"/>
	<path fill="#FFFFFF" d="M-166.283,343.671v-5.601h-22.08v5.601h8.08v39.839h5.92v-39.839H-166.283z"/>
	<g>
		<g>
			<g>
				<path fill="#FFFFFF" d="M-345.883,355.831l4.16,2c0.08,0,0.238,0.08,0.238,0.159l0.4,0.08c1.76,0.801,3.2,1.601,4.319,2.4
					c1.12,0.639,2,1.76,2.881,3.2c0.72,1.359,1.119,3.201,1.119,5.44v4.16c0,2.236-0.479,4.158-1.279,5.84
					c-0.801,1.6-2.08,2.8-3.68,3.6c-1.602,0.8-3.602,1.199-5.921,1.199c-2.398,0-4.398-0.399-6.078-1.199
					c-1.682-0.801-2.882-2-3.762-3.6c-0.8-1.682-1.279-3.604-1.279-5.84v-2.24h6v2c0,1.6,0.399,2.88,1.279,3.841
					c0.88,0.88,2.16,1.358,3.842,1.358c1.6,0,2.799-0.479,3.6-1.358c0.88-0.961,1.359-2.161,1.359-3.841v-4
					c0-1.041-0.32-2-0.801-2.801c-0.64-0.721-1.359-1.359-2.079-1.84c-0.961-0.56-2.079-1.119-3.36-1.76c-0.08,0-0.08,0-0.159,0
					h-0.08l-0.398-0.24c-2.08-0.959-3.682-1.76-4.722-2.56c-1.2-0.8-2.24-2-3.2-3.521c-0.8-1.439-1.199-3.28-1.199-5.601v-2.64
					c0-2.239,0.399-4.16,1.199-5.68c0.801-1.52,2.08-2.72,3.762-3.601c1.68-0.8,3.68-1.2,6-1.2c2.318,0,4.238,0.4,5.84,1.281
					c1.6,0.719,2.8,1.918,3.6,3.6c0.8,1.52,1.2,3.439,1.2,5.76v2.4h-5.842v-2.158c0-1.683-0.399-2.962-1.279-3.842
					c-0.801-0.8-1.92-1.279-3.52-1.279c-1.602,0-2.881,0.479-3.762,1.279c-0.8,0.801-1.279,2-1.279,3.6v2.801
					c0,1.199,0.319,2.16,0.801,2.88C-347.483,354.63-346.764,355.271-345.883,355.831z"/>
			</g>
		</g>
		<g>
			<g>
				<path fill="#FFFFFF" d="M-319.483,338.07v45.439h-5.92V338.07H-319.483z"/>
			</g>
		</g>
		<g>
			<g>
				<path fill="#FFFFFF" d="M-300.844,359.03h11.041v13.28c0,2.399-0.4,4.563-1.28,6.319c-0.88,1.681-2.16,3.041-3.761,4
					c-1.601,0.88-3.601,1.28-5.84,1.28c-2.32,0-4.32-0.4-6-1.2c-1.681-0.88-2.959-2.159-3.841-3.839
					c-0.8-1.602-1.278-3.602-1.278-5.921V349.27c0-2.561,0.479-4.641,1.278-6.319c0.879-1.681,2.08-3.12,3.681-4
					c1.681-0.88,3.601-1.361,5.92-1.361c2.319,0,4.239,0.481,5.841,1.281c1.521,0.879,2.8,2.159,3.6,3.918
					c0.88,1.682,1.28,3.682,1.28,6.082v2.239h-6.32v-2.239c0-1.2-0.16-2.161-0.479-2.961c-0.319-0.88-0.799-1.439-1.521-1.92
					c-0.72-0.479-1.521-0.64-2.4-0.64c-0.959,0-1.92,0.239-2.722,0.721c-0.64,0.399-1.198,1.039-1.68,2
					c-0.32,0.88-0.561,1.919-0.561,3.199v23.681c0,1.12,0.239,2.08,0.641,2.88c0.4,0.721,0.96,1.279,1.76,1.68
					c0.722,0.479,1.681,0.723,2.801,0.723c0.959,0,1.841-0.319,2.641-0.723c0.72-0.479,1.2-1.039,1.68-2
					c0.399-0.88,0.641-1.839,0.641-3.119v-7.761h-5.119v-5.6H-300.844z"/>
			</g>
		</g>
		<g>
			<g>
				<path fill="#FFFFFF" d="M-266.443,382.71c-1.52,0.8-3.358,1.2-5.68,1.2c-2.24,0-4.08-0.4-5.6-1.2
					c-1.521-0.8-2.722-2-3.521-3.601c-0.8-1.603-1.2-3.603-1.2-5.84V338.07h6v35.439c0,1.521,0.32,2.723,1.12,3.521
					c0.72,0.802,1.761,1.201,3.2,1.201s2.479-0.399,3.279-1.201c0.801-0.879,1.2-2,1.2-3.521V338.07h5.921v35.201
					c0,2.237-0.4,4.237-1.201,5.84C-263.723,380.71-264.924,381.911-266.443,382.71z"/>
			</g>
		</g>
		<g>
			<g>
				<path fill="#FFFFFF" d="M-248.443,338.07v45.439h-6V338.07H-248.443z"/>
			</g>
		</g>
		<g>
			<g>
				<path fill="#FFFFFF" d="M-198.123,383.51l-11.439-31.279v-3.359l-0.959,0.8l0.959,2.56v31.28h-5.681v-45.44h5.2l11.521,32v3.601
					l0.959-0.8l-0.959-2.801v-32h5.679v45.439H-198.123z"/>
			</g>
		</g>
	</g>
</g>
<path fill="#FF0000" d="M339.648,65.683c0-0.64-0.124-1.28-0.383-1.855c-0.192-0.576-0.576-1.152-1.088-1.664l-23.105-23.169
	c-0.512-0.383-1.085-0.831-1.664-1.024c-0.576-0.256-1.216-0.383-1.853-0.383c-0.644,0-1.218,0.127-1.855,0.383
	c-0.64,0.193-1.152,0.641-1.601,1.024l-1.792,1.792c-0.447,0.447-0.768,1.024-1.021,1.6c-0.255,0.576-0.384,1.216-0.384,1.856
	c0,0.64,0.127,1.279,0.384,1.855c0.254,0.576,0.578,1.152,1.021,1.665l12.583,12.544h-1.51h-18.053h-14.721
	c-0.703,0-1.344,0.127-1.916,0.383c-0.58,0.193-1.152,0.577-1.537,1.024c-0.45,0.449-0.831,0.96-1.087,1.536
	c-0.257,0.64-0.385,1.28-0.385,1.92v2.497c0,0.704,0.128,1.344,0.385,1.92c0.256,0.575,0.64,1.087,1.087,1.536
	c0.383,0.447,0.957,0.831,1.537,1.087c0.576,0.193,1.216,0.319,1.916,0.319h14.721h18.049h1.087l-12.607,12.608
	c-0.517,0.513-0.833,1.024-1.089,1.665c-0.256,0.575-0.383,1.215-0.383,1.852c0,0.643,0.125,1.216,0.383,1.855
	c0.256,0.641,0.576,1.151,1.089,1.601l1.724,1.728c0.45,0.512,0.96,0.829,1.6,1.086c0.644,0.255,1.217,0.383,1.856,0.383
	c0.639,0,1.217-0.127,1.856-0.383c0.639-0.257,1.149-0.578,1.6-1.086l23.168-23.171c0.513-0.448,0.832-1.021,1.085-1.6
	c0.15-0.369,0.251-0.717,0.313-1.066c0.081-0.154,0.149-0.313,0.202-0.47C339.521,66.963,339.648,66.323,339.648,65.683z"/>
<g>
	<g>
		<g>
			<path fill="#FE9929" d="M75.136,97.938l2.24-1.663l-2.24-1.664v-2.624l5.504,4.288l-5.504,4.288V97.938z"/>
		</g>
	</g>
	<g>
		<g>
			<path fill="#FE9929" d="M80.96,97.938l2.304-1.663L80.96,94.61v-2.624l5.504,4.288l-5.504,4.288V97.938z"/>
		</g>
	</g>
	<g>
		<g>
			<path fill="#FE9929" d="M95.872,97.362h-1.984v-1.916h2.048c0.256,0,0.512-0.065,0.704-0.193
				c0.256-0.127,0.384-0.317,0.512-0.575c0.064-0.191,0.128-0.516,0.128-0.896V91.41c0-0.384-0.064-0.64-0.128-0.896
				c-0.128-0.256-0.256-0.448-0.512-0.576c-0.191-0.127-0.447-0.19-0.704-0.19h-2.048v-1.984h1.983c0.704,0,1.28,0.191,1.92,0.45
				c0.448,0.318,0.897,0.704,1.217,1.281c0.192,0.449,0.384,1.086,0.384,1.918v2.434c0,0.767-0.192,1.406-0.448,1.917
				c-0.256,0.514-0.641,0.894-1.152,1.149C97.28,97.234,96.64,97.362,95.872,97.362z"/>
			<path fill="#FE9929" d="M91.84,103.443V87.763h1.152v1.984h0.896v5.696h-0.896v1.919h0.896v6.081H91.84L91.84,103.443z"/>
		</g>
	</g>
	<g>
		<g>
			<path fill="#FE9929" d="M105.216,90.963l-1.344,7.168h-0.832v1.919h0.512l-0.64,3.394h-2.24l3.648-15.681h1.856l3.648,15.681
				h-2.24l-0.641-3.394h0.704v-1.919h-1.088L105.216,90.963z"/>
			<path fill="#FE9929" d="M106.944,100.05h-3.393l0.32-1.919h2.688L106.944,100.05z"/>
		</g>
	</g>
	<g>
		<g>
			<path fill="#FE9929" d="M115.648,94.674l1.664,0.832c0.384,0.257,0.704,0.704,0.96,1.088c0.256,0.449,0.32,1.085,0.32,1.916
				v1.409c0,0.831-0.064,1.475-0.383,2.05c-0.256,0.514-0.704,0.959-1.28,1.15c-0.576,0.32-1.28,0.516-2.048,0.516
				s-1.472-0.191-2.048-0.516c-0.576-0.189-1.024-0.64-1.28-1.15c-0.32-0.641-0.448-1.283-0.448-2.05V99.15h2.048v0.644
				c0,0.641,0.128,1.021,0.448,1.344c0.32,0.316,0.768,0.513,1.28,0.513s0.96-0.192,1.28-0.513c0.32-0.319,0.448-0.703,0.448-1.344
				V98.51c0-0.383-0.128-0.703-0.256-0.96c-0.191-0.253-0.448-0.513-0.704-0.704l-1.216-0.578l0,0h-0.064l-0.128-0.062l-1.6-0.896
				c-0.512-0.316-0.832-0.704-1.088-1.217c-0.32-0.577-0.448-1.217-0.448-1.918v-0.96c0-0.704,0.128-1.346,0.448-1.919
				c0.256-0.576,0.704-0.959,1.28-1.281c0.576-0.253,1.28-0.383,2.048-0.383s1.408,0.128,1.984,0.383
				c0.576,0.317,0.96,0.705,1.28,1.281c0.256,0.579,0.448,1.283,0.448,1.983v0.831h-2.048V91.41c0-0.576-0.192-0.96-0.448-1.345
				c-0.256-0.255-0.704-0.45-1.216-0.45c-0.576,0-1.024,0.191-1.28,0.45c-0.32,0.253-0.448,0.705-0.448,1.217v0.96
				c0,0.383,0.064,0.768,0.256,1.021c0.256,0.254,0.447,0.449,0.703,0.641l1.152,0.578c0.064,0,0.128,0,0.128,0.063
				c0.064,0.063,0.128,0.063,0.128,0.063L115.648,94.674z"/>
		</g>
	</g>
	<g>
		<g>
			<path fill="#FE9929" d="M122.688,87.763v15.684h-2.048V87.763H122.688z"/>
		</g>
	</g>
	<g>
		<g>
			<path fill="#FE9929" d="M125.888,101.458v1.985H124.8V87.763h2.048v13.695H125.888z"/>
			<path fill="#FE9929" d="M126.848,101.458h4.48v1.985h-4.48V101.458z"/>
		</g>
	</g>
	<g>
		<g>
			<path fill="#FE9929" d="M133.952,101.458v1.985h-1.024V87.763h1.983v13.695H133.952z"/>
			<path fill="#FE9929" d="M134.912,101.458h4.48v1.985h-4.48V101.458z"/>
		</g>
	</g>
	<g>
		<g>
			<path fill="#FE9929" d="M146.944,103.123c-0.576,0.32-1.28,0.512-2.112,0.512c-0.768,0-1.472-0.188-2.048-0.512
				c-0.64-0.32-1.088-0.77-1.344-1.345c-0.256-0.575-0.448-1.281-0.448-2.112v-8.129c0-0.831,0.192-1.534,0.448-2.114
				c0.256-0.577,0.704-1.02,1.344-1.344c0.64-0.316,1.344-0.451,2.048-0.451c0.832,0,1.536,0.128,2.112,0.451
				c0.512,0.252,1.023,0.767,1.344,1.344c0.32,0.643,0.448,1.348,0.448,2.114v8.129c0,0.769-0.128,1.472-0.448,2.112
				C147.968,102.354,147.52,102.803,146.944,103.123z M143.872,101.394c0.32,0.129,0.64,0.257,0.96,0.257s0.64-0.128,1.024-0.257
				c0.256-0.126,0.512-0.316,0.64-0.64c0.128-0.319,0.192-0.64,0.192-1.022v-8.257c0-0.384-0.064-0.704-0.192-0.961
				c-0.128-0.32-0.384-0.576-0.64-0.64c-0.384-0.191-0.704-0.256-1.024-0.256s-0.64,0.064-0.96,0.256
				c-0.256,0.063-0.448,0.319-0.64,0.64c-0.128,0.257-0.192,0.577-0.192,0.961v8.255c0,0.384,0.064,0.705,0.192,1.023
				C143.424,101.074,143.616,101.268,143.872,101.394z"/>
		</g>
	</g>
	<g>
		<g>
			<path fill="#FE9929" d="M154.752,97.938l2.24-1.663l-2.24-1.664v-2.624l5.504,4.288l-5.504,4.288V97.938z"/>
		</g>
	</g>
	<g>
		<g>
			<path fill="#FE9929" d="M160.64,97.938l2.305-1.663l-2.305-1.664v-2.624l5.504,4.288l-5.504,4.288V97.938z"/>
		</g>
	</g>
	<g>
		<g>
			<path fill="#FE9929" d="M175.552,97.362h-1.984v-1.916h1.984c0.32,0,0.576-0.065,0.768-0.193
				c0.192-0.127,0.384-0.317,0.448-0.575c0.064-0.191,0.128-0.516,0.128-0.896V91.41c0-0.384-0.064-0.64-0.128-0.896
				c-0.064-0.256-0.256-0.448-0.448-0.576c-0.192-0.127-0.448-0.19-0.768-0.19h-1.984v-1.984h1.984c0.704,0,1.344,0.191,1.92,0.45
				c0.448,0.318,0.896,0.704,1.152,1.281c0.32,0.516,0.448,1.152,0.448,1.919v2.433c0,0.704-0.127,1.28-0.448,1.917
				c-0.32,0.516-0.768,0.96-1.216,1.151C176.896,97.234,176.256,97.362,175.552,97.362z"/>
			<path fill="#FE9929" d="M171.52,103.443V87.763h1.152v1.984h0.896v5.696h-0.896v1.919h0.896v6.081H171.52L171.52,103.443z"/>
		</g>
	</g>
	<g>
		<g>
			<path fill="#FE9929" d="M184.896,90.963l-1.344,7.168h-0.896v1.919h0.576l-0.704,3.394h-2.176l3.584-15.681h1.856l3.648,15.681
				h-2.176l-0.64-3.394h0.704v-1.919h-1.088L184.896,90.963z"/>
			<path fill="#FE9929" d="M186.624,100.05h-3.392l0.32-1.919h2.688L186.624,100.05z"/>
		</g>
	</g>
	<g>
		<g>
			<path fill="#FE9929" d="M195.072,94.547l0.256,0.127c0.064,0,0.064,0,0.064,0l1.536,0.832c0.383,0.257,0.704,0.577,0.959,1.088
				c0.32,0.513,0.383,1.15,0.383,1.916v1.409c0,0.768-0.127,1.411-0.383,2.05c-0.32,0.514-0.768,0.959-1.28,1.15
				c-0.576,0.32-1.28,0.516-2.112,0.516c-0.768,0-1.408-0.191-2.048-0.516c-0.576-0.189-0.96-0.64-1.28-1.15
				c-0.256-0.641-0.448-1.283-0.448-2.05V99.15h2.048v0.644c0,0.641,0.128,1.021,0.448,1.344c0.32,0.316,0.768,0.513,1.28,0.513
				c0.576,0,1.024-0.192,1.28-0.513c0.32-0.319,0.512-0.703,0.512-1.344V98.51c0-0.383-0.127-0.703-0.32-0.96
				c-0.192-0.253-0.384-0.513-0.704-0.704l-1.152-0.578c0,0,0,0-0.064,0l0,0l-0.192-0.062l-1.6-0.896
				c-0.384-0.316-0.768-0.704-1.088-1.217c-0.256-0.45-0.384-1.086-0.384-1.918v-0.96c0-0.704,0.128-1.346,0.384-1.919
				c0.32-0.576,0.704-0.959,1.28-1.281c0.64-0.253,1.344-0.383,2.048-0.383c0.768,0,1.472,0.128,2.048,0.383
				c0.512,0.317,0.96,0.705,1.28,1.281c0.256,0.579,0.384,1.283,0.384,1.983v0.831h-2.048V91.41c0-0.576-0.128-1.088-0.449-1.345
				c-0.256-0.255-0.64-0.45-1.216-0.45c-0.512,0-0.96,0.191-1.28,0.45c-0.32,0.254-0.384,0.705-0.384,1.217v0.96
				c0,0.447,0.064,0.768,0.256,1.021c0.192,0.254,0.383,0.449,0.703,0.641l1.152,0.578
				C195.008,94.482,195.008,94.482,195.072,94.547z"/>
		</g>
	</g>
	<g>
		<g>
			<path fill="#FE9929" d="M202.368,87.763v15.684h-2.112V87.763H202.368z"/>
		</g>
	</g>
	<g>
		<g>
			<path fill="#FE9929" d="M205.568,101.458v1.985h-1.151V87.763h2.115v13.695H205.568z"/>
			<path fill="#FE9929" d="M206.528,101.458h4.415v1.985h-4.415V101.458z"/>
		</g>
	</g>
	<g>
		<g>
			<path fill="#FE9929" d="M213.632,101.458v1.985h-1.088V87.763h2.051v13.695H213.632z"/>
			<path fill="#FE9929" d="M214.592,101.458h4.48v1.985h-4.48V101.458z"/>
		</g>
	</g>
	<g>
		<g>
			<path fill="#FE9929" d="M226.623,103.123c-0.574,0.32-1.279,0.512-2.112,0.512c-0.767,0-1.534-0.188-2.051-0.512
				c-0.645-0.32-1.083-0.77-1.411-1.345c-0.253-0.641-0.383-1.344-0.383-2.112v-8.129c0-0.767,0.128-1.472,0.383-2.114
				c0.32-0.577,0.767-1.02,1.411-1.344c0.576-0.316,1.284-0.451,2.051-0.451c0.833,0,1.472,0.128,2.112,0.451
				c0.641,0.316,1.025,0.767,1.281,1.344c0.319,0.58,0.513,1.348,0.513,2.114v8.129c0,0.831-0.193,1.537-0.513,2.112
				C227.648,102.354,227.264,102.803,226.623,103.123z M223.552,101.394c0.316,0.129,0.641,0.257,0.959,0.257
				c0.383,0,0.705-0.128,1.021-0.257c0.252-0.126,0.45-0.316,0.645-0.64c0.123-0.319,0.188-0.64,0.188-1.022v-8.257
				c0-0.32-0.064-0.641-0.188-0.961c-0.194-0.32-0.385-0.576-0.645-0.64c-0.316-0.191-0.64-0.256-1.021-0.256
				c-0.318,0-0.643,0.064-0.959,0.256c-0.319,0.129-0.516,0.319-0.641,0.64c-0.128,0.257-0.255,0.577-0.255,0.961v8.255
				c0,0.384,0.127,0.705,0.255,1.023C223.04,101.01,223.232,101.203,223.552,101.394z"/>
		</g>
	</g>
	<g>
		<g>
			<path fill="#FE9929" d="M234.432,97.938l2.305-1.663l-2.305-1.664v-2.624l5.504,4.288l-5.504,4.288V97.938z"/>
		</g>
	</g>
	<g>
		<g>
			<path fill="#FE9929" d="M240.32,97.938l2.24-1.663l-2.24-1.664v-2.624l5.503,4.288l-5.503,4.288V97.938z"/>
		</g>
	</g>
</g>
<text transform="matrix(0.7268 0 0 1 -369.5459 -121.2451)" fill="#FDFFFD" font-family="'Bahnschrift'" font-size="62.5328">3er PISO</text>
<text transform="matrix(0.7268 0 0 1 -369.5459 -189.915)" fill="#FDFFFD" font-family="'Bahnschrift'" font-size="62.5328">ALCALDIA</text>
<g enable-background="new    ">
	<path fill="#FDFFFD" d="M89.919,73.469h-3.621V43.376l-3.676,3.102v-5.153l3.676-3.372h3.621V73.469z"/>
	<path fill="#FDFFFD" d="M100.944,73.836c0,0-0.604-0.44-1.812-1.319c-1.207-0.879-2.128-2.169-2.761-3.871
		c-0.634-1.702-0.951-3.758-0.951-6.168V59.62c0-2.508,0.305-4.65,0.915-6.424c0.61-1.775,1.495-3.126,2.654-4.055
		c1.16-0.928,2.556-1.392,4.19-1.392c1.538,0,2.852,0.53,3.941,1.588c1.089,1.059,1.92,2.588,2.495,4.592
		c0.573,2.002,0.861,4.405,0.861,7.205v1.661H98.05v-4.006h8.983c-0.106-2.068-0.495-3.676-1.164-4.824
		c-0.668-1.149-1.565-1.722-2.689-1.722c-1.373,0-2.435,0.619-3.186,1.856c-0.751,1.237-1.127,2.988-1.127,5.251v3.225
		c0,2.101,0.402,3.713,1.207,4.836c0.805,1.123,1.947,1.685,3.427,1.685c0.733,0,1.461-0.203,2.183-0.611
		c0.721-0.407,1.366-0.977,1.935-1.71l2.379,3.273c-0.912,1.206-1.935,2.137-3.071,2.797c-1.136,0.659-2.278,0.988-3.426,0.988
		C101.796,73.836,100.944,73.836,100.944,73.836z"/>
	<path fill="#FDFFFD" d="M115.449,48.115h3.622v25.354h-3.622V48.115z M124.378,52.902c-0.485-0.277-1.048-0.416-1.686-0.416
		c-1.148,0-2.04,0.436-2.672,1.308c-0.634,0.871-0.951,2.081-0.951,3.627l-0.373-4.886c0.568-1.514,1.302-2.69,2.202-3.53
		c0.899-0.837,1.894-1.257,2.982-1.257c0.84,0,1.601,0.167,2.282,0.501c0.681,0.334,1.275,0.827,1.784,1.478l-2.361,4.396
		C125.267,53.586,124.864,53.179,124.378,52.902z"/>
	<path fill="#FDFFFD" d="M141.085,37.952h3.621v35.517h-3.621V37.952L141.085,37.952z M142.949,54.954h8.255
		c0.781,0,1.467-0.252,2.059-0.757c0.591-0.505,1.05-1.221,1.376-2.149c0.326-0.929,0.488-1.996,0.488-3.2
		c0-1.222-0.164-2.297-0.488-3.225c-0.326-0.928-0.784-1.648-1.376-2.161c-0.592-0.514-1.278-0.77-2.059-0.77h-8.255v-4.739h8.131
		c1.538,0,2.894,0.452,4.065,1.356c1.172,0.904,2.08,2.178,2.726,3.822c0.645,1.645,0.967,3.55,0.967,5.717
		s-0.322,4.067-0.967,5.703c-0.646,1.637-1.554,2.903-2.726,3.798c-1.171,0.896-2.527,1.344-4.065,1.344h-8.131V54.954z"/>
	<path fill="#FDFFFD" d="M166.986,73.469h-3.622V37.952h3.622V73.469z"/>
	<path fill="#FDFFFD" d="M179.272,73.836c0,0-0.557-0.164-1.669-0.488c-1.114-0.326-2.151-0.814-3.117-1.466
		c-0.964-0.65-1.867-1.466-2.707-2.442l2.254-3.811c0.982,1.172,2.065,2.051,3.25,2.638c1.183,0.585,2.467,0.88,3.852,0.88
		c1.87,0,3.319-0.478,4.35-1.429c1.03-0.952,1.545-2.3,1.545-4.043V63.65c0-1.237-0.234-2.218-0.701-2.943
		c-0.468-0.725-1.072-1.262-1.812-1.612c-0.74-0.351-1.695-0.672-2.867-0.966c-0.036-0.016-0.074-0.023-0.116-0.023
		c-0.041,0-0.08-0.008-0.116-0.024l-0.266-0.074c-1.728-0.406-3.134-0.867-4.217-1.38c-1.083-0.514-2.009-1.45-2.779-2.81
		c-0.769-1.359-1.153-3.294-1.153-5.802v-0.024c0-2.198,0.358-4.075,1.075-5.63c0.716-1.555,1.76-2.739,3.133-3.554
		s3.024-1.221,4.953-1.221c0.922,0,1.831,0.138,2.725,0.415c0.894,0.278,1.776,0.688,2.646,1.233
		c0.87,0.547,1.725,1.234,2.565,2.064l-2.059,3.957c-0.983-0.993-1.961-1.739-2.938-2.236c-0.977-0.496-1.956-0.745-2.938-0.745
		c-1.764,0-3.134,0.484-4.111,1.453c-0.977,0.969-1.464,2.341-1.464,4.117v0.024c0,1.221,0.25,2.182,0.754,2.882
		c0.502,0.7,1.129,1.217,1.882,1.551c0.751,0.333,1.796,0.68,3.134,1.038c0.047,0.017,0.091,0.029,0.133,0.038
		c0.041,0.008,0.085,0.02,0.133,0.036c0.059,0.017,0.124,0.033,0.195,0.049c0.071,0.017,0.136,0.033,0.195,0.05
		c1.563,0.439,2.867,0.961,3.915,1.563c1.048,0.603,1.923,1.576,2.628,2.918c0.704,1.344,1.056,3.18,1.056,5.509v0.049
		c0,2.166-0.374,4.018-1.118,5.557c-0.746,1.538-1.826,2.712-3.24,3.518c-1.415,0.805-3.122,1.208-5.122,1.208
		C179.894,73.836,179.272,73.836,179.272,73.836z"/>
	<path fill="#FDFFFD" d="M198.836,72.212c-1.373-1.084-2.435-2.615-3.187-4.592c-0.751-1.979-1.127-4.271-1.127-6.876V50.679
		c0-2.604,0.376-4.896,1.127-6.876c0.751-1.979,1.814-3.509,3.187-4.592c1.373-1.083,2.959-1.624,4.76-1.624
		c1.798,0,3.384,0.542,4.758,1.624c1.371,1.083,2.434,2.613,3.185,4.592s1.128,4.271,1.128,6.876v10.064
		c0,2.606-0.377,4.897-1.128,6.876s-1.814,3.51-3.185,4.592c-1.374,1.083-2.96,1.624-4.758,1.624
		C201.795,73.836,200.209,73.295,198.836,72.212z M206.408,67.937c0.811-0.659,1.438-1.595,1.883-2.81
		c0.444-1.213,0.665-2.617,0.665-4.214V50.509c0-1.596-0.221-3.001-0.665-4.215c-0.444-1.213-1.072-2.15-1.883-2.81
		c-0.81-0.659-1.749-0.989-2.813-0.989c-1.066,0-2.005,0.33-2.814,0.989c-0.812,0.659-1.439,1.597-1.884,2.81
		c-0.444,1.214-0.666,2.618-0.666,4.215v10.405c0,1.596,0.222,3.001,0.666,4.214c0.445,1.214,1.072,2.15,1.884,2.809
		c0.81,0.66,1.748,0.989,2.814,0.989C204.659,68.926,205.599,68.597,206.408,67.937z"/>
</g>
<text transform="matrix(0.7268 0 0 1 -369.5459 -38.2744)" fill="#FDFFFD" font-family="'Bahnschrift'" font-size="62.5328">2do PISO</text>
<g>
	<g enable-background="new    ">
		<path fill="#FCFCFC" d="M-362.546-8.604h4.5v45.985h-4.5V-8.604z M-360.229,13.408h10.259c0.97,0,1.823-0.327,2.559-0.98
			c0.736-0.653,1.306-1.582,1.71-2.783c0.404-1.202,0.606-2.583,0.606-4.144c0-1.581-0.202-2.973-0.606-4.175
			c-0.405-1.202-0.975-2.135-1.71-2.799c-0.735-0.664-1.588-0.996-2.559-0.996h-10.259v-6.136h10.104
			c1.912,0,3.596,0.585,5.052,1.755c1.456,1.171,2.584,2.82,3.386,4.95c0.802,2.13,1.203,4.597,1.203,7.4
			c0,2.805-0.401,5.266-1.203,7.385c-0.802,2.12-1.93,3.759-3.386,4.918c-1.457,1.16-3.14,1.74-5.052,1.74h-10.104V13.408z"/>
		<path fill="#FCFCFC" d="M-327.665-8.604h3.839l11.825,45.985h-4.854l-8.891-37.099l-8.891,37.099h-4.854L-327.665-8.604z
			 M-334.041,21.157h16.878v6.135h-16.878V21.157z"/>
		<path fill="#FCFCFC" d="M-301.588,37.855c0,0-0.692-0.211-2.074-0.633c-1.383-0.424-2.673-1.057-3.872-1.896
			c-1.199-0.844-2.32-1.898-3.365-3.164l2.802-4.933c1.22,1.518,2.566,2.656,4.037,3.416c1.471,0.758,3.067,1.141,4.788,1.141
			c2.324,0,4.125-0.617,5.406-1.852c1.279-1.232,1.919-2.979,1.919-5.232v-0.032c0-1.602-0.291-2.872-0.872-3.811
			c-0.581-0.938-1.332-1.634-2.25-2.088c-0.919-0.453-2.106-0.87-3.563-1.249c-0.044-0.021-0.092-0.031-0.144-0.031
			c-0.052,0-0.1-0.011-0.144-0.032l-0.331-0.095c-2.148-0.526-3.895-1.123-5.24-1.787c-1.345-0.664-2.497-1.876-3.453-3.637
			c-0.956-1.761-1.434-4.265-1.434-7.512V4.396c0-2.847,0.445-5.277,1.335-7.29c0.889-2.014,2.188-3.548,3.893-4.603
			c1.707-1.054,3.758-1.581,6.156-1.581c1.147,0,2.275,0.18,3.387,0.537c1.11,0.359,2.206,0.892,3.287,1.598
			c1.081,0.707,2.144,1.598,3.188,2.673l-2.559,5.124c-1.221-1.287-2.438-2.251-3.651-2.895c-1.213-0.644-2.431-0.965-3.651-0.965
			c-2.191,0-3.895,0.628-5.107,1.882c-1.214,1.255-1.82,3.032-1.82,5.329v0.032c0,1.581,0.312,2.825,0.938,3.732
			c0.625,0.906,1.404,1.575,2.338,2.007c0.934,0.434,2.231,0.882,3.894,1.345c0.059,0.021,0.114,0.037,0.166,0.048
			c0.051,0.011,0.106,0.026,0.166,0.048c0.073,0.021,0.154,0.042,0.243,0.063c0.088,0.021,0.168,0.043,0.243,0.063
			c1.941,0.569,3.563,1.244,4.865,2.023c1.301,0.781,2.39,2.041,3.266,3.78c0.875,1.739,1.312,4.117,1.312,7.132v0.063
			c0,2.804-0.463,5.202-1.39,7.193c-0.927,1.992-2.27,3.513-4.027,4.556c-1.757,1.044-3.879,1.563-6.365,1.563
			C-300.816,37.855-301.588,37.855-301.588,37.855z"/>
		<path fill="#FCFCFC" d="M-277.032,37.381h-4.501V-8.604h4.501V37.381z"/>
		<path fill="#FCFCFC" d="M-269.09-8.604h4.5v45.985h-4.5V-8.604z M-266.839,31.245h18.355v6.136h-18.355V31.245z"/>
		<path fill="#FCFCFC" d="M-243.189-8.604h4.502v45.985h-4.502V-8.604z M-240.939,31.245h18.357v6.136h-18.357V31.245z"/>
		<path fill="#FCFCFC" d="M-213.47,35.752c-1.705-1.4-3.025-3.384-3.959-5.945c-0.934-2.561-1.4-5.529-1.4-8.903V7.874
			c0-3.373,0.467-6.341,1.4-8.902c0.934-2.563,2.254-4.544,3.959-5.946c1.707-1.402,3.676-2.104,5.912-2.104
			c2.234,0,4.207,0.701,5.912,2.104c1.707,1.402,3.025,3.384,3.961,5.946s1.4,5.529,1.4,8.902v13.03c0,3.374-0.467,6.342-1.4,8.903
			c-0.936,2.563-2.254,4.545-3.961,5.945c-1.705,1.403-3.678,2.104-5.912,2.104C-209.794,37.855-211.763,37.155-213.47,35.752z
			 M-204.062,30.218c1.008-0.854,1.789-2.066,2.34-3.637c0.551-1.571,0.826-3.389,0.826-5.456V7.651
			c0-2.065-0.275-3.885-0.826-5.455c-0.551-1.571-1.332-2.783-2.34-3.638c-1.008-0.854-2.172-1.28-3.496-1.28
			c-1.324,0-2.49,0.427-3.496,1.28c-1.008,0.854-1.787,2.066-2.338,3.638c-0.553,1.57-0.828,3.39-0.828,5.455v13.474
			c0,2.067,0.275,3.886,0.828,5.456c0.551,1.57,1.33,2.783,2.338,3.637c1.006,0.854,2.172,1.281,3.496,1.281
			C-206.234,31.499-205.07,31.07-204.062,30.218z"/>
		<path fill="#FCFCFC" d="M-182.562,37.855c0,0-0.691-0.211-2.074-0.633c-1.383-0.424-2.674-1.057-3.871-1.896
			c-1.197-0.844-2.318-1.898-3.363-3.164l2.801-4.933c1.223,1.518,2.566,2.656,4.039,3.416c1.469,0.758,3.064,1.141,4.787,1.141
			c2.322,0,4.125-0.617,5.402-1.852c1.281-1.232,1.922-2.979,1.922-5.232v-0.032c0-1.602-0.293-2.872-0.871-3.811
			c-0.582-0.938-1.33-1.634-2.25-2.088c-0.922-0.453-2.107-0.87-3.563-1.249c-0.046-0.021-0.095-0.031-0.146-0.031
			c-0.052,0-0.101-0.011-0.144-0.032l-0.332-0.095c-2.146-0.526-3.894-1.123-5.238-1.787c-1.346-0.664-2.498-1.876-3.452-3.637
			c-0.957-1.761-1.437-4.265-1.437-7.512V4.396c0-2.847,0.446-5.277,1.336-7.29c0.892-2.014,2.188-3.548,3.896-4.603
			c1.705-1.054,3.758-1.581,6.153-1.581c1.147,0,2.274,0.18,3.388,0.537c1.11,0.359,2.207,0.892,3.289,1.598
			c1.079,0.707,2.143,1.598,3.188,2.673l-2.56,5.124c-1.222-1.287-2.438-2.251-3.652-2.895c-1.213-0.644-2.432-0.965-3.651-0.965
			c-2.19,0-3.894,0.628-5.104,1.882c-1.215,1.255-1.819,3.032-1.819,5.329v0.032c0,1.581,0.312,2.825,0.938,3.732
			c0.623,0.906,1.401,1.575,2.336,2.007c0.937,0.434,2.233,0.882,3.896,1.345c0.058,0.021,0.112,0.037,0.164,0.048
			c0.053,0.011,0.106,0.026,0.166,0.048c0.073,0.021,0.153,0.042,0.241,0.063c0.091,0.021,0.171,0.043,0.244,0.063
			c1.94,0.569,3.563,1.244,4.863,2.023c1.301,0.781,2.391,2.041,3.266,3.78c0.875,1.739,1.313,4.117,1.313,7.132v0.063
			c0,2.804-0.465,5.202-1.391,7.193c-0.929,1.992-2.271,3.513-4.027,4.556c-1.758,1.044-3.879,1.563-6.364,1.563
			C-181.789,37.855-182.562,37.855-182.562,37.855z"/>
	</g>
</g>
<text transform="matrix(0.7268 0 0 1 -362.5459 174.2715)" fill="#FDFFFD" font-family="'Bahnschrift'" font-size="62.5328">PLANTA BAJA</text>
<text transform="matrix(0.7268 0 0 1 -362.5459 105.6016)" fill="#FDFFFD" font-family="'Bahnschrift'" font-size="62.5328">MEZZANINA</text>
<text transform="matrix(0.7268 0 0 1 -362.5459 325.9141)" fill="#FDFFFD" font-family="'Bahnschrift'" font-size="62.5328">AREAS</text>
<text transform="matrix(0.7268 0 0 1 -362.5459 257.2441)" fill="#FDFFFD" font-family="'Bahnschrift'" font-size="62.5328">PB. DUPLEX</text>
</svg>
