<?xml version="1.0" encoding="utf-8"?>
<!-- Generator: Adobe Illustrator 16.0.2, SVG Export Plug-In . SVG Version: 6.00 Build 0)  -->
<!DOCTYPE svg PUBLIC "-//W3C//DTD SVG 1.1//EN" "http://www.w3.org/Graphics/SVG/1.1/DTD/svg11.dtd">
<svg version="1.1"
	 id="svg815" xmlns:dc="http://purl.org/dc/elements/1.1/" xmlns:svg="http://www.w3.org/2000/svg" xmlns:rdf="http://www.w3.org/1999/02/22-rdf-syntax-ns#" xmlns:sodipodi="http://sodipodi.sourceforge.net/DTD/sodipodi-0.dtd" xmlns:cc="http://creativecommons.org/ns#" xmlns:inkscape="http://www.inkscape.org/namespaces/inkscape" sodipodi:docname="coffee013a.svg" inkscape:version="1.2.2 (732a01da63, 2022-12-09)"
	 xmlns="http://www.w3.org/2000/svg" xmlns:xlink="http://www.w3.org/1999/xlink" x="0px" y="0px" width="320px" height="109.2px"
	 viewBox="40 13.65 320 109.2" enable-background="new 40 13.65 320 109.2" xml:space="preserve">
<line fill="none" x1="40" y1="122.85" x2="360" y2="13.65"/>
<sodipodi:namedview  id="namedview817" inkscape:pagecheckerboard="0" inkscape:window-maximized="1" inkscape:current-layer="layer1" inkscape:window-height="705" inkscape:window-y="-8" inkscape:window-x="-8" inkscape:deskcolor="#d1d1d1" inkscape:pageopacity="0" inkscape:showpageshadow="2" inkscape:pageshadow="2" inkscape:window-width="1366" fit-margin-right="0" inkscape:snap-page="false" fit-margin-bottom="0" inkscape:zoom="0.51782907" bordercolor="#666666" objecttolerance="10" fit-margin-top="0" gridtolerance="10" pagecolor="#ffffff" inkscape:cx="-83.038984" showguides="true" borderopacity="1" inkscape:cy="505.95846" showgrid="false" guidetolerance="10" fit-margin-left="0">
	</sodipodi:namedview>
<g>
	<g>
		<path fill="#FF3300" d="M44.032,93.714V42.77c0-3.136,0.576-6.08,1.728-8.896c1.151-2.688,2.816-5.12,4.928-7.231
			c4.416-4.417,9.728-6.593,16.064-6.593h266.56c3.076,0,5.952,0.576,8.832,1.793c2.688,1.087,5.12,2.751,7.233,4.8
			c4.417,4.479,6.591,9.791,6.591,16.127v50.944c0,3.136-0.575,6.08-1.791,8.896c-1.15,2.687-2.75,5.119-4.8,7.168
			c-2.113,2.112-4.545,3.775-7.233,4.864c-2.88,1.215-5.756,1.792-8.832,1.792H66.752c-3.136,0-6.016-0.581-8.896-1.792
			c-2.688-1.089-5.12-2.752-7.167-4.864c-2.112-2.049-3.776-4.481-4.928-7.168C44.608,99.794,44.032,96.85,44.032,93.714z"/>
	</g>
	<g>
		
			<path fill="none" stroke="#999999" stroke-width="0.5" stroke-linecap="round" stroke-linejoin="round" stroke-miterlimit="10" d="
			M44.032,93.714c0,3.136,0.576,6.08,1.728,8.896c1.151,2.687,2.816,5.119,4.928,7.168c2.048,2.112,4.48,3.775,7.167,4.864
			c2.88,1.215,5.76,1.792,8.896,1.792h266.56c3.072,0,5.953-0.581,8.832-1.792c2.688-1.089,5.121-2.752,7.233-4.864
			c2.051-2.049,3.65-4.481,4.8-7.168c1.217-2.816,1.791-5.761,1.791-8.896V42.77c0-6.336-2.176-11.647-6.591-16.127
			c-2.112-2.049-4.545-3.713-7.233-4.8c-2.879-1.217-5.76-1.793-8.831-1.793H66.752c-6.336,0-11.648,2.176-16.064,6.593
			c-2.112,2.111-3.776,4.543-4.928,7.231c-1.152,2.816-1.728,5.76-1.728,8.896V93.714"/>
	</g>
</g>
<g>
	<g>
		
			<path fill="none" stroke="#999999" stroke-width="0.4" stroke-linecap="round" stroke-linejoin="round" stroke-miterlimit="10" d="
			M269.183,88.658c0,5.056,1.794,9.279,5.316,12.8c3.517,3.585,7.808,5.376,12.864,5.376h40.832c4.987,0,9.279-1.787,12.864-5.376
			c3.517-3.521,5.247-7.744,5.247-12.8V47.826c0-5.056-1.727-9.28-5.247-12.864c-3.585-3.52-7.877-5.313-12.864-5.313H287.36
			c-5.057,0-9.345,1.793-12.864,5.313c-3.52,3.583-5.313,7.807-5.313,12.864V88.658"/>
	</g>
	<g>
		<path fill="#F2F2F2" d="M269.183,88.658V47.826c0-5.056,1.794-9.28,5.316-12.864c3.517-3.52,7.808-5.313,12.864-5.313h40.832
			c4.987,0,9.279,1.793,12.864,5.313c3.517,3.583,5.247,7.807,5.247,12.864v40.833c0,5.056-1.727,9.279-5.247,12.8
			c-3.585,3.585-7.877,5.376-12.864,5.376H287.36c-5.057,0-9.345-1.787-12.864-5.376C270.977,97.938,269.183,93.714,269.183,88.658z
			"/>
	</g>
</g>
<g>
	<path fill="#FFFFFF" d="M-229.104,351.6V346h-19.521v45.439h19.521v-5.681h-13.601V371.68h12v-5.681h-12V351.6H-229.104
		L-229.104,351.6z"/>
	<path fill="#FFFFFF" d="M-149.985,345.999h-19.439v45.44h19.439v-5.681h-13.52V371.68h12v-5.681h-12V351.6h13.52V345.999
		L-149.985,345.999z"/>
	<path fill="#FFFFFF" d="M-174.065,351.6V346h-22.08v5.6h8.08v39.84h5.92V351.6H-174.065z"/>
	<g>
		<g>
			<g>
				<path fill="#FFFFFF" d="M-353.664,363.76l4.16,2c0.08,0,0.238,0.08,0.238,0.159l0.401,0.081c1.76,0.8,3.2,1.6,4.319,2.4
					c1.12,0.639,2,1.759,2.881,3.199c0.72,1.359,1.119,3.201,1.119,5.44v4.16c0,2.237-0.479,4.157-1.279,5.84
					c-0.801,1.601-2.08,2.8-3.68,3.601c-1.602,0.799-3.602,1.198-5.921,1.198c-2.399,0-4.399-0.399-6.079-1.198
					c-1.682-0.802-2.882-2-3.762-3.601c-0.8-1.683-1.279-3.603-1.279-5.84v-2.24h6v2c0,1.601,0.399,2.88,1.279,3.841
					c0.88,0.881,2.16,1.358,3.842,1.358c1.6,0,2.799-0.479,3.6-1.358c0.88-0.961,1.359-2.16,1.359-3.841v-4
					c0-1.041-0.32-2-0.801-2.801c-0.64-0.72-1.359-1.359-2.079-1.841c-0.961-0.559-2.079-1.117-3.36-1.758c-0.08,0-0.08,0-0.159,0
					h-0.08l-0.398-0.242c-2.08-0.959-3.682-1.758-4.722-2.559c-1.2-0.8-2.24-2-3.2-3.521c-0.8-1.439-1.199-3.28-1.199-5.601V356
					c0-2.24,0.399-4.161,1.199-5.682c0.801-1.519,2.08-2.719,3.762-3.6c1.68-0.8,3.68-1.199,6-1.199c2.318,0,4.238,0.399,5.84,1.28
					c1.6,0.72,2.8,1.918,3.6,3.601c0.8,1.519,1.2,3.438,1.2,5.759v2.401h-5.842v-2.16c0-1.682-0.399-2.961-1.279-3.84
					c-0.801-0.801-1.92-1.28-3.52-1.28c-1.602,0-2.881,0.479-3.762,1.28c-0.8,0.799-1.279,2-1.279,3.6v2.8
					c0,1.2,0.319,2.16,0.801,2.88C-355.265,362.559-354.545,363.2-353.664,363.76z"/>
			</g>
		</g>
		<g>
			<g>
				<path fill="#FFFFFF" d="M-327.265,345.999v45.44h-5.92v-45.44H-327.265z"/>
			</g>
		</g>
		<g>
			<g>
				<path fill="#FFFFFF" d="M-308.625,366.959h11.041v13.28c0,2.399-0.4,4.563-1.28,6.319c-0.88,1.681-2.16,3.041-3.761,4
					c-1.601,0.881-3.601,1.28-5.84,1.28c-2.32,0-4.32-0.399-6-1.2c-1.681-0.88-2.959-2.158-3.841-3.839
					c-0.8-1.601-1.278-3.601-1.278-5.921v-23.68c0-2.561,0.479-4.641,1.278-6.32c0.879-1.68,2.08-3.12,3.681-4
					c1.681-0.88,3.601-1.361,5.92-1.361s4.239,0.481,5.841,1.281c1.521,0.879,2.8,2.159,3.6,3.918c0.88,1.682,1.28,3.682,1.28,6.082
					v2.239h-6.32v-2.239c0-1.199-0.16-2.16-0.479-2.961c-0.319-0.88-0.799-1.439-1.521-1.92c-0.72-0.479-1.521-0.639-2.399-0.639
					c-0.959,0-1.92,0.238-2.722,0.72c-0.64,0.399-1.198,1.039-1.68,2c-0.32,0.88-0.561,1.919-0.561,3.2v23.68
					c0,1.121,0.239,2.08,0.641,2.88c0.4,0.722,0.96,1.28,1.76,1.681c0.722,0.479,1.681,0.722,2.801,0.722
					c0.959,0,1.841-0.319,2.641-0.722c0.72-0.479,1.2-1.039,1.68-2c0.399-0.881,0.641-1.84,0.641-3.121v-7.76h-5.119v-5.6H-308.625z
					"/>
			</g>
		</g>
		<g>
			<g>
				<path fill="#FFFFFF" d="M-274.225,390.639c-1.52,0.801-3.358,1.2-5.68,1.2c-2.24,0-4.08-0.399-5.6-1.2
					c-1.521-0.8-2.722-2-3.521-3.6c-0.8-1.604-1.2-3.604-1.2-5.84v-35.2h6v35.44c0,1.521,0.32,2.722,1.12,3.521
					c0.72,0.802,1.761,1.201,3.2,1.201c1.439,0,2.479-0.399,3.279-1.201c0.801-0.879,1.2-2,1.2-3.521v-35.44h5.921V381.2
					c0,2.237-0.4,4.237-1.201,5.84C-271.504,388.639-272.705,389.84-274.225,390.639z"/>
			</g>
		</g>
		<g>
			<g>
				<path fill="#FFFFFF" d="M-256.225,345.999v45.44h-6v-45.44H-256.225z"/>
			</g>
		</g>
		<g>
			<g>
				<path fill="#FFFFFF" d="M-205.904,391.438l-11.439-31.279V356.8l-0.959,0.8l0.959,2.561v31.279h-5.681v-45.44h5.2l11.52,32.001
					v3.6l0.959-0.8l-0.959-2.8v-32.001h5.679v45.44L-205.904,391.438L-205.904,391.438z"/>
			</g>
		</g>
	</g>
</g>
<path fill="#FF0000" d="M339.648,65.683c0-0.64-0.124-1.28-0.383-1.855c-0.192-0.576-0.576-1.152-1.088-1.664l-23.105-23.169
	c-0.512-0.383-1.085-0.831-1.664-1.024c-0.576-0.256-1.216-0.383-1.853-0.383c-0.644,0-1.218,0.127-1.855,0.383
	c-0.64,0.193-1.152,0.641-1.601,1.024l-1.792,1.792c-0.447,0.447-0.768,1.024-1.021,1.6c-0.255,0.576-0.384,1.216-0.384,1.856
	c0,0.64,0.127,1.279,0.384,1.855c0.254,0.576,0.578,1.152,1.021,1.665l12.583,12.544h-1.51h-18.053h-14.721
	c-0.703,0-1.344,0.127-1.916,0.383c-0.58,0.193-1.152,0.577-1.537,1.024c-0.45,0.449-0.831,0.96-1.087,1.536
	c-0.257,0.64-0.385,1.28-0.385,1.92v2.497c0,0.704,0.128,1.344,0.385,1.92c0.256,0.575,0.64,1.087,1.087,1.536
	c0.383,0.447,0.957,0.831,1.537,1.087c0.576,0.193,1.216,0.319,1.916,0.319h14.721h18.049h1.087l-12.607,12.608
	c-0.517,0.513-0.833,1.024-1.089,1.665c-0.256,0.575-0.383,1.215-0.383,1.852c0,0.643,0.125,1.216,0.383,1.855
	c0.256,0.641,0.576,1.151,1.089,1.601l1.724,1.728c0.45,0.512,0.96,0.829,1.6,1.086c0.644,0.255,1.217,0.383,1.856,0.383
	c0.639,0,1.217-0.127,1.856-0.383c0.639-0.257,1.149-0.578,1.6-1.086l23.168-23.171c0.513-0.448,0.832-1.021,1.085-1.6
	c0.15-0.369,0.251-0.717,0.313-1.066c0.081-0.154,0.149-0.313,0.202-0.47C339.521,66.963,339.648,66.323,339.648,65.683z"/>
<g>
	<g>
		<g>
			<path fill="#FE9929" d="M75.136,97.938l2.24-1.663l-2.24-1.664v-2.624l5.504,4.288l-5.504,4.288V97.938z"/>
		</g>
	</g>
	<g>
		<g>
			<path fill="#FE9929" d="M80.96,97.938l2.304-1.663L80.96,94.61v-2.624l5.504,4.288l-5.504,4.288V97.938z"/>
		</g>
	</g>
	<g>
		<g>
			<path fill="#FE9929" d="M95.872,97.362h-1.984v-1.916h2.048c0.256,0,0.512-0.065,0.704-0.193
				c0.256-0.127,0.384-0.317,0.512-0.575c0.064-0.191,0.128-0.516,0.128-0.896V91.41c0-0.384-0.064-0.64-0.128-0.896
				c-0.128-0.256-0.256-0.448-0.512-0.576c-0.191-0.127-0.447-0.19-0.704-0.19h-2.048v-1.984h1.983c0.704,0,1.28,0.191,1.92,0.45
				c0.448,0.318,0.897,0.704,1.217,1.281c0.192,0.449,0.384,1.086,0.384,1.918v2.434c0,0.767-0.192,1.406-0.448,1.917
				c-0.256,0.514-0.641,0.894-1.152,1.149C97.28,97.234,96.64,97.362,95.872,97.362z"/>
			<path fill="#FE9929" d="M91.84,103.443V87.763h1.152v1.984h0.896v5.696h-0.896v1.919h0.896v6.081H91.84L91.84,103.443z"/>
		</g>
	</g>
	<g>
		<g>
			<path fill="#FE9929" d="M105.216,90.963l-1.344,7.168h-0.832v1.919h0.512l-0.64,3.394h-2.24l3.648-15.681h1.856l3.648,15.681
				h-2.24l-0.641-3.394h0.704v-1.919h-1.088L105.216,90.963z"/>
			<path fill="#FE9929" d="M106.944,100.05h-3.393l0.32-1.919h2.688L106.944,100.05z"/>
		</g>
	</g>
	<g>
		<g>
			<path fill="#FE9929" d="M115.648,94.674l1.664,0.832c0.384,0.257,0.704,0.704,0.96,1.088c0.256,0.449,0.32,1.085,0.32,1.916
				v1.409c0,0.831-0.064,1.475-0.383,2.05c-0.256,0.514-0.704,0.959-1.28,1.15c-0.576,0.32-1.28,0.516-2.048,0.516
				s-1.472-0.191-2.048-0.516c-0.576-0.189-1.024-0.64-1.28-1.15c-0.32-0.641-0.448-1.283-0.448-2.05V99.15h2.048v0.644
				c0,0.641,0.128,1.021,0.448,1.344c0.32,0.316,0.768,0.513,1.28,0.513s0.96-0.192,1.28-0.513c0.32-0.319,0.448-0.703,0.448-1.344
				V98.51c0-0.383-0.128-0.703-0.256-0.96c-0.191-0.253-0.448-0.513-0.704-0.704l-1.216-0.578l0,0h-0.064l-0.128-0.062l-1.6-0.896
				c-0.512-0.316-0.832-0.704-1.088-1.217c-0.32-0.577-0.448-1.217-0.448-1.918v-0.96c0-0.704,0.128-1.346,0.448-1.919
				c0.256-0.576,0.704-0.959,1.28-1.281c0.576-0.253,1.28-0.383,2.048-0.383s1.408,0.128,1.984,0.383
				c0.576,0.317,0.96,0.705,1.28,1.281c0.256,0.579,0.448,1.283,0.448,1.983v0.831h-2.048V91.41c0-0.576-0.192-0.96-0.448-1.345
				c-0.256-0.255-0.704-0.45-1.216-0.45c-0.576,0-1.024,0.191-1.28,0.45c-0.32,0.253-0.448,0.705-0.448,1.217v0.96
				c0,0.383,0.064,0.768,0.256,1.021c0.256,0.254,0.447,0.449,0.703,0.641l1.152,0.578c0.064,0,0.128,0,0.128,0.063
				c0.064,0.063,0.128,0.063,0.128,0.063L115.648,94.674z"/>
		</g>
	</g>
	<g>
		<g>
			<path fill="#FE9929" d="M122.688,87.763v15.684h-2.048V87.763H122.688z"/>
		</g>
	</g>
	<g>
		<g>
			<path fill="#FE9929" d="M125.888,101.458v1.985H124.8V87.763h2.048v13.695H125.888z"/>
			<path fill="#FE9929" d="M126.848,101.458h4.48v1.985h-4.48V101.458z"/>
		</g>
	</g>
	<g>
		<g>
			<path fill="#FE9929" d="M133.952,101.458v1.985h-1.024V87.763h1.983v13.695H133.952z"/>
			<path fill="#FE9929" d="M134.912,101.458h4.48v1.985h-4.48V101.458z"/>
		</g>
	</g>
	<g>
		<g>
			<path fill="#FE9929" d="M146.944,103.123c-0.576,0.32-1.28,0.512-2.112,0.512c-0.768,0-1.472-0.188-2.048-0.512
				c-0.64-0.32-1.088-0.77-1.344-1.345c-0.256-0.575-0.448-1.281-0.448-2.112v-8.129c0-0.831,0.192-1.534,0.448-2.114
				c0.256-0.577,0.704-1.02,1.344-1.344c0.64-0.316,1.344-0.451,2.048-0.451c0.832,0,1.536,0.128,2.112,0.451
				c0.512,0.252,1.023,0.767,1.344,1.344c0.32,0.643,0.448,1.348,0.448,2.114v8.129c0,0.769-0.128,1.472-0.448,2.112
				C147.968,102.354,147.52,102.803,146.944,103.123z M143.872,101.394c0.32,0.129,0.64,0.257,0.96,0.257s0.64-0.128,1.024-0.257
				c0.256-0.126,0.512-0.316,0.64-0.64c0.128-0.319,0.192-0.64,0.192-1.022v-8.257c0-0.384-0.064-0.704-0.192-0.961
				c-0.128-0.32-0.384-0.576-0.64-0.64c-0.384-0.191-0.704-0.256-1.024-0.256s-0.64,0.064-0.96,0.256
				c-0.256,0.063-0.448,0.319-0.64,0.64c-0.128,0.257-0.192,0.577-0.192,0.961v8.255c0,0.384,0.064,0.705,0.192,1.023
				C143.424,101.074,143.616,101.268,143.872,101.394z"/>
		</g>
	</g>
	<g>
		<g>
			<path fill="#FE9929" d="M154.752,97.938l2.24-1.663l-2.24-1.664v-2.624l5.504,4.288l-5.504,4.288V97.938z"/>
		</g>
	</g>
	<g>
		<g>
			<path fill="#FE9929" d="M160.64,97.938l2.305-1.663l-2.305-1.664v-2.624l5.504,4.288l-5.504,4.288V97.938z"/>
		</g>
	</g>
	<g>
		<g>
			<path fill="#FE9929" d="M175.552,97.362h-1.984v-1.916h1.984c0.32,0,0.576-0.065,0.768-0.193
				c0.192-0.127,0.384-0.317,0.448-0.575c0.064-0.191,0.128-0.516,0.128-0.896V91.41c0-0.384-0.064-0.64-0.128-0.896
				c-0.064-0.256-0.256-0.448-0.448-0.576c-0.192-0.127-0.448-0.19-0.768-0.19h-1.984v-1.984h1.984c0.704,0,1.344,0.191,1.92,0.45
				c0.448,0.318,0.896,0.704,1.152,1.281c0.32,0.516,0.448,1.152,0.448,1.919v2.433c0,0.704-0.127,1.28-0.448,1.917
				c-0.32,0.516-0.768,0.96-1.216,1.151C176.896,97.234,176.256,97.362,175.552,97.362z"/>
			<path fill="#FE9929" d="M171.52,103.443V87.763h1.152v1.984h0.896v5.696h-0.896v1.919h0.896v6.081H171.52L171.52,103.443z"/>
		</g>
	</g>
	<g>
		<g>
			<path fill="#FE9929" d="M184.896,90.963l-1.344,7.168h-0.896v1.919h0.576l-0.704,3.394h-2.176l3.584-15.681h1.856l3.648,15.681
				h-2.176l-0.64-3.394h0.704v-1.919h-1.088L184.896,90.963z"/>
			<path fill="#FE9929" d="M186.624,100.05h-3.392l0.32-1.919h2.688L186.624,100.05z"/>
		</g>
	</g>
	<g>
		<g>
			<path fill="#FE9929" d="M195.072,94.547l0.256,0.127c0.064,0,0.064,0,0.064,0l1.536,0.832c0.383,0.257,0.704,0.577,0.959,1.088
				c0.32,0.513,0.383,1.15,0.383,1.916v1.409c0,0.768-0.127,1.411-0.383,2.05c-0.32,0.514-0.768,0.959-1.28,1.15
				c-0.576,0.32-1.28,0.516-2.112,0.516c-0.768,0-1.408-0.191-2.048-0.516c-0.576-0.189-0.96-0.64-1.28-1.15
				c-0.256-0.641-0.448-1.283-0.448-2.05V99.15h2.048v0.644c0,0.641,0.128,1.021,0.448,1.344c0.32,0.316,0.768,0.513,1.28,0.513
				c0.576,0,1.024-0.192,1.28-0.513c0.32-0.319,0.512-0.703,0.512-1.344V98.51c0-0.383-0.127-0.703-0.32-0.96
				c-0.192-0.253-0.384-0.513-0.704-0.704l-1.152-0.578c0,0,0,0-0.064,0l0,0l-0.192-0.062l-1.6-0.896
				c-0.384-0.316-0.768-0.704-1.088-1.217c-0.256-0.45-0.384-1.086-0.384-1.918v-0.96c0-0.704,0.128-1.346,0.384-1.919
				c0.32-0.576,0.704-0.959,1.28-1.281c0.64-0.253,1.344-0.383,2.048-0.383c0.768,0,1.472,0.128,2.048,0.383
				c0.512,0.317,0.96,0.705,1.28,1.281c0.256,0.579,0.384,1.283,0.384,1.983v0.831h-2.048V91.41c0-0.576-0.128-1.088-0.449-1.345
				c-0.256-0.255-0.64-0.45-1.216-0.45c-0.512,0-0.96,0.191-1.28,0.45c-0.32,0.254-0.384,0.705-0.384,1.217v0.96
				c0,0.447,0.064,0.768,0.256,1.021c0.192,0.254,0.383,0.449,0.703,0.641l1.152,0.578
				C195.008,94.482,195.008,94.482,195.072,94.547z"/>
		</g>
	</g>
	<g>
		<g>
			<path fill="#FE9929" d="M202.368,87.763v15.684h-2.112V87.763H202.368z"/>
		</g>
	</g>
	<g>
		<g>
			<path fill="#FE9929" d="M205.568,101.458v1.985h-1.151V87.763h2.115v13.695H205.568z"/>
			<path fill="#FE9929" d="M206.528,101.458h4.415v1.985h-4.415V101.458z"/>
		</g>
	</g>
	<g>
		<g>
			<path fill="#FE9929" d="M213.632,101.458v1.985h-1.088V87.763h2.051v13.695H213.632z"/>
			<path fill="#FE9929" d="M214.592,101.458h4.48v1.985h-4.48V101.458z"/>
		</g>
	</g>
	<g>
		<g>
			<path fill="#FE9929" d="M226.623,103.123c-0.574,0.32-1.279,0.512-2.112,0.512c-0.767,0-1.534-0.188-2.051-0.512
				c-0.645-0.32-1.083-0.77-1.411-1.345c-0.253-0.641-0.383-1.344-0.383-2.112v-8.129c0-0.767,0.128-1.472,0.383-2.114
				c0.32-0.577,0.767-1.02,1.411-1.344c0.576-0.316,1.284-0.451,2.051-0.451c0.833,0,1.472,0.128,2.112,0.451
				c0.641,0.316,1.025,0.767,1.281,1.344c0.319,0.58,0.513,1.348,0.513,2.114v8.129c0,0.831-0.193,1.537-0.513,2.112
				C227.648,102.354,227.264,102.803,226.623,103.123z M223.552,101.394c0.316,0.129,0.641,0.257,0.959,0.257
				c0.383,0,0.705-0.128,1.021-0.257c0.252-0.126,0.45-0.316,0.645-0.64c0.123-0.319,0.188-0.64,0.188-1.022v-8.257
				c0-0.32-0.064-0.641-0.188-0.961c-0.194-0.32-0.385-0.576-0.645-0.64c-0.316-0.191-0.64-0.256-1.021-0.256
				c-0.318,0-0.643,0.064-0.959,0.256c-0.319,0.129-0.516,0.319-0.641,0.64c-0.128,0.257-0.255,0.577-0.255,0.961v8.255
				c0,0.384,0.127,0.705,0.255,1.023C223.04,101.01,223.232,101.203,223.552,101.394z"/>
		</g>
	</g>
	<g>
		<g>
			<path fill="#FE9929" d="M234.432,97.938l2.305-1.663l-2.305-1.664v-2.624l5.504,4.288l-5.504,4.288V97.938z"/>
		</g>
	</g>
	<g>
		<g>
			<path fill="#FE9929" d="M240.32,97.938l2.24-1.663l-2.24-1.664v-2.624l5.503,4.288l-5.503,4.288V97.938z"/>
		</g>
	</g>
</g>
<text transform="matrix(0.7268 0 0 1 -364.9341 425.5088)" fill="#FE9929" font-family="'Bahnschrift'" font-size="24">&gt;&gt; SIGUIENTE</text>
<g enable-background="new    ">
	<text transform="matrix(0.7268 0 0 1 -252.2344 425.5088)" fill="#FE9929" font-family="'Bahnschrift'" font-size="24">&gt;&gt; PASILLOS &gt;&gt;</text>
</g>
<text transform="matrix(0.7268 0 0 1 -369.5459 -121.2451)" fill="#FAFCFA" font-family="'Bahnschrift'" font-size="62.5328">3er PISO</text>
<text transform="matrix(0.7268 0 0 1 -369.5459 -189.915)" fill="#FAFCFA" font-family="'Bahnschrift'" font-size="62.5328">ALCALDIA</text>
<text transform="matrix(0.7268 0 0 1 -369.5459 30.3955)" fill="#FAFCFA" font-family="'Bahnschrift'" font-size="62.5328">1er PISO</text>
<text transform="matrix(0.7268 0 0 1 -369.5459 -38.2744)" fill="#FAFCFA" font-family="'Bahnschrift'" font-size="62.5328">2do PISO</text>
<text transform="matrix(0.7268 0 0 1 -362.5459 174.2715)" fill="#FAFCFA" font-family="'Bahnschrift'" font-size="62.5328">PLANTA BAJA</text>
<g enable-background="new    ">
	<path fill="#FAFCFA" d="M81.974,37.587h3.392v35.517h-3.534V46.503l0.179,1.563l-6.356,20.103h-2.521l-6.355-19.614l0.178-2.052
		v26.601h-3.533V37.587h3.392l7.581,23.45L81.974,37.587z"/>
	<path fill="#FAFCFA" d="M91.757,37.587h3.622v35.517h-3.622V37.587z M93.515,37.587h14.824v4.739H93.515V37.587z M93.515,53.099
		h12.871v4.738H93.515V53.099z M93.515,68.365h14.824v4.739H93.515V68.365z"/>
	<path fill="#FAFCFA" d="M128.116,41.887l-11.238,26.479h11.593v4.739h-16.049v-4.3l11.327-26.479h-11.008v-4.739h15.375V41.887z"/>
	<path fill="#FAFCFA" d="M147.894,41.887l-11.238,26.479h11.593v4.739H132.2v-4.3l11.326-26.479h-11.007v-4.739h15.375V41.887z"/>
	<path fill="#FAFCFA" d="M160.072,37.587h3.089l9.516,35.517h-3.906l-7.154-28.653l-7.154,28.653h-3.906L160.072,37.587z
		 M154.941,60.572h13.582v4.739h-13.582V60.572z"/>
	<path fill="#FAFCFA" d="M176.583,37.587h3.284l12.623,27.456l-0.426,0.635V37.587h3.585v35.492h-3.32l-12.586-27.041l0.426-0.635
		v27.676h-3.586V37.587z"/>
	<path fill="#FAFCFA" d="M205.662,73.104h-3.621V37.587h3.621V73.104z"/>
	<path fill="#FAFCFA" d="M212.055,37.587h3.283l12.622,27.456l-0.425,0.635V37.587h3.585v35.492h-3.319l-12.587-27.041l0.426-0.635
		v27.676h-3.585V37.587z"/>
	<path fill="#FAFCFA" d="M244.188,37.587h3.089l9.516,35.517h-3.904l-7.155-28.653l-7.154,28.653h-3.906L244.188,37.587z
		 M239.058,60.572h13.581v4.739h-13.581V60.572z"/>
</g>
<text transform="matrix(0.7268 0 0 1 -362.5459 325.9141)" fill="#FAFCFA" font-family="'Bahnschrift'" font-size="62.5328">AREAS</text>
<text transform="matrix(0.7268 0 0 1 -362.5459 257.2441)" fill="#FAFCFA" font-family="'Bahnschrift'" font-size="62.5328">PB. DUPLEX</text>
<g>
	<g enable-background="new    ">
		<path fill="#FCFCFC" d="M-362.546,56.396h4.5v45.985h-4.5V56.396z M-360.229,78.408h10.259c0.97,0,1.823-0.327,2.559-0.98
			c0.736-0.652,1.306-1.582,1.71-2.783c0.404-1.201,0.606-2.582,0.606-4.144c0-1.581-0.202-2.973-0.606-4.175
			c-0.405-1.202-0.975-2.135-1.71-2.799c-0.735-0.664-1.588-0.996-2.559-0.996h-10.259v-6.136h10.104
			c1.912,0,3.596,0.585,5.052,1.755c1.456,1.171,2.584,2.82,3.386,4.95c0.802,2.13,1.203,4.597,1.203,7.4
			c0,2.805-0.401,5.266-1.203,7.385c-0.802,2.12-1.93,3.76-3.386,4.918c-1.457,1.16-3.14,1.74-5.052,1.74h-10.104V78.408z"/>
		<path fill="#FCFCFC" d="M-327.665,56.396h3.839l11.825,45.985h-4.854l-8.891-37.099l-8.891,37.099h-4.854L-327.665,56.396z
			 M-334.041,86.157h16.878v6.135h-16.878V86.157z"/>
		<path fill="#FCFCFC" d="M-301.588,102.855c0,0-0.692-0.211-2.074-0.633c-1.383-0.424-2.673-1.057-3.872-1.896
			c-1.199-0.844-2.32-1.898-3.365-3.164l2.802-4.934c1.22,1.519,2.566,2.656,4.037,3.416c1.471,0.758,3.067,1.141,4.788,1.141
			c2.324,0,4.125-0.617,5.406-1.852c1.279-1.232,1.919-2.979,1.919-5.232v-0.032c0-1.603-0.291-2.872-0.872-3.812
			c-0.581-0.938-1.332-1.633-2.25-2.088c-0.919-0.453-2.106-0.869-3.563-1.248c-0.044-0.021-0.092-0.031-0.144-0.031
			c-0.052,0-0.1-0.012-0.144-0.032l-0.331-0.095c-2.148-0.526-3.895-1.123-5.24-1.787c-1.345-0.664-2.497-1.876-3.453-3.637
			c-0.956-1.762-1.434-4.266-1.434-7.513v-0.03c0-2.848,0.445-5.277,1.335-7.291c0.889-2.014,2.188-3.548,3.893-4.603
			c1.707-1.054,3.758-1.581,6.156-1.581c1.147,0,2.275,0.18,3.387,0.537c1.11,0.359,2.206,0.892,3.287,1.598
			c1.081,0.707,2.144,1.598,3.188,2.673l-2.559,5.124c-1.221-1.287-2.438-2.251-3.651-2.895c-1.213-0.644-2.431-0.965-3.651-0.965
			c-2.191,0-3.895,0.628-5.107,1.882c-1.214,1.255-1.82,3.032-1.82,5.329v0.031c0,1.582,0.312,2.826,0.938,3.732
			c0.625,0.906,1.404,1.575,2.338,2.008c0.934,0.434,2.231,0.881,3.894,1.344c0.059,0.021,0.114,0.037,0.166,0.049
			c0.051,0.011,0.106,0.025,0.166,0.048c0.073,0.021,0.154,0.042,0.243,0.063c0.088,0.021,0.168,0.043,0.243,0.063
			c1.941,0.568,3.563,1.244,4.865,2.023c1.301,0.781,2.39,2.041,3.266,3.779c0.875,1.739,1.312,4.117,1.312,7.133v0.063
			c0,2.804-0.463,5.202-1.39,7.193c-0.927,1.992-2.27,3.513-4.027,4.556c-1.757,1.044-3.879,1.563-6.365,1.563
			C-300.816,102.855-301.588,102.855-301.588,102.855z"/>
		<path fill="#FCFCFC" d="M-277.032,102.381h-4.501V56.396h4.501V102.381z"/>
		<path fill="#FCFCFC" d="M-269.09,56.396h4.5v45.985h-4.5V56.396z M-266.839,96.245h18.355v6.136h-18.355V96.245z"/>
		<path fill="#FCFCFC" d="M-243.189,56.396h4.502v45.985h-4.502V56.396z M-240.939,96.245h18.357v6.136h-18.357V96.245z"/>
		<path fill="#FCFCFC" d="M-213.47,100.752c-1.705-1.4-3.025-3.384-3.959-5.945c-0.934-2.561-1.4-5.529-1.4-8.902v-13.03
			c0-3.373,0.467-6.341,1.4-8.902c0.934-2.563,2.254-4.544,3.959-5.946c1.707-1.402,3.676-2.104,5.912-2.104
			c2.234,0,4.207,0.701,5.912,2.104c1.707,1.402,3.025,3.384,3.961,5.946s1.4,5.529,1.4,8.902v13.03c0,3.373-0.467,6.342-1.4,8.902
			c-0.936,2.563-2.254,4.545-3.961,5.945c-1.705,1.403-3.678,2.104-5.912,2.104C-209.794,102.855-211.763,102.155-213.47,100.752z
			 M-204.062,95.218c1.008-0.854,1.789-2.065,2.34-3.637c0.551-1.571,0.826-3.39,0.826-5.456V72.65c0-2.064-0.275-3.885-0.826-5.455
			c-0.551-1.571-1.332-2.783-2.34-3.638c-1.008-0.854-2.172-1.28-3.496-1.28c-1.324,0-2.49,0.427-3.496,1.28
			c-1.008,0.854-1.787,2.066-2.338,3.638c-0.553,1.57-0.828,3.39-0.828,5.455v13.475c0,2.066,0.275,3.886,0.828,5.456
			c0.551,1.569,1.33,2.783,2.338,3.637c1.006,0.854,2.172,1.281,3.496,1.281C-206.234,96.499-205.07,96.07-204.062,95.218z"/>
		<path fill="#FCFCFC" d="M-182.562,102.855c0,0-0.691-0.211-2.074-0.633c-1.383-0.424-2.674-1.057-3.871-1.896
			c-1.197-0.844-2.318-1.898-3.363-3.164l2.801-4.934c1.223,1.519,2.566,2.656,4.039,3.416c1.469,0.758,3.064,1.141,4.787,1.141
			c2.322,0,4.125-0.617,5.402-1.852c1.281-1.232,1.922-2.979,1.922-5.232v-0.032c0-1.603-0.293-2.872-0.871-3.812
			c-0.582-0.938-1.33-1.633-2.25-2.088c-0.922-0.453-2.107-0.869-3.563-1.248c-0.046-0.021-0.095-0.031-0.146-0.031
			c-0.052,0-0.101-0.012-0.144-0.032l-0.332-0.095c-2.146-0.526-3.894-1.123-5.238-1.787c-1.346-0.664-2.498-1.876-3.452-3.637
			c-0.957-1.762-1.437-4.266-1.437-7.513v-0.03c0-2.848,0.446-5.277,1.336-7.291c0.892-2.014,2.188-3.548,3.896-4.603
			c1.705-1.054,3.758-1.581,6.153-1.581c1.147,0,2.274,0.18,3.388,0.537c1.11,0.359,2.207,0.892,3.289,1.598
			c1.079,0.707,2.143,1.598,3.188,2.673l-2.56,5.124c-1.222-1.287-2.438-2.251-3.652-2.895c-1.213-0.644-2.432-0.965-3.651-0.965
			c-2.19,0-3.894,0.628-5.104,1.882c-1.215,1.255-1.819,3.032-1.819,5.329v0.031c0,1.582,0.312,2.826,0.938,3.732
			c0.623,0.906,1.401,1.575,2.336,2.008c0.937,0.434,2.233,0.881,3.896,1.344c0.058,0.021,0.112,0.037,0.164,0.049
			c0.053,0.011,0.106,0.025,0.166,0.048c0.073,0.021,0.153,0.042,0.241,0.063c0.091,0.021,0.171,0.043,0.244,0.063
			c1.94,0.568,3.563,1.244,4.863,2.023c1.301,0.781,2.391,2.041,3.266,3.779c0.875,1.739,1.313,4.117,1.313,7.133v0.063
			c0,2.804-0.465,5.202-1.391,7.193c-0.929,1.992-2.271,3.513-4.027,4.556c-1.758,1.044-3.879,1.563-6.364,1.563
			C-181.789,102.855-182.562,102.855-182.562,102.855z"/>
	</g>
</g>
</svg>
