<?xml version="1.0" encoding="utf-8"?>
<!-- Generator: Adobe Illustrator 16.0.2, SVG Export Plug-In . SVG Version: 6.00 Build 0)  -->
<!DOCTYPE svg PUBLIC "-//W3C//DTD SVG 1.1//EN" "http://www.w3.org/Graphics/SVG/1.1/DTD/svg11.dtd">
<svg version="1.1"
	 id="svg815" xmlns:rdf="http://www.w3.org/1999/02/22-rdf-syntax-ns#" xmlns:cc="http://creativecommons.org/ns#" xmlns:sodipodi="http://sodipodi.sourceforge.net/DTD/sodipodi-0.dtd" xmlns:inkscape="http://www.inkscape.org/namespaces/inkscape" xmlns:dc="http://purl.org/dc/elements/1.1/" xmlns:svg="http://www.w3.org/2000/svg" sodipodi:docname="coffee013a.svg" inkscape:version="1.2.2 (732a01da63, 2022-12-09)"
	 xmlns="http://www.w3.org/2000/svg" xmlns:xlink="http://www.w3.org/1999/xlink" x="0px" y="0px" width="400px" height="136.5px"
	 viewBox="0 0 400 136.5" enable-background="new 0 0 400 136.5" xml:space="preserve">
<sodipodi:namedview  id="namedview817" inkscape:pagecheckerboard="0" inkscape:window-maximized="1" inkscape:current-layer="layer1" inkscape:window-height="705" inkscape:window-y="-8" inkscape:window-x="-8" inkscape:deskcolor="#d1d1d1" inkscape:pageopacity="0" inkscape:showpageshadow="2" inkscape:pageshadow="2" inkscape:window-width="1366" fit-margin-right="0" inkscape:snap-page="false" fit-margin-bottom="0" inkscape:zoom="0.51782907" objecttolerance="10" guidetolerance="10" gridtolerance="10" borderopacity="1" bordercolor="#666666" showgrid="false" pagecolor="#ffffff" fit-margin-top="0" inkscape:cy="505.95846" inkscape:cx="-83.038984" fit-margin-left="0" showguides="true">
	</sodipodi:namedview>
<g>
	<g>
		<path fill="#FF3300" d="M5.04,100.08V36.4c0-3.92,0.72-7.6,2.16-11.12c1.439-3.359,3.52-6.4,6.16-9.039
			C18.88,10.72,25.52,8,33.44,8h333.2c3.843,0,7.44,0.72,11.04,2.241c3.36,1.359,6.4,3.439,9.041,6
			c5.521,5.6,8.239,12.239,8.239,20.159v63.68c0,3.92-0.72,7.6-2.239,11.12c-1.438,3.358-3.438,6.399-6,8.96
			c-2.641,2.641-5.681,4.72-9.041,6.081c-3.6,1.519-7.197,2.239-11.04,2.239H33.44c-3.92,0-7.52-0.724-11.12-2.239
			c-3.36-1.361-6.4-3.44-8.959-6.081c-2.641-2.561-4.721-5.602-6.16-8.96C5.76,107.68,5.04,104,5.04,100.08z"/>
	</g>
	<g>
		
			<path fill="none" stroke="#999999" stroke-width="0.5" stroke-linecap="round" stroke-linejoin="round" stroke-miterlimit="10" d="
			M5.04,100.08c0,3.92,0.72,7.6,2.16,11.12c1.439,3.358,3.52,6.399,6.16,8.96c2.56,2.641,5.6,4.72,8.959,6.081
			c3.6,1.519,7.2,2.239,11.12,2.239h333.2c3.84,0,7.44-0.724,11.04-2.239c3.36-1.361,6.4-3.44,9.041-6.081
			c2.562-2.561,4.562-5.602,6-8.96c1.521-3.521,2.239-7.2,2.239-11.12V36.4c0-7.92-2.72-14.559-8.239-20.159
			c-2.641-2.561-5.681-4.641-9.041-6C374.08,8.72,370.479,8,366.64,8H33.44c-7.92,0-14.56,2.72-20.08,8.241
			C10.72,18.88,8.64,21.92,7.2,25.28c-1.44,3.52-2.16,7.2-2.16,11.12V100.08"/>
	</g>
</g>
<g>
	<g>
		
			<path fill="none" stroke="#999999" stroke-width="0.4" stroke-linecap="round" stroke-linejoin="round" stroke-miterlimit="10" d="
			M286.479,93.76c0,6.32,2.242,11.6,6.644,16c4.397,4.481,9.76,6.721,16.08,6.721h51.04c6.236,0,11.6-2.236,16.08-6.721
			c4.397-4.4,6.56-9.68,6.56-16V42.72c0-6.32-2.159-11.6-6.56-16.08c-4.48-4.4-9.844-6.641-16.08-6.641H309.2
			c-6.32,0-11.681,2.241-16.08,6.641c-4.399,4.479-6.642,9.759-6.642,16.08V93.76"/>
	</g>
	<g>
		<path fill="#F2F2F2" d="M286.479,93.76V42.72c0-6.32,2.242-11.6,6.644-16.08c4.397-4.4,9.76-6.641,16.08-6.641h51.04
			c6.236,0,11.6,2.241,16.08,6.641c4.397,4.479,6.56,9.759,6.56,16.08v51.04c0,6.32-2.159,11.6-6.56,16
			c-4.48,4.481-9.844,6.721-16.08,6.721H309.2c-6.32,0-11.681-2.236-16.08-6.721C288.721,105.359,286.479,100.08,286.479,93.76z"/>
	</g>
</g>
<g>
	<path fill="#FFFFFF" d="M174.041-63.4V-69H154.52v45.439h19.521v-5.68H160.44v-14.08h12v-5.68h-12v-14.4L174.041-63.4L174.041-63.4
		z"/>
	<path fill="#FFFFFF" d="M253.16-69.001h-19.439v45.44h19.439v-5.68h-13.52v-14.08h12v-5.68h-12v-14.4h13.52V-69.001L253.16-69.001z
		"/>
	<path fill="#FFFFFF" d="M229.08-63.4V-69H207v5.6h8.08v39.839H221V-63.4H229.08z"/>
	<g>
		<g>
			<g>
				<path fill="#FFFFFF" d="M49.481-51.24l4.16,2c0.08,0,0.238,0.08,0.238,0.159L54.28-49c1.76,0.8,3.2,1.6,4.319,2.4
					c1.12,0.639,2,1.759,2.881,3.2c0.72,1.359,1.119,3.201,1.119,5.44v4.16c0,2.237-0.479,4.158-1.279,5.84
					c-0.801,1.6-2.08,2.8-3.68,3.6c-1.602,0.8-3.602,1.199-5.921,1.199c-2.399,0-4.399-0.399-6.079-1.199
					c-1.682-0.801-2.882-2-3.762-3.6c-0.8-1.682-1.279-3.603-1.279-5.84v-2.24h6v2c0,1.6,0.399,2.88,1.279,3.841
					c0.88,0.88,2.16,1.358,3.842,1.358c1.6,0,2.799-0.479,3.6-1.358c0.88-0.961,1.359-2.161,1.359-3.841v-4
					c0-1.041-0.32-2-0.801-2.801c-0.64-0.72-1.359-1.359-2.079-1.84c-0.961-0.559-2.079-1.118-3.36-1.759c-0.08,0-0.08,0-0.159,0
					H50.2l-0.398-0.241c-2.08-0.959-3.682-1.759-4.722-2.559c-1.2-0.8-2.24-2-3.2-3.521c-0.8-1.439-1.199-3.28-1.199-5.6V-59
					c0-2.24,0.399-4.161,1.199-5.681c0.801-1.519,2.08-2.719,3.762-3.6c1.68-0.8,3.68-1.2,6-1.2c2.318,0,4.238,0.4,5.84,1.281
					c1.6,0.719,2.8,1.918,3.6,3.6c0.8,1.519,1.2,3.439,1.2,5.759v2.401H56.44v-2.159c0-1.682-0.399-2.961-1.279-3.841
					c-0.801-0.8-1.92-1.28-3.52-1.28c-1.602,0-2.881,0.48-3.762,1.28c-0.8,0.8-1.279,2-1.279,3.6v2.8c0,1.2,0.319,2.16,0.801,2.88
					C47.88-52.441,48.6-51.8,49.481-51.24z"/>
			</g>
		</g>
		<g>
			<g>
				<path fill="#FFFFFF" d="M75.88-69.001v45.44h-5.92v-45.44H75.88z"/>
			</g>
		</g>
		<g>
			<g>
				<path fill="#FFFFFF" d="M94.52-48.041h11.041v13.28c0,2.4-0.4,4.563-1.28,6.32c-0.88,1.68-2.16,3.041-3.761,4
					c-1.601,0.88-3.601,1.28-5.84,1.28c-2.32,0-4.32-0.4-6-1.2c-1.681-0.88-2.959-2.159-3.841-3.839
					c-0.8-1.601-1.278-3.601-1.278-5.921v-23.68c0-2.561,0.479-4.641,1.278-6.32c0.879-1.68,2.08-3.12,3.681-4
					c1.681-0.88,3.601-1.361,5.92-1.361s4.239,0.481,5.841,1.281c1.521,0.879,2.8,2.159,3.6,3.918c0.88,1.682,1.28,3.682,1.28,6.082
					v2.239h-6.32v-2.239c0-1.2-0.16-2.161-0.479-2.961c-0.319-0.88-0.799-1.439-1.521-1.92c-0.72-0.479-1.521-0.639-2.399-0.639
					c-0.959,0-1.92,0.239-2.722,0.72c-0.64,0.4-1.198,1.039-1.68,2c-0.32,0.88-0.561,1.919-0.561,3.2v23.68
					c0,1.121,0.239,2.08,0.641,2.88c0.4,0.721,0.96,1.28,1.76,1.68c0.722,0.479,1.681,0.722,2.801,0.722
					c0.959,0,1.841-0.319,2.641-0.722c0.72-0.479,1.2-1.039,1.68-2c0.399-0.88,0.641-1.839,0.641-3.12v-7.76h-5.119v-5.6H94.52z"/>
			</g>
		</g>
		<g>
			<g>
				<path fill="#FFFFFF" d="M128.92-24.361c-1.52,0.8-3.358,1.2-5.68,1.2c-2.24,0-4.08-0.4-5.6-1.2c-1.521-0.8-2.722-2-3.521-3.6
					c-0.8-1.603-1.2-3.603-1.2-5.84v-35.2h6v35.44c0,1.521,0.32,2.722,1.12,3.521c0.72,0.802,1.761,1.201,3.2,1.201
					s2.479-0.399,3.279-1.201c0.801-0.879,1.2-2,1.2-3.521v-35.44h5.921V-33.8c0,2.238-0.4,4.238-1.201,5.84
					C131.641-26.361,130.44-25.16,128.92-24.361z"/>
			</g>
		</g>
		<g>
			<g>
				<path fill="#FFFFFF" d="M146.92-69.001v45.44h-6v-45.44H146.92z"/>
			</g>
		</g>
		<g>
			<g>
				<path fill="#FFFFFF" d="M197.241-23.562l-11.439-31.28V-58.2l-0.959,0.8l0.959,2.56v31.28h-5.681v-45.441h5.2L196.841-37v3.6
					l0.959-0.8l-0.959-2.8v-32.001h5.678v45.44H197.241z"/>
			</g>
		</g>
	</g>
</g>
<path fill="#FF0000" d="M374.561,65.041c0-0.8-0.157-1.6-0.479-2.32c-0.24-0.72-0.72-1.44-1.359-2.08L343.84,31.68
	c-0.64-0.479-1.357-1.039-2.08-1.28c-0.72-0.32-1.52-0.479-2.317-0.479c-0.803,0-1.521,0.159-2.319,0.479
	c-0.8,0.241-1.44,0.8-2,1.28l-2.24,2.241c-0.56,0.559-0.96,1.28-1.279,2c-0.318,0.72-0.479,1.52-0.479,2.32
	c0,0.8,0.159,1.6,0.479,2.319c0.319,0.72,0.723,1.44,1.279,2.081l15.727,15.68h-1.886H324.16h-18.4c-0.88,0-1.68,0.159-2.396,0.479
	c-0.724,0.241-1.44,0.721-1.921,1.28c-0.563,0.561-1.039,1.2-1.359,1.92c-0.32,0.8-0.48,1.6-0.48,2.4v3.121
	c0,0.88,0.16,1.68,0.48,2.4s0.8,1.359,1.359,1.92c0.479,0.56,1.197,1.039,1.921,1.359c0.72,0.241,1.52,0.399,2.396,0.399h18.4
	h22.561h1.359l-15.76,15.76c-0.644,0.641-1.041,1.281-1.36,2.082c-0.32,0.719-0.479,1.519-0.479,2.315
	c0,0.802,0.157,1.521,0.479,2.32c0.319,0.8,0.72,1.438,1.36,2l2.156,2.161c0.563,0.639,1.2,1.037,2,1.357
	c0.803,0.319,1.521,0.479,2.32,0.479s1.521-0.159,2.32-0.479s1.438-0.722,2-1.357l28.96-28.963c0.641-0.561,1.04-1.278,1.358-2
	c0.186-0.461,0.312-0.896,0.389-1.333c0.101-0.193,0.187-0.391,0.253-0.588C374.4,66.641,374.561,65.841,374.561,65.041z"/>
<g>
	<g>
		<g>
			<path fill="#FE9929" d="M43.92,105.359l2.8-2.079l-2.8-2.08v-3.279l6.88,5.359l-6.88,5.36V105.359z"/>
		</g>
	</g>
	<g>
		<g>
			<path fill="#FE9929" d="M51.2,105.359l2.88-2.079l-2.88-2.08v-3.279l6.88,5.359l-6.88,5.36V105.359z"/>
		</g>
	</g>
	<g>
		<g>
			<path fill="#FE9929" d="M69.84,104.641h-2.48v-2.396h2.56c0.32,0,0.64-0.081,0.88-0.241c0.32-0.159,0.48-0.397,0.64-0.72
				c0.08-0.239,0.16-0.643,0.16-1.12V97.2c0-0.479-0.08-0.8-0.16-1.12c-0.16-0.32-0.32-0.561-0.64-0.721
				c-0.24-0.159-0.56-0.238-0.88-0.238h-2.56v-2.48h2.479c0.88,0,1.6,0.239,2.4,0.563c0.56,0.398,1.121,0.88,1.521,1.601
				c0.24,0.56,0.48,1.358,0.48,2.398v3.041c0,0.959-0.24,1.759-0.56,2.397c-0.32,0.642-0.8,1.118-1.44,1.438
				C71.6,104.48,70.8,104.641,69.84,104.641z"/>
			<path fill="#FE9929" d="M64.8,112.241V92.641h1.44v2.48h1.121v7.12H66.24v2.399h1.121v7.601H64.8L64.8,112.241z"/>
		</g>
	</g>
	<g>
		<g>
			<path fill="#FE9929" d="M81.52,96.641l-1.68,8.961H78.8V108h0.64l-0.8,4.241h-2.8l4.56-19.601h2.32l4.561,19.601h-2.8L83.68,108
				h0.88v-2.398H83.2L81.52,96.641z"/>
			<path fill="#FE9929" d="M83.68,108h-4.24l0.4-2.398h3.36L83.68,108z"/>
		</g>
	</g>
	<g>
		<g>
			<path fill="#FE9929" d="M94.56,101.28l2.08,1.04c0.48,0.32,0.88,0.88,1.2,1.359c0.32,0.562,0.4,1.358,0.4,2.397v1.761
				c0,1.039-0.08,1.842-0.479,2.563c-0.32,0.641-0.88,1.199-1.6,1.438c-0.72,0.4-1.6,0.643-2.56,0.643s-1.84-0.239-2.56-0.643
				c-0.72-0.238-1.28-0.8-1.6-1.438c-0.4-0.801-0.56-1.603-0.56-2.563v-0.961h2.56v0.803c0,0.801,0.16,1.277,0.56,1.68
				c0.4,0.397,0.96,0.641,1.6,0.641s1.2-0.24,1.6-0.641c0.4-0.399,0.56-0.879,0.56-1.68v-1.603c0-0.479-0.16-0.88-0.32-1.2
				c-0.24-0.318-0.56-0.639-0.88-0.88l-1.52-0.722l0,0h-0.08l-0.16-0.078l-2-1.12c-0.64-0.397-1.04-0.88-1.36-1.521
				c-0.4-0.721-0.56-1.521-0.56-2.398v-1.2c0-0.88,0.16-1.681,0.56-2.399c0.32-0.72,0.88-1.199,1.6-1.601
				c0.72-0.317,1.6-0.479,2.56-0.479s1.76,0.16,2.48,0.479c0.72,0.397,1.2,0.881,1.6,1.601c0.32,0.723,0.56,1.603,0.56,2.48v1.039
				h-2.56V97.2c0-0.72-0.24-1.2-0.56-1.681c-0.32-0.319-0.88-0.563-1.52-0.563c-0.72,0-1.28,0.24-1.6,0.563
				c-0.4,0.318-0.56,0.881-0.56,1.521v1.2c0,0.479,0.08,0.959,0.32,1.277c0.32,0.319,0.56,0.562,0.879,0.801l1.44,0.722
				c0.08,0,0.16,0,0.16,0.08c0.08,0.079,0.16,0.079,0.16,0.079L94.56,101.28z"/>
		</g>
	</g>
	<g>
		<g>
			<path fill="#FE9929" d="M103.36,92.641v19.604h-2.56V92.641H103.36z"/>
		</g>
	</g>
	<g>
		<g>
			<path fill="#FE9929" d="M107.36,109.76v2.481H106V92.641h2.56v17.119H107.36z"/>
			<path fill="#FE9929" d="M108.56,109.76h5.6v2.481h-5.6V109.76z"/>
		</g>
	</g>
	<g>
		<g>
			<path fill="#FE9929" d="M117.44,109.76v2.481h-1.28V92.641h2.479v17.119H117.44z"/>
			<path fill="#FE9929" d="M118.64,109.76h5.6v2.481h-5.6V109.76z"/>
		</g>
	</g>
	<g>
		<g>
			<path fill="#FE9929" d="M133.68,111.841c-0.72,0.4-1.6,0.64-2.64,0.64c-0.96,0-1.84-0.236-2.56-0.64
				c-0.8-0.399-1.36-0.961-1.68-1.681c-0.32-0.719-0.56-1.602-0.56-2.641v-10.16c0-1.039,0.24-1.918,0.56-2.642
				c0.32-0.721,0.88-1.276,1.68-1.68c0.8-0.397,1.68-0.563,2.56-0.563c1.04,0,1.92,0.16,2.64,0.563c0.64,0.317,1.28,0.959,1.68,1.68
				c0.4,0.802,0.56,1.683,0.56,2.642v10.16c0,0.961-0.16,1.84-0.56,2.641C134.96,110.88,134.4,111.441,133.68,111.841z
				 M129.84,109.68c0.4,0.161,0.8,0.32,1.2,0.32s0.8-0.159,1.28-0.32c0.32-0.158,0.64-0.396,0.8-0.8c0.16-0.399,0.24-0.8,0.24-1.278
				V97.28c0-0.479-0.08-0.88-0.24-1.2c-0.16-0.4-0.48-0.721-0.8-0.8c-0.48-0.239-0.88-0.32-1.28-0.32s-0.8,0.081-1.2,0.32
				c-0.32,0.079-0.56,0.399-0.8,0.8c-0.16,0.32-0.24,0.721-0.24,1.2V107.6c0,0.479,0.08,0.881,0.24,1.279
				C129.28,109.28,129.52,109.521,129.84,109.68z"/>
		</g>
	</g>
	<g>
		<g>
			<path fill="#FE9929" d="M143.44,105.359l2.8-2.079l-2.8-2.08v-3.279l6.88,5.359l-6.88,5.36V105.359z"/>
		</g>
	</g>
	<g>
		<g>
			<path fill="#FE9929" d="M150.8,105.359l2.88-2.079l-2.88-2.08v-3.279l6.88,5.359l-6.88,5.36V105.359z"/>
		</g>
	</g>
	<g>
		<g>
			<path fill="#FE9929" d="M169.44,104.641h-2.48v-2.396h2.48c0.4,0,0.72-0.081,0.96-0.241c0.24-0.159,0.48-0.397,0.56-0.72
				c0.08-0.239,0.16-0.643,0.16-1.12V97.2c0-0.479-0.08-0.8-0.16-1.12s-0.32-0.561-0.56-0.721c-0.24-0.159-0.56-0.238-0.96-0.238
				h-2.48v-2.48h2.48c0.88,0,1.68,0.239,2.4,0.563c0.56,0.398,1.12,0.88,1.44,1.601c0.4,0.644,0.56,1.44,0.56,2.399v3.041
				c0,0.88-0.16,1.6-0.56,2.396c-0.4,0.643-0.96,1.2-1.52,1.439C171.12,104.48,170.32,104.641,169.44,104.641z"/>
			<path fill="#FE9929" d="M164.4,112.241V92.641h1.44v2.48h1.12v7.12h-1.12v2.399h1.12v7.601H164.4L164.4,112.241z"/>
		</g>
	</g>
	<g>
		<g>
			<path fill="#FE9929" d="M181.12,96.641l-1.68,8.961h-1.12V108h0.72l-0.88,4.241h-2.72l4.48-19.601h2.32l4.56,19.601h-2.72
				l-0.8-4.241h0.88v-2.398h-1.36L181.12,96.641z"/>
			<path fill="#FE9929" d="M183.28,108h-4.24l0.4-2.398h3.36L183.28,108z"/>
		</g>
	</g>
	<g>
		<g>
			<path fill="#FE9929" d="M193.84,101.121l0.32,0.159c0.08,0,0.08,0,0.08,0l1.92,1.04c0.479,0.32,0.88,0.721,1.2,1.359
				c0.4,0.641,0.479,1.438,0.479,2.397v1.761c0,0.96-0.16,1.762-0.479,2.563c-0.4,0.641-0.96,1.199-1.6,1.438
				c-0.72,0.4-1.6,0.643-2.64,0.643c-0.96,0-1.76-0.239-2.56-0.643c-0.72-0.238-1.2-0.8-1.6-1.438
				c-0.32-0.801-0.56-1.603-0.56-2.563v-0.961h2.56v0.803c0,0.801,0.16,1.277,0.56,1.68c0.4,0.397,0.96,0.641,1.6,0.641
				c0.72,0,1.28-0.24,1.6-0.641c0.4-0.399,0.641-0.879,0.641-1.68v-1.603c0-0.479-0.16-0.88-0.4-1.2
				c-0.24-0.318-0.48-0.639-0.88-0.88l-1.44-0.722c0,0,0,0-0.08,0l0,0l-0.24-0.078l-2-1.12c-0.48-0.397-0.959-0.88-1.36-1.521
				c-0.32-0.562-0.48-1.358-0.48-2.398v-1.2c0-0.88,0.16-1.681,0.48-2.399c0.4-0.72,0.88-1.199,1.6-1.601
				c0.8-0.317,1.68-0.479,2.56-0.479c0.96,0,1.84,0.16,2.56,0.479c0.64,0.397,1.2,0.881,1.6,1.601c0.32,0.723,0.48,1.603,0.48,2.48
				v1.039h-2.56V97.2c0-0.72-0.16-1.359-0.561-1.681c-0.32-0.319-0.8-0.563-1.52-0.563c-0.64,0-1.2,0.24-1.6,0.563
				c-0.4,0.319-0.48,0.881-0.48,1.521v1.2c0,0.56,0.08,0.959,0.32,1.277c0.24,0.319,0.479,0.562,0.879,0.801l1.44,0.722
				C193.76,101.041,193.76,101.041,193.84,101.121z"/>
		</g>
	</g>
	<g>
		<g>
			<path fill="#FE9929" d="M202.96,92.641v19.604h-2.64V92.641H202.96z"/>
		</g>
	</g>
	<g>
		<g>
			<path fill="#FE9929" d="M206.96,109.76v2.481h-1.438V92.641h2.642v17.119H206.96z"/>
			<path fill="#FE9929" d="M208.16,109.76h5.52v2.481h-5.52V109.76z"/>
		</g>
	</g>
	<g>
		<g>
			<path fill="#FE9929" d="M217.04,109.76v2.481h-1.36V92.641h2.563v17.119H217.04z"/>
			<path fill="#FE9929" d="M218.24,109.76h5.6v2.481h-5.6V109.76z"/>
		</g>
	</g>
	<g>
		<g>
			<path fill="#FE9929" d="M233.279,111.841c-0.719,0.4-1.6,0.64-2.641,0.64c-0.959,0-1.918-0.236-2.562-0.64
				c-0.804-0.399-1.356-0.961-1.763-1.681c-0.317-0.801-0.479-1.68-0.479-2.641v-10.16c0-0.959,0.16-1.84,0.479-2.642
				c0.4-0.721,0.959-1.276,1.763-1.68c0.72-0.397,1.603-0.563,2.562-0.563c1.041,0,1.84,0.16,2.641,0.563
				c0.801,0.397,1.281,0.959,1.601,1.68c0.399,0.724,0.642,1.683,0.642,2.642v10.16c0,1.039-0.242,1.922-0.642,2.641
				C234.561,110.88,234.08,111.441,233.279,111.841z M229.439,109.68c0.397,0.161,0.801,0.32,1.199,0.32
				c0.479,0,0.881-0.159,1.278-0.32c0.317-0.158,0.562-0.396,0.804-0.8c0.156-0.399,0.236-0.8,0.236-1.278V97.28
				c0-0.4-0.08-0.8-0.236-1.2c-0.242-0.4-0.48-0.721-0.804-0.8c-0.397-0.239-0.8-0.32-1.278-0.32c-0.398,0-0.802,0.081-1.199,0.32
				c-0.399,0.161-0.643,0.399-0.801,0.8c-0.16,0.32-0.318,0.721-0.318,1.2V107.6c0,0.479,0.158,0.881,0.318,1.279
				C228.8,109.2,229.04,109.441,229.439,109.68z"/>
		</g>
	</g>
	<g>
		<g>
			<path fill="#FE9929" d="M243.04,105.359l2.88-2.079l-2.88-2.08v-3.279l6.88,5.359l-6.88,5.36V105.359z"/>
		</g>
	</g>
	<g>
		<g>
			<path fill="#FE9929" d="M250.4,105.359l2.8-2.079l-2.8-2.08v-3.279l6.879,5.359l-6.879,5.36V105.359z"/>
		</g>
	</g>
</g>
<line fill="none" stroke="#000000" stroke-miterlimit="10" x1="0" y1="136.5" x2="400" y2="0"/>
<text transform="matrix(0.7268 0 0 1 41.8911 193.5088)" fill="#FE9929" font-family="'Bahnschrift'" font-size="24">&gt;&gt; SIGUIENTE</text>
<g enable-background="new    ">
	<text transform="matrix(0.7268 0 0 1 154.5908 193.5088)" fill="#FE9929" font-family="'Bahnschrift'" font-size="24">&gt;&gt; PASILLOS &gt;&gt;</text>
</g>
<text transform="matrix(0.7268 0 0 1 -369.5459 -121.2456)" fill="#FAFCFA" font-family="'Bahnschrift'" font-size="62.5328">3er PISO</text>
<text transform="matrix(0.7268 0 0 1 -369.5459 -189.9155)" fill="#FAFCFA" font-family="'Bahnschrift'" font-size="62.5328">ALCALDIA</text>
<text transform="matrix(0.7268 0 0 1 -369.5459 30.396)" fill="#FAFCFA" font-family="'Bahnschrift'" font-size="62.5328">1er PISO</text>
<text transform="matrix(0.7268 0 0 1 -369.5459 -38.2739)" fill="#FAFCFA" font-family="'Bahnschrift'" font-size="62.5328">2do PISO</text>
<text transform="matrix(0.7268 0 0 1 -362.5459 174.2715)" fill="#FAFCFA" font-family="'Bahnschrift'" font-size="62.5328">PLANTA BAJA</text>
<text transform="matrix(0.7268 0 0 1 -362.5459 105.6016)" fill="#FAFCFA" font-family="'Bahnschrift'" font-size="62.5328">MEZZANINA</text>
<text transform="matrix(0.7268 0 0 1 -362.5459 325.9141)" fill="#FAFCFA" font-family="'Bahnschrift'" font-size="62.5328">AREAS</text>
<text transform="matrix(0.7268 0 0 1 -362.5459 257.2441)" fill="#FAFCFA" font-family="'Bahnschrift'" font-size="62.5328">PB. DUPLEX</text>
<g>
	<g enable-background="new    ">
		<path fill="#FCFCFC" d="M53.278,30.396h4.5v45.985h-4.5V30.396z M55.595,52.408h10.259c0.97,0,1.823-0.327,2.559-0.98
			c0.736-0.653,1.306-1.582,1.71-2.783c0.404-1.202,0.606-2.583,0.606-4.144c0-1.581-0.202-2.973-0.606-4.175
			c-0.405-1.202-0.975-2.135-1.71-2.799s-1.588-0.996-2.559-0.996H55.595v-6.136h10.104c1.912,0,3.596,0.585,5.052,1.755
			c1.456,1.171,2.584,2.82,3.386,4.95c0.802,2.13,1.203,4.597,1.203,7.4c0,2.805-0.401,5.266-1.203,7.385
			c-0.802,2.12-1.93,3.759-3.386,4.918c-1.457,1.16-3.14,1.74-5.052,1.74H55.595V52.408z"/>
		<path fill="#FCFCFC" d="M88.159,30.396h3.839l11.825,45.985h-4.854l-8.891-37.099l-8.891,37.099h-4.854L88.159,30.396z
			 M81.783,60.157h16.878v6.135H81.783V60.157z"/>
		<path fill="#FCFCFC" d="M114.236,76.855c0,0-0.692-0.211-2.074-0.633c-1.383-0.422-2.673-1.055-3.872-1.896
			c-1.199-0.844-2.32-1.898-3.365-3.164l2.802-4.933c1.22,1.518,2.566,2.656,4.037,3.416c1.471,0.758,3.067,1.139,4.788,1.139
			c2.324,0,4.125-0.617,5.406-1.85c1.279-1.234,1.919-2.979,1.919-5.234v-0.032c0-1.602-0.291-2.872-0.872-3.811
			c-0.581-0.938-1.332-1.634-2.25-2.088c-0.919-0.453-2.106-0.87-3.563-1.249c-0.044-0.021-0.092-0.031-0.144-0.031
			c-0.052,0-0.1-0.011-0.144-0.032l-0.331-0.095c-2.148-0.526-3.895-1.123-5.24-1.787c-1.345-0.664-2.497-1.876-3.453-3.637
			s-1.434-4.265-1.434-7.512v-0.031c0-2.847,0.445-5.277,1.335-7.29c0.889-2.014,2.188-3.548,3.893-4.603
			c1.707-1.054,3.758-1.581,6.156-1.581c1.147,0,2.275,0.18,3.387,0.537c1.11,0.359,2.206,0.892,3.287,1.598
			c1.081,0.707,2.144,1.598,3.188,2.673l-2.559,5.124c-1.221-1.287-2.438-2.251-3.651-2.895s-2.431-0.965-3.651-0.965
			c-2.191,0-3.895,0.628-5.107,1.882c-1.214,1.255-1.82,3.032-1.82,5.329v0.032c0,1.581,0.312,2.825,0.938,3.732
			c0.625,0.906,1.404,1.575,2.338,2.007c0.934,0.434,2.231,0.882,3.894,1.345c0.059,0.021,0.114,0.037,0.166,0.048
			c0.051,0.011,0.106,0.026,0.166,0.048c0.073,0.021,0.154,0.042,0.243,0.063c0.088,0.021,0.168,0.043,0.243,0.063
			c1.941,0.569,3.563,1.244,4.865,2.023c1.301,0.781,2.39,2.041,3.266,3.78c0.875,1.739,1.312,4.117,1.312,7.132v0.063
			c0,2.804-0.463,5.202-1.39,7.195c-0.927,1.992-2.27,3.511-4.027,4.554c-1.757,1.044-3.879,1.565-6.365,1.565
			C115.008,76.855,114.236,76.855,114.236,76.855z"/>
		<path fill="#FCFCFC" d="M138.792,76.381h-4.501V30.396h4.501V76.381z"/>
		<path fill="#FCFCFC" d="M146.734,30.396h4.5v45.985h-4.5V30.396z M148.985,70.245h18.355v6.136h-18.355V70.245z"/>
		<path fill="#FCFCFC" d="M172.635,30.396h4.502v45.985h-4.502V30.396z M174.885,70.245h18.357v6.136h-18.357V70.245z"/>
		<path fill="#FCFCFC" d="M202.354,74.752c-1.705-1.4-3.026-3.384-3.96-5.945c-0.934-2.561-1.4-5.529-1.4-8.903v-13.03
			c0-3.373,0.467-6.341,1.4-8.902c0.934-2.563,2.255-4.544,3.96-5.946c1.707-1.402,3.676-2.104,5.912-2.104
			c2.234,0,4.207,0.701,5.912,2.104c1.707,1.402,3.025,3.384,3.961,5.946c0.935,2.562,1.4,5.529,1.4,8.902v13.03
			c0,3.374-0.467,6.342-1.4,8.903c-0.936,2.563-2.254,4.545-3.961,5.945c-1.705,1.403-3.678,2.104-5.912,2.104
			C206.029,76.855,204.061,76.155,202.354,74.752z M211.762,69.218c1.008-0.854,1.789-2.066,2.34-3.637
			c0.551-1.571,0.826-3.389,0.826-5.456V46.651c0-2.065-0.275-3.885-0.826-5.455c-0.551-1.571-1.332-2.783-2.34-3.638
			c-1.008-0.854-2.172-1.28-3.496-1.28s-2.49,0.427-3.496,1.28c-1.008,0.854-1.787,2.066-2.338,3.638
			c-0.553,1.57-0.828,3.39-0.828,5.455v13.474c0,2.067,0.275,3.886,0.828,5.456c0.551,1.57,1.33,2.783,2.338,3.637
			c1.006,0.854,2.172,1.281,3.496,1.281S210.754,70.07,211.762,69.218z"/>
		<path fill="#FCFCFC" d="M233.262,76.855c0,0-0.691-0.211-2.074-0.633s-2.674-1.055-3.871-1.896
			c-1.198-0.844-2.319-1.898-3.364-3.164l2.801-4.933c1.222,1.518,2.567,2.656,4.039,3.416c1.469,0.758,3.065,1.139,4.787,1.139
			c2.323,0,4.125-0.617,5.403-1.85c1.281-1.234,1.922-2.979,1.922-5.234v-0.032c0-1.602-0.293-2.872-0.872-3.811
			c-0.582-0.938-1.33-1.634-2.25-2.088c-0.921-0.453-2.107-0.87-3.563-1.249c-0.045-0.021-0.094-0.031-0.145-0.031
			s-0.1-0.011-0.143-0.032l-0.332-0.095c-2.146-0.526-3.894-1.123-5.238-1.787c-1.346-0.664-2.498-1.876-3.453-3.637
			c-0.957-1.761-1.436-4.265-1.436-7.512v-0.031c0-2.847,0.446-5.277,1.336-7.29c0.891-2.014,2.188-3.548,3.895-4.603
			c1.705-1.054,3.758-1.581,6.154-1.581c1.147,0,2.274,0.18,3.387,0.537c1.111,0.359,2.207,0.892,3.289,1.598
			c1.08,0.707,2.143,1.598,3.188,2.673l-2.559,5.124c-1.221-1.287-2.439-2.251-3.652-2.895s-2.432-0.965-3.652-0.965
			c-2.19,0-3.893,0.628-5.104,1.882c-1.215,1.255-1.819,3.032-1.819,5.329v0.032c0,1.581,0.311,2.825,0.938,3.732
			c0.623,0.906,1.402,1.575,2.336,2.007c0.936,0.434,2.234,0.882,3.896,1.345c0.057,0.021,0.112,0.037,0.164,0.048
			c0.053,0.011,0.106,0.026,0.166,0.048c0.073,0.021,0.153,0.042,0.241,0.063c0.091,0.021,0.17,0.043,0.244,0.063
			c1.94,0.569,3.563,1.244,4.863,2.023c1.301,0.781,2.391,2.041,3.266,3.78c0.875,1.739,1.313,4.117,1.313,7.132v0.063
			c0,2.804-0.465,5.202-1.391,7.195c-0.928,1.992-2.27,3.511-4.027,4.554c-1.758,1.044-3.879,1.565-6.364,1.565
			C234.035,76.855,233.262,76.855,233.262,76.855z"/>
	</g>
</g>
</svg>
