<?xml version="1.0" encoding="utf-8"?>
<!-- Generator: Adobe Illustrator 16.0.2, SVG Export Plug-In . SVG Version: 6.00 Build 0)  -->
<!DOCTYPE svg PUBLIC "-//W3C//DTD SVG 1.1//EN" "http://www.w3.org/Graphics/SVG/1.1/DTD/svg11.dtd">
<svg version="1.1"
	 id="svg815" xmlns:dc="http://purl.org/dc/elements/1.1/" xmlns:svg="http://www.w3.org/2000/svg" xmlns:rdf="http://www.w3.org/1999/02/22-rdf-syntax-ns#" xmlns:sodipodi="http://sodipodi.sourceforge.net/DTD/sodipodi-0.dtd" xmlns:cc="http://creativecommons.org/ns#" xmlns:inkscape="http://www.inkscape.org/namespaces/inkscape" sodipodi:docname="coffee013a.svg" inkscape:version="1.2.2 (732a01da63, 2022-12-09)"
	 xmlns="http://www.w3.org/2000/svg" xmlns:xlink="http://www.w3.org/1999/xlink" x="0px" y="0px" width="320px" height="110.095px"
	 viewBox="40 12.755 320 110.095" enable-background="new 40 12.755 320 110.095" xml:space="preserve">
<line fill="none" stroke="#F9F7F7" stroke-miterlimit="10" x1="40" y1="122.85" x2="360" y2="13.65"/>
<sodipodi:namedview  id="namedview817" inkscape:pagecheckerboard="0" inkscape:window-maximized="1" inkscape:current-layer="layer1" inkscape:window-height="705" inkscape:window-y="-8" inkscape:window-x="-8" inkscape:deskcolor="#d1d1d1" inkscape:pageopacity="0" inkscape:showpageshadow="2" inkscape:pageshadow="2" inkscape:window-width="1366" fit-margin-right="0" inkscape:snap-page="false" fit-margin-bottom="0" inkscape:zoom="0.51782907" bordercolor="#666666" objecttolerance="10" fit-margin-top="0" gridtolerance="10" pagecolor="#ffffff" inkscape:cx="-83.038984" showguides="true" borderopacity="1" inkscape:cy="505.95846" showgrid="false" guidetolerance="10" fit-margin-left="0">
	</sodipodi:namedview>
<g>
	<g>
		<path fill="#FF3300" d="M44.032,93.714V42.77c0-3.136,0.576-6.08,1.728-8.896c1.151-2.688,2.816-5.12,4.928-7.231
			c4.416-4.417,9.728-6.593,16.064-6.593h266.56c3.076,0,5.952,0.576,8.832,1.793c2.688,1.087,5.12,2.751,7.233,4.8
			c4.417,4.479,6.591,9.791,6.591,16.127v50.944c0,3.136-0.575,6.08-1.791,8.896c-1.15,2.687-2.75,5.119-4.8,7.168
			c-2.113,2.112-4.545,3.775-7.233,4.864c-2.88,1.215-5.756,1.792-8.832,1.792H66.752c-3.136,0-6.016-0.581-8.896-1.792
			c-2.688-1.089-5.12-2.752-7.167-4.864c-2.112-2.049-3.776-4.481-4.928-7.168C44.608,99.794,44.032,96.85,44.032,93.714z"/>
	</g>
	<g>
		
			<path fill="none" stroke="#999999" stroke-width="0.5" stroke-linecap="round" stroke-linejoin="round" stroke-miterlimit="10" d="
			M44.032,93.714c0,3.136,0.576,6.08,1.728,8.896c1.151,2.687,2.816,5.119,4.928,7.168c2.048,2.112,4.48,3.775,7.167,4.864
			c2.88,1.215,5.76,1.792,8.896,1.792h266.56c3.072,0,5.953-0.581,8.832-1.792c2.688-1.089,5.121-2.752,7.233-4.864
			c2.051-2.049,3.65-4.481,4.8-7.168c1.217-2.816,1.791-5.761,1.791-8.896V42.77c0-6.336-2.176-11.647-6.591-16.127
			c-2.112-2.049-4.545-3.713-7.233-4.8c-2.879-1.217-5.76-1.793-8.831-1.793H66.752c-6.336,0-11.648,2.176-16.064,6.593
			c-2.112,2.111-3.776,4.543-4.928,7.231c-1.152,2.816-1.728,5.76-1.728,8.896V93.714"/>
	</g>
</g>
<g>
	<g>
		
			<path fill="none" stroke="#999999" stroke-width="0.4" stroke-linecap="round" stroke-linejoin="round" stroke-miterlimit="10" d="
			M269.183,88.658c0,5.056,1.794,9.279,5.316,12.8c3.517,3.585,7.808,5.376,12.864,5.376h40.832c4.987,0,9.279-1.787,12.864-5.376
			c3.517-3.521,5.247-7.744,5.247-12.8V47.826c0-5.056-1.727-9.28-5.247-12.864c-3.585-3.52-7.877-5.313-12.864-5.313H287.36
			c-5.057,0-9.345,1.793-12.864,5.313c-3.52,3.583-5.313,7.807-5.313,12.864V88.658"/>
	</g>
	<g>
		<path fill="#F2F2F2" d="M269.183,88.658V47.826c0-5.056,1.794-9.28,5.316-12.864c3.517-3.52,7.808-5.313,12.864-5.313h40.832
			c4.987,0,9.279,1.793,12.864,5.313c3.517,3.583,5.247,7.807,5.247,12.864v40.833c0,5.056-1.727,9.279-5.247,12.8
			c-3.585,3.585-7.877,5.376-12.864,5.376H287.36c-5.057,0-9.345-1.787-12.864-5.376C270.977,97.938,269.183,93.714,269.183,88.658z
			"/>
	</g>
</g>
<g>
	<path fill="#FFFFFF" d="M-259.103,48.917v-5.6h-19.521v45.438h19.521v-5.68h-13.601v-14.08h12v-5.68h-12v-14.4L-259.103,48.917
		L-259.103,48.917z"/>
	<path fill="#FFFFFF" d="M-179.982,43.316h-19.439v45.439h19.438v-5.68h-13.52v-14.08h12v-5.68h-12v-14.4h13.52L-179.982,43.316
		L-179.982,43.316z"/>
	<path fill="#FFFFFF" d="M-204.063,48.917v-5.6h-22.08v5.6h8.08v39.838h5.92V48.917H-204.063z"/>
	<g>
		<g>
			<g>
				<path fill="#FFFFFF" d="M-383.662,61.078l4.16,2c0.08,0,0.236,0.08,0.236,0.159l0.4,0.081c1.76,0.8,3.2,1.6,4.319,2.4
					c1.118,0.639,2,1.759,2.881,3.2c0.72,1.359,1.119,3.201,1.119,5.439v4.16c0,2.236-0.479,4.158-1.279,5.84
					c-0.801,1.6-2.08,2.801-3.68,3.6c-1.604,0.801-3.604,1.199-5.923,1.199c-2.397,0-4.397-0.398-6.077-1.199
					c-1.684-0.801-2.884-2-3.764-3.6c-0.8-1.682-1.277-3.604-1.277-5.84v-2.24h6v2c0,1.6,0.397,2.881,1.277,3.842
					c0.88,0.879,2.16,1.357,3.843,1.357c1.601,0,2.8-0.479,3.601-1.357c0.88-0.961,1.358-2.162,1.358-3.842v-4
					c0-1.041-0.319-2-0.802-2.801c-0.64-0.721-1.357-1.359-2.079-1.84c-0.961-0.559-2.078-1.118-3.358-1.759c-0.08,0-0.08,0-0.159,0
					h-0.08l-0.397-0.241c-2.079-0.959-3.683-1.759-4.723-2.559c-1.2-0.8-2.24-2-3.2-3.521c-0.8-1.439-1.197-3.28-1.197-5.6v-2.639
					c0-2.24,0.397-4.161,1.197-5.681c0.803-1.519,2.08-2.719,3.764-3.6c1.68-0.8,3.68-1.2,6-1.2c2.316,0,4.236,0.4,5.84,1.281
					c1.6,0.719,2.8,1.918,3.6,3.6c0.8,1.519,1.2,3.439,1.2,5.759v2.401h-5.841v-2.159c0-1.682-0.399-2.961-1.279-3.841
					c-0.801-0.8-1.92-1.28-3.52-1.28c-1.604,0-2.882,0.48-3.764,1.28c-0.8,0.8-1.277,2-1.277,3.6v2.8c0,1.2,0.317,2.16,0.801,2.88
					C-385.263,59.876-384.543,60.518-383.662,61.078z"/>
			</g>
		</g>
		<g>
			<g>
				<path fill="#FFFFFF" d="M-357.263,43.316v45.439h-5.92V43.316H-357.263z"/>
			</g>
		</g>
		<g>
			<g>
				<path fill="#FFFFFF" d="M-338.623,64.277h11.041v13.28c0,2.4-0.4,4.563-1.28,6.32c-0.88,1.68-2.16,3.041-3.761,4
					c-1.603,0.879-3.603,1.279-5.84,1.279c-2.32,0-4.32-0.4-6-1.199c-1.683-0.881-2.959-2.16-3.843-3.84
					c-0.8-1.601-1.276-3.601-1.276-5.92V54.517c0-2.561,0.479-4.641,1.276-6.32c0.879-1.68,2.08-3.12,3.683-4
					c1.681-0.88,3.601-1.361,5.92-1.361c2.317,0,4.237,0.481,5.841,1.281c1.521,0.879,2.8,2.159,3.6,3.918
					c0.88,1.682,1.28,3.682,1.28,6.082v2.239h-6.32v-2.239c0-1.2-0.158-2.161-0.479-2.961c-0.319-0.88-0.799-1.439-1.521-1.92
					c-0.72-0.479-1.521-0.639-2.397-0.639c-0.959,0-1.92,0.239-2.724,0.72c-0.64,0.4-1.196,1.039-1.68,2
					c-0.32,0.88-0.561,1.919-0.561,3.2v23.681c0,1.12,0.237,2.08,0.641,2.879c0.4,0.721,0.96,1.28,1.76,1.68
					c0.724,0.48,1.683,0.723,2.803,0.723c0.959,0,1.841-0.318,2.641-0.723c0.72-0.479,1.2-1.038,1.68-2
					c0.399-0.879,0.643-1.838,0.643-3.119v-7.76h-5.119v-5.6H-338.623z"/>
			</g>
		</g>
		<g>
			<g>
				<path fill="#FFFFFF" d="M-304.223,87.957c-1.52,0.799-3.356,1.199-5.68,1.199c-2.24,0-4.08-0.4-5.6-1.199
					c-1.521-0.801-2.724-2-3.521-3.601c-0.8-1.603-1.2-3.603-1.2-5.84v-35.2h6v35.439c0,1.521,0.32,2.723,1.12,3.521
					c0.72,0.803,1.761,1.201,3.2,1.201s2.479-0.398,3.279-1.201c0.801-0.879,1.2-2,1.2-3.521V43.316h5.921v35.201
					c0,2.238-0.4,4.238-1.201,5.84C-301.502,85.957-302.703,87.158-304.223,87.957z"/>
			</g>
		</g>
		<g>
			<g>
				<path fill="#FFFFFF" d="M-286.223,43.316v45.439h-6V43.316H-286.223z"/>
			</g>
		</g>
		<g>
			<g>
				<path fill="#FFFFFF" d="M-235.902,88.756l-11.439-31.279v-3.359l-0.959,0.8l0.959,2.56v31.28h-5.681V43.316h5.2l11.521,32.001
					v3.601l0.959-0.801l-0.959-2.8V43.316h5.681v45.439H-235.902z"/>
			</g>
		</g>
	</g>
</g>
<path fill="#FF0000" d="M339.648,65.683c0-0.64-0.124-1.28-0.383-1.855c-0.192-0.576-0.576-1.152-1.088-1.664l-23.105-23.169
	c-0.512-0.383-1.085-0.831-1.664-1.024c-0.576-0.256-1.216-0.383-1.853-0.383c-0.644,0-1.218,0.127-1.855,0.383
	c-0.64,0.193-1.152,0.641-1.601,1.024l-1.792,1.792c-0.447,0.447-0.768,1.024-1.021,1.6c-0.255,0.576-0.384,1.216-0.384,1.856
	c0,0.64,0.127,1.279,0.384,1.855c0.254,0.576,0.578,1.152,1.021,1.665l12.583,12.544h-1.51h-18.053h-14.721
	c-0.703,0-1.344,0.127-1.916,0.383c-0.58,0.193-1.152,0.577-1.537,1.024c-0.45,0.449-0.831,0.96-1.087,1.536
	c-0.257,0.64-0.385,1.28-0.385,1.92v2.497c0,0.704,0.128,1.344,0.385,1.92c0.256,0.575,0.64,1.087,1.087,1.536
	c0.383,0.447,0.957,0.831,1.537,1.087c0.576,0.193,1.216,0.319,1.916,0.319h14.721h18.049h1.087l-12.607,12.608
	c-0.517,0.513-0.833,1.024-1.089,1.665c-0.256,0.575-0.383,1.215-0.383,1.852c0,0.643,0.125,1.216,0.383,1.855
	c0.256,0.641,0.576,1.151,1.089,1.601l1.724,1.728c0.45,0.512,0.96,0.829,1.6,1.086c0.644,0.255,1.217,0.383,1.856,0.383
	c0.639,0,1.217-0.127,1.856-0.383c0.639-0.257,1.149-0.578,1.6-1.086l23.168-23.171c0.513-0.448,0.832-1.021,1.085-1.6
	c0.15-0.369,0.251-0.717,0.313-1.066c0.081-0.154,0.149-0.313,0.202-0.47C339.521,66.963,339.648,66.323,339.648,65.683z"/>
<g>
	<g>
		<g>
			<path fill="#FE9929" d="M75.136,97.938l2.24-1.663l-2.24-1.664v-2.624l5.504,4.288l-5.504,4.288V97.938z"/>
		</g>
	</g>
	<g>
		<g>
			<path fill="#FE9929" d="M80.96,97.938l2.304-1.663L80.96,94.61v-2.624l5.504,4.288l-5.504,4.288V97.938z"/>
		</g>
	</g>
	<g>
		<g>
			<path fill="#FE9929" d="M95.872,97.362h-1.984v-1.916h2.048c0.256,0,0.512-0.065,0.704-0.193
				c0.256-0.127,0.384-0.317,0.512-0.575c0.064-0.191,0.128-0.516,0.128-0.896V91.41c0-0.384-0.064-0.64-0.128-0.896
				c-0.128-0.256-0.256-0.448-0.512-0.576c-0.191-0.127-0.447-0.19-0.704-0.19h-2.048v-1.984h1.983c0.704,0,1.28,0.191,1.92,0.45
				c0.448,0.318,0.897,0.704,1.217,1.281c0.192,0.449,0.384,1.086,0.384,1.918v2.434c0,0.767-0.192,1.406-0.448,1.917
				c-0.256,0.514-0.641,0.894-1.152,1.149C97.28,97.234,96.64,97.362,95.872,97.362z"/>
			<path fill="#FE9929" d="M91.84,103.443V87.763h1.152v1.984h0.896v5.696h-0.896v1.919h0.896v6.081H91.84L91.84,103.443z"/>
		</g>
	</g>
	<g>
		<g>
			<path fill="#FE9929" d="M105.216,90.963l-1.344,7.168h-0.832v1.919h0.512l-0.64,3.394h-2.24l3.648-15.681h1.856l3.648,15.681
				h-2.24l-0.641-3.394h0.704v-1.919h-1.088L105.216,90.963z"/>
			<path fill="#FE9929" d="M106.944,100.05h-3.393l0.32-1.919h2.688L106.944,100.05z"/>
		</g>
	</g>
	<g>
		<g>
			<path fill="#FE9929" d="M115.648,94.674l1.664,0.832c0.384,0.257,0.704,0.704,0.96,1.088c0.256,0.449,0.32,1.085,0.32,1.916
				v1.409c0,0.831-0.064,1.475-0.383,2.05c-0.256,0.514-0.704,0.959-1.28,1.15c-0.576,0.32-1.28,0.516-2.048,0.516
				s-1.472-0.191-2.048-0.516c-0.576-0.189-1.024-0.64-1.28-1.15c-0.32-0.641-0.448-1.283-0.448-2.05V99.15h2.048v0.644
				c0,0.641,0.128,1.021,0.448,1.344c0.32,0.316,0.768,0.513,1.28,0.513s0.96-0.192,1.28-0.513c0.32-0.319,0.448-0.703,0.448-1.344
				V98.51c0-0.383-0.128-0.703-0.256-0.96c-0.191-0.253-0.448-0.513-0.704-0.704l-1.216-0.578l0,0h-0.064l-0.128-0.062l-1.6-0.896
				c-0.512-0.316-0.832-0.704-1.088-1.217c-0.32-0.577-0.448-1.217-0.448-1.918v-0.96c0-0.704,0.128-1.346,0.448-1.919
				c0.256-0.576,0.704-0.959,1.28-1.281c0.576-0.253,1.28-0.383,2.048-0.383s1.408,0.128,1.984,0.383
				c0.576,0.317,0.96,0.705,1.28,1.281c0.256,0.579,0.448,1.283,0.448,1.983v0.831h-2.048V91.41c0-0.576-0.192-0.96-0.448-1.345
				c-0.256-0.255-0.704-0.45-1.216-0.45c-0.576,0-1.024,0.191-1.28,0.45c-0.32,0.253-0.448,0.705-0.448,1.217v0.96
				c0,0.383,0.064,0.768,0.256,1.021c0.256,0.254,0.447,0.449,0.703,0.641l1.152,0.578c0.064,0,0.128,0,0.128,0.063
				c0.064,0.063,0.128,0.063,0.128,0.063L115.648,94.674z"/>
		</g>
	</g>
	<g>
		<g>
			<path fill="#FE9929" d="M122.688,87.763v15.684h-2.048V87.763H122.688z"/>
		</g>
	</g>
	<g>
		<g>
			<path fill="#FE9929" d="M125.888,101.458v1.985H124.8V87.763h2.048v13.695H125.888z"/>
			<path fill="#FE9929" d="M126.848,101.458h4.48v1.985h-4.48V101.458z"/>
		</g>
	</g>
	<g>
		<g>
			<path fill="#FE9929" d="M133.952,101.458v1.985h-1.024V87.763h1.983v13.695H133.952z"/>
			<path fill="#FE9929" d="M134.912,101.458h4.48v1.985h-4.48V101.458z"/>
		</g>
	</g>
	<g>
		<g>
			<path fill="#FE9929" d="M146.944,103.123c-0.576,0.32-1.28,0.512-2.112,0.512c-0.768,0-1.472-0.188-2.048-0.512
				c-0.64-0.32-1.088-0.77-1.344-1.345c-0.256-0.575-0.448-1.281-0.448-2.112v-8.129c0-0.831,0.192-1.534,0.448-2.114
				c0.256-0.577,0.704-1.02,1.344-1.344c0.64-0.316,1.344-0.451,2.048-0.451c0.832,0,1.536,0.128,2.112,0.451
				c0.512,0.252,1.023,0.767,1.344,1.344c0.32,0.643,0.448,1.348,0.448,2.114v8.129c0,0.769-0.128,1.472-0.448,2.112
				C147.968,102.354,147.52,102.803,146.944,103.123z M143.872,101.394c0.32,0.129,0.64,0.257,0.96,0.257s0.64-0.128,1.024-0.257
				c0.256-0.126,0.512-0.316,0.64-0.64c0.128-0.319,0.192-0.64,0.192-1.022v-8.257c0-0.384-0.064-0.704-0.192-0.961
				c-0.128-0.32-0.384-0.576-0.64-0.64c-0.384-0.191-0.704-0.256-1.024-0.256s-0.64,0.064-0.96,0.256
				c-0.256,0.063-0.448,0.319-0.64,0.64c-0.128,0.257-0.192,0.577-0.192,0.961v8.255c0,0.384,0.064,0.705,0.192,1.023
				C143.424,101.074,143.616,101.268,143.872,101.394z"/>
		</g>
	</g>
	<g>
		<g>
			<path fill="#FE9929" d="M154.752,97.938l2.24-1.663l-2.24-1.664v-2.624l5.504,4.288l-5.504,4.288V97.938z"/>
		</g>
	</g>
	<g>
		<g>
			<path fill="#FE9929" d="M160.64,97.938l2.305-1.663l-2.305-1.664v-2.624l5.504,4.288l-5.504,4.288V97.938z"/>
		</g>
	</g>
	<g>
		<g>
			<path fill="#FE9929" d="M175.552,97.362h-1.984v-1.916h1.984c0.32,0,0.576-0.065,0.768-0.193
				c0.192-0.127,0.384-0.317,0.448-0.575c0.064-0.191,0.128-0.516,0.128-0.896V91.41c0-0.384-0.064-0.64-0.128-0.896
				c-0.064-0.256-0.256-0.448-0.448-0.576c-0.192-0.127-0.448-0.19-0.768-0.19h-1.984v-1.984h1.984c0.704,0,1.344,0.191,1.92,0.45
				c0.448,0.318,0.896,0.704,1.152,1.281c0.32,0.516,0.448,1.152,0.448,1.919v2.433c0,0.704-0.127,1.28-0.448,1.917
				c-0.32,0.516-0.768,0.96-1.216,1.151C176.896,97.234,176.256,97.362,175.552,97.362z"/>
			<path fill="#FE9929" d="M171.52,103.443V87.763h1.152v1.984h0.896v5.696h-0.896v1.919h0.896v6.081H171.52L171.52,103.443z"/>
		</g>
	</g>
	<g>
		<g>
			<path fill="#FE9929" d="M184.896,90.963l-1.344,7.168h-0.896v1.919h0.576l-0.704,3.394h-2.176l3.584-15.681h1.856l3.648,15.681
				h-2.176l-0.64-3.394h0.704v-1.919h-1.088L184.896,90.963z"/>
			<path fill="#FE9929" d="M186.624,100.05h-3.392l0.32-1.919h2.688L186.624,100.05z"/>
		</g>
	</g>
	<g>
		<g>
			<path fill="#FE9929" d="M195.072,94.547l0.256,0.127c0.064,0,0.064,0,0.064,0l1.536,0.832c0.383,0.257,0.704,0.577,0.959,1.088
				c0.32,0.513,0.383,1.15,0.383,1.916v1.409c0,0.768-0.127,1.411-0.383,2.05c-0.32,0.514-0.768,0.959-1.28,1.15
				c-0.576,0.32-1.28,0.516-2.112,0.516c-0.768,0-1.408-0.191-2.048-0.516c-0.576-0.189-0.96-0.64-1.28-1.15
				c-0.256-0.641-0.448-1.283-0.448-2.05V99.15h2.048v0.644c0,0.641,0.128,1.021,0.448,1.344c0.32,0.316,0.768,0.513,1.28,0.513
				c0.576,0,1.024-0.192,1.28-0.513c0.32-0.319,0.512-0.703,0.512-1.344V98.51c0-0.383-0.127-0.703-0.32-0.96
				c-0.192-0.253-0.384-0.513-0.704-0.704l-1.152-0.578c0,0,0,0-0.064,0l0,0l-0.192-0.062l-1.6-0.896
				c-0.384-0.316-0.768-0.704-1.088-1.217c-0.256-0.45-0.384-1.086-0.384-1.918v-0.96c0-0.704,0.128-1.346,0.384-1.919
				c0.32-0.576,0.704-0.959,1.28-1.281c0.64-0.253,1.344-0.383,2.048-0.383c0.768,0,1.472,0.128,2.048,0.383
				c0.512,0.317,0.96,0.705,1.28,1.281c0.256,0.579,0.384,1.283,0.384,1.983v0.831h-2.048V91.41c0-0.576-0.128-1.088-0.449-1.345
				c-0.256-0.255-0.64-0.45-1.216-0.45c-0.512,0-0.96,0.191-1.28,0.45c-0.32,0.254-0.384,0.705-0.384,1.217v0.96
				c0,0.447,0.064,0.768,0.256,1.021c0.192,0.254,0.383,0.449,0.703,0.641l1.152,0.578
				C195.008,94.482,195.008,94.482,195.072,94.547z"/>
		</g>
	</g>
	<g>
		<g>
			<path fill="#FE9929" d="M202.368,87.763v15.684h-2.112V87.763H202.368z"/>
		</g>
	</g>
	<g>
		<g>
			<path fill="#FE9929" d="M205.568,101.458v1.985h-1.151V87.763h2.115v13.695H205.568z"/>
			<path fill="#FE9929" d="M206.528,101.458h4.415v1.985h-4.415V101.458z"/>
		</g>
	</g>
	<g>
		<g>
			<path fill="#FE9929" d="M213.632,101.458v1.985h-1.088V87.763h2.051v13.695H213.632z"/>
			<path fill="#FE9929" d="M214.592,101.458h4.48v1.985h-4.48V101.458z"/>
		</g>
	</g>
	<g>
		<g>
			<path fill="#FE9929" d="M226.623,103.123c-0.574,0.32-1.279,0.512-2.112,0.512c-0.767,0-1.534-0.188-2.051-0.512
				c-0.645-0.32-1.083-0.77-1.411-1.345c-0.253-0.641-0.383-1.344-0.383-2.112v-8.129c0-0.767,0.128-1.472,0.383-2.114
				c0.32-0.577,0.767-1.02,1.411-1.344c0.576-0.316,1.284-0.451,2.051-0.451c0.833,0,1.472,0.128,2.112,0.451
				c0.641,0.316,1.025,0.767,1.281,1.344c0.319,0.58,0.513,1.348,0.513,2.114v8.129c0,0.831-0.193,1.537-0.513,2.112
				C227.648,102.354,227.264,102.803,226.623,103.123z M223.552,101.394c0.316,0.129,0.641,0.257,0.959,0.257
				c0.383,0,0.705-0.128,1.021-0.257c0.252-0.126,0.45-0.316,0.645-0.64c0.123-0.319,0.188-0.64,0.188-1.022v-8.257
				c0-0.32-0.064-0.641-0.188-0.961c-0.194-0.32-0.385-0.576-0.645-0.64c-0.316-0.191-0.64-0.256-1.021-0.256
				c-0.318,0-0.643,0.064-0.959,0.256c-0.319,0.129-0.516,0.319-0.641,0.64c-0.128,0.257-0.255,0.577-0.255,0.961v8.255
				c0,0.384,0.127,0.705,0.255,1.023C223.04,101.01,223.232,101.203,223.552,101.394z"/>
		</g>
	</g>
	<g>
		<g>
			<path fill="#FE9929" d="M234.432,97.938l2.305-1.663l-2.305-1.664v-2.624l5.504,4.288l-5.504,4.288V97.938z"/>
		</g>
	</g>
	<g>
		<g>
			<path fill="#FE9929" d="M240.32,97.938l2.24-1.663l-2.24-1.664v-2.624l5.503,4.288l-5.503,4.288V97.938z"/>
		</g>
	</g>
</g>
<text transform="matrix(0.7268 0 0 1 -392.5459 12.7549)" fill="#FCFCFC" font-family="'Bahnschrift'" font-size="62.5328">3er PISO</text>
<text transform="matrix(0.7268 0 0 1 -392.5459 -55.915)" fill="#FCFCFC" font-family="'Bahnschrift'" font-size="62.5328">ALCALDIA</text>
<text transform="matrix(0.7268 0 0 1 -392.5459 164.3965)" fill="#FCFCFC" font-family="'Bahnschrift'" font-size="62.5328">1er PISO</text>
<g enable-background="new    ">
	<path fill="#FCFCFC" d="M82.941,70.37l9.001-16.512c0.521-0.945,0.926-1.925,1.216-2.944c0.29-1.018,0.435-1.966,0.435-2.846V48.02
		c0-1.417-0.302-2.516-0.906-3.298c-0.604-0.781-1.462-1.172-2.574-1.172c-1.054,0-1.906,0.428-2.557,1.283
		c-0.651,0.854-1.047,2.064-1.189,3.627v0.023h-3.747V48.46c0.214-2.036,0.648-3.775,1.305-5.215
		c0.657-1.441,1.505-2.541,2.548-3.298c1.042-0.757,2.242-1.136,3.604-1.136c1.539,0,2.852,0.363,3.941,1.087
		c1.089,0.725,1.917,1.779,2.485,3.164c0.568,1.384,0.852,3.053,0.852,5.007v0.025c0,1.253-0.189,2.564-0.568,3.933
		c-0.379,1.368-0.906,2.687-1.58,3.957l-7.475,13.972h9.765v4.738H82.941V70.37z"/>
	<path fill="#FCFCFC" d="M104.682,73.925c-0.953-0.806-1.678-1.982-2.175-3.529c-0.497-1.547-0.746-3.403-0.746-5.568v-5.594
		c0-2.183,0.242-4.047,0.728-5.594c0.485-1.547,1.192-2.724,2.122-3.529c0.929-0.807,2.045-1.21,3.346-1.21
		c1.089,0,2.086,0.391,2.992,1.173c0.905,0.781,1.636,1.881,2.192,3.297l-0.373,5.179c0-1.075-0.142-1.995-0.427-2.76
		c-0.284-0.766-0.695-1.347-1.233-1.746s-1.193-0.599-1.961-0.599c-1.196,0-2.122,0.513-2.778,1.539
		c-0.657,1.026-0.985,2.467-0.985,4.323v5.521c0,1.84,0.329,3.26,0.985,4.263c0.656,1.002,1.583,1.502,2.778,1.502
		c0.769,0,1.423-0.208,1.961-0.623c0.539-0.414,0.951-1.014,1.233-1.794c0.285-0.782,0.427-1.718,0.427-2.81l0.249,5.35
		c-0.367,1.255-0.967,2.305-1.801,3.151s-1.862,1.271-3.081,1.271C106.785,75.135,105.634,74.731,104.682,73.925z M112.768,39.178
		h3.622v35.517h-3.622V39.178z"/>
	<path fill="#FCFCFC" d="M124.857,73.768c-1.136-0.864-2.003-2.121-2.601-3.775c-0.598-1.652-0.896-3.643-0.896-5.972v-4.128
		c0-2.295,0.299-4.262,0.896-5.899c0.598-1.636,1.465-2.882,2.601-3.737c1.136-0.855,2.503-1.282,4.101-1.282
		c1.598,0,2.964,0.427,4.101,1.282c1.136,0.855,2.003,2.101,2.601,3.737c0.597,1.637,0.896,3.604,0.896,5.899v4.202
		c0,2.313-0.299,4.286-0.896,5.923c-0.598,1.637-1.465,2.886-2.601,3.75c-1.137,0.863-2.504,1.295-4.101,1.295
		C127.361,75.061,125.994,74.63,124.857,73.768z M131.897,68.686c0.692-1.091,1.038-2.623,1.038-4.593v-4.202
		c0-1.971-0.346-3.493-1.038-4.568c-0.692-1.074-1.672-1.611-2.938-1.611c-1.266,0-2.246,0.537-2.938,1.611
		c-0.692,1.076-1.038,2.598-1.038,4.568v4.202c0,1.97,0.347,3.501,1.038,4.593c0.692,1.09,1.672,1.636,2.938,1.636
		C130.225,70.322,131.205,69.776,131.897,68.686z"/>
	<path fill="#FCFCFC" d="M151.826,39.178h3.622v35.517h-3.622V39.178z M153.689,56.179h8.255c0.781,0,1.467-0.252,2.059-0.757
		c0.591-0.505,1.05-1.222,1.376-2.149c0.326-0.929,0.488-1.994,0.488-3.2c0-1.222-0.164-2.296-0.488-3.224
		c-0.326-0.929-0.784-1.649-1.376-2.163c-0.592-0.513-1.278-0.769-2.059-0.769h-8.255v-4.739h8.131c1.539,0,2.895,0.452,4.065,1.356
		c1.172,0.904,2.08,2.178,2.726,3.822c0.645,1.645,0.967,3.55,0.967,5.716c0,2.167-0.322,4.067-0.967,5.704
		c-0.646,1.637-1.554,2.903-2.726,3.798c-1.171,0.896-2.527,1.344-4.065,1.344h-8.131V56.179z"/>
	<path fill="#FCFCFC" d="M177.728,74.695h-3.622V39.178h3.622V74.695z"/>
	<path fill="#FCFCFC" d="M190.013,75.061c0,0-0.557-0.162-1.668-0.488c-1.114-0.324-2.151-0.814-3.116-1.466
		c-0.965-0.65-1.867-1.465-2.708-2.442l2.254-3.81c0.982,1.173,2.065,2.052,3.25,2.638c1.184,0.586,2.468,0.88,3.853,0.88
		c1.87,0,3.319-0.477,4.35-1.429c1.029-0.954,1.545-2.3,1.545-4.044v-0.023c0-1.238-0.234-2.219-0.702-2.943
		c-0.468-0.725-1.072-1.263-1.811-1.613c-0.74-0.35-1.695-0.671-2.867-0.965c-0.036-0.016-0.075-0.023-0.116-0.023
		c-0.042,0-0.08-0.008-0.116-0.025l-0.266-0.072c-1.728-0.408-3.134-0.867-4.217-1.38c-1.083-0.514-2.009-1.45-2.778-2.809
		c-0.77-1.359-1.154-3.294-1.154-5.801v-0.025c0-2.198,0.357-4.075,1.074-5.63c0.716-1.554,1.761-2.739,3.134-3.553
		c1.373-0.814,3.024-1.222,4.953-1.222c0.923,0,1.831,0.138,2.725,0.415c0.894,0.277,1.776,0.688,2.646,1.234
		c0.87,0.546,1.725,1.233,2.565,2.063l-2.059,3.958c-0.983-0.994-1.962-1.738-2.938-2.235c-0.977-0.497-1.956-0.745-2.938-0.745
		c-1.763,0-3.134,0.484-4.11,1.453s-1.464,2.342-1.464,4.116v0.025c0,1.221,0.25,2.182,0.754,2.882
		c0.502,0.7,1.129,1.217,1.881,1.551c0.751,0.333,1.796,0.68,3.134,1.038c0.048,0.017,0.091,0.029,0.134,0.037
		c0.041,0.008,0.084,0.021,0.133,0.037c0.059,0.017,0.124,0.033,0.195,0.048c0.07,0.018,0.136,0.033,0.195,0.049
		c1.562,0.439,2.867,0.961,3.914,1.563c1.048,0.603,1.923,1.575,2.628,2.918c0.703,1.344,1.057,3.18,1.057,5.509v0.049
		c0,2.167-0.373,4.018-1.119,5.557c-0.745,1.539-1.825,2.711-3.24,3.517c-1.416,0.806-3.122,1.21-5.122,1.21
		C190.634,75.061,190.013,75.061,190.013,75.061z"/>
	<path fill="#FCFCFC" d="M209.576,73.436c-1.371-1.082-2.434-2.613-3.186-4.592c-0.751-1.979-1.127-4.27-1.127-6.876V51.903
		c0-2.605,0.376-4.897,1.127-6.875c0.752-1.979,1.814-3.509,3.186-4.592c1.374-1.083,2.96-1.625,4.76-1.625
		c1.799,0,3.385,0.542,4.758,1.625c1.372,1.083,2.435,2.614,3.186,4.592c0.751,1.978,1.128,4.27,1.128,6.875v10.064
		c0,2.605-0.377,4.897-1.128,6.876c-0.751,1.979-1.814,3.51-3.186,4.592c-1.373,1.084-2.959,1.625-4.758,1.625
		C212.536,75.061,210.95,74.52,209.576,73.436z M217.148,69.162c0.812-0.659,1.439-1.596,1.884-2.809s0.665-2.618,0.665-4.213
		V51.733c0-1.596-0.221-3-0.665-4.214c-0.444-1.213-1.072-2.149-1.884-2.809c-0.81-0.659-1.748-0.99-2.813-0.99
		c-1.065,0-2.005,0.331-2.814,0.99c-0.811,0.659-1.438,1.596-1.883,2.809c-0.444,1.214-0.666,2.618-0.666,4.214v10.405
		c0,1.596,0.222,3.001,0.666,4.214c0.444,1.213,1.072,2.149,1.883,2.809c0.81,0.66,1.749,0.989,2.814,0.989
		C215.4,70.151,216.339,69.822,217.148,69.162z"/>
</g>
<text transform="matrix(0.7268 0 0 1 -385.5459 308.2715)" fill="#FCFCFC" font-family="'Bahnschrift'" font-size="62.5328">PLANTA BAJA</text>
<text transform="matrix(0.7268 0 0 1 -385.5459 239.6016)" fill="#FCFCFC" font-family="'Bahnschrift'" font-size="62.5328">MEZZANINA</text>
<text transform="matrix(0.7268 0 0 1 -385.5459 459.9141)" fill="#FCFCFC" font-family="'Bahnschrift'" font-size="62.5328">AREAS</text>
<text transform="matrix(0.7268 0 0 1 -385.5459 391.2441)" fill="#FCFCFC" font-family="'Bahnschrift'" font-size="62.5328">PB. DUPLEX</text>
<text transform="matrix(0.7268 0 0 1 -383.9321 493.5088)" fill="#FE9929" font-family="'Bahnschrift'" font-size="24">&gt;&gt; SIGUIENTE</text>
<g enable-background="new    ">
	<text transform="matrix(0.7268 0 0 1 -271.2324 493.5088)" fill="#FE9929" font-family="'Bahnschrift'" font-size="24">&gt;&gt; PASILLOS &gt;&gt;</text>
</g>
</svg>
