<?xml version="1.0" encoding="UTF-8" standalone="no"?>
<!-- Created with Inkscape (http://www.inkscape.org/) -->

<svg
   version="1.1"
   id="svg9"
   width="1765.3333"
   height="1753.3333"
   viewBox="0 0 1765.3333 1753.3333"
   sodipodi:docname="910.svg"
   inkscape:version="1.2.2 (732a01da63, 2022-12-09)"
   xmlns:inkscape="http://www.inkscape.org/namespaces/inkscape"
   xmlns:sodipodi="http://sodipodi.sourceforge.net/DTD/sodipodi-0.dtd"
   xmlns="http://www.w3.org/2000/svg"
   xmlns:svg="http://www.w3.org/2000/svg">
  <defs
     id="defs13">
    <clipPath
       clipPathUnits="userSpaceOnUse"
       id="clipPath69">
      <path
         d="m 334.5405,15740.398 c 0,3.993 3.2157,7.23 7.1825,7.23 h 221.6659 c 3.9668,0 7.1825,-3.237 7.1825,-7.23 v -172.383 c 0,-3.993 -3.2157,-7.23 -7.1825,-7.23 H 341.723 c -3.9668,0 -7.1825,3.237 -7.1825,7.23 z"
         id="path67" />
    </clipPath>
    <clipPath
       clipPathUnits="userSpaceOnUse"
       id="clipPath81">
      <path
         d="m 334.5405,15541.689 c 0,3.993 3.2157,7.23 7.1825,7.23 h 221.6659 c 3.9668,0 7.1825,-3.237 7.1825,-7.23 v -172.383 c 0,-3.993 -3.2157,-7.23 -7.1825,-7.23 H 341.723 c -3.9668,0 -7.1825,3.237 -7.1825,7.23 z"
         id="path79" />
    </clipPath>
    <clipPath
       clipPathUnits="userSpaceOnUse"
       id="clipPath93">
      <path
         d="m 334.5405,15342.98 c 0,3.993 3.2157,7.23 7.1825,7.23 h 221.6659 c 3.9668,0 7.1825,-3.237 7.1825,-7.23 v -172.382 c 0,-3.994 -3.2157,-7.231 -7.1825,-7.231 H 341.723 c -3.9668,0 -7.1825,3.237 -7.1825,7.231 z"
         id="path91" />
    </clipPath>
    <clipPath
       clipPathUnits="userSpaceOnUse"
       id="clipPath105">
      <path
         d="m 334.5405,15148.271 c 0,3.993 3.2157,7.23 7.1825,7.23 h 221.6659 c 3.9668,0 7.1825,-3.237 7.1825,-7.23 v -172.383 c 0,-3.993 -3.2157,-7.23 -7.1825,-7.23 H 341.723 c -3.9668,0 -7.1825,3.237 -7.1825,7.23 z"
         id="path103" />
    </clipPath>
    <clipPath
       clipPathUnits="userSpaceOnUse"
       id="clipPath117">
      <path
         d="m 783.1297,14746.853 c 0,3.993 3.2156,7.231 7.1825,7.231 h 221.6658 c 3.9669,0 7.1826,-3.238 7.1826,-7.231 v -172.382 c 0,-3.993 -3.2157,-7.23 -7.1826,-7.23 H 790.3122 c -3.9669,0 -7.1825,3.237 -7.1825,7.23 z"
         id="path115" />
    </clipPath>
    <clipPath
       clipPathUnits="userSpaceOnUse"
       id="clipPath129">
      <path
         d="m 783.1297,15541.689 c 0,3.993 3.2156,7.23 7.1825,7.23 h 221.6658 c 3.9669,0 7.1826,-3.237 7.1826,-7.23 v -172.383 c 0,-3.993 -3.2157,-7.23 -7.1826,-7.23 H 790.3122 c -3.9669,0 -7.1825,3.237 -7.1825,7.23 z"
         id="path127" />
    </clipPath>
    <clipPath
       clipPathUnits="userSpaceOnUse"
       id="clipPath141">
      <path
         d="m 783.1297,15342.98 c 0,3.993 3.2156,7.23 7.1825,7.23 h 221.6658 c 3.9669,0 7.1826,-3.237 7.1826,-7.23 v -172.382 c 0,-3.994 -3.2157,-7.231 -7.1826,-7.231 H 790.3122 c -3.9669,0 -7.1825,3.237 -7.1825,7.231 z"
         id="path139" />
    </clipPath>
    <clipPath
       clipPathUnits="userSpaceOnUse"
       id="clipPath153">
      <path
         d="m 783.1297,15148.271 c 0,3.993 3.2156,7.23 7.1825,7.23 h 221.6658 c 3.9669,0 7.1826,-3.237 7.1826,-7.23 v -172.383 c 0,-3.993 -3.2157,-7.23 -7.1826,-7.23 H 790.3122 c -3.9669,0 -7.1825,3.237 -7.1825,7.23 z"
         id="path151" />
    </clipPath>
    <clipPath
       clipPathUnits="userSpaceOnUse"
       id="clipPath165">
      <path
         d="m 783.1297,14945.562 c 0,3.993 3.2156,7.231 7.1825,7.231 h 221.6658 c 3.9669,0 7.1826,-3.238 7.1826,-7.231 v -172.382 c 0,-3.993 -3.2157,-7.23 -7.1826,-7.23 H 790.3122 c -3.9669,0 -7.1825,3.237 -7.1825,7.23 z"
         id="path163" />
    </clipPath>
    <clipPath
       clipPathUnits="userSpaceOnUse"
       id="clipPath177">
      <path
         d="m 334.5405,14746.853 c 0,3.993 3.2157,7.231 7.1825,7.231 h 221.6659 c 3.9668,0 7.1825,-3.238 7.1825,-7.231 v -172.382 c 0,-3.993 -3.2157,-7.23 -7.1825,-7.23 H 341.723 c -3.9668,0 -7.1825,3.237 -7.1825,7.23 z"
         id="path175" />
    </clipPath>
    <clipPath
       clipPathUnits="userSpaceOnUse"
       id="clipPath189">
      <path
         d="m 334.5405,14945.562 c 0,3.993 3.2157,7.231 7.1825,7.231 h 221.6659 c 3.9668,0 7.1825,-3.238 7.1825,-7.231 v -172.382 c 0,-3.993 -3.2157,-7.23 -7.1825,-7.23 H 341.723 c -3.9668,0 -7.1825,3.237 -7.1825,7.23 z"
         id="path187" />
    </clipPath>
  </defs>
  <sodipodi:namedview
     id="namedview11"
     pagecolor="#ffffff"
     bordercolor="#111111"
     borderopacity="1"
     inkscape:showpageshadow="0"
     inkscape:pageopacity="0"
     inkscape:pagecheckerboard="1"
     inkscape:deskcolor="#d1d1d1"
     showgrid="false"
     inkscape:zoom="0.45317224"
     inkscape:cx="1321.7932"
     inkscape:cy="876.0466"
     inkscape:window-width="1920"
     inkscape:window-height="1017"
     inkscape:window-x="-8"
     inkscape:window-y="-8"
     inkscape:window-maximized="1"
     inkscape:current-layer="g17">
    <inkscape:page
       x="0"
       y="0"
       id="page15"
       width="1765.3333"
       height="1753.3333" />
  </sodipodi:namedview>
  <g
     id="g17"
     inkscape:groupmode="layer"
     inkscape:label="Page 1"
     transform="matrix(1.3333333,0,0,-1.3333333,0,1753.3333)">
    <path
       d="m 3.30992,1310.275 h 924.6613 V 0.119 H 3.30992 Z"
       style="fill:#f0f0fa;fill-opacity:1;fill-rule:evenodd;stroke:none"
       id="path21" />
    <path
       d="M 394.10142,1310.275 H 1318.7627 V 0.119 H 394.10142 Z"
       style="fill:#f0f0fa;fill-opacity:1;fill-rule:evenodd;stroke:none"
       id="path23" />
    <path
       d="m 37.24362,1254.075 c 0,18.786 15.2281,34.014 34.0134,34.014 h 274.5363 c 18.7852,0 34.0133,-15.228 34.0133,-34.014 V 604.978 c 0,-18.786 -15.2281,-34.014 -34.0133,-34.014 H 71.25702 c -18.7853,0 -34.0134,15.228 -34.0134,34.014 z"
       style="fill:#cccccc;fill-opacity:1;fill-rule:nonzero;stroke:#cccccc;stroke-width:1;stroke-linecap:butt;stroke-linejoin:miter;stroke-miterlimit:3.8637;stroke-dasharray:none;stroke-opacity:1"
       id="path25" />
    <path
       d="m 37.24362,695.382 c 0,18.785 15.2281,34.013 34.0134,34.013 h 274.5363 c 18.7852,0 34.0133,-15.228 34.0133,-34.013 V 46.284 c 0,-18.786 -15.2281,-34.013 -34.0133,-34.013 H 71.25702 c -18.7853,0 -34.0134,15.227 -34.0134,34.013 z"
       style="fill:#cccccc;fill-opacity:1;fill-rule:nonzero;stroke:#cccccc;stroke-width:1;stroke-linecap:butt;stroke-linejoin:miter;stroke-miterlimit:3.8637;stroke-dasharray:none;stroke-opacity:1"
       id="path27" />
    <path
       d="m 45.22252,717.33 c 0,13.583 11.0109,24.593 24.5938,24.593 h 279.077 c 13.5829,0 24.5938,-11.01 24.5938,-24.593 V 60.05 c 0,-13.583 -11.0109,-24.594 -24.5938,-24.594 h -279.077 c -13.5829,0 -24.5938,11.011 -24.5938,24.594 z"
       style="fill:#ffffff;fill-opacity:1;fill-rule:nonzero;stroke:none"
       id="path29" />
    <path
       d="m 45.22252,1260.83 c 0,13.583 11.0109,24.593 24.5938,24.593 h 279.077 c 13.5829,0 24.5938,-11.01 24.5938,-24.593 V 603.55 c 0,-13.583 -11.0109,-24.594 -24.5938,-24.594 h -279.077 c -13.5829,0 -24.5938,11.011 -24.5938,24.594 z"
       style="fill:#ffffff;fill-opacity:1;fill-rule:nonzero;stroke:none"
       id="path31" />
    <path
       d="m 481.24362,1254.075 c 0,18.786 15.2281,34.014 34.0134,34.014 h 274.5363 c 18.7852,0 34.0133,-15.228 34.0133,-34.014 V 604.978 c 0,-18.786 -15.2281,-34.014 -34.0133,-34.014 h -274.5363 c -18.7853,0 -34.0134,15.228 -34.0134,34.014 z"
       style="fill:#cccccc;fill-opacity:1;fill-rule:nonzero;stroke:#cccccc;stroke-width:1;stroke-linecap:butt;stroke-linejoin:miter;stroke-miterlimit:3.8637;stroke-dasharray:none;stroke-opacity:1"
       id="path33" />
    <path
       d="m 481.24362,695.382 c 0,18.785 15.2281,34.013 34.0134,34.013 h 274.5363 c 18.7852,0 34.0133,-15.228 34.0133,-34.013 V 46.284 c 0,-18.786 -15.2281,-34.013 -34.0133,-34.013 h -274.5363 c -18.7853,0 -34.0134,15.227 -34.0134,34.013 z"
       style="fill:#cccccc;fill-opacity:1;fill-rule:nonzero;stroke:#cccccc;stroke-width:1;stroke-linecap:butt;stroke-linejoin:miter;stroke-miterlimit:3.8637;stroke-dasharray:none;stroke-opacity:1"
       id="path35" />
    <path
       d="m 489.22252,717.33 c 0,13.583 11.0109,24.593 24.5938,24.593 h 279.077 c 13.5829,0 24.5938,-11.01 24.5938,-24.593 V 60.05 c 0,-13.583 -11.0109,-24.594 -24.5938,-24.594 h -279.077 c -13.5829,0 -24.5938,11.011 -24.5938,24.594 z"
       style="fill:#ffffff;fill-opacity:1;fill-rule:nonzero;stroke:none"
       id="path37" />
    <path
       d="m 489.22252,1260.83 c 0,13.583 11.0109,24.593 24.5938,24.593 h 279.077 c 13.5829,0 24.5938,-11.01 24.5938,-24.593 V 603.55 c 0,-13.583 -11.0109,-24.594 -24.5938,-24.594 h -279.077 c -13.5829,0 -24.5938,11.011 -24.5938,24.594 z"
       style="fill:#ffffff;fill-opacity:1;fill-rule:nonzero;stroke:none"
       id="path39" />
    <path
       d="m 945.24362,1254.075 c 0,18.786 15.2281,34.014 34.0134,34.014 h 274.53628 c 18.7852,0 34.0133,-15.228 34.0133,-34.014 V 604.978 c 0,-18.786 -15.2281,-34.014 -34.0133,-34.014 H 979.25702 c -18.7853,0 -34.0134,15.228 -34.0134,34.014 z"
       style="fill:#cccccc;fill-opacity:1;fill-rule:nonzero;stroke:#cccccc;stroke-width:1;stroke-linecap:butt;stroke-linejoin:miter;stroke-miterlimit:3.8637;stroke-dasharray:none;stroke-opacity:1"
       id="path41" />
    <path
       d="m 945.24362,695.382 c 0,18.785 15.2281,34.013 34.0134,34.013 h 274.53628 c 18.7852,0 34.0133,-15.228 34.0133,-34.013 V 46.284 c 0,-18.786 -15.2281,-34.013 -34.0133,-34.013 H 979.25702 c -18.7853,0 -34.0134,15.227 -34.0134,34.013 z"
       style="fill:#cccccc;fill-opacity:1;fill-rule:nonzero;stroke:#cccccc;stroke-width:1;stroke-linecap:butt;stroke-linejoin:miter;stroke-miterlimit:3.8637;stroke-dasharray:none;stroke-opacity:1"
       id="path43" />
    <path
       d="m 953.22252,717.33 c 0,13.583 11.0109,24.593 24.5938,24.593 h 279.07698 c 13.5829,0 24.5938,-11.01 24.5938,-24.593 V 60.05 c 0,-13.583 -11.0109,-24.594 -24.5938,-24.594 H 977.81632 c -13.5829,0 -24.5938,11.011 -24.5938,24.594 z"
       style="fill:#ffffff;fill-opacity:1;fill-rule:nonzero;stroke:none"
       id="path45" />
    <path
       d="m 953.22252,1260.83 c 0,13.583 11.0109,24.593 24.5938,24.593 h 279.07698 c 13.5829,0 24.5938,-11.01 24.5938,-24.593 V 603.55 c 0,-13.583 -11.0109,-24.594 -24.5938,-24.594 H 977.81632 c -13.5829,0 -24.5938,11.011 -24.5938,24.594 z"
       style="fill:#ffffff;fill-opacity:1;fill-rule:nonzero;stroke:none"
       id="path47" />
    <path
       d="m 1000.5115,1240.935 c 0,0.954 0.7736,1.728 1.728,1.728 h 229.2032 c 0.9543,0 1.7279,-0.774 1.7279,-1.728 v -180.222 c 0,-0.955 -0.7736,-1.728 -1.7279,-1.728 h -229.2032 c -0.9544,0 -1.728,0.773 -1.728,1.728 z"
       style="fill:none;stroke:#6666cc;stroke-width:0.2879;stroke-linecap:butt;stroke-linejoin:miter;stroke-miterlimit:3.8637;stroke-dasharray:none;stroke-opacity:1"
       id="path49" />
    <path
       d="m 1000.5115,1039.062 c 0,0.954 0.7736,1.727 1.728,1.727 h 229.2032 c 0.9543,0 1.7279,-0.773 1.7279,-1.727 V 858.839 c 0,-0.954 -0.7736,-1.728 -1.7279,-1.728 h -229.2032 c -0.9544,0 -1.728,0.774 -1.728,1.728 z"
       style="fill:none;stroke:#6666cc;stroke-width:0.2879;stroke-linecap:butt;stroke-linejoin:miter;stroke-miterlimit:3.8637;stroke-dasharray:none;stroke-opacity:1"
       id="path51" />
    <path
       d="m 1000.5115,840.353 c 0,0.954 0.7736,1.728 1.728,1.728 h 229.2032 c 0.9543,0 1.7279,-0.774 1.7279,-1.728 V 660.13 c 0,-0.954 -0.7736,-1.728 -1.7279,-1.728 h -229.2032 c -0.9544,0 -1.728,0.774 -1.728,1.728 z"
       style="fill:none;stroke:#6666cc;stroke-width:0.2879;stroke-linecap:butt;stroke-linejoin:miter;stroke-miterlimit:3.8637;stroke-dasharray:none;stroke-opacity:1"
       id="path53" />
    <path
       d="m 1000.5115,645.643 c 0,0.955 0.7736,1.728 1.728,1.728 h 229.2032 c 0.9543,0 1.7279,-0.773 1.7279,-1.728 V 465.421 c 0,-0.954 -0.7736,-1.728 -1.7279,-1.728 h -229.2032 c -0.9544,0 -1.728,0.774 -1.728,1.728 z"
       style="fill:none;stroke:#6666cc;stroke-width:0.2879;stroke-linecap:butt;stroke-linejoin:miter;stroke-miterlimit:3.8637;stroke-dasharray:none;stroke-opacity:1"
       id="path55" />
    <path
       d="m 1000.5115,446.1 c 0,0.954 0.7736,1.728 1.728,1.728 h 229.2032 c 0.9543,0 1.7279,-0.774 1.7279,-1.728 V 265.877 c 0,-0.954 -0.7736,-1.728 -1.7279,-1.728 h -229.2032 c -0.9544,0 -1.728,0.774 -1.728,1.728 z"
       style="fill:none;stroke:#6666cc;stroke-width:0.2879;stroke-linecap:butt;stroke-linejoin:miter;stroke-miterlimit:3.8637;stroke-dasharray:none;stroke-opacity:1"
       id="path57" />
    <path
       d="m 1000.5115,244.215 c 0,0.954 0.7735,1.728 1.7277,1.728 h 229.1895 c 0.9542,0 1.7277,-0.774 1.7277,-1.728 V 64.003 c 0,-0.954 -0.7735,-1.727 -1.7277,-1.727 h -229.1895 c -0.9542,0 -1.7277,0.773 -1.7277,1.727 z"
       style="fill:none;stroke:#6666cc;stroke-width:0.2879;stroke-linecap:butt;stroke-linejoin:miter;stroke-miterlimit:3.8637;stroke-dasharray:none;stroke-opacity:1"
       id="path59" />
    <path
       d="m 541.51152,1240.935 c 0,0.954 0.7735,1.728 1.7277,1.728 h 229.1895 c 0.9542,0 1.7277,-0.774 1.7277,-1.728 v -180.211 c 0,-0.955 -0.7735,-1.728 -1.7277,-1.728 h -229.1895 c -0.9542,0 -1.7277,0.773 -1.7277,1.728 z"
       style="fill:none;stroke:#6666ff;stroke-width:0.2879;stroke-linecap:butt;stroke-linejoin:miter;stroke-miterlimit:3.8637;stroke-dasharray:none;stroke-opacity:1"
       id="path61" />
    <g
       id="g63"
       transform="translate(-245.00418,-14504.965)">
      <g
         id="g65"
         clip-path="url(#clipPath69)">
        <path
           d="m 338.7499,15745.258 c 0,0.954 0.7736,1.728 1.7278,1.728 h 229.1999 c 0.9542,0 1.7278,-0.774 1.7278,-1.728 v -180.219 c 0,-0.955 -0.7736,-1.728 -1.7278,-1.728 H 340.4777 c -0.9542,0 -1.7278,0.773 -1.7278,1.728 z"
           style="fill:none;stroke:#231f20;stroke-width:0.2879;stroke-linecap:butt;stroke-linejoin:miter;stroke-miterlimit:3.8637;stroke-dasharray:none;stroke-opacity:1"
           id="path71" />
      </g>
    </g>
    <path
       d="m 89.53632,1235.433 c 0,3.993 3.2157,7.23 7.1825,7.23 h 221.6659 c 3.9668,0 7.1825,-3.237 7.1825,-7.23 V 1063.05 c 0,-3.993 -3.2157,-7.23 -7.1825,-7.23 H 96.71882 c -3.9668,0 -7.1825,3.237 -7.1825,7.23 z"
       style="fill:none;stroke:#cccccc;stroke-width:0.7999;stroke-linecap:butt;stroke-linejoin:miter;stroke-miterlimit:3.8636;stroke-dasharray:none;stroke-opacity:1"
       id="path73" />
    <g
       id="g75"
       transform="translate(-245.00418,-14504.965)">
      <g
         id="g77"
         clip-path="url(#clipPath81)">
        <path
           d="m 332.5042,15545.135 c 0,0.954 0.7735,1.728 1.7278,1.728 h 229.1998 c 0.9543,0 1.7278,-0.774 1.7278,-1.728 v -180.22 c 0,-0.954 -0.7735,-1.728 -1.7278,-1.728 H 334.232 c -0.9543,0 -1.7278,0.774 -1.7278,1.728 z"
           style="fill:none;stroke:#231f20;stroke-width:0.2879;stroke-linecap:butt;stroke-linejoin:miter;stroke-miterlimit:3.8637;stroke-dasharray:none;stroke-opacity:1"
           id="path83" />
      </g>
    </g>
    <path
       d="m 89.53632,1036.724 c 0,3.993 3.2157,7.23 7.1825,7.23 h 221.6659 c 3.9668,0 7.1825,-3.237 7.1825,-7.23 V 864.341 c 0,-3.993 -3.2157,-7.23 -7.1825,-7.23 H 96.71882 c -3.9668,0 -7.1825,3.237 -7.1825,7.23 z"
       style="fill:none;stroke:#cccccc;stroke-width:0.7999;stroke-linecap:butt;stroke-linejoin:miter;stroke-miterlimit:3.8636;stroke-dasharray:none;stroke-opacity:1"
       id="path85" />
    <g
       id="g87"
       transform="translate(-245.00418,-14504.965)">
      <g
         id="g89"
         clip-path="url(#clipPath93)">
        <path
           d="m 335.7041,15348.35 c 0,0.954 0.7736,1.727 1.7278,1.727 h 229.1999 c 0.9542,0 1.7278,-0.773 1.7278,-1.727 v -180.22 c 0,-0.954 -0.7736,-1.728 -1.7278,-1.728 H 337.4319 c -0.9542,0 -1.7278,0.774 -1.7278,1.728 z"
           style="fill:none;stroke:#231f20;stroke-width:0.2879;stroke-linecap:butt;stroke-linejoin:miter;stroke-miterlimit:3.8637;stroke-dasharray:none;stroke-opacity:1"
           id="path95" />
      </g>
    </g>
    <path
       d="m 89.53632,838.015 c 0,3.993 3.2157,7.23 7.1825,7.23 h 221.6659 c 3.9668,0 7.1825,-3.237 7.1825,-7.23 V 665.633 c 0,-3.994 -3.2157,-7.231 -7.1825,-7.231 H 96.71882 c -3.9668,0 -7.1825,3.237 -7.1825,7.231 z"
       style="fill:none;stroke:#cccccc;stroke-width:0.7999;stroke-linecap:butt;stroke-linejoin:miter;stroke-miterlimit:3.8636;stroke-dasharray:none;stroke-opacity:1"
       id="path97" />
    <g
       id="g99"
       transform="translate(-245.00418,-14504.965)">
      <g
         id="g101"
         clip-path="url(#clipPath105)">
        <path
           d="m 334.3377,15153.694 c 0,0.954 0.7735,1.727 1.7278,1.727 h 233.261 c 0.9543,0 1.7278,-0.773 1.7278,-1.727 v -182.637 c 0,-0.954 -0.7735,-1.728 -1.7278,-1.728 h -233.261 c -0.9543,0 -1.7278,0.774 -1.7278,1.728 z"
           style="fill:none;stroke:#ff00ff;stroke-width:0.2879;stroke-linecap:butt;stroke-linejoin:miter;stroke-miterlimit:3.8637;stroke-dasharray:none;stroke-opacity:1"
           id="path107" />
      </g>
    </g>
    <path
       d="m 89.53632,643.306 c 0,3.993 3.2157,7.23 7.1825,7.23 h 221.6659 c 3.9668,0 7.1825,-3.237 7.1825,-7.23 V 470.923 c 0,-3.993 -3.2157,-7.23 -7.1825,-7.23 H 96.71882 c -3.9668,0 -7.1825,3.237 -7.1825,7.23 z"
       style="fill:none;stroke:#cccccc;stroke-width:0.7999;stroke-linecap:butt;stroke-linejoin:miter;stroke-miterlimit:3.8636;stroke-dasharray:none;stroke-opacity:1"
       id="path109" />
    <g
       id="g111"
       transform="translate(-245.00418,-14504.965)">
      <g
         id="g113"
         clip-path="url(#clipPath117)">
        <path
           d="m 784.1399,14751.242 c 0,0.966 0.7835,1.75 1.7499,1.75 h 232.1342 c 0.9665,0 1.7499,-0.784 1.7499,-1.75 v -182.497 c 0,-0.966 -0.7834,-1.75 -1.7499,-1.75 H 785.8898 c -0.9664,0 -1.7499,0.784 -1.7499,1.75 z"
           style="fill:none;stroke:#ff00ff;stroke-width:0.2879;stroke-linecap:butt;stroke-linejoin:miter;stroke-miterlimit:3.8637;stroke-dasharray:none;stroke-opacity:1"
           id="path119" />
      </g>
    </g>
    <path
       d="m 538.12552,241.888 c 0,3.993 3.2156,7.231 7.1825,7.231 h 221.6658 c 3.9669,0 7.1826,-3.238 7.1826,-7.231 V 69.506 c 0,-3.993 -3.2157,-7.23 -7.1826,-7.23 h -221.6658 c -3.9669,0 -7.1825,3.237 -7.1825,7.23 z"
       style="fill:none;stroke:#cccccc;stroke-width:0.7999;stroke-linecap:butt;stroke-linejoin:miter;stroke-miterlimit:3.8636;stroke-dasharray:none;stroke-opacity:1"
       id="path121" />
    <g
       id="g123"
       transform="translate(-245.00418,-14504.965)">
      <g
         id="g125"
         clip-path="url(#clipPath129)">
        <path
           d="m 778.7382,15553.8 c 0,0.993 0.8045,1.797 1.7969,1.797 h 238.3699 c 0.9925,0 1.797,-0.804 1.797,-1.797 v -187.43 c 0,-0.992 -0.8045,-1.797 -1.797,-1.797 H 780.5351 c -0.9924,0 -1.7969,0.805 -1.7969,1.797 z"
           style="fill:none;stroke:#ff00ff;stroke-width:0.2994;stroke-linecap:butt;stroke-linejoin:miter;stroke-miterlimit:3.8637;stroke-dasharray:none;stroke-opacity:1"
           id="path131" />
      </g>
    </g>
    <path
       d="m 538.12552,1036.724 c 0,3.993 3.2156,7.23 7.1825,7.23 h 221.6658 c 3.9669,0 7.1826,-3.237 7.1826,-7.23 V 864.341 c 0,-3.993 -3.2157,-7.23 -7.1826,-7.23 h -221.6658 c -3.9669,0 -7.1825,3.237 -7.1825,7.23 z"
       style="fill:none;stroke:#cccccc;stroke-width:0.7999;stroke-linecap:butt;stroke-linejoin:miter;stroke-miterlimit:3.8636;stroke-dasharray:none;stroke-opacity:1"
       id="path133" />
    <g
       id="g135"
       transform="translate(-245.00418,-14504.965)">
      <g
         id="g137"
         clip-path="url(#clipPath141)">
        <path
           d="m 772.3383,15353.812 c 0,0.993 0.8045,1.797 1.7969,1.797 h 238.3699 c 0.9925,0 1.797,-0.804 1.797,-1.797 v -187.43 c 0,-0.993 -0.8045,-1.797 -1.797,-1.797 H 774.1352 c -0.9924,0 -1.7969,0.804 -1.7969,1.797 z"
           style="fill:none;stroke:#ff00ff;stroke-width:0.2994;stroke-linecap:butt;stroke-linejoin:miter;stroke-miterlimit:3.8637;stroke-dasharray:none;stroke-opacity:1"
           id="path143" />
      </g>
    </g>
    <path
       d="m 538.12552,838.015 c 0,3.993 3.2156,7.23 7.1825,7.23 h 221.6658 c 3.9669,0 7.1826,-3.237 7.1826,-7.23 V 665.633 c 0,-3.994 -3.2157,-7.231 -7.1826,-7.231 h -221.6658 c -3.9669,0 -7.1825,3.237 -7.1825,7.231 z"
       style="fill:none;stroke:#cccccc;stroke-width:0.7999;stroke-linecap:butt;stroke-linejoin:miter;stroke-miterlimit:3.8636;stroke-dasharray:none;stroke-opacity:1"
       id="path145" />
    <g
       id="g147"
       transform="translate(-245.00418,-14504.965)">
      <g
         id="g149"
         clip-path="url(#clipPath153)">
        <path
           d="m 785.1381,15153.819 c 0,0.993 0.8045,1.798 1.7969,1.798 h 238.3699 c 0.9925,0 1.797,-0.805 1.797,-1.798 v -187.43 c 0,-0.992 -0.8045,-1.797 -1.797,-1.797 H 786.935 c -0.9924,0 -1.7969,0.805 -1.7969,1.797 z"
           style="fill:none;stroke:#ff00ff;stroke-width:0.2994;stroke-linecap:butt;stroke-linejoin:miter;stroke-miterlimit:3.8637;stroke-dasharray:none;stroke-opacity:1"
           id="path155" />
      </g>
    </g>
    <path
       d="m 538.12552,643.306 c 0,3.993 3.2156,7.23 7.1825,7.23 h 221.6658 c 3.9669,0 7.1826,-3.237 7.1826,-7.23 V 470.923 c 0,-3.993 -3.2157,-7.23 -7.1826,-7.23 h -221.6658 c -3.9669,0 -7.1825,3.237 -7.1825,7.23 z"
       style="fill:none;stroke:#cccccc;stroke-width:0.7999;stroke-linecap:butt;stroke-linejoin:miter;stroke-miterlimit:3.8636;stroke-dasharray:none;stroke-opacity:1"
       id="path157" />
    <g
       id="g159"
       transform="translate(-245.00418,-14504.965)">
      <g
         id="g161"
         clip-path="url(#clipPath165)">
        <path
           d="m 779.6032,14950.924 c 0,0.993 0.8045,1.797 1.7969,1.797 h 238.3663 c 0.9924,0 1.7969,-0.804 1.7969,-1.797 v -187.427 c 0,-0.992 -0.8045,-1.797 -1.7969,-1.797 H 781.4001 c -0.9924,0 -1.7969,0.805 -1.7969,1.797 z"
           style="fill:none;stroke:#ff00ff;stroke-width:0.2994;stroke-linecap:butt;stroke-linejoin:miter;stroke-miterlimit:3.8637;stroke-dasharray:none;stroke-opacity:1"
           id="path167" />
      </g>
    </g>
    <path
       d="m 538.12552,440.597 c 0,3.993 3.2156,7.231 7.1825,7.231 h 221.6658 c 3.9669,0 7.1826,-3.238 7.1826,-7.231 V 268.215 c 0,-3.993 -3.2157,-7.23 -7.1826,-7.23 h -221.6658 c -3.9669,0 -7.1825,3.237 -7.1825,7.23 z"
       style="fill:none;stroke:#cccccc;stroke-width:0.7999;stroke-linecap:butt;stroke-linejoin:miter;stroke-miterlimit:3.8636;stroke-dasharray:none;stroke-opacity:1"
       id="path169" />
    <g
       id="g171"
       transform="translate(-245.00418,-14504.965)">
      <g
         id="g173"
         clip-path="url(#clipPath177)">
        <path
           d="m 330.149,14755.232 c 0,0.993 0.8045,1.797 1.7969,1.797 h 238.3664 c 0.9924,0 1.7969,-0.804 1.7969,-1.797 v -187.427 c 0,-0.992 -0.8045,-1.797 -1.7969,-1.797 H 331.9459 c -0.9924,0 -1.7969,0.805 -1.7969,1.797 z"
           style="fill:none;stroke:#ff00ff;stroke-width:0.2994;stroke-linecap:butt;stroke-linejoin:miter;stroke-miterlimit:3.8637;stroke-dasharray:none;stroke-opacity:1"
           id="path179" />
      </g>
    </g>
    <path
       d="m 89.53632,241.888 c 0,3.993 3.2157,7.231 7.1825,7.231 h 221.6659 c 3.9668,0 7.1825,-3.238 7.1825,-7.231 V 69.506 c 0,-3.993 -3.2157,-7.23 -7.1825,-7.23 H 96.71882 c -3.9668,0 -7.1825,3.237 -7.1825,7.23 z"
       style="fill:none;stroke:#cccccc;stroke-width:0.7999;stroke-linecap:butt;stroke-linejoin:miter;stroke-miterlimit:3.8636;stroke-dasharray:none;stroke-opacity:1"
       id="path181" />
    <g
       id="g183"
       transform="translate(-245.00418,-14504.965)">
      <g
         id="g185"
         clip-path="url(#clipPath189)">
        <path
           d="m 334.3377,14950.985 c 0,0.954 0.7735,1.728 1.7278,1.728 h 233.261 c 0.9543,0 1.7278,-0.774 1.7278,-1.728 v -182.636 c 0,-0.955 -0.7735,-1.728 -1.7278,-1.728 h -233.261 c -0.9543,0 -1.7278,0.773 -1.7278,1.728 z"
           style="fill:none;stroke:#ff00ff;stroke-width:0.2879;stroke-linecap:butt;stroke-linejoin:miter;stroke-miterlimit:3.8637;stroke-dasharray:none;stroke-opacity:1"
           id="path191" />
      </g>
    </g>
    <path
       d="m 89.53632,440.597 c 0,3.993 3.2157,7.231 7.1825,7.231 h 221.6659 c 3.9668,0 7.1825,-3.238 7.1825,-7.231 V 268.215 c 0,-3.993 -3.2157,-7.23 -7.1825,-7.23 H 96.71882 c -3.9668,0 -7.1825,3.237 -7.1825,7.23 z"
       style="fill:none;stroke:#cccccc;stroke-width:0.7999;stroke-linecap:butt;stroke-linejoin:miter;stroke-miterlimit:3.8636;stroke-dasharray:none;stroke-opacity:1"
       id="path193" />
    <text
       xml:space="preserve"
       transform="scale(1,-1)"
       style="font-variant:normal;font-weight:normal;font-size:72px;font-family:'Arial Rounded MT Bold';-inkscape-font-specification:ArialRoundedMTBold;writing-mode:lr-tb;fill:#231f20;fill-opacity:1;fill-rule:nonzero;stroke:none"
       id="text197"
       x="103.73143"
       y="-1126.255"><tspan
         x="103.73143 146.49944 189.26743"
         y="-1126.255"
         sodipodi:role="line"
         id="tspan195">11.</tspan></text>
    <text
       xml:space="preserve"
       transform="scale(1,-1)"
       style="font-variant:normal;font-weight:normal;font-size:72px;font-family:'Arial Rounded MT Bold';-inkscape-font-specification:ArialRoundedMTBold;writing-mode:lr-tb;fill:#231f20;fill-opacity:1;fill-rule:nonzero;stroke:none"
       id="text201"
       x="101.90097"
       y="-935.95001"><tspan
         x="101.90097 144.66898 187.43697"
         y="-935.95001"
         sodipodi:role="line"
         id="tspan199">12.</tspan></text>
    <text
       xml:space="preserve"
       transform="scale(1,-1)"
       style="font-variant:normal;font-weight:normal;font-size:72px;font-family:'Arial Rounded MT Bold';-inkscape-font-specification:ArialRoundedMTBold;writing-mode:lr-tb;fill:#231f20;fill-opacity:1;fill-rule:nonzero;stroke:none"
       id="text205"
       x="103.12128"
       y="-743.95001"><tspan
         x="103.12128 145.88928 188.65729"
         y="-743.95001"
         sodipodi:role="line"
         id="tspan203">13.</tspan></text>
    <text
       xml:space="preserve"
       transform="scale(1,-1)"
       style="font-variant:normal;font-weight:normal;font-size:72px;font-family:'Arial Rounded MT Bold';-inkscape-font-specification:ArialRoundedMTBold;writing-mode:lr-tb;fill:#231f20;fill-opacity:1;fill-rule:nonzero;stroke:none"
       id="text209"
       x="98.511124"
       y="-534.72998"><tspan
         x="98.511124 141.27913 184.04712"
         y="-534.72998"
         sodipodi:role="line"
         id="tspan207">14.</tspan></text>
    <text
       xml:space="preserve"
       transform="scale(1,-1)"
       style="font-variant:normal;font-weight:normal;font-size:72px;font-family:'Arial Rounded MT Bold';-inkscape-font-specification:ArialRoundedMTBold;writing-mode:lr-tb;fill:#231f20;fill-opacity:1;fill-rule:nonzero;stroke:none"
       id="text213"
       x="109.90097"
       y="-347.34"><tspan
         x="109.90097 152.66898 195.43697"
         y="-347.34"
         sodipodi:role="line"
         id="tspan211">15.</tspan></text>
    <text
       xml:space="preserve"
       transform="scale(1,-1)"
       style="font-variant:normal;font-weight:normal;font-size:72px;font-family:'Arial Rounded MT Bold';-inkscape-font-specification:ArialRoundedMTBold;writing-mode:lr-tb;fill:#231f20;fill-opacity:1;fill-rule:nonzero;stroke:none"
       id="text217"
       x="109.90097"
       y="-150.255"><tspan
         x="109.90097 152.66898 195.43697"
         y="-150.255"
         sodipodi:role="line"
         id="tspan215">16.</tspan></text>
    <text
       xml:space="preserve"
       transform="scale(1,-1)"
       style="font-variant:normal;font-weight:normal;font-size:72px;font-family:'Arial Rounded MT Bold';-inkscape-font-specification:ArialRoundedMTBold;writing-mode:lr-tb;fill:#231f20;fill-opacity:1;fill-rule:nonzero;stroke:none"
       id="text221"
       x="553.42633"
       y="-1133.035"><tspan
         x="553.42633 596.19434 638.96234"
         y="-1133.035"
         sodipodi:role="line"
         id="tspan219">21.</tspan></text>
    <text
       xml:space="preserve"
       transform="scale(1,-1)"
       style="font-variant:normal;font-weight:normal;font-size:72px;font-family:'Arial Rounded MT Bold';-inkscape-font-specification:ArialRoundedMTBold;writing-mode:lr-tb;fill:#231f20;fill-opacity:1;fill-rule:nonzero;stroke:none"
       id="text225"
       x="553.42633"
       y="-941.03497"><tspan
         x="553.42633 596.19434 638.96234"
         y="-941.03497"
         sodipodi:role="line"
         id="tspan223">22.</tspan></text>
    <text
       xml:space="preserve"
       transform="scale(1,-1)"
       style="font-variant:normal;font-weight:normal;font-size:72px;font-family:'Arial Rounded MT Bold';-inkscape-font-specification:ArialRoundedMTBold;writing-mode:lr-tb;fill:#231f20;fill-opacity:1;fill-rule:nonzero;stroke:none"
       id="text229"
       x="553.42633"
       y="-747.815"><tspan
         x="553.42633 596.19434 638.96234"
         y="-747.815"
         sodipodi:role="line"
         id="tspan227">23.</tspan></text>
    <text
       xml:space="preserve"
       transform="scale(1,-1)"
       style="font-variant:normal;font-weight:normal;font-size:72px;font-family:'Arial Rounded MT Bold';-inkscape-font-specification:ArialRoundedMTBold;writing-mode:lr-tb;fill:#231f20;fill-opacity:1;fill-rule:nonzero;stroke:none"
       id="text233"
       x="553.42633"
       y="-542.72998"><tspan
         x="553.42633 596.19434 638.96234"
         y="-542.72998"
         sodipodi:role="line"
         id="tspan231">24.</tspan></text>
    <text
       xml:space="preserve"
       transform="scale(1,-1)"
       style="font-variant:normal;font-weight:normal;font-size:72px;font-family:'Arial Rounded MT Bold';-inkscape-font-specification:ArialRoundedMTBold;writing-mode:lr-tb;fill:#231f20;fill-opacity:1;fill-rule:nonzero;stroke:none"
       id="text237"
       x="553.42633"
       y="-334.73001"><tspan
         x="553.42633 596.19434 638.96234"
         y="-334.73001"
         sodipodi:role="line"
         id="tspan235">25.</tspan></text>
    <text
       xml:space="preserve"
       transform="scale(1,-1)"
       style="font-variant:normal;font-weight:normal;font-size:72px;font-family:'Arial Rounded MT Bold';-inkscape-font-specification:ArialRoundedMTBold;writing-mode:lr-tb;fill:#231f20;fill-opacity:1;fill-rule:nonzero;stroke:none"
       id="text241"
       x="553.42633"
       y="-144.425"><tspan
         x="553.42633 596.19434 638.96234"
         y="-144.425"
         sodipodi:role="line"
         id="tspan239">26.</tspan></text>
    <text
       xml:space="preserve"
       transform="scale(1,-1)"
       style="font-variant:normal;font-weight:normal;font-size:72px;font-family:'Arial Rounded MT Bold';-inkscape-font-specification:ArialRoundedMTBold;writing-mode:lr-tb;fill:#231f20;fill-opacity:1;fill-rule:nonzero;stroke:none"
       id="text245"
       x="1014.0365"
       y="-1133.035"><tspan
         x="1014.0365 1056.8044 1099.5725"
         y="-1133.035"
         sodipodi:role="line"
         id="tspan243">31.</tspan></text>
    <text
       xml:space="preserve"
       transform="scale(1,-1)"
       style="font-variant:normal;font-weight:normal;font-size:72px;font-family:'Arial Rounded MT Bold';-inkscape-font-specification:ArialRoundedMTBold;writing-mode:lr-tb;fill:#231f20;fill-opacity:1;fill-rule:nonzero;stroke:none"
       id="text249"
       x="1014.0365"
       y="-925.03497"><tspan
         x="1014.0365 1056.8044 1099.5725"
         y="-925.03497"
         sodipodi:role="line"
         id="tspan247">32.</tspan></text>
    <text
       xml:space="preserve"
       transform="scale(1,-1)"
       style="font-variant:normal;font-weight:normal;font-size:72px;font-family:'Arial Rounded MT Bold';-inkscape-font-specification:ArialRoundedMTBold;writing-mode:lr-tb;fill:#231f20;fill-opacity:1;fill-rule:nonzero;stroke:none"
       id="text253"
       x="1014.0365"
       y="-734.72998"><tspan
         x="1014.0365 1056.8044 1099.5725"
         y="-734.72998"
         sodipodi:role="line"
         id="tspan251">33.</tspan></text>
    <text
       xml:space="preserve"
       transform="scale(1,-1)"
       style="font-variant:normal;font-weight:normal;font-size:72px;font-family:'Arial Rounded MT Bold';-inkscape-font-specification:ArialRoundedMTBold;writing-mode:lr-tb;fill:#231f20;fill-opacity:1;fill-rule:nonzero;stroke:none"
       id="text257"
       x="1014.0365"
       y="-541.03497"><tspan
         x="1014.0365 1056.8044 1099.5725"
         y="-541.03497"
         sodipodi:role="line"
         id="tspan255">34.</tspan></text>
    <text
       xml:space="preserve"
       transform="scale(1,-1)"
       style="font-variant:normal;font-weight:normal;font-size:72px;font-family:'Arial Rounded MT Bold';-inkscape-font-specification:ArialRoundedMTBold;writing-mode:lr-tb;fill:#231f20;fill-opacity:1;fill-rule:nonzero;stroke:none"
       id="text261"
       x="1014.0365"
       y="-344.42499"><tspan
         x="1014.0365 1056.8044 1099.5725"
         y="-344.42499"
         sodipodi:role="line"
         id="tspan259">35.</tspan></text>
    <text
       xml:space="preserve"
       transform="scale(1,-1)"
       style="font-variant:normal;font-weight:normal;font-size:72px;font-family:'Arial Rounded MT Bold';-inkscape-font-specification:ArialRoundedMTBold;writing-mode:lr-tb;fill:#231f20;fill-opacity:1;fill-rule:nonzero;stroke:none"
       id="text265"
       x="1014.0365"
       y="-142.73"><tspan
         x="1014.0365 1056.8044 1099.5725"
         y="-142.73"
         sodipodi:role="line"
         id="tspan263">36.</tspan></text>
  </g>
</svg>
