<?xml version="1.0" standalone="no"?><!-- Generator: Gravit.io --><svg xmlns="http://www.w3.org/2000/svg" xmlns:xlink="http://www.w3.org/1999/xlink" style="isolation:isolate" viewBox="0 0 632 576.324" width="632" height="576.324"><defs><clipPath id="_clipPath_JQEti3EmFKYvkSmwFX0hq8krdpa7MjQ7"><rect width="632" height="576.324"/></clipPath></defs><g clip-path="url(#_clipPath_JQEti3EmFKYvkSmwFX0hq8krdpa7MjQ7)"><linearGradient id="_lgradient_0" x1="-20.55132436440678%" y1="50.00000000000004%" x2="108.12841737288134%" y2="49.76629486127613%"><stop offset="0%" stop-opacity="1" style="stop-color:rgb(204,204,204)"/><stop offset="100%" stop-opacity="0" style="stop-color:rgb(204,204,204)"/></linearGradient><path d=" M 29.762 574.991 C 14.061 574.991 1.334 562.263 1.334 546.561 L 1.334 29.763 C 1.334 14.061 14.061 1.333 29.762 1.333 L 602.238 1.333 C 617.939 1.333 630.667 14.061 630.667 29.763 L 630.667 546.561 C 630.667 562.263 617.939 574.991 602.238 574.991 L 29.762 574.991 Z " fill="url(#_lgradient_0)" vector-effect="non-scaling-stroke" stroke-width="2.667" stroke="rgb(153,153,153)" stroke-linejoin="miter" stroke-linecap="butt" stroke-miterlimit="3.86369991"/><path d=" M 199.562 129.212 C 199.562 72.408 246.644 27.031 303.887 27.031 C 353.5 27.031 390.184 60.239 400.47 105.455 C 403.006 105.604 405.579 105.777 406.772 105.777 C 464.015 105.777 511.097 151.155 511.097 207.959 C 511.097 236.297 495.458 285.732 458.358 296.845 L 342.327 476.011 L 195.925 354.323 C 148.177 345.179 111.7 304.028 111.7 254.041 C 111.7 201.837 151.471 159.28 202.343 152.735 C 200.524 145.176 199.562 137.299 199.562 129.212 L 199.562 129.212 Z " fill="rgb(255,255,255)"/><path d=" M 415.677 118.048 C 496.164 135.156 508.245 241.097 440.723 279.536 L 367.049 393.437 L 329.728 258.765 C 279.228 196.703 333.363 100.552 415.677 118.048 L 415.677 118.048 Z " fill="rgb(153,153,153)" vector-effect="non-scaling-stroke" stroke-width="3.333" stroke="rgb(153,153,153)" stroke-linejoin="miter" stroke-linecap="butt" stroke-miterlimit="3.86369991"/><path d=" M 310.381 54.244 C 358.659 54.244 397.795 93.38 397.795 141.659 C 397.795 167.648 386.443 190.995 368.455 206.995 L 320.073 333.725 L 255.567 209.756 C 235.7 193.745 222.966 169.187 222.966 141.659 C 222.966 93.38 262.102 54.244 310.381 54.244 L 310.381 54.244 Z " fill="rgb(153,153,153)" vector-effect="non-scaling-stroke" stroke-width="3.333" stroke="rgb(153,153,153)" stroke-linejoin="miter" stroke-linecap="butt" stroke-miterlimit="3.86369991"/><path d=" M 209.787 167.069 C 286.07 136.249 355.34 217.311 320.853 286.943 L 323.468 422.569 L 217.22 331.791 C 140.639 308.575 131.771 198.589 209.787 167.069 L 209.787 167.069 Z " fill="rgb(153,153,153)" vector-effect="non-scaling-stroke" stroke-width="3.333" stroke="rgb(153,153,153)" stroke-linejoin="miter" stroke-linecap="butt" stroke-miterlimit="3.86369991"/><path d=" M 337.13 193.916 C 385.408 193.916 424.544 233.052 424.544 281.331 C 424.544 307.421 413.104 330.849 394.993 346.853 L 344.116 458.599 L 282.437 349.525 C 262.501 333.517 249.715 308.915 249.715 281.331 C 249.715 233.052 288.852 193.916 337.13 193.916 Z " fill="rgb(153,153,153)" vector-effect="non-scaling-stroke" stroke-width="3.333" stroke="rgb(153,153,153)" stroke-linejoin="miter" stroke-linecap="butt" stroke-miterlimit="3.86369991"/><path d=" M 412.212 134.351 C 343.17 119.676 301.709 200.095 344.821 250.819 L 373.203 353.236 L 429.029 266.927 C 486.276 236.208 480.181 148.799 412.212 134.351 L 412.212 134.351 Z " fill="rgb(0,204,255)" vector-effect="non-scaling-stroke" stroke-width="3.333" stroke="rgb(0,204,255)" stroke-linejoin="miter" stroke-linecap="butt" stroke-miterlimit="3.86369991"/><path d=" M 310.381 70.911 C 271.307 70.911 239.633 102.585 239.633 141.659 C 239.633 164.992 250.47 184.805 268.678 198.845 L 317.733 293.123 L 354.395 197.093 C 371.279 182.816 381.128 164.116 381.128 141.659 C 381.128 102.585 349.454 70.911 310.381 70.911 L 310.381 70.911 Z " fill="rgb(255,153,0)" vector-effect="non-scaling-stroke" stroke-width="3.333" stroke="rgb(255,153,0)" stroke-linejoin="miter" stroke-linecap="butt" stroke-miterlimit="3.86369991"/><path d=" M 216.03 182.523 C 150.578 208.967 161.191 298.823 225.288 316.763 L 306.089 385.8 L 304.108 283.029 C 334.394 225.541 280.452 156.493 216.03 182.523 L 216.03 182.523 Z " fill="rgb(0,0,102)" vector-effect="non-scaling-stroke" stroke-width="3.333" stroke="rgb(102,102,102)" stroke-linejoin="miter" stroke-linecap="butt" stroke-miterlimit="3.86369991"/><path d=" M 337.13 210.583 C 298.056 210.583 266.382 242.256 266.382 281.331 C 266.382 304.564 277.158 324.429 295.307 338.424 L 342.511 421.901 L 381.355 336.587 C 398.078 322.445 407.878 303.536 407.878 281.331 C 407.878 242.256 376.203 210.583 337.13 210.583 L 337.13 210.583 Z " fill="rgb(255,0,255)" vector-effect="non-scaling-stroke" stroke-width="3.333" stroke="rgb(255,0,255)" stroke-linejoin="miter" stroke-linecap="butt" stroke-miterlimit="3.86369991"/><g id="g1245"><path d=" M 254.218 1718.709 L 254.218 1776.468 C 163.201 1776.468 101.074 1776.468 66.243 1776.468 L 66.243 1718.703 C 66.243 1694.499 85.864 1674.877 110.068 1674.877 L 210.392 1674.877 C 234.597 1674.877 254.218 1694.499 254.218 1718.703 L 254.218 1718.709 Z  M 250.677 1631.86 L 250.677 1773.733 C 215.116 1773.733 151.845 1773.733 62.702 1773.733 L 62.702 1631.868 C 62.702 1607.663 82.323 1588.043 106.528 1588.043 L 206.852 1588.043 C 231.056 1588.043 250.677 1607.663 250.677 1631.868 L 250.677 1631.86 Z " fill="none"/></g><rect x="467.969" y="436" width="77.031" height="78" transform="matrix(1,0,0,1,0,0)" fill="rgb(225,42,42)"/></g></svg>