<?xml version="1.0" encoding="utf-8"?>
<!-- Generator: Adobe Illustrator 16.0.2, SVG Export Plug-In . SVG Version: 6.00 Build 0)  -->
<!DOCTYPE svg PUBLIC "-//W3C//DTD SVG 1.1//EN" "http://www.w3.org/Graphics/SVG/1.1/DTD/svg11.dtd">
<svg version="1.1"
	 id="Capa_1" sodipodi:docname="fondok900.svg" inkscape:version="1.2.2 (732a01da63, 2022-12-09)" xmlns:inkscape="http://www.inkscape.org/namespaces/inkscape" xmlns:sodipodi="http://sodipodi.sourceforge.net/DTD/sodipodi-0.dtd" xmlns:svg="http://www.w3.org/2000/svg" xmlns:rdf="http://www.w3.org/1999/02/22-rdf-syntax-ns#" xmlns:cc="http://creativecommons.org/ns#" xmlns:dc="http://purl.org/dc/elements/1.1/"
	 xmlns="http://www.w3.org/2000/svg" xmlns:xlink="http://www.w3.org/1999/xlink" x="0px" y="0px" width="425.197px"
	 height="451.764px" viewBox="0 0 425.197 451.764" enable-background="new 0 0 425.197 451.764" xml:space="preserve">
<symbol  id="New_Symbol" viewBox="-41.238 -41.238 82.476 82.476">
	
		<text transform="matrix(0.7071 0.7071 0.7071 -0.7071 -27.0337 -36.9951)" fill="#757372" font-family="'Myriad-Roman'" font-size="24">burguers</text>
</symbol>
<defs>
	
	
		<inkscape:perspective  id="perspective2000" inkscape:persp3d-origin="336.03449 : -814.93208 : 1" sodipodi:type="inkscape:persp3d" inkscape:vp_z="1033.1077 : -1678.8275 : 1" inkscape:vp_y="507.44659 : 794.67166 : 0" inkscape:vp_x="-8.6141454 : 517.48672 : 1">
		</inkscape:perspective>
	
		<inkscape:perspective  id="perspective825" inkscape:persp3d-origin="740.83873 : -1276.4918 : 1" sodipodi:type="inkscape:persp3d" inkscape:vp_z="1737.6443 : -2704.8037 : 1" inkscape:vp_y="725.64205 : 1313.8618 : 0" inkscape:vp_x="-146.69395 : 349.67202 : 1">
		</inkscape:perspective>
</defs>
<sodipodi:namedview  id="namedview133" inkscape:deskcolor="#d1d1d1" inkscape:showpageshadow="2" inkscape:current-layer="Capa_1" inkscape:window-y="-8" inkscape:window-x="-8" inkscape:window-height="705" inkscape:window-width="1366" inkscape:pageshadow="2" inkscape:pageopacity="0" inkscape:cy="181.85416" inkscape:cx="-59.022842" inkscape:zoom="1.2537519" showgrid="false" guidetolerance="10" gridtolerance="10" objecttolerance="10" borderopacity="1" bordercolor="#666666" pagecolor="#ffffff" inkscape:pagecheckerboard="0" inkscape:window-maximized="1">
	</sodipodi:namedview>
<rect id="rect5" x="-32.542" y="-21.057" fill="#3F3E3D" width="469.225" height="497.706"/>
<use xlink:href="#New_Symbol"  width="82.476" height="82.476" x="-41.238" y="-41.238" transform="matrix(1 0 0 -1 155.6084 74.1484)" overflow="visible"/>
<use xlink:href="#New_Symbol"  width="82.476" height="82.476" x="-41.238" y="-41.238" transform="matrix(1 0 0 -1 230.6084 48.1484)" overflow="visible"/>
<use xlink:href="#New_Symbol"  width="82.476" height="82.476" x="-41.238" y="-41.238" transform="matrix(1 0 0 -1 148.1328 130.625)" overflow="visible"/>
<use xlink:href="#New_Symbol"  width="82.476" height="82.476" x="-41.238" y="-41.238" transform="matrix(1 0 0 -1 47.6084 63.1484)" overflow="visible"/>
<use xlink:href="#New_Symbol"  width="82.476" height="82.476" x="-41.238" y="-41.238" transform="matrix(1 0 0 -1 122.6084 37.1484)" overflow="visible"/>
<use xlink:href="#New_Symbol"  width="82.476" height="82.476" x="-41.238" y="-41.238" transform="matrix(1 0 0 -1 40.1328 119.625)" overflow="visible"/>
<use xlink:href="#New_Symbol"  width="82.476" height="82.476" x="-41.238" y="-41.238" transform="matrix(1 0 0 -1 31.895 419.1016)" overflow="visible"/>
<use xlink:href="#New_Symbol"  width="82.476" height="82.476" x="-41.238" y="-41.238" transform="matrix(1 0 0 -1 106.895 393.1016)" overflow="visible"/>
<use xlink:href="#New_Symbol"  width="82.476" height="82.476" x="-41.238" y="-41.238" transform="matrix(1 0 0 -1 24.4194 475.5781)" overflow="visible"/>
<use xlink:href="#New_Symbol"  width="82.476" height="82.476" x="-41.238" y="-41.238" transform="matrix(1 0 0 -1 -34.8672 377.8633)" overflow="visible"/>
<use xlink:href="#New_Symbol"  width="82.476" height="82.476" x="-41.238" y="-41.238" transform="matrix(1 0 0 -1 40.1328 351.8633)" overflow="visible"/>
<use xlink:href="#New_Symbol"  width="82.476" height="82.476" x="-41.238" y="-41.238" transform="matrix(1 0 0 -1 -42.3428 434.3398)" overflow="visible"/>
<use xlink:href="#New_Symbol"  width="82.476" height="82.476" x="-41.238" y="-41.238" transform="matrix(1 0 0 -1 -33.7617 202.9111)" overflow="visible"/>
<use xlink:href="#New_Symbol"  width="82.476" height="82.476" x="-41.238" y="-41.238" transform="matrix(1 0 0 -1 41.2383 176.9111)" overflow="visible"/>
<use xlink:href="#New_Symbol"  width="82.476" height="82.476" x="-41.238" y="-41.238" transform="matrix(1 0 0 -1 -41.2373 259.3877)" overflow="visible"/>
<use xlink:href="#New_Symbol"  width="82.476" height="82.476" x="-41.238" y="-41.238" transform="matrix(1 0 0 -1 391.4355 -4.0889)" overflow="visible"/>
<use xlink:href="#New_Symbol"  width="82.476" height="82.476" x="-41.238" y="-41.238" transform="matrix(1 0 0 -1 466.4355 -30.0889)" overflow="visible"/>
<use xlink:href="#New_Symbol"  width="82.476" height="82.476" x="-41.238" y="-41.238" transform="matrix(1 0 0 -1 383.96 52.3877)" overflow="visible"/>
<use xlink:href="#New_Symbol"  width="82.476" height="82.476" x="-41.238" y="-41.238" transform="matrix(1 0 0 -1 329.2734 -54.5659)" overflow="visible"/>
<use xlink:href="#New_Symbol"  width="82.476" height="82.476" x="-41.238" y="-41.238" transform="matrix(1 0 0 -1 404.2734 -80.5659)" overflow="visible"/>
<use xlink:href="#New_Symbol"  width="82.476" height="82.476" x="-41.238" y="-41.238" transform="matrix(1 0 0 -1 321.7979 1.9106)" overflow="visible"/>
<use xlink:href="#New_Symbol"  width="82.476" height="82.476" x="-41.238" y="-41.238" transform="matrix(1 0 0 -1 377.9863 182.1489)" overflow="visible"/>
<use xlink:href="#New_Symbol"  width="82.476" height="82.476" x="-41.238" y="-41.238" transform="matrix(1 0 0 -1 452.9863 156.1489)" overflow="visible"/>
<use xlink:href="#New_Symbol"  width="82.476" height="82.476" x="-41.238" y="-41.238" transform="matrix(1 0 0 -1 370.5107 238.626)" overflow="visible"/>
<g>
	
		<use xlink:href="#New_Symbol"  width="82.476" height="82.476" x="-41.238" y="-41.238" transform="matrix(1 0 0 -1 114.3706 450.1494)" overflow="visible"/>
	
		<use xlink:href="#New_Symbol"  width="82.476" height="82.476" x="-41.238" y="-41.238" transform="matrix(1 0 0 -1 189.3706 424.1494)" overflow="visible"/>
	
		<use xlink:href="#New_Symbol"  width="82.476" height="82.476" x="-41.238" y="-41.238" transform="matrix(1 0 0 -1 106.895 506.626)" overflow="visible"/>
</g>
<g>
	
		<use xlink:href="#New_Symbol"  width="82.476" height="82.476" x="-41.238" y="-41.238" transform="matrix(1 0 0 -1 350.1963 388.3398)" overflow="visible"/>
	
		<use xlink:href="#New_Symbol"  width="82.476" height="82.476" x="-41.238" y="-41.238" transform="matrix(1 0 0 -1 425.1963 362.3398)" overflow="visible"/>
	
		<use xlink:href="#New_Symbol"  width="82.476" height="82.476" x="-41.238" y="-41.238" transform="matrix(1 0 0 -1 342.7217 444.8164)" overflow="visible"/>
</g>
<g>
	
		<use xlink:href="#New_Symbol"  width="82.476" height="82.476" x="-41.238" y="-41.238" transform="matrix(1 0 0 -1 441.5098 244.1494)" overflow="visible"/>
	
		<use xlink:href="#New_Symbol"  width="82.476" height="82.476" x="-41.238" y="-41.238" transform="matrix(1 0 0 -1 516.5098 218.1489)" overflow="visible"/>
	
		<use xlink:href="#New_Symbol"  width="82.476" height="82.476" x="-41.238" y="-41.238" transform="matrix(1 0 0 -1 434.0352 300.626)" overflow="visible"/>
</g>
<g>
	
		<use xlink:href="#New_Symbol"  width="82.476" height="82.476" x="-41.238" y="-41.238" transform="matrix(1 0 0 -1 185.3213 486.3398)" overflow="visible"/>
	
		<use xlink:href="#New_Symbol"  width="82.476" height="82.476" x="-41.238" y="-41.238" transform="matrix(1 0 0 -1 260.3213 460.3389)" overflow="visible"/>
	
		<use xlink:href="#New_Symbol"  width="82.476" height="82.476" x="-41.238" y="-41.238" transform="matrix(1 0 0 -1 177.8467 542.8164)" overflow="visible"/>
</g>
<g>
	
		<use xlink:href="#New_Symbol"  width="82.476" height="82.476" x="-41.238" y="-41.238" transform="matrix(1 0 0 -1 242.7969 -69.8032)" overflow="visible"/>
	
		<use xlink:href="#New_Symbol"  width="82.476" height="82.476" x="-41.238" y="-41.238" transform="matrix(1 0 0 -1 317.7969 -95.8042)" overflow="visible"/>
	
		<use xlink:href="#New_Symbol"  width="82.476" height="82.476" x="-41.238" y="-41.238" transform="matrix(1 0 0 -1 235.3223 -13.3267)" overflow="visible"/>
</g>
<g>
	
		<use xlink:href="#New_Symbol"  width="82.476" height="82.476" x="-41.238" y="-41.238" transform="matrix(1 0 0 -1 -9.3433 12.6743)" overflow="visible"/>
	
		<use xlink:href="#New_Symbol"  width="82.476" height="82.476" x="-41.238" y="-41.238" transform="matrix(1 0 0 -1 65.6567 -13.3267)" overflow="visible"/>
	
		<use xlink:href="#New_Symbol"  width="82.476" height="82.476" x="-41.238" y="-41.238" transform="matrix(1 0 0 -1 -16.8179 69.1509)" overflow="visible"/>
</g>
<g>
	
		<use xlink:href="#New_Symbol"  width="82.476" height="82.476" x="-41.238" y="-41.238" transform="matrix(1 0 0 -1 151.5591 -86.5649)" overflow="visible"/>
	
		<use xlink:href="#New_Symbol"  width="82.476" height="82.476" x="-41.238" y="-41.238" transform="matrix(1 0 0 -1 226.5596 -112.5659)" overflow="visible"/>
	
		<use xlink:href="#New_Symbol"  width="82.476" height="82.476" x="-41.238" y="-41.238" transform="matrix(1 0 0 -1 144.0845 -30.0884)" overflow="visible"/>
</g>
<g>
	
		<use xlink:href="#New_Symbol"  width="82.476" height="82.476" x="-41.238" y="-41.238" transform="matrix(1 0 0 -1 -109.8677 171.6255)" overflow="visible"/>
	
		<use xlink:href="#New_Symbol"  width="82.476" height="82.476" x="-41.238" y="-41.238" transform="matrix(1 0 0 -1 -34.8672 145.6245)" overflow="visible"/>
	
		<use xlink:href="#New_Symbol"  width="82.476" height="82.476" x="-41.238" y="-41.238" transform="matrix(1 0 0 -1 -117.3423 228.1025)" overflow="visible"/>
</g>
<use xlink:href="#New_Symbol"  width="82.476" height="82.476" x="-41.238" y="-41.238" transform="matrix(1 0 0 -1 54.1328 223.3867)" overflow="visible"/>
<use xlink:href="#New_Symbol"  width="82.476" height="82.476" x="-41.238" y="-41.238" transform="matrix(1 0 0 -1 129.1328 197.3867)" overflow="visible"/>
<use xlink:href="#New_Symbol"  width="82.476" height="82.476" x="-41.238" y="-41.238" transform="matrix(1 0 0 -1 46.6572 279.8633)" overflow="visible"/>
<use xlink:href="#New_Symbol"  width="82.476" height="82.476" x="-41.238" y="-41.238" transform="matrix(1 0 0 -1 219.084 110.3867)" overflow="visible"/>
<use xlink:href="#New_Symbol"  width="82.476" height="82.476" x="-41.238" y="-41.238" transform="matrix(1 0 0 -1 294.084 84.3867)" overflow="visible"/>
<use xlink:href="#New_Symbol"  width="82.476" height="82.476" x="-41.238" y="-41.238" transform="matrix(1 0 0 -1 211.6084 166.8633)" overflow="visible"/>
<use xlink:href="#New_Symbol"  width="82.476" height="82.476" x="-41.238" y="-41.238" transform="matrix(1 0 0 -1 130.084 264.625)" overflow="visible"/>
<use xlink:href="#New_Symbol"  width="82.476" height="82.476" x="-41.238" y="-41.238" transform="matrix(1 0 0 -1 205.084 238.625)" overflow="visible"/>
<use xlink:href="#New_Symbol"  width="82.476" height="82.476" x="-41.238" y="-41.238" transform="matrix(1 0 0 -1 122.6084 321.1016)" overflow="visible"/>
<use xlink:href="#New_Symbol"  width="82.476" height="82.476" x="-41.238" y="-41.238" transform="matrix(1 0 0 -1 301.5596 145.625)" overflow="visible"/>
<use xlink:href="#New_Symbol"  width="82.476" height="82.476" x="-41.238" y="-41.238" transform="matrix(1 0 0 -1 376.5596 119.625)" overflow="visible"/>
<use xlink:href="#New_Symbol"  width="82.476" height="82.476" x="-41.238" y="-41.238" transform="matrix(1 0 0 -1 294.084 202.1016)" overflow="visible"/>
<use xlink:href="#New_Symbol"  width="82.476" height="82.476" x="-41.238" y="-41.238" transform="matrix(1 0 0 -1 205.5596 300.625)" overflow="visible"/>
<use xlink:href="#New_Symbol"  width="82.476" height="82.476" x="-41.238" y="-41.238" transform="matrix(1 0 0 -1 280.5596 274.625)" overflow="visible"/>
<use xlink:href="#New_Symbol"  width="82.476" height="82.476" x="-41.238" y="-41.238" transform="matrix(1 0 0 -1 198.084 357.1016)" overflow="visible"/>
<use xlink:href="#New_Symbol"  width="82.476" height="82.476" x="-41.238" y="-41.238" transform="matrix(1 0 0 -1 276.5596 336.625)" overflow="visible"/>
<use xlink:href="#New_Symbol"  width="82.476" height="82.476" x="-41.238" y="-41.238" transform="matrix(1 0 0 -1 351.5596 310.625)" overflow="visible"/>
<use xlink:href="#New_Symbol"  width="82.476" height="82.476" x="-41.238" y="-41.238" transform="matrix(1 0 0 -1 269.084 393.1016)" overflow="visible"/>
</svg>
